solid OpenSCAD_Model
  facet normal -1.22465e-16 -1 2.22045e-16
    outer loop
      vertex 2 -6 16.2
      vertex 2 -6 12
      vertex 7.96667 -6 12
    endloop
  endfacet
  facet normal -1.22465e-16 -1 2.22045e-16
    outer loop
      vertex 7.96667 -6 16.2
      vertex 2 -6 16.2
      vertex 7.96667 -6 12
    endloop
  endfacet
  facet normal -1.21417e-16 -0.991445 -0.130525
    outer loop
      vertex 7.96667 -6 12
      vertex 2 -6 12
      vertex 2 -5.89778 11.2235
    endloop
  endfacet
  facet normal -1.21417e-16 -0.991445 -0.130525
    outer loop
      vertex 7.96667 -5.89778 11.2235
      vertex 7.96667 -6 12
      vertex 2 -5.89778 11.2235
    endloop
  endfacet
  facet normal -1 3.06162e-17 -6.79816e-33
    outer loop
      vertex 2 -6 12
      vertex 2 -6 16.2
      vertex 2 -5.89778 11.2235
    endloop
  endfacet
  facet normal -1 3.06162e-17 -6.79816e-33
    outer loop
      vertex 2 -5.89778 11.2235
      vertex 2 -6 16.2
      vertex 2 -1.28786e-15 16.2
    endloop
  endfacet
  facet normal -1 3.06162e-17 -6.79816e-33
    outer loop
      vertex 2 -5.89778 11.2235
      vertex 2 -1.28786e-15 16.2
      vertex 2 -2.22045e-15 12
    endloop
  endfacet
  facet normal -1 3.06162e-17 -6.79816e-33
    outer loop
      vertex 2 -5.89778 11.2235
      vertex 2 -2.22045e-15 12
      vertex 2 -0.102222 11.2235
    endloop
  endfacet
  facet normal -1 3.06162e-17 -6.79816e-33
    outer loop
      vertex 2 -5.89778 11.2235
      vertex 2 -0.102222 11.2235
      vertex 2 -0.401924 10.5
    endloop
  endfacet
  facet normal -1 3.06162e-17 -6.79816e-33
    outer loop
      vertex 2 -5.89778 11.2235
      vertex 2 -0.401924 10.5
      vertex 2 -0.87868 9.87868
    endloop
  endfacet
  facet normal -1 3.06162e-17 -6.79816e-33
    outer loop
      vertex 2 -5.89778 11.2235
      vertex 2 -0.87868 9.87868
      vertex 2 -1.5 9.40192
    endloop
  endfacet
  facet normal -1 3.06162e-17 -6.79816e-33
    outer loop
      vertex 2 -5.89778 11.2235
      vertex 2 -1.5 9.40192
      vertex 2 -2.22354 9.10222
    endloop
  endfacet
  facet normal -1 3.06162e-17 -6.79816e-33
    outer loop
      vertex 2 -5.89778 11.2235
      vertex 2 -2.22354 9.10222
      vertex 2 -3 9
    endloop
  endfacet
  facet normal -1 3.06162e-17 -6.79816e-33
    outer loop
      vertex 2 -5.89778 11.2235
      vertex 2 -3 9
      vertex 2 -3.77646 9.10222
    endloop
  endfacet
  facet normal -1 3.06162e-17 -6.79816e-33
    outer loop
      vertex 2 -5.89778 11.2235
      vertex 2 -3.77646 9.10222
      vertex 2 -4.5 9.40192
    endloop
  endfacet
  facet normal -1 3.06162e-17 -6.79816e-33
    outer loop
      vertex 2 -5.89778 11.2235
      vertex 2 -4.5 9.40192
      vertex 2 -5.12132 9.87868
    endloop
  endfacet
  facet normal -1 3.06162e-17 -6.79816e-33
    outer loop
      vertex 2 -5.89778 11.2235
      vertex 2 -5.12132 9.87868
      vertex 2 -5.59808 10.5
    endloop
  endfacet
  facet normal 1 -3.06162e-17 6.79816e-33
    outer loop
      vertex 7.96667 -5.98667 12
      vertex 7.96667 -6 12
      vertex 7.96667 -5.89778 11.2235
    endloop
  endfacet
  facet normal 1 -3.06162e-17 6.79816e-33
    outer loop
      vertex 7.96667 -5.8849 12.773
      vertex 7.96667 -5.58653 13.4933
      vertex 7.96667 -6 16.2
    endloop
  endfacet
  facet normal 1 -3.06162e-17 6.79816e-33
    outer loop
      vertex 7.96667 -5.98667 12
      vertex 7.96667 -5.8849 12.773
      vertex 7.96667 -6 16.2
    endloop
  endfacet
  facet normal 1 -3.06162e-17 6.79816e-33
    outer loop
      vertex 7.96667 -4.49333 9.41347
      vertex 7.96667 -5.11189 9.88811
      vertex 7.96667 -4.5 9.40192
    endloop
  endfacet
  facet normal 1 -3.06162e-17 6.79816e-33
    outer loop
      vertex 7.96667 -1.50667 9.41347
      vertex 7.96667 -2.22699 9.1151
      vertex 7.96667 -1.5 9.40192
    endloop
  endfacet
  facet normal 1 -3.06162e-17 6.79816e-33
    outer loop
      vertex 7.96667 -2.22699 9.1151
      vertex 7.96667 -3 9.01333
      vertex 7.96667 -2.22354 9.10222
    endloop
  endfacet
  facet normal 1 -3.06162e-17 6.79816e-33
    outer loop
      vertex 7.96667 -5.59808 10.5
      vertex 7.96667 -5.8849 11.227
      vertex 7.96667 -5.89778 11.2235
    endloop
  endfacet
  facet normal 1 -3.06162e-17 6.79816e-33
    outer loop
      vertex 7.96667 -6 16.2
      vertex 7.96667 -6 12
      vertex 7.96667 -5.98667 12
    endloop
  endfacet
  facet normal 1 -3.06162e-17 6.79816e-33
    outer loop
      vertex 7.96667 -5.8849 11.227
      vertex 7.96667 -5.98667 12
      vertex 7.96667 -5.89778 11.2235
    endloop
  endfacet
  facet normal 1 -3.06162e-17 6.79816e-33
    outer loop
      vertex 7.96667 -3 9.01333
      vertex 7.96667 -3.77301 9.1151
      vertex 7.96667 -3 9
    endloop
  endfacet
  facet normal 1 -3.06162e-17 6.79816e-33
    outer loop
      vertex 7.96667 -3.77301 9.1151
      vertex 7.96667 -4.49333 9.41347
      vertex 7.96667 -3.77646 9.10222
    endloop
  endfacet
  facet normal 1 -3.06162e-17 6.79816e-33
    outer loop
      vertex 7.96667 -4.49333 14.5865
      vertex 7.96667 -3.77301 14.8849
      vertex 7.96667 -6 16.2
    endloop
  endfacet
  facet normal 1 -3.06162e-17 6.79816e-33
    outer loop
      vertex 7.96667 -0.115101 12.773
      vertex 7.96667 -0.0133329 12
      vertex 7.96667 -2.95115e-15 12
    endloop
  endfacet
  facet normal 1 -3.06162e-17 6.79816e-33
    outer loop
      vertex 7.96667 -0.0133329 12
      vertex 7.96667 -0.115101 11.227
      vertex 7.96667 -0.102222 11.2235
    endloop
  endfacet
  facet normal 1 -3.06162e-17 6.79816e-33
    outer loop
      vertex 7.96667 -2.01856e-15 16.2
      vertex 7.96667 -6 16.2
      vertex 7.96667 -3.77301 14.8849
    endloop
  endfacet
  facet normal 1 -3.06162e-17 6.79816e-33
    outer loop
      vertex 7.96667 -0.115101 11.227
      vertex 7.96667 -0.413471 10.5067
      vertex 7.96667 -0.401924 10.5
    endloop
  endfacet
  facet normal 1 -3.06162e-17 6.79816e-33
    outer loop
      vertex 7.96667 -2.01856e-15 16.2
      vertex 7.96667 -3.77301 14.8849
      vertex 7.96667 -3 14.9867
    endloop
  endfacet
  facet normal 1 -3.06162e-17 6.79816e-33
    outer loop
      vertex 7.96667 -2.01856e-15 16.2
      vertex 7.96667 -3 14.9867
      vertex 7.96667 -2.22699 14.8849
    endloop
  endfacet
  facet normal 1 -3.06162e-17 6.79816e-33
    outer loop
      vertex 7.96667 -2.01856e-15 16.2
      vertex 7.96667 -2.22699 14.8849
      vertex 7.96667 -1.50667 14.5865
    endloop
  endfacet
  facet normal 1 -3.06162e-17 6.79816e-33
    outer loop
      vertex 7.96667 -2.01856e-15 16.2
      vertex 7.96667 -1.50667 14.5865
      vertex 7.96667 -0.888108 14.1119
    endloop
  endfacet
  facet normal 1 -3.06162e-17 6.79816e-33
    outer loop
      vertex 7.96667 -2.01856e-15 16.2
      vertex 7.96667 -0.888108 14.1119
      vertex 7.96667 -0.413471 13.4933
    endloop
  endfacet
  facet normal 1 -3.06162e-17 6.79816e-33
    outer loop
      vertex 7.96667 -2.01856e-15 16.2
      vertex 7.96667 -0.115101 12.773
      vertex 7.96667 -2.95115e-15 12
    endloop
  endfacet
  facet normal 1 -3.06162e-17 6.79816e-33
    outer loop
      vertex 7.96667 -2.01856e-15 16.2
      vertex 7.96667 -0.413471 13.4933
      vertex 7.96667 -0.115101 12.773
    endloop
  endfacet
  facet normal 1 -3.06162e-17 6.79816e-33
    outer loop
      vertex 7.96667 -2.95115e-15 12
      vertex 7.96667 -0.0133329 12
      vertex 7.96667 -0.102222 11.2235
    endloop
  endfacet
  facet normal 1 -3.06162e-17 6.79816e-33
    outer loop
      vertex 7.96667 -0.102222 11.2235
      vertex 7.96667 -0.115101 11.227
      vertex 7.96667 -0.401924 10.5
    endloop
  endfacet
  facet normal 1 -3.06162e-17 6.79816e-33
    outer loop
      vertex 7.96667 -0.401924 10.5
      vertex 7.96667 -0.413471 10.5067
      vertex 7.96667 -0.87868 9.87868
    endloop
  endfacet
  facet normal 1 -3.06162e-17 6.79816e-33
    outer loop
      vertex 7.96667 -0.87868 9.87868
      vertex 7.96667 -0.888108 9.88811
      vertex 7.96667 -1.5 9.40192
    endloop
  endfacet
  facet normal 1 -3.06162e-17 6.79816e-33
    outer loop
      vertex 7.96667 -0.888108 9.88811
      vertex 7.96667 -1.50667 9.41347
      vertex 7.96667 -1.5 9.40192
    endloop
  endfacet
  facet normal 1 -3.06162e-17 6.79816e-33
    outer loop
      vertex 7.96667 -1.5 9.40192
      vertex 7.96667 -2.22699 9.1151
      vertex 7.96667 -2.22354 9.10222
    endloop
  endfacet
  facet normal 1 -3.06162e-17 6.79816e-33
    outer loop
      vertex 7.96667 -0.413471 10.5067
      vertex 7.96667 -0.888108 9.88811
      vertex 7.96667 -0.87868 9.87868
    endloop
  endfacet
  facet normal 1 -3.06162e-17 6.79816e-33
    outer loop
      vertex 7.96667 -2.22354 9.10222
      vertex 7.96667 -3 9.01333
      vertex 7.96667 -3 9
    endloop
  endfacet
  facet normal 1 -3.06162e-17 6.79816e-33
    outer loop
      vertex 7.96667 -3 9
      vertex 7.96667 -3.77301 9.1151
      vertex 7.96667 -3.77646 9.10222
    endloop
  endfacet
  facet normal 1 -3.06162e-17 6.79816e-33
    outer loop
      vertex 7.96667 -3.77646 9.10222
      vertex 7.96667 -4.49333 9.41347
      vertex 7.96667 -4.5 9.40192
    endloop
  endfacet
  facet normal 1 -3.06162e-17 6.79816e-33
    outer loop
      vertex 7.96667 -4.5 9.40192
      vertex 7.96667 -5.11189 9.88811
      vertex 7.96667 -5.12132 9.87868
    endloop
  endfacet
  facet normal 1 -3.06162e-17 6.79816e-33
    outer loop
      vertex 7.96667 -5.12132 9.87868
      vertex 7.96667 -5.58653 10.5067
      vertex 7.96667 -5.59808 10.5
    endloop
  endfacet
  facet normal 1 -3.06162e-17 6.79816e-33
    outer loop
      vertex 7.96667 -5.58653 10.5067
      vertex 7.96667 -5.8849 11.227
      vertex 7.96667 -5.59808 10.5
    endloop
  endfacet
  facet normal 1 -3.06162e-17 6.79816e-33
    outer loop
      vertex 7.96667 -5.11189 9.88811
      vertex 7.96667 -5.58653 10.5067
      vertex 7.96667 -5.12132 9.87868
    endloop
  endfacet
  facet normal 1 -3.06162e-17 6.79816e-33
    outer loop
      vertex 7.96667 -5.58653 13.4933
      vertex 7.96667 -5.11189 14.1119
      vertex 7.96667 -6 16.2
    endloop
  endfacet
  facet normal 1 -3.06162e-17 6.79816e-33
    outer loop
      vertex 7.96667 -5.11189 14.1119
      vertex 7.96667 -4.49333 14.5865
      vertex 7.96667 -6 16.2
    endloop
  endfacet
  facet normal -1.13143e-16 -0.923879 -0.382685
    outer loop
      vertex 7.96667 -5.89778 11.2235
      vertex 2 -5.89778 11.2235
      vertex 2 -5.59808 10.5
    endloop
  endfacet
  facet normal -1.13143e-16 -0.923879 -0.382685
    outer loop
      vertex 7.96667 -5.59808 10.5
      vertex 7.96667 -5.89778 11.2235
      vertex 2 -5.59808 10.5
    endloop
  endfacet
  facet normal -9.71577e-17 -0.793353 -0.608762
    outer loop
      vertex 7.96667 -5.59808 10.5
      vertex 2 -5.59808 10.5
      vertex 2 -5.12132 9.87868
    endloop
  endfacet
  facet normal -9.71577e-17 -0.793353 -0.608762
    outer loop
      vertex 7.96667 -5.12132 9.87868
      vertex 7.96667 -5.59808 10.5
      vertex 2 -5.12132 9.87868
    endloop
  endfacet
  facet normal -7.45518e-17 -0.608762 -0.793353
    outer loop
      vertex 2 -5.12132 9.87868
      vertex 2 -4.5 9.40192
      vertex 7.96667 -5.12132 9.87868
    endloop
  endfacet
  facet normal -7.45518e-17 -0.608762 -0.793353
    outer loop
      vertex 7.96667 -5.12132 9.87868
      vertex 2 -4.5 9.40192
      vertex 7.96667 -4.5 9.40192
    endloop
  endfacet
  facet normal -4.68653e-17 -0.382685 -0.923879
    outer loop
      vertex 2 -4.5 9.40192
      vertex 2 -3.77646 9.10222
      vertex 7.96667 -4.5 9.40192
    endloop
  endfacet
  facet normal -4.68653e-17 -0.382685 -0.923879
    outer loop
      vertex 7.96667 -4.5 9.40192
      vertex 2 -3.77646 9.10222
      vertex 7.96667 -3.77646 9.10222
    endloop
  endfacet
  facet normal -1.59848e-17 -0.130525 -0.991445
    outer loop
      vertex 2 -3.77646 9.10222
      vertex 2 -3 9
      vertex 7.96667 -3.77646 9.10222
    endloop
  endfacet
  facet normal -1.59848e-17 -0.130525 -0.991445
    outer loop
      vertex 7.96667 -3.77646 9.10222
      vertex 2 -3 9
      vertex 7.96667 -3 9
    endloop
  endfacet
  facet normal 1.59848e-17 0.130525 -0.991445
    outer loop
      vertex 2 -3 9
      vertex 2 -2.22354 9.10222
      vertex 7.96667 -3 9
    endloop
  endfacet
  facet normal 1.59848e-17 0.130525 -0.991445
    outer loop
      vertex 7.96667 -3 9
      vertex 2 -2.22354 9.10222
      vertex 7.96667 -2.22354 9.10222
    endloop
  endfacet
  facet normal 4.68653e-17 0.382685 -0.923879
    outer loop
      vertex 2 -2.22354 9.10222
      vertex 2 -1.5 9.40192
      vertex 7.96667 -2.22354 9.10222
    endloop
  endfacet
  facet normal 4.68653e-17 0.382685 -0.923879
    outer loop
      vertex 7.96667 -2.22354 9.10222
      vertex 2 -1.5 9.40192
      vertex 7.96667 -1.5 9.40192
    endloop
  endfacet
  facet normal 7.45518e-17 0.608762 -0.793353
    outer loop
      vertex 2 -1.5 9.40192
      vertex 2 -0.87868 9.87868
      vertex 7.96667 -1.5 9.40192
    endloop
  endfacet
  facet normal 7.45518e-17 0.608762 -0.793353
    outer loop
      vertex 7.96667 -1.5 9.40192
      vertex 2 -0.87868 9.87868
      vertex 7.96667 -0.87868 9.87868
    endloop
  endfacet
  facet normal 9.71577e-17 0.793353 -0.608762
    outer loop
      vertex 2 -0.87868 9.87868
      vertex 2 -0.401924 10.5
      vertex 7.96667 -0.87868 9.87868
    endloop
  endfacet
  facet normal 9.71577e-17 0.793353 -0.608762
    outer loop
      vertex 7.96667 -0.87868 9.87868
      vertex 2 -0.401924 10.5
      vertex 7.96667 -0.401924 10.5
    endloop
  endfacet
  facet normal 1.13143e-16 0.923879 -0.382685
    outer loop
      vertex 2 -0.401924 10.5
      vertex 2 -0.102222 11.2235
      vertex 7.96667 -0.401924 10.5
    endloop
  endfacet
  facet normal 1.13143e-16 0.923879 -0.382685
    outer loop
      vertex 7.96667 -0.401924 10.5
      vertex 2 -0.102222 11.2235
      vertex 7.96667 -0.102222 11.2235
    endloop
  endfacet
  facet normal 1.21417e-16 0.991445 -0.130525
    outer loop
      vertex 2 -0.102222 11.2235
      vertex 2 -2.22045e-15 12
      vertex 7.96667 -0.102222 11.2235
    endloop
  endfacet
  facet normal 1.21417e-16 0.991445 -0.130525
    outer loop
      vertex 7.96667 -0.102222 11.2235
      vertex 2 -2.22045e-15 12
      vertex 7.96667 -2.95115e-15 12
    endloop
  endfacet
  facet normal 1.22465e-16 1 -2.22045e-16
    outer loop
      vertex 2 -2.22045e-15 12
      vertex 2 -1.28786e-15 16.2
      vertex 7.96667 -2.95115e-15 12
    endloop
  endfacet
  facet normal 1.22465e-16 1 -2.22045e-16
    outer loop
      vertex 7.96667 -2.95115e-15 12
      vertex 2 -1.28786e-15 16.2
      vertex 7.96667 -2.01856e-15 16.2
    endloop
  endfacet
  facet normal 0 -2.22045e-16 -1
    outer loop
      vertex 22 -3.73715e-15 16.2
      vertex 16.0333 -3.00645e-15 16.2
      vertex 22 -1.28786e-15 16.2
    endloop
  endfacet
  facet normal 0 -2.22045e-16 -1
    outer loop
      vertex 7.96667 -6 16.2
      vertex 16.0333 -3.00645e-15 16.2
      vertex 16.0333 -6 16.2
    endloop
  endfacet
  facet normal 0 -2.22045e-16 -1
    outer loop
      vertex 7.96667 -2.01856e-15 16.2
      vertex 16.0333 -3.00645e-15 16.2
      vertex 7.96667 -6 16.2
    endloop
  endfacet
  facet normal 0 -2.22045e-16 -1
    outer loop
      vertex 22 -1.28786e-15 16.2
      vertex 16.0333 -3.00645e-15 16.2
      vertex 7.96667 -2.01856e-15 16.2
    endloop
  endfacet
  facet normal 0 -2.22045e-16 -1
    outer loop
      vertex 22 -1.28786e-15 16.2
      vertex 7.96667 -2.01856e-15 16.2
      vertex 2 -1.28786e-15 16.2
    endloop
  endfacet
  facet normal 0 1 -2.22045e-16
    outer loop
      vertex 2 -1.28786e-15 16.2
      vertex 2 4.88498e-16 24.2
      vertex 22 -1.28786e-15 16.2
    endloop
  endfacet
  facet normal 0 1 -2.22045e-16
    outer loop
      vertex 22 -1.28786e-15 16.2
      vertex 2 4.88498e-16 24.2
      vertex 22 4.88498e-16 24.2
    endloop
  endfacet
  facet normal -1 0 0
    outer loop
      vertex 2 -6 16.2
      vertex 2 -6 24.2
      vertex 2 -1.28786e-15 16.2
    endloop
  endfacet
  facet normal -1 0 0
    outer loop
      vertex 2 -1.28786e-15 16.2
      vertex 2 -6 24.2
      vertex 2 4.88498e-16 24.2
    endloop
  endfacet
  facet normal 0 -1 2.22045e-16
    outer loop
      vertex 2 -6 24.2
      vertex 2 -6 16.2
      vertex 7.96667 -6 16.2
    endloop
  endfacet
  facet normal 0 -1 2.22045e-16
    outer loop
      vertex 22 -6 16.2
      vertex 2 -6 24.2
      vertex 16.0333 -6 16.2
    endloop
  endfacet
  facet normal 0 -1 2.22045e-16
    outer loop
      vertex 16.0333 -6 16.2
      vertex 2 -6 24.2
      vertex 7.96667 -6 16.2
    endloop
  endfacet
  facet normal 0 -1 2.22045e-16
    outer loop
      vertex 22 -6 24.2
      vertex 2 -6 24.2
      vertex 22 -6 16.2
    endloop
  endfacet
  facet normal 0.797516 0.557374 0.230873
    outer loop
      vertex 7.96667 -5.8849 11.227
      vertex 7.96667 -5.58653 10.5067
      vertex 5.72667 -3 12
    endloop
  endfacet
  facet normal 0.797516 0.598137 0.0787457
    outer loop
      vertex 7.96667 -5.98667 12
      vertex 7.96667 -5.8849 11.227
      vertex 5.72667 -3 12
    endloop
  endfacet
  facet normal 0.797516 0.478628 0.367265
    outer loop
      vertex 7.96667 -5.58653 10.5067
      vertex 7.96667 -5.11189 9.88811
      vertex 5.72667 -3 12
    endloop
  endfacet
  facet normal 0.797516 0.367265 0.478628
    outer loop
      vertex 7.96667 -5.11189 9.88811
      vertex 7.96667 -4.49333 9.41347
      vertex 5.72667 -3 12
    endloop
  endfacet
  facet normal 0.797516 0.230873 0.557374
    outer loop
      vertex 7.96667 -4.49333 9.41347
      vertex 7.96667 -3.77301 9.1151
      vertex 5.72667 -3 12
    endloop
  endfacet
  facet normal 0.797516 0.0787457 0.598137
    outer loop
      vertex 7.96667 -3.77301 9.1151
      vertex 7.96667 -3 9.01333
      vertex 5.72667 -3 12
    endloop
  endfacet
  facet normal 0.797516 -0.0787457 0.598137
    outer loop
      vertex 7.96667 -3 9.01333
      vertex 7.96667 -2.22699 9.1151
      vertex 5.72667 -3 12
    endloop
  endfacet
  facet normal 0.797516 -0.230873 0.557374
    outer loop
      vertex 7.96667 -2.22699 9.1151
      vertex 7.96667 -1.50667 9.41347
      vertex 5.72667 -3 12
    endloop
  endfacet
  facet normal 0.797516 -0.367265 0.478628
    outer loop
      vertex 7.96667 -1.50667 9.41347
      vertex 7.96667 -0.888108 9.88811
      vertex 5.72667 -3 12
    endloop
  endfacet
  facet normal 0.797516 -0.478628 0.367265
    outer loop
      vertex 7.96667 -0.888108 9.88811
      vertex 7.96667 -0.413471 10.5067
      vertex 5.72667 -3 12
    endloop
  endfacet
  facet normal 0.797516 -0.557374 0.230873
    outer loop
      vertex 7.96667 -0.413471 10.5067
      vertex 7.96667 -0.115101 11.227
      vertex 5.72667 -3 12
    endloop
  endfacet
  facet normal 0.797516 -0.598137 0.0787457
    outer loop
      vertex 7.96667 -0.115101 11.227
      vertex 7.96667 -0.0133329 12
      vertex 5.72667 -3 12
    endloop
  endfacet
  facet normal 0.797516 -0.598137 -0.0787457
    outer loop
      vertex 7.96667 -0.0133329 12
      vertex 7.96667 -0.115101 12.773
      vertex 5.72667 -3 12
    endloop
  endfacet
  facet normal 0.797516 -0.557374 -0.230873
    outer loop
      vertex 7.96667 -0.115101 12.773
      vertex 7.96667 -0.413471 13.4933
      vertex 5.72667 -3 12
    endloop
  endfacet
  facet normal 0.797516 -0.478628 -0.367265
    outer loop
      vertex 7.96667 -0.413471 13.4933
      vertex 7.96667 -0.888108 14.1119
      vertex 5.72667 -3 12
    endloop
  endfacet
  facet normal 0.797516 -0.367265 -0.478628
    outer loop
      vertex 7.96667 -0.888108 14.1119
      vertex 7.96667 -1.50667 14.5865
      vertex 5.72667 -3 12
    endloop
  endfacet
  facet normal 0.797516 -0.230873 -0.557374
    outer loop
      vertex 7.96667 -1.50667 14.5865
      vertex 7.96667 -2.22699 14.8849
      vertex 5.72667 -3 12
    endloop
  endfacet
  facet normal 0.797516 -0.0787457 -0.598137
    outer loop
      vertex 7.96667 -2.22699 14.8849
      vertex 7.96667 -3 14.9867
      vertex 5.72667 -3 12
    endloop
  endfacet
  facet normal 0.797516 0.0787457 -0.598137
    outer loop
      vertex 7.96667 -3 14.9867
      vertex 7.96667 -3.77301 14.8849
      vertex 5.72667 -3 12
    endloop
  endfacet
  facet normal 0.797516 0.230873 -0.557374
    outer loop
      vertex 7.96667 -3.77301 14.8849
      vertex 7.96667 -4.49333 14.5865
      vertex 5.72667 -3 12
    endloop
  endfacet
  facet normal 0.797516 0.367265 -0.478628
    outer loop
      vertex 7.96667 -4.49333 14.5865
      vertex 7.96667 -5.11189 14.1119
      vertex 5.72667 -3 12
    endloop
  endfacet
  facet normal 0.797516 0.478628 -0.367265
    outer loop
      vertex 7.96667 -5.11189 14.1119
      vertex 7.96667 -5.58653 13.4933
      vertex 5.72667 -3 12
    endloop
  endfacet
  facet normal 0.797516 0.557374 -0.230873
    outer loop
      vertex 7.96667 -5.58653 13.4933
      vertex 7.96667 -5.8849 12.773
      vertex 5.72667 -3 12
    endloop
  endfacet
  facet normal 0.797516 0.598137 -0.0787457
    outer loop
      vertex 7.96667 -5.8849 12.773
      vertex 7.96667 -5.98667 12
      vertex 5.72667 -3 12
    endloop
  endfacet
  facet normal 1 0 0
    outer loop
      vertex 22 -6 24.2
      vertex 22 -6 16.2
      vertex 22 -3.73715e-15 16.2
    endloop
  endfacet
  facet normal 1 0 0
    outer loop
      vertex 22 4.88498e-16 24.2
      vertex 22 -6 24.2
      vertex 22 -1.28786e-15 16.2
    endloop
  endfacet
  facet normal 1 0 0
    outer loop
      vertex 22 -1.28786e-15 16.2
      vertex 22 -6 24.2
      vertex 22 -3.73715e-15 16.2
    endloop
  endfacet
  facet normal -1 3.06162e-17 -6.79816e-33
    outer loop
      vertex 16.0333 -5.8849 11.227
      vertex 16.0333 -5.89778 11.2235
      vertex 16.0333 -5.98667 12
    endloop
  endfacet
  facet normal -1 3.06162e-17 -6.79816e-33
    outer loop
      vertex 16.0333 -2.22699 14.8849
      vertex 16.0333 -6 16.2
      vertex 16.0333 -3.00645e-15 16.2
    endloop
  endfacet
  facet normal -1 3.06162e-17 -6.79816e-33
    outer loop
      vertex 16.0333 -0.0133333 12
      vertex 16.0333 -3.00645e-15 16.2
      vertex 16.0333 -3.93903e-15 12
    endloop
  endfacet
  facet normal -1 3.06162e-17 -6.79816e-33
    outer loop
      vertex 16.0333 -0.115101 11.227
      vertex 16.0333 -3.93903e-15 12
      vertex 16.0333 -0.102222 11.2235
    endloop
  endfacet
  facet normal -1 3.06162e-17 -6.79816e-33
    outer loop
      vertex 16.0333 -0.413471 10.5067
      vertex 16.0333 -0.102222 11.2235
      vertex 16.0333 -0.401924 10.5
    endloop
  endfacet
  facet normal -1 3.06162e-17 -6.79816e-33
    outer loop
      vertex 16.0333 -0.888108 9.88811
      vertex 16.0333 -0.401924 10.5
      vertex 16.0333 -0.87868 9.87868
    endloop
  endfacet
  facet normal -1 3.06162e-17 -6.79816e-33
    outer loop
      vertex 16.0333 -1.50667 9.41347
      vertex 16.0333 -0.87868 9.87868
      vertex 16.0333 -1.5 9.40192
    endloop
  endfacet
  facet normal -1 3.06162e-17 -6.79816e-33
    outer loop
      vertex 16.0333 -2.22699 9.1151
      vertex 16.0333 -1.5 9.40192
      vertex 16.0333 -2.22354 9.10222
    endloop
  endfacet
  facet normal -1 3.06162e-17 -6.79816e-33
    outer loop
      vertex 16.0333 -3 9.01333
      vertex 16.0333 -2.22354 9.10222
      vertex 16.0333 -3 9
    endloop
  endfacet
  facet normal -1 3.06162e-17 -6.79816e-33
    outer loop
      vertex 16.0333 -3.77301 9.1151
      vertex 16.0333 -3 9
      vertex 16.0333 -3.77646 9.10222
    endloop
  endfacet
  facet normal -1 3.06162e-17 -6.79816e-33
    outer loop
      vertex 16.0333 -4.49333 9.41347
      vertex 16.0333 -3.77646 9.10222
      vertex 16.0333 -4.5 9.40192
    endloop
  endfacet
  facet normal -1 3.06162e-17 -6.79816e-33
    outer loop
      vertex 16.0333 -5.11189 9.88811
      vertex 16.0333 -4.5 9.40192
      vertex 16.0333 -5.12132 9.87868
    endloop
  endfacet
  facet normal -1 3.06162e-17 -6.79816e-33
    outer loop
      vertex 16.0333 -5.58653 10.5067
      vertex 16.0333 -5.12132 9.87868
      vertex 16.0333 -5.59808 10.5
    endloop
  endfacet
  facet normal -1 3.06162e-17 -6.79816e-33
    outer loop
      vertex 16.0333 -6 12
      vertex 16.0333 -6 16.2
      vertex 16.0333 -5.98667 12
    endloop
  endfacet
  facet normal -1 3.06162e-17 -6.79816e-33
    outer loop
      vertex 16.0333 -6 12
      vertex 16.0333 -5.98667 12
      vertex 16.0333 -5.89778 11.2235
    endloop
  endfacet
  facet normal -1 3.06162e-17 -6.79816e-33
    outer loop
      vertex 16.0333 -5.58653 10.5067
      vertex 16.0333 -5.89778 11.2235
      vertex 16.0333 -5.8849 11.227
    endloop
  endfacet
  facet normal -1 3.06162e-17 -6.79816e-33
    outer loop
      vertex 16.0333 -5.11189 9.88811
      vertex 16.0333 -5.12132 9.87868
      vertex 16.0333 -5.58653 10.5067
    endloop
  endfacet
  facet normal -1 3.06162e-17 -6.79816e-33
    outer loop
      vertex 16.0333 -5.89778 11.2235
      vertex 16.0333 -5.58653 10.5067
      vertex 16.0333 -5.59808 10.5
    endloop
  endfacet
  facet normal -1 3.06162e-17 -6.79816e-33
    outer loop
      vertex 16.0333 -0.115101 12.773
      vertex 16.0333 -3.00645e-15 16.2
      vertex 16.0333 -0.0133333 12
    endloop
  endfacet
  facet normal -1 3.06162e-17 -6.79816e-33
    outer loop
      vertex 16.0333 -2.22699 14.8849
      vertex 16.0333 -3.00645e-15 16.2
      vertex 16.0333 -1.50667 14.5865
    endloop
  endfacet
  facet normal -1 3.06162e-17 -6.79816e-33
    outer loop
      vertex 16.0333 -0.413471 13.4933
      vertex 16.0333 -3.00645e-15 16.2
      vertex 16.0333 -0.115101 12.773
    endloop
  endfacet
  facet normal -1 3.06162e-17 -6.79816e-33
    outer loop
      vertex 16.0333 -0.888108 14.1119
      vertex 16.0333 -3.00645e-15 16.2
      vertex 16.0333 -0.413471 13.4933
    endloop
  endfacet
  facet normal -1 3.06162e-17 -6.79816e-33
    outer loop
      vertex 16.0333 -1.50667 14.5865
      vertex 16.0333 -3.00645e-15 16.2
      vertex 16.0333 -0.888108 14.1119
    endloop
  endfacet
  facet normal -1 3.06162e-17 -6.79816e-33
    outer loop
      vertex 16.0333 -3 14.9867
      vertex 16.0333 -6 16.2
      vertex 16.0333 -2.22699 14.8849
    endloop
  endfacet
  facet normal -1 3.06162e-17 -6.79816e-33
    outer loop
      vertex 16.0333 -3.77301 14.8849
      vertex 16.0333 -6 16.2
      vertex 16.0333 -3 14.9867
    endloop
  endfacet
  facet normal -1 3.06162e-17 -6.79816e-33
    outer loop
      vertex 16.0333 -0.0133333 12
      vertex 16.0333 -3.93903e-15 12
      vertex 16.0333 -0.115101 11.227
    endloop
  endfacet
  facet normal -1 3.06162e-17 -6.79816e-33
    outer loop
      vertex 16.0333 -4.49333 14.5865
      vertex 16.0333 -6 16.2
      vertex 16.0333 -3.77301 14.8849
    endloop
  endfacet
  facet normal -1 3.06162e-17 -6.79816e-33
    outer loop
      vertex 16.0333 -5.11189 14.1119
      vertex 16.0333 -6 16.2
      vertex 16.0333 -4.49333 14.5865
    endloop
  endfacet
  facet normal -1 3.06162e-17 -6.79816e-33
    outer loop
      vertex 16.0333 -0.115101 11.227
      vertex 16.0333 -0.102222 11.2235
      vertex 16.0333 -0.413471 10.5067
    endloop
  endfacet
  facet normal -1 3.06162e-17 -6.79816e-33
    outer loop
      vertex 16.0333 -5.58653 13.4933
      vertex 16.0333 -6 16.2
      vertex 16.0333 -5.11189 14.1119
    endloop
  endfacet
  facet normal -1 3.06162e-17 -6.79816e-33
    outer loop
      vertex 16.0333 -5.8849 12.773
      vertex 16.0333 -6 16.2
      vertex 16.0333 -5.58653 13.4933
    endloop
  endfacet
  facet normal -1 3.06162e-17 -6.79816e-33
    outer loop
      vertex 16.0333 -0.413471 10.5067
      vertex 16.0333 -0.401924 10.5
      vertex 16.0333 -0.888108 9.88811
    endloop
  endfacet
  facet normal -1 3.06162e-17 -6.79816e-33
    outer loop
      vertex 16.0333 -5.98667 12
      vertex 16.0333 -6 16.2
      vertex 16.0333 -5.8849 12.773
    endloop
  endfacet
  facet normal -1 3.06162e-17 -6.79816e-33
    outer loop
      vertex 16.0333 -0.888108 9.88811
      vertex 16.0333 -0.87868 9.87868
      vertex 16.0333 -1.50667 9.41347
    endloop
  endfacet
  facet normal -1 3.06162e-17 -6.79816e-33
    outer loop
      vertex 16.0333 -1.50667 9.41347
      vertex 16.0333 -1.5 9.40192
      vertex 16.0333 -2.22699 9.1151
    endloop
  endfacet
  facet normal -1 3.06162e-17 -6.79816e-33
    outer loop
      vertex 16.0333 -2.22699 9.1151
      vertex 16.0333 -2.22354 9.10222
      vertex 16.0333 -3 9.01333
    endloop
  endfacet
  facet normal -1 3.06162e-17 -6.79816e-33
    outer loop
      vertex 16.0333 -3 9.01333
      vertex 16.0333 -3 9
      vertex 16.0333 -3.77301 9.1151
    endloop
  endfacet
  facet normal -1 3.06162e-17 -6.79816e-33
    outer loop
      vertex 16.0333 -3.77301 9.1151
      vertex 16.0333 -3.77646 9.10222
      vertex 16.0333 -4.49333 9.41347
    endloop
  endfacet
  facet normal -1 3.06162e-17 -6.79816e-33
    outer loop
      vertex 16.0333 -4.49333 9.41347
      vertex 16.0333 -4.5 9.40192
      vertex 16.0333 -5.11189 9.88811
    endloop
  endfacet
  facet normal 1.22465e-16 1 -2.22045e-16
    outer loop
      vertex 16.0333 -3.93903e-15 12
      vertex 16.0333 -3.00645e-15 16.2
      vertex 22 -4.66974e-15 12
    endloop
  endfacet
  facet normal 1.22465e-16 1 -2.22045e-16
    outer loop
      vertex 22 -4.66974e-15 12
      vertex 16.0333 -3.00645e-15 16.2
      vertex 22 -3.73715e-15 16.2
    endloop
  endfacet
  facet normal 0 2.22045e-16 1
    outer loop
      vertex 2 4.88498e-16 24.2
      vertex 2 -6 24.2
      vertex 22 -6 24.2
    endloop
  endfacet
  facet normal 0 2.22045e-16 1
    outer loop
      vertex 22 4.88498e-16 24.2
      vertex 2 4.88498e-16 24.2
      vertex 22 -6 24.2
    endloop
  endfacet
  facet normal -1.21417e-16 -0.991445 -0.130525
    outer loop
      vertex 22 -6 12
      vertex 16.0333 -6 12
      vertex 16.0333 -5.89778 11.2235
    endloop
  endfacet
  facet normal -1.21417e-16 -0.991445 -0.130525
    outer loop
      vertex 22 -5.89778 11.2235
      vertex 22 -6 12
      vertex 16.0333 -5.89778 11.2235
    endloop
  endfacet
  facet normal -1.13143e-16 -0.923879 -0.382685
    outer loop
      vertex 22 -5.89778 11.2235
      vertex 16.0333 -5.89778 11.2235
      vertex 16.0333 -5.59808 10.5
    endloop
  endfacet
  facet normal -1.13143e-16 -0.923879 -0.382685
    outer loop
      vertex 22 -5.59808 10.5
      vertex 22 -5.89778 11.2235
      vertex 16.0333 -5.59808 10.5
    endloop
  endfacet
  facet normal -9.71577e-17 -0.793353 -0.608762
    outer loop
      vertex 22 -5.59808 10.5
      vertex 16.0333 -5.59808 10.5
      vertex 16.0333 -5.12132 9.87868
    endloop
  endfacet
  facet normal -9.71577e-17 -0.793353 -0.608762
    outer loop
      vertex 22 -5.12132 9.87868
      vertex 22 -5.59808 10.5
      vertex 16.0333 -5.12132 9.87868
    endloop
  endfacet
  facet normal -7.45518e-17 -0.608762 -0.793353
    outer loop
      vertex 16.0333 -5.12132 9.87868
      vertex 16.0333 -4.5 9.40192
      vertex 22 -5.12132 9.87868
    endloop
  endfacet
  facet normal -7.45518e-17 -0.608762 -0.793353
    outer loop
      vertex 22 -5.12132 9.87868
      vertex 16.0333 -4.5 9.40192
      vertex 22 -4.5 9.40192
    endloop
  endfacet
  facet normal -4.68653e-17 -0.382685 -0.923879
    outer loop
      vertex 16.0333 -4.5 9.40192
      vertex 16.0333 -3.77646 9.10222
      vertex 22 -4.5 9.40192
    endloop
  endfacet
  facet normal -4.68653e-17 -0.382685 -0.923879
    outer loop
      vertex 22 -4.5 9.40192
      vertex 16.0333 -3.77646 9.10222
      vertex 22 -3.77646 9.10222
    endloop
  endfacet
  facet normal -1.59848e-17 -0.130525 -0.991445
    outer loop
      vertex 16.0333 -3.77646 9.10222
      vertex 16.0333 -3 9
      vertex 22 -3.77646 9.10222
    endloop
  endfacet
  facet normal -1.59848e-17 -0.130525 -0.991445
    outer loop
      vertex 22 -3.77646 9.10222
      vertex 16.0333 -3 9
      vertex 22 -3 9
    endloop
  endfacet
  facet normal 1.59848e-17 0.130525 -0.991445
    outer loop
      vertex 16.0333 -3 9
      vertex 16.0333 -2.22354 9.10222
      vertex 22 -3 9
    endloop
  endfacet
  facet normal 1.59848e-17 0.130525 -0.991445
    outer loop
      vertex 22 -3 9
      vertex 16.0333 -2.22354 9.10222
      vertex 22 -2.22354 9.10222
    endloop
  endfacet
  facet normal 4.68653e-17 0.382685 -0.923879
    outer loop
      vertex 16.0333 -2.22354 9.10222
      vertex 16.0333 -1.5 9.40192
      vertex 22 -2.22354 9.10222
    endloop
  endfacet
  facet normal 4.68653e-17 0.382685 -0.923879
    outer loop
      vertex 22 -2.22354 9.10222
      vertex 16.0333 -1.5 9.40192
      vertex 22 -1.5 9.40192
    endloop
  endfacet
  facet normal 7.45518e-17 0.608762 -0.793353
    outer loop
      vertex 16.0333 -1.5 9.40192
      vertex 16.0333 -0.87868 9.87868
      vertex 22 -1.5 9.40192
    endloop
  endfacet
  facet normal 7.45518e-17 0.608762 -0.793353
    outer loop
      vertex 22 -1.5 9.40192
      vertex 16.0333 -0.87868 9.87868
      vertex 22 -0.87868 9.87868
    endloop
  endfacet
  facet normal 9.71577e-17 0.793353 -0.608762
    outer loop
      vertex 16.0333 -0.87868 9.87868
      vertex 16.0333 -0.401924 10.5
      vertex 22 -0.87868 9.87868
    endloop
  endfacet
  facet normal 9.71577e-17 0.793353 -0.608762
    outer loop
      vertex 22 -0.87868 9.87868
      vertex 16.0333 -0.401924 10.5
      vertex 22 -0.401924 10.5
    endloop
  endfacet
  facet normal 1.13143e-16 0.923879 -0.382685
    outer loop
      vertex 16.0333 -0.401924 10.5
      vertex 16.0333 -0.102222 11.2235
      vertex 22 -0.401924 10.5
    endloop
  endfacet
  facet normal 1.13143e-16 0.923879 -0.382685
    outer loop
      vertex 22 -0.401924 10.5
      vertex 16.0333 -0.102222 11.2235
      vertex 22 -0.102222 11.2235
    endloop
  endfacet
  facet normal 1.21417e-16 0.991445 -0.130525
    outer loop
      vertex 16.0333 -0.102222 11.2235
      vertex 16.0333 -3.93903e-15 12
      vertex 22 -0.102222 11.2235
    endloop
  endfacet
  facet normal 1.21417e-16 0.991445 -0.130525
    outer loop
      vertex 22 -0.102222 11.2235
      vertex 16.0333 -3.93903e-15 12
      vertex 22 -4.66974e-15 12
    endloop
  endfacet
  facet normal -1.22465e-16 -1 2.22045e-16
    outer loop
      vertex 16.0333 -6 16.2
      vertex 16.0333 -6 12
      vertex 22 -6 12
    endloop
  endfacet
  facet normal -1.22465e-16 -1 2.22045e-16
    outer loop
      vertex 22 -6 16.2
      vertex 16.0333 -6 16.2
      vertex 22 -6 12
    endloop
  endfacet
  facet normal -0.797516 0.598137 -0.0787457
    outer loop
      vertex 16.0333 -5.8849 12.773
      vertex 18.2733 -3 12
      vertex 16.0333 -5.98667 12
    endloop
  endfacet
  facet normal -0.797516 0.598137 0.0787457
    outer loop
      vertex 18.2733 -3 12
      vertex 16.0333 -5.8849 11.227
      vertex 16.0333 -5.98667 12
    endloop
  endfacet
  facet normal -0.797516 0.557374 -0.230873
    outer loop
      vertex 16.0333 -5.58653 13.4933
      vertex 18.2733 -3 12
      vertex 16.0333 -5.8849 12.773
    endloop
  endfacet
  facet normal -0.797516 0.478628 -0.367265
    outer loop
      vertex 16.0333 -5.11189 14.1119
      vertex 18.2733 -3 12
      vertex 16.0333 -5.58653 13.4933
    endloop
  endfacet
  facet normal -0.797516 0.367265 -0.478628
    outer loop
      vertex 16.0333 -4.49333 14.5865
      vertex 18.2733 -3 12
      vertex 16.0333 -5.11189 14.1119
    endloop
  endfacet
  facet normal -0.797516 0.230873 -0.557374
    outer loop
      vertex 16.0333 -3.77301 14.8849
      vertex 18.2733 -3 12
      vertex 16.0333 -4.49333 14.5865
    endloop
  endfacet
  facet normal -0.797516 0.0787457 -0.598137
    outer loop
      vertex 16.0333 -3 14.9867
      vertex 18.2733 -3 12
      vertex 16.0333 -3.77301 14.8849
    endloop
  endfacet
  facet normal -0.797516 -0.0787457 -0.598137
    outer loop
      vertex 16.0333 -2.22699 14.8849
      vertex 18.2733 -3 12
      vertex 16.0333 -3 14.9867
    endloop
  endfacet
  facet normal -0.797516 -0.230873 -0.557374
    outer loop
      vertex 16.0333 -1.50667 14.5865
      vertex 18.2733 -3 12
      vertex 16.0333 -2.22699 14.8849
    endloop
  endfacet
  facet normal -0.797516 -0.367265 -0.478628
    outer loop
      vertex 16.0333 -0.888108 14.1119
      vertex 18.2733 -3 12
      vertex 16.0333 -1.50667 14.5865
    endloop
  endfacet
  facet normal -0.797516 -0.478628 -0.367265
    outer loop
      vertex 16.0333 -0.413471 13.4933
      vertex 18.2733 -3 12
      vertex 16.0333 -0.888108 14.1119
    endloop
  endfacet
  facet normal -0.797516 -0.557374 -0.230873
    outer loop
      vertex 16.0333 -0.115101 12.773
      vertex 18.2733 -3 12
      vertex 16.0333 -0.413471 13.4933
    endloop
  endfacet
  facet normal -0.797516 -0.598137 -0.0787457
    outer loop
      vertex 16.0333 -0.0133333 12
      vertex 18.2733 -3 12
      vertex 16.0333 -0.115101 12.773
    endloop
  endfacet
  facet normal -0.797516 -0.598137 0.0787457
    outer loop
      vertex 18.2733 -3 12
      vertex 16.0333 -0.0133333 12
      vertex 16.0333 -0.115101 11.227
    endloop
  endfacet
  facet normal -0.797516 -0.557374 0.230873
    outer loop
      vertex 18.2733 -3 12
      vertex 16.0333 -0.115101 11.227
      vertex 16.0333 -0.413471 10.5067
    endloop
  endfacet
  facet normal -0.797516 -0.478628 0.367265
    outer loop
      vertex 18.2733 -3 12
      vertex 16.0333 -0.413471 10.5067
      vertex 16.0333 -0.888108 9.88811
    endloop
  endfacet
  facet normal -0.797516 -0.367265 0.478628
    outer loop
      vertex 18.2733 -3 12
      vertex 16.0333 -0.888108 9.88811
      vertex 16.0333 -1.50667 9.41347
    endloop
  endfacet
  facet normal -0.797516 -0.230873 0.557374
    outer loop
      vertex 18.2733 -3 12
      vertex 16.0333 -1.50667 9.41347
      vertex 16.0333 -2.22699 9.1151
    endloop
  endfacet
  facet normal -0.797516 -0.0787457 0.598137
    outer loop
      vertex 18.2733 -3 12
      vertex 16.0333 -2.22699 9.1151
      vertex 16.0333 -3 9.01333
    endloop
  endfacet
  facet normal -0.797516 0.0787457 0.598137
    outer loop
      vertex 18.2733 -3 12
      vertex 16.0333 -3 9.01333
      vertex 16.0333 -3.77301 9.1151
    endloop
  endfacet
  facet normal -0.797516 0.230873 0.557374
    outer loop
      vertex 18.2733 -3 12
      vertex 16.0333 -3.77301 9.1151
      vertex 16.0333 -4.49333 9.41347
    endloop
  endfacet
  facet normal -0.797516 0.367265 0.478628
    outer loop
      vertex 18.2733 -3 12
      vertex 16.0333 -4.49333 9.41347
      vertex 16.0333 -5.11189 9.88811
    endloop
  endfacet
  facet normal -0.797516 0.478628 0.367265
    outer loop
      vertex 18.2733 -3 12
      vertex 16.0333 -5.11189 9.88811
      vertex 16.0333 -5.58653 10.5067
    endloop
  endfacet
  facet normal -0.797516 0.557374 0.230873
    outer loop
      vertex 18.2733 -3 12
      vertex 16.0333 -5.58653 10.5067
      vertex 16.0333 -5.8849 11.227
    endloop
  endfacet
  facet normal 1 -3.06162e-17 6.79816e-33
    outer loop
      vertex 22 -6 16.2
      vertex 22 -6 12
      vertex 22 -5.89778 11.2235
    endloop
  endfacet
  facet normal 1 -3.06162e-17 6.79816e-33
    outer loop
      vertex 22 -5.12132 9.87868
      vertex 22 -6 16.2
      vertex 22 -5.59808 10.5
    endloop
  endfacet
  facet normal 1 -3.06162e-17 6.79816e-33
    outer loop
      vertex 22 -5.59808 10.5
      vertex 22 -6 16.2
      vertex 22 -5.89778 11.2235
    endloop
  endfacet
  facet normal 1 -3.06162e-17 6.79816e-33
    outer loop
      vertex 22 -4.5 9.40192
      vertex 22 -6 16.2
      vertex 22 -5.12132 9.87868
    endloop
  endfacet
  facet normal 1 -3.06162e-17 6.79816e-33
    outer loop
      vertex 22 -3.77646 9.10222
      vertex 22 -6 16.2
      vertex 22 -4.5 9.40192
    endloop
  endfacet
  facet normal 1 -3.06162e-17 6.79816e-33
    outer loop
      vertex 22 -3 9
      vertex 22 -6 16.2
      vertex 22 -3.77646 9.10222
    endloop
  endfacet
  facet normal 1 -3.06162e-17 6.79816e-33
    outer loop
      vertex 22 -2.22354 9.10222
      vertex 22 -6 16.2
      vertex 22 -3 9
    endloop
  endfacet
  facet normal 1 -3.06162e-17 6.79816e-33
    outer loop
      vertex 22 -1.5 9.40192
      vertex 22 -6 16.2
      vertex 22 -2.22354 9.10222
    endloop
  endfacet
  facet normal 1 -3.06162e-17 6.79816e-33
    outer loop
      vertex 22 -0.87868 9.87868
      vertex 22 -6 16.2
      vertex 22 -1.5 9.40192
    endloop
  endfacet
  facet normal 1 -3.06162e-17 6.79816e-33
    outer loop
      vertex 22 -0.401924 10.5
      vertex 22 -6 16.2
      vertex 22 -0.87868 9.87868
    endloop
  endfacet
  facet normal 1 -3.06162e-17 6.79816e-33
    outer loop
      vertex 22 -0.102222 11.2235
      vertex 22 -6 16.2
      vertex 22 -0.401924 10.5
    endloop
  endfacet
  facet normal 1 -3.06162e-17 6.79816e-33
    outer loop
      vertex 22 -4.66974e-15 12
      vertex 22 -6 16.2
      vertex 22 -0.102222 11.2235
    endloop
  endfacet
  facet normal 1 -3.06162e-17 6.79816e-33
    outer loop
      vertex 22 -3.73715e-15 16.2
      vertex 22 -6 16.2
      vertex 22 -4.66974e-15 12
    endloop
  endfacet
  facet normal -1 0 0
    outer loop
      vertex 2 -6 -0.2
      vertex 2 -6 7.8
      vertex 2 -4.92939e-15 -0.2
    endloop
  endfacet
  facet normal -1 0 0
    outer loop
      vertex 2 -4.92939e-15 -0.2
      vertex 2 -6 7.8
      vertex 2 -3.15303e-15 7.8
    endloop
  endfacet
  facet normal 0 -1 2.22045e-16
    outer loop
      vertex 2 -6 7.8
      vertex 2 -6 -0.2
      vertex 22 -6 -0.2
    endloop
  endfacet
  facet normal 0 -1 2.22045e-16
    outer loop
      vertex 8.66667 -6 7.8
      vertex 2 -6 7.8
      vertex 22 -6 -0.2
    endloop
  endfacet
  facet normal 0 -1 2.22045e-16
    outer loop
      vertex 22 -6 7.8
      vertex 15.3333 -6 7.8
      vertex 22 -6 -0.2
    endloop
  endfacet
  facet normal 0 -1 2.22045e-16
    outer loop
      vertex 15.3333 -6 7.8
      vertex 8.66667 -6 7.8
      vertex 22 -6 -0.2
    endloop
  endfacet
  facet normal 0 -2.22045e-16 -1
    outer loop
      vertex 2 -6 -0.2
      vertex 2 -4.92939e-15 -0.2
      vertex 22 -6 -0.2
    endloop
  endfacet
  facet normal 0 -2.22045e-16 -1
    outer loop
      vertex 22 -6 -0.2
      vertex 2 -4.92939e-15 -0.2
      vertex 22 -4.92939e-15 -0.2
    endloop
  endfacet
  facet normal 0 1 -2.22045e-16
    outer loop
      vertex 2 -4.92939e-15 -0.2
      vertex 2 -3.15303e-15 7.8
      vertex 22 -4.92939e-15 -0.2
    endloop
  endfacet
  facet normal 0 1 -2.22045e-16
    outer loop
      vertex 22 -4.92939e-15 -0.2
      vertex 2 -3.15303e-15 7.8
      vertex 22 -3.15303e-15 7.8
    endloop
  endfacet
  facet normal 0 2.22045e-16 1
    outer loop
      vertex 2 -3.15303e-15 7.8
      vertex 2 -6 7.8
      vertex 8.66667 -6 7.8
    endloop
  endfacet
  facet normal 0 2.22045e-16 1
    outer loop
      vertex 22 -3.15303e-15 7.8
      vertex 2 -3.15303e-15 7.8
      vertex 8.66667 -3.96946e-15 7.8
    endloop
  endfacet
  facet normal 0 2.22045e-16 1
    outer loop
      vertex 8.66667 -3.96946e-15 7.8
      vertex 2 -3.15303e-15 7.8
      vertex 8.66667 -6 7.8
    endloop
  endfacet
  facet normal 0 2.22045e-16 1
    outer loop
      vertex 22 -3.15303e-15 7.8
      vertex 8.66667 -3.96946e-15 7.8
      vertex 15.3333 -4.7859e-15 7.8
    endloop
  endfacet
  facet normal 0 2.22045e-16 1
    outer loop
      vertex 22 -6 7.8
      vertex 15.3333 -4.7859e-15 7.8
      vertex 15.3333 -6 7.8
    endloop
  endfacet
  facet normal 0 2.22045e-16 1
    outer loop
      vertex 22 -3.15303e-15 7.8
      vertex 15.3333 -4.7859e-15 7.8
      vertex 22 -6 7.8
    endloop
  endfacet
  facet normal -1 3.06162e-17 -6.79816e-33
    outer loop
      vertex 8.66667 -6 7.8
      vertex 8.66667 -6 12
      vertex 8.66667 -5.89778 11.2235
    endloop
  endfacet
  facet normal -1 3.06162e-17 -6.79816e-33
    outer loop
      vertex 8.66667 -1.5 9.40192
      vertex 8.66667 -3.96946e-15 7.8
      vertex 8.66667 -2.22354 9.10222
    endloop
  endfacet
  facet normal -1 3.06162e-17 -6.79816e-33
    outer loop
      vertex 8.66667 -0.87868 9.87868
      vertex 8.66667 -3.96946e-15 7.8
      vertex 8.66667 -1.5 9.40192
    endloop
  endfacet
  facet normal -1 3.06162e-17 -6.79816e-33
    outer loop
      vertex 8.66667 -0.401924 10.5
      vertex 8.66667 -3.96946e-15 7.8
      vertex 8.66667 -0.87868 9.87868
    endloop
  endfacet
  facet normal -1 3.06162e-17 -6.79816e-33
    outer loop
      vertex 8.66667 -0.102222 11.2235
      vertex 8.66667 -3.03688e-15 12
      vertex 8.66667 -3.96946e-15 7.8
    endloop
  endfacet
  facet normal -1 3.06162e-17 -6.79816e-33
    outer loop
      vertex 8.66667 -0.102222 11.2235
      vertex 8.66667 -3.96946e-15 7.8
      vertex 8.66667 -0.401924 10.5
    endloop
  endfacet
  facet normal -1 3.06162e-17 -6.79816e-33
    outer loop
      vertex 8.66667 -6 7.8
      vertex 8.66667 -5.89778 11.2235
      vertex 8.66667 -5.59808 10.5
    endloop
  endfacet
  facet normal -1 3.06162e-17 -6.79816e-33
    outer loop
      vertex 8.66667 -6 7.8
      vertex 8.66667 -5.59808 10.5
      vertex 8.66667 -5.12132 9.87868
    endloop
  endfacet
  facet normal -1 3.06162e-17 -6.79816e-33
    outer loop
      vertex 8.66667 -6 7.8
      vertex 8.66667 -5.12132 9.87868
      vertex 8.66667 -4.5 9.40192
    endloop
  endfacet
  facet normal -1 3.06162e-17 -6.79816e-33
    outer loop
      vertex 8.66667 -6 7.8
      vertex 8.66667 -4.5 9.40192
      vertex 8.66667 -3.77646 9.10222
    endloop
  endfacet
  facet normal -1 3.06162e-17 -6.79816e-33
    outer loop
      vertex 8.66667 -6 7.8
      vertex 8.66667 -3.77646 9.10222
      vertex 8.66667 -3 9
    endloop
  endfacet
  facet normal -1 3.06162e-17 -6.79816e-33
    outer loop
      vertex 8.66667 -6 7.8
      vertex 8.66667 -3 9
      vertex 8.66667 -2.22354 9.10222
    endloop
  endfacet
  facet normal -1 3.06162e-17 -6.79816e-33
    outer loop
      vertex 8.66667 -6 7.8
      vertex 8.66667 -2.22354 9.10222
      vertex 8.66667 -3.96946e-15 7.8
    endloop
  endfacet
  facet normal 1 -3.06162e-17 6.79816e-33
    outer loop
      vertex 15.3333 -5.89778 11.2235
      vertex 15.3333 -6 12
      vertex 15.3333 -6 7.8
    endloop
  endfacet
  facet normal 1 -3.06162e-17 6.79816e-33
    outer loop
      vertex 15.3333 -3.85331e-15 12
      vertex 15.3333 -4.44444e-07 12
      vertex 15.3333 -4.7859e-15 7.8
    endloop
  endfacet
  facet normal 1 -3.06162e-17 6.79816e-33
    outer loop
      vertex 15.3333 -5.59808 10.5
      vertex 15.3333 -5.89778 11.2235
      vertex 15.3333 -6 7.8
    endloop
  endfacet
  facet normal 1 -3.06162e-17 6.79816e-33
    outer loop
      vertex 15.3333 -2.22354 9.10222
      vertex 15.3333 -3 9
      vertex 15.3333 -4.7859e-15 7.8
    endloop
  endfacet
  facet normal 1 -3.06162e-17 6.79816e-33
    outer loop
      vertex 15.3333 -0.102222 12.7765
      vertex 15.3333 -4.44444e-07 12
      vertex 15.3333 -3.85331e-15 12
    endloop
  endfacet
  facet normal 1 -3.06162e-17 6.79816e-33
    outer loop
      vertex 15.3333 -4.44444e-07 12
      vertex 15.3333 -0.102222 11.2235
      vertex 15.3333 -4.7859e-15 7.8
    endloop
  endfacet
  facet normal 1 -3.06162e-17 6.79816e-33
    outer loop
      vertex 15.3333 -0.102222 11.2235
      vertex 15.3333 -0.401924 10.5
      vertex 15.3333 -4.7859e-15 7.8
    endloop
  endfacet
  facet normal 1 -3.06162e-17 6.79816e-33
    outer loop
      vertex 15.3333 -0.401924 10.5
      vertex 15.3333 -0.87868 9.87868
      vertex 15.3333 -4.7859e-15 7.8
    endloop
  endfacet
  facet normal 1 -3.06162e-17 6.79816e-33
    outer loop
      vertex 15.3333 -0.87868 9.87868
      vertex 15.3333 -1.5 9.40192
      vertex 15.3333 -4.7859e-15 7.8
    endloop
  endfacet
  facet normal 1 -3.06162e-17 6.79816e-33
    outer loop
      vertex 15.3333 -4.7859e-15 7.8
      vertex 15.3333 -3 9
      vertex 15.3333 -6 7.8
    endloop
  endfacet
  facet normal 1 -3.06162e-17 6.79816e-33
    outer loop
      vertex 15.3333 -3 9
      vertex 15.3333 -3.77646 9.10222
      vertex 15.3333 -6 7.8
    endloop
  endfacet
  facet normal 1 -3.06162e-17 6.79816e-33
    outer loop
      vertex 15.3333 -3.77646 9.10222
      vertex 15.3333 -4.5 9.40192
      vertex 15.3333 -6 7.8
    endloop
  endfacet
  facet normal 1 -3.06162e-17 6.79816e-33
    outer loop
      vertex 15.3333 -4.5 9.40192
      vertex 15.3333 -5.12132 9.87868
      vertex 15.3333 -6 7.8
    endloop
  endfacet
  facet normal 1 -3.06162e-17 6.79816e-33
    outer loop
      vertex 15.3333 -5.12132 9.87868
      vertex 15.3333 -5.59808 10.5
      vertex 15.3333 -6 7.8
    endloop
  endfacet
  facet normal 1 -3.06162e-17 6.79816e-33
    outer loop
      vertex 15.3333 -1.5 9.40192
      vertex 15.3333 -2.22354 9.10222
      vertex 15.3333 -4.7859e-15 7.8
    endloop
  endfacet
  facet normal 1 0 0
    outer loop
      vertex 22 -6 7.8
      vertex 22 -6 -0.2
      vertex 22 -4.92939e-15 -0.2
    endloop
  endfacet
  facet normal 1 0 0
    outer loop
      vertex 22 -3.15303e-15 7.8
      vertex 22 -6 7.8
      vertex 22 -4.92939e-15 -0.2
    endloop
  endfacet
  facet normal 1.22465e-16 1 -2.22045e-16
    outer loop
      vertex 8.66667 -3.96946e-15 7.8
      vertex 8.66667 -3.03688e-15 12
      vertex 15.3333 -4.7859e-15 7.8
    endloop
  endfacet
  facet normal 1.22465e-16 1 -2.22045e-16
    outer loop
      vertex 15.3333 -4.7859e-15 7.8
      vertex 8.66667 -3.03688e-15 12
      vertex 15.3333 -3.85331e-15 12
    endloop
  endfacet
  facet normal 1.21417e-16 0.991445 0.130525
    outer loop
      vertex 8.66667 -0.102222 12.7765
      vertex 15.3333 -0.102222 12.7765
      vertex 8.66667 -3.03688e-15 12
    endloop
  endfacet
  facet normal 1.21417e-16 0.991445 0.130525
    outer loop
      vertex 8.66667 -3.03688e-15 12
      vertex 15.3333 -0.102222 12.7765
      vertex 15.3333 -3.85331e-15 12
    endloop
  endfacet
  facet normal -0.797516 0.598137 0.0787457
    outer loop
      vertex 8.66667 -3.03688e-15 12
      vertex 6.41667 -3 12
      vertex 8.66667 -0.102222 12.7765
    endloop
  endfacet
  facet normal -0.797516 0.598137 -0.0787457
    outer loop
      vertex 8.66667 -0.102222 11.2235
      vertex 6.41667 -3 12
      vertex 8.66667 -3.03688e-15 12
    endloop
  endfacet
  facet normal -0.797516 0.557374 -0.230873
    outer loop
      vertex 8.66667 -0.401924 10.5
      vertex 6.41667 -3 12
      vertex 8.66667 -0.102222 11.2235
    endloop
  endfacet
  facet normal -0.797516 0.478628 -0.367265
    outer loop
      vertex 8.66667 -0.87868 9.87868
      vertex 6.41667 -3 12
      vertex 8.66667 -0.401924 10.5
    endloop
  endfacet
  facet normal -0.797516 0.367265 -0.478628
    outer loop
      vertex 8.66667 -1.5 9.40192
      vertex 6.41667 -3 12
      vertex 8.66667 -0.87868 9.87868
    endloop
  endfacet
  facet normal -0.797516 0.230873 -0.557374
    outer loop
      vertex 8.66667 -2.22354 9.10222
      vertex 6.41667 -3 12
      vertex 8.66667 -1.5 9.40192
    endloop
  endfacet
  facet normal -0.797516 0.0787457 -0.598137
    outer loop
      vertex 8.66667 -3 9
      vertex 6.41667 -3 12
      vertex 8.66667 -2.22354 9.10222
    endloop
  endfacet
  facet normal -0.797516 -0.0787457 -0.598137
    outer loop
      vertex 8.66667 -3.77646 9.10222
      vertex 6.41667 -3 12
      vertex 8.66667 -3 9
    endloop
  endfacet
  facet normal -0.797516 -0.230873 -0.557374
    outer loop
      vertex 8.66667 -4.5 9.40192
      vertex 6.41667 -3 12
      vertex 8.66667 -3.77646 9.10222
    endloop
  endfacet
  facet normal -0.797516 -0.367265 -0.478628
    outer loop
      vertex 8.66667 -5.12132 9.87868
      vertex 6.41667 -3 12
      vertex 8.66667 -4.5 9.40192
    endloop
  endfacet
  facet normal -0.797516 -0.478628 -0.367265
    outer loop
      vertex 8.66667 -5.59808 10.5
      vertex 6.41667 -3 12
      vertex 8.66667 -5.12132 9.87868
    endloop
  endfacet
  facet normal -0.797516 -0.557374 -0.230873
    outer loop
      vertex 8.66667 -5.89778 11.2235
      vertex 6.41667 -3 12
      vertex 8.66667 -5.59808 10.5
    endloop
  endfacet
  facet normal -0.797516 -0.598137 -0.0787457
    outer loop
      vertex 8.66667 -6 12
      vertex 6.41667 -3 12
      vertex 8.66667 -5.89778 11.2235
    endloop
  endfacet
  facet normal -1.22465e-16 -1 2.22045e-16
    outer loop
      vertex 8.66667 -6 12
      vertex 8.66667 -6 7.8
      vertex 15.3333 -6 7.8
    endloop
  endfacet
  facet normal -1.22465e-16 -1 2.22045e-16
    outer loop
      vertex 15.3333 -6 12
      vertex 8.66667 -6 12
      vertex 15.3333 -6 7.8
    endloop
  endfacet
  facet normal -0.797516 -0.598137 0.0787457
    outer loop
      vertex 8.66667 -5.89778 12.7765
      vertex 6.41667 -3 12
      vertex 8.66667 -6 12
    endloop
  endfacet
  facet normal -1.21417e-16 -0.991445 0.130525
    outer loop
      vertex 8.66667 -5.89778 12.7765
      vertex 8.66667 -6 12
      vertex 15.3333 -6 12
    endloop
  endfacet
  facet normal -1.21417e-16 -0.991445 0.130525
    outer loop
      vertex 15.3333 -5.89778 12.7765
      vertex 8.66667 -5.89778 12.7765
      vertex 15.3333 -6 12
    endloop
  endfacet
  facet normal -1.13143e-16 -0.923879 0.382685
    outer loop
      vertex 8.66667 -5.59808 13.5
      vertex 8.66667 -5.89778 12.7765
      vertex 15.3333 -5.89778 12.7765
    endloop
  endfacet
  facet normal -1.13143e-16 -0.923879 0.382685
    outer loop
      vertex 15.3333 -5.59808 13.5
      vertex 8.66667 -5.59808 13.5
      vertex 15.3333 -5.89778 12.7765
    endloop
  endfacet
  facet normal -9.71577e-17 -0.793353 0.608762
    outer loop
      vertex 8.66667 -5.12132 14.1213
      vertex 8.66667 -5.59808 13.5
      vertex 15.3333 -5.59808 13.5
    endloop
  endfacet
  facet normal -9.71577e-17 -0.793353 0.608762
    outer loop
      vertex 15.3333 -5.12132 14.1213
      vertex 8.66667 -5.12132 14.1213
      vertex 15.3333 -5.59808 13.5
    endloop
  endfacet
  facet normal -7.45518e-17 -0.608762 0.793353
    outer loop
      vertex 8.66667 -4.5 14.5981
      vertex 8.66667 -5.12132 14.1213
      vertex 15.3333 -5.12132 14.1213
    endloop
  endfacet
  facet normal -7.45518e-17 -0.608762 0.793353
    outer loop
      vertex 15.3333 -4.5 14.5981
      vertex 8.66667 -4.5 14.5981
      vertex 15.3333 -5.12132 14.1213
    endloop
  endfacet
  facet normal -4.68653e-17 -0.382685 0.923879
    outer loop
      vertex 8.66667 -3.77646 14.8978
      vertex 8.66667 -4.5 14.5981
      vertex 15.3333 -4.5 14.5981
    endloop
  endfacet
  facet normal -4.68653e-17 -0.382685 0.923879
    outer loop
      vertex 15.3333 -3.77646 14.8978
      vertex 8.66667 -3.77646 14.8978
      vertex 15.3333 -4.5 14.5981
    endloop
  endfacet
  facet normal -1.59848e-17 -0.130525 0.991445
    outer loop
      vertex 8.66667 -3 15
      vertex 8.66667 -3.77646 14.8978
      vertex 15.3333 -3.77646 14.8978
    endloop
  endfacet
  facet normal -1.59848e-17 -0.130525 0.991445
    outer loop
      vertex 15.3333 -3 15
      vertex 8.66667 -3 15
      vertex 15.3333 -3.77646 14.8978
    endloop
  endfacet
  facet normal 1.59848e-17 0.130525 0.991445
    outer loop
      vertex 8.66667 -2.22354 14.8978
      vertex 8.66667 -3 15
      vertex 15.3333 -3 15
    endloop
  endfacet
  facet normal 1.59848e-17 0.130525 0.991445
    outer loop
      vertex 15.3333 -2.22354 14.8978
      vertex 8.66667 -2.22354 14.8978
      vertex 15.3333 -3 15
    endloop
  endfacet
  facet normal 4.68653e-17 0.382685 0.923879
    outer loop
      vertex 8.66667 -1.5 14.5981
      vertex 8.66667 -2.22354 14.8978
      vertex 15.3333 -2.22354 14.8978
    endloop
  endfacet
  facet normal 4.68653e-17 0.382685 0.923879
    outer loop
      vertex 15.3333 -1.5 14.5981
      vertex 8.66667 -1.5 14.5981
      vertex 15.3333 -2.22354 14.8978
    endloop
  endfacet
  facet normal 7.45518e-17 0.608762 0.793353
    outer loop
      vertex 8.66667 -0.87868 14.1213
      vertex 8.66667 -1.5 14.5981
      vertex 15.3333 -1.5 14.5981
    endloop
  endfacet
  facet normal 7.45518e-17 0.608762 0.793353
    outer loop
      vertex 15.3333 -0.87868 14.1213
      vertex 8.66667 -0.87868 14.1213
      vertex 15.3333 -1.5 14.5981
    endloop
  endfacet
  facet normal 9.71577e-17 0.793353 0.608762
    outer loop
      vertex 8.66667 -0.87868 14.1213
      vertex 15.3333 -0.87868 14.1213
      vertex 8.66667 -0.401924 13.5
    endloop
  endfacet
  facet normal 9.71577e-17 0.793353 0.608762
    outer loop
      vertex 8.66667 -0.401924 13.5
      vertex 15.3333 -0.87868 14.1213
      vertex 15.3333 -0.401924 13.5
    endloop
  endfacet
  facet normal 1.13143e-16 0.923879 0.382685
    outer loop
      vertex 8.66667 -0.401924 13.5
      vertex 15.3333 -0.401924 13.5
      vertex 8.66667 -0.102222 12.7765
    endloop
  endfacet
  facet normal 1.13143e-16 0.923879 0.382685
    outer loop
      vertex 8.66667 -0.102222 12.7765
      vertex 15.3333 -0.401924 13.5
      vertex 15.3333 -0.102222 12.7765
    endloop
  endfacet
  facet normal 0.797516 -0.598137 -0.0787457
    outer loop
      vertex 17.5833 -3 12
      vertex 15.3333 -6 12
      vertex 15.3333 -5.89778 11.2235
    endloop
  endfacet
  facet normal 0.797516 -0.557374 -0.230873
    outer loop
      vertex 17.5833 -3 12
      vertex 15.3333 -5.89778 11.2235
      vertex 15.3333 -5.59808 10.5
    endloop
  endfacet
  facet normal 0.797516 -0.478628 -0.367265
    outer loop
      vertex 17.5833 -3 12
      vertex 15.3333 -5.59808 10.5
      vertex 15.3333 -5.12132 9.87868
    endloop
  endfacet
  facet normal 0.797516 -0.367265 -0.478628
    outer loop
      vertex 17.5833 -3 12
      vertex 15.3333 -5.12132 9.87868
      vertex 15.3333 -4.5 9.40192
    endloop
  endfacet
  facet normal 0.797516 -0.230873 -0.557374
    outer loop
      vertex 17.5833 -3 12
      vertex 15.3333 -4.5 9.40192
      vertex 15.3333 -3.77646 9.10222
    endloop
  endfacet
  facet normal 0.797516 -0.0787457 -0.598137
    outer loop
      vertex 17.5833 -3 12
      vertex 15.3333 -3.77646 9.10222
      vertex 15.3333 -3 9
    endloop
  endfacet
  facet normal 0.797516 0.0787457 -0.598137
    outer loop
      vertex 17.5833 -3 12
      vertex 15.3333 -3 9
      vertex 15.3333 -2.22354 9.10222
    endloop
  endfacet
  facet normal 0.797516 0.230873 -0.557374
    outer loop
      vertex 17.5833 -3 12
      vertex 15.3333 -2.22354 9.10222
      vertex 15.3333 -1.5 9.40192
    endloop
  endfacet
  facet normal 0.797516 0.367265 -0.478628
    outer loop
      vertex 17.5833 -3 12
      vertex 15.3333 -1.5 9.40192
      vertex 15.3333 -0.87868 9.87868
    endloop
  endfacet
  facet normal 0.797516 0.478628 -0.367265
    outer loop
      vertex 17.5833 -3 12
      vertex 15.3333 -0.87868 9.87868
      vertex 15.3333 -0.401924 10.5
    endloop
  endfacet
  facet normal 0.797516 0.557374 -0.230873
    outer loop
      vertex 17.5833 -3 12
      vertex 15.3333 -0.401924 10.5
      vertex 15.3333 -0.102222 11.2235
    endloop
  endfacet
  facet normal 0.797516 0.598137 -0.0787457
    outer loop
      vertex 17.5833 -3 12
      vertex 15.3333 -0.102222 11.2235
      vertex 15.3333 -4.44444e-07 12
    endloop
  endfacet
  facet normal 0.797516 0.598137 0.0787457
    outer loop
      vertex 15.3333 -4.44444e-07 12
      vertex 15.3333 -0.102222 12.7765
      vertex 17.5833 -3 12
    endloop
  endfacet
  facet normal 0.797516 0.557374 0.230873
    outer loop
      vertex 15.3333 -0.102222 12.7765
      vertex 15.3333 -0.401924 13.5
      vertex 17.5833 -3 12
    endloop
  endfacet
  facet normal 0.797516 0.478628 0.367265
    outer loop
      vertex 15.3333 -0.401924 13.5
      vertex 15.3333 -0.87868 14.1213
      vertex 17.5833 -3 12
    endloop
  endfacet
  facet normal 0.797516 0.367265 0.478628
    outer loop
      vertex 15.3333 -0.87868 14.1213
      vertex 15.3333 -1.5 14.5981
      vertex 17.5833 -3 12
    endloop
  endfacet
  facet normal 0.797516 0.230873 0.557374
    outer loop
      vertex 15.3333 -1.5 14.5981
      vertex 15.3333 -2.22354 14.8978
      vertex 17.5833 -3 12
    endloop
  endfacet
  facet normal 0.797516 0.0787457 0.598137
    outer loop
      vertex 15.3333 -2.22354 14.8978
      vertex 15.3333 -3 15
      vertex 17.5833 -3 12
    endloop
  endfacet
  facet normal 0.797516 -0.0787457 0.598137
    outer loop
      vertex 15.3333 -3 15
      vertex 15.3333 -3.77646 14.8978
      vertex 17.5833 -3 12
    endloop
  endfacet
  facet normal 0.797516 -0.230873 0.557374
    outer loop
      vertex 15.3333 -3.77646 14.8978
      vertex 15.3333 -4.5 14.5981
      vertex 17.5833 -3 12
    endloop
  endfacet
  facet normal 0.797516 -0.367265 0.478628
    outer loop
      vertex 15.3333 -4.5 14.5981
      vertex 15.3333 -5.12132 14.1213
      vertex 17.5833 -3 12
    endloop
  endfacet
  facet normal 0.797516 -0.478628 0.367265
    outer loop
      vertex 15.3333 -5.12132 14.1213
      vertex 15.3333 -5.59808 13.5
      vertex 17.5833 -3 12
    endloop
  endfacet
  facet normal 0.797516 -0.557374 0.230873
    outer loop
      vertex 15.3333 -5.59808 13.5
      vertex 15.3333 -5.89778 12.7765
      vertex 17.5833 -3 12
    endloop
  endfacet
  facet normal 0.797516 -0.598137 0.0787457
    outer loop
      vertex 15.3333 -5.89778 12.7765
      vertex 15.3333 -6 12
      vertex 17.5833 -3 12
    endloop
  endfacet
  facet normal -0.797516 0.557374 0.230873
    outer loop
      vertex 8.66667 -0.102222 12.7765
      vertex 6.41667 -3 12
      vertex 8.66667 -0.401924 13.5
    endloop
  endfacet
  facet normal -0.797516 0.478628 0.367265
    outer loop
      vertex 8.66667 -0.401924 13.5
      vertex 6.41667 -3 12
      vertex 8.66667 -0.87868 14.1213
    endloop
  endfacet
  facet normal -0.797516 0.367265 0.478628
    outer loop
      vertex 8.66667 -0.87868 14.1213
      vertex 6.41667 -3 12
      vertex 8.66667 -1.5 14.5981
    endloop
  endfacet
  facet normal -0.797516 0.230873 0.557374
    outer loop
      vertex 8.66667 -1.5 14.5981
      vertex 6.41667 -3 12
      vertex 8.66667 -2.22354 14.8978
    endloop
  endfacet
  facet normal -0.797516 0.0787457 0.598137
    outer loop
      vertex 8.66667 -2.22354 14.8978
      vertex 6.41667 -3 12
      vertex 8.66667 -3 15
    endloop
  endfacet
  facet normal -0.797516 -0.0787457 0.598137
    outer loop
      vertex 8.66667 -3 15
      vertex 6.41667 -3 12
      vertex 8.66667 -3.77646 14.8978
    endloop
  endfacet
  facet normal -0.797516 -0.230873 0.557374
    outer loop
      vertex 8.66667 -3.77646 14.8978
      vertex 6.41667 -3 12
      vertex 8.66667 -4.5 14.5981
    endloop
  endfacet
  facet normal -0.797516 -0.367265 0.478628
    outer loop
      vertex 8.66667 -4.5 14.5981
      vertex 6.41667 -3 12
      vertex 8.66667 -5.12132 14.1213
    endloop
  endfacet
  facet normal -0.797516 -0.478628 0.367265
    outer loop
      vertex 8.66667 -5.12132 14.1213
      vertex 6.41667 -3 12
      vertex 8.66667 -5.59808 13.5
    endloop
  endfacet
  facet normal -0.797516 -0.557374 0.230873
    outer loop
      vertex 8.66667 -5.59808 13.5
      vertex 6.41667 -3 12
      vertex 8.66667 -5.89778 12.7765
    endloop
  endfacet
  facet normal -1 0 0
    outer loop
      vertex 1 1 0
      vertex 1 1 6
      vertex 1 9 0
    endloop
  endfacet
  facet normal -1 0 0
    outer loop
      vertex 1 9 0
      vertex 1 1 6
      vertex 1 9 6
    endloop
  endfacet
  facet normal 0 -1 0
    outer loop
      vertex 1 1 6
      vertex 1 1 0
      vertex 23 1 0
    endloop
  endfacet
  facet normal 0 -1 0
    outer loop
      vertex 23 1 6
      vertex 1 1 6
      vertex 23 1 0
    endloop
  endfacet
  facet normal 0 0 -1
    outer loop
      vertex 1 1 0
      vertex 1 9 0
      vertex 23 1 0
    endloop
  endfacet
  facet normal 0 0 -1
    outer loop
      vertex 23 1 0
      vertex 1 9 0
      vertex 23 9 0
    endloop
  endfacet
  facet normal 0 1 0
    outer loop
      vertex 1 9 0
      vertex 1 9 6
      vertex 23 9 0
    endloop
  endfacet
  facet normal 0 1 0
    outer loop
      vertex 23 9 0
      vertex 1 9 6
      vertex 23 9 6
    endloop
  endfacet
  facet normal 0 0 1
    outer loop
      vertex 2 2 6
      vertex 1 1 6
      vertex 23 1 6
    endloop
  endfacet
  facet normal 0 0 1
    outer loop
      vertex 1 9 6
      vertex 1 1 6
      vertex 2 2 6
    endloop
  endfacet
  facet normal 0 0 1
    outer loop
      vertex 2 8 6
      vertex 22 8 6
      vertex 1 9 6
    endloop
  endfacet
  facet normal 0 0 1
    outer loop
      vertex 1 9 6
      vertex 2 2 6
      vertex 2 8 6
    endloop
  endfacet
  facet normal 0 0 1
    outer loop
      vertex 23 9 6
      vertex 22 8 6
      vertex 23 1 6
    endloop
  endfacet
  facet normal 0 0 1
    outer loop
      vertex 23 9 6
      vertex 1 9 6
      vertex 22 8 6
    endloop
  endfacet
  facet normal 0 0 1
    outer loop
      vertex 22 8 6
      vertex 22 2 6
      vertex 23 1 6
    endloop
  endfacet
  facet normal 0 0 1
    outer loop
      vertex 22 2 6
      vertex 2 2 6
      vertex 23 1 6
    endloop
  endfacet
  facet normal 1 0 0
    outer loop
      vertex 23 1 6
      vertex 23 1 0
      vertex 23 9 0
    endloop
  endfacet
  facet normal 1 0 0
    outer loop
      vertex 23 9 6
      vertex 23 1 6
      vertex 23 9 0
    endloop
  endfacet
  facet normal 1 0 0
    outer loop
      vertex 2 8 2
      vertex 2 8 6
      vertex 2 2 6
    endloop
  endfacet
  facet normal 1 0 0
    outer loop
      vertex 2 2 2
      vertex 2 8 2
      vertex 2 2 6
    endloop
  endfacet
  facet normal 0 1 0
    outer loop
      vertex 22 2 6
      vertex 22 2 2
      vertex 2 2 6
    endloop
  endfacet
  facet normal 0 1 0
    outer loop
      vertex 2 2 6
      vertex 22 2 2
      vertex 2 2 2
    endloop
  endfacet
  facet normal -1 0 0
    outer loop
      vertex 22 8 6
      vertex 22 8 2
      vertex 22 2 6
    endloop
  endfacet
  facet normal -1 0 0
    outer loop
      vertex 22 2 6
      vertex 22 8 2
      vertex 22 2 2
    endloop
  endfacet
  facet normal 0 -1 0
    outer loop
      vertex 22 8 2
      vertex 22 8 6
      vertex 2 8 6
    endloop
  endfacet
  facet normal 0 -1 0
    outer loop
      vertex 2 8 2
      vertex 22 8 2
      vertex 2 8 6
    endloop
  endfacet
  facet normal 0 0 1
    outer loop
      vertex 22 2 2
      vertex 22 8 2
      vertex 2 8 2
    endloop
  endfacet
  facet normal 0 0 1
    outer loop
      vertex 2 2 2
      vertex 22 2 2
      vertex 2 8 2
    endloop
  endfacet
endsolid OpenSCAD_Model
