solid OpenSCAD_Model
  facet normal -2.22045e-16 -1 0
    outer loop
      vertex -1 110 78
      vertex -3 110 78
      vertex -3 110 8
    endloop
  endfacet
  facet normal -2.22045e-16 -1 0
    outer loop
      vertex -1 110 8
      vertex -1 110 78
      vertex -3 110 8
    endloop
  endfacet
  facet normal -1 2.22045e-16 0
    outer loop
      vertex -3 181 8
      vertex -3 210 78
      vertex -3 210 8
    endloop
  endfacet
  facet normal -1 2.22045e-16 0
    outer loop
      vertex -3 181 14.8
      vertex -3 210 78
      vertex -3 181 8
    endloop
  endfacet
  facet normal -1 2.22045e-16 0
    outer loop
      vertex -3 160 18
      vertex -3 210 78
      vertex -3 181 14.8
    endloop
  endfacet
  facet normal -1 2.22045e-16 0
    outer loop
      vertex -3 110 78
      vertex -3 210 78
      vertex -3 130 68
    endloop
  endfacet
  facet normal -1 2.22045e-16 0
    outer loop
      vertex -3 110 78
      vertex -3 130 68
      vertex -3 120 68
    endloop
  endfacet
  facet normal -1 2.22045e-16 0
    outer loop
      vertex -3 110 78
      vertex -3 120 68
      vertex -3 110 8
    endloop
  endfacet
  facet normal -1 2.22045e-16 0
    outer loop
      vertex -3 160 68
      vertex -3 210 78
      vertex -3 160 18
    endloop
  endfacet
  facet normal -1 2.22045e-16 0
    outer loop
      vertex -3 150 18
      vertex -3 145 18
      vertex -3 150 68
    endloop
  endfacet
  facet normal -1 2.22045e-16 0
    outer loop
      vertex -3 110 8
      vertex -3 130 18
      vertex -3 141 14.8
    endloop
  endfacet
  facet normal -1 2.22045e-16 0
    outer loop
      vertex -3 130 68
      vertex -3 210 78
      vertex -3 135 68
    endloop
  endfacet
  facet normal -1 2.22045e-16 0
    outer loop
      vertex -3 210 78
      vertex -3 145 68
      vertex -3 135 68
    endloop
  endfacet
  facet normal -1 2.22045e-16 0
    outer loop
      vertex -3 120 18
      vertex -3 110 8
      vertex -3 120 68
    endloop
  endfacet
  facet normal -1 2.22045e-16 0
    outer loop
      vertex -3 130 18
      vertex -3 135 18
      vertex -3 141 14.8
    endloop
  endfacet
  facet normal -1 2.22045e-16 0
    outer loop
      vertex -3 141 14.8
      vertex -3 145 18
      vertex -3 181 14.8
    endloop
  endfacet
  facet normal -1 2.22045e-16 0
    outer loop
      vertex -3 145 68
      vertex -3 210 78
      vertex -3 150 68
    endloop
  endfacet
  facet normal -1 2.22045e-16 0
    outer loop
      vertex -3 145 18
      vertex -3 141 14.8
      vertex -3 135 18
    endloop
  endfacet
  facet normal -1 2.22045e-16 0
    outer loop
      vertex -3 210 78
      vertex -3 160 68
      vertex -3 150 68
    endloop
  endfacet
  facet normal -1 2.22045e-16 0
    outer loop
      vertex -3 145 68
      vertex -3 150 68
      vertex -3 145 18
    endloop
  endfacet
  facet normal -1 2.22045e-16 0
    outer loop
      vertex -3 145 18
      vertex -3 150 18
      vertex -3 181 14.8
    endloop
  endfacet
  facet normal -1 2.22045e-16 0
    outer loop
      vertex -3 150 18
      vertex -3 160 18
      vertex -3 181 14.8
    endloop
  endfacet
  facet normal -1 2.22045e-16 0
    outer loop
      vertex -3 141 8
      vertex -3 110 8
      vertex -3 141 14.8
    endloop
  endfacet
  facet normal -1 2.22045e-16 0
    outer loop
      vertex -3 135 18
      vertex -3 130 18
      vertex -3 135 68
    endloop
  endfacet
  facet normal -1 2.22045e-16 0
    outer loop
      vertex -3 130 68
      vertex -3 135 68
      vertex -3 130 18
    endloop
  endfacet
  facet normal -1 2.22045e-16 0
    outer loop
      vertex -3 130 18
      vertex -3 110 8
      vertex -3 120 18
    endloop
  endfacet
  facet normal 0 0 1
    outer loop
      vertex -3 210 78
      vertex -3 110 78
      vertex -1 110 78
    endloop
  endfacet
  facet normal 0 0 1
    outer loop
      vertex -1 210 78
      vertex -3 210 78
      vertex -1 110 78
    endloop
  endfacet
  facet normal 1 -2.22045e-16 0
    outer loop
      vertex -1 120 68
      vertex -1 110 78
      vertex -1 110 8
    endloop
  endfacet
  facet normal 1 -2.22045e-16 0
    outer loop
      vertex -1 130 18
      vertex -1 120 18
      vertex -1 110 8
    endloop
  endfacet
  facet normal 1 -2.22045e-16 0
    outer loop
      vertex -1 210 78
      vertex -1 110 78
      vertex -1 120 68
    endloop
  endfacet
  facet normal 1 -2.22045e-16 0
    outer loop
      vertex -1 210 78
      vertex -1 120 68
      vertex -1 130 68
    endloop
  endfacet
  facet normal 1 -2.22045e-16 0
    outer loop
      vertex -1 210 8
      vertex -1 130 18
      vertex -1 110 8
    endloop
  endfacet
  facet normal 1 -2.22045e-16 0
    outer loop
      vertex -1 150 18
      vertex -1 150 68
      vertex -1 145 18
    endloop
  endfacet
  facet normal 1 -2.22045e-16 0
    outer loop
      vertex -1 210 78
      vertex -1 130 68
      vertex -1 135 68
    endloop
  endfacet
  facet normal 1 -2.22045e-16 0
    outer loop
      vertex -1 135 18
      vertex -1 135 68
      vertex -1 130 18
    endloop
  endfacet
  facet normal 1 -2.22045e-16 0
    outer loop
      vertex -1 210 78
      vertex -1 135 68
      vertex -1 145 68
    endloop
  endfacet
  facet normal 1 -2.22045e-16 0
    outer loop
      vertex -1 210 8
      vertex -1 135 18
      vertex -1 130 18
    endloop
  endfacet
  facet normal 1 -2.22045e-16 0
    outer loop
      vertex -1 210 8
      vertex -1 145 18
      vertex -1 135 18
    endloop
  endfacet
  facet normal 1 -2.22045e-16 0
    outer loop
      vertex -1 210 78
      vertex -1 145 68
      vertex -1 150 68
    endloop
  endfacet
  facet normal 1 -2.22045e-16 0
    outer loop
      vertex -1 210 78
      vertex -1 150 68
      vertex -1 160 68
    endloop
  endfacet
  facet normal 1 -2.22045e-16 0
    outer loop
      vertex -1 210 8
      vertex -1 210 78
      vertex -1 160 18
    endloop
  endfacet
  facet normal 1 -2.22045e-16 0
    outer loop
      vertex -1 210 8
      vertex -1 150 18
      vertex -1 145 18
    endloop
  endfacet
  facet normal 1 -2.22045e-16 0
    outer loop
      vertex -1 210 8
      vertex -1 160 18
      vertex -1 150 18
    endloop
  endfacet
  facet normal 1 -2.22045e-16 0
    outer loop
      vertex -1 120 18
      vertex -1 120 68
      vertex -1 110 8
    endloop
  endfacet
  facet normal 1 -2.22045e-16 0
    outer loop
      vertex -1 145 68
      vertex -1 145 18
      vertex -1 150 68
    endloop
  endfacet
  facet normal 1 -2.22045e-16 0
    outer loop
      vertex -1 160 68
      vertex -1 160 18
      vertex -1 210 78
    endloop
  endfacet
  facet normal 1 -2.22045e-16 0
    outer loop
      vertex -1 130 68
      vertex -1 130 18
      vertex -1 135 68
    endloop
  endfacet
  facet normal 0 0 -1
    outer loop
      vertex -3 110 8
      vertex -3 141 8
      vertex -1 110 8
    endloop
  endfacet
  facet normal 0 0 -1
    outer loop
      vertex -1 110 8
      vertex -3 141 8
      vertex -1 141 8
    endloop
  endfacet
  facet normal 0 0 -1
    outer loop
      vertex -1 141 8
      vertex -1 210 8
      vertex -1 110 8
    endloop
  endfacet
  facet normal 0 0 -1
    outer loop
      vertex -1 181 8
      vertex -3 181 8
      vertex -3 210 8
    endloop
  endfacet
  facet normal 0 0 -1
    outer loop
      vertex -1 181 8
      vertex -3 210 8
      vertex -1 210 8
    endloop
  endfacet
  facet normal 0 0 -1
    outer loop
      vertex -1 181 8
      vertex -1 210 8
      vertex -1 141 8
    endloop
  endfacet
  facet normal -4.93038e-32 -1 2.22045e-16
    outer loop
      vertex -3 141 14.8
      vertex -7 141 14.8
      vertex -7 141 6.8
    endloop
  endfacet
  facet normal -4.93038e-32 -1 2.22045e-16
    outer loop
      vertex -3 141 8
      vertex -3 141 14.8
      vertex -7 141 6.8
    endloop
  endfacet
  facet normal -4.93038e-32 -1 2.22045e-16
    outer loop
      vertex -1 141 6.8
      vertex -3 141 8
      vertex -7 141 6.8
    endloop
  endfacet
  facet normal -4.93038e-32 -1 2.22045e-16
    outer loop
      vertex -1 141 8
      vertex -3 141 8
      vertex -1 141 6.8
    endloop
  endfacet
  facet normal -2.22045e-16 2.22045e-16 1
    outer loop
      vertex -7 181 14.8
      vertex -7 141 14.8
      vertex -3 141 14.8
    endloop
  endfacet
  facet normal -2.22045e-16 2.22045e-16 1
    outer loop
      vertex -3 181 14.8
      vertex -7 181 14.8
      vertex -3 141 14.8
    endloop
  endfacet
  facet normal 4.93038e-32 1 -2.22045e-16
    outer loop
      vertex -7 181 14.8
      vertex -3 181 14.8
      vertex -7 181 6.8
    endloop
  endfacet
  facet normal 4.93038e-32 1 -2.22045e-16
    outer loop
      vertex -7 181 6.8
      vertex -3 181 14.8
      vertex -3 181 8
    endloop
  endfacet
  facet normal 4.93038e-32 1 -2.22045e-16
    outer loop
      vertex -7 181 6.8
      vertex -3 181 8
      vertex -1 181 8
    endloop
  endfacet
  facet normal 4.93038e-32 1 -2.22045e-16
    outer loop
      vertex -7 181 6.8
      vertex -1 181 8
      vertex -1 181 6.8
    endloop
  endfacet
  facet normal 2.22045e-16 1 0
    outer loop
      vertex -3 210 78
      vertex -1 210 78
      vertex -3 210 8
    endloop
  endfacet
  facet normal 2.22045e-16 1 0
    outer loop
      vertex -3 210 8
      vertex -1 210 78
      vertex -1 210 8
    endloop
  endfacet
  facet normal 0 -1 0
    outer loop
      vertex -3 130 18
      vertex -1 130 18
      vertex -1 130 68
    endloop
  endfacet
  facet normal 0 -1 0
    outer loop
      vertex -3 130 68
      vertex -3 130 18
      vertex -1 130 68
    endloop
  endfacet
  facet normal 0 0 -1
    outer loop
      vertex -1 130 68
      vertex -1 120 68
      vertex -3 130 68
    endloop
  endfacet
  facet normal 0 0 -1
    outer loop
      vertex -3 130 68
      vertex -1 120 68
      vertex -3 120 68
    endloop
  endfacet
  facet normal 0 0 1
    outer loop
      vertex -1 120 18
      vertex -1 130 18
      vertex -3 130 18
    endloop
  endfacet
  facet normal 0 0 1
    outer loop
      vertex -3 120 18
      vertex -1 120 18
      vertex -3 130 18
    endloop
  endfacet
  facet normal 0 1 0
    outer loop
      vertex -1 120 18
      vertex -3 120 18
      vertex -1 120 68
    endloop
  endfacet
  facet normal 0 1 0
    outer loop
      vertex -1 120 68
      vertex -3 120 18
      vertex -3 120 68
    endloop
  endfacet
  facet normal 0 -1 0
    outer loop
      vertex -3 145 18
      vertex -1 145 18
      vertex -1 145 68
    endloop
  endfacet
  facet normal 0 -1 0
    outer loop
      vertex -3 145 68
      vertex -3 145 18
      vertex -1 145 68
    endloop
  endfacet
  facet normal 0 0 -1
    outer loop
      vertex -1 145 68
      vertex -1 135 68
      vertex -3 145 68
    endloop
  endfacet
  facet normal 0 0 -1
    outer loop
      vertex -3 145 68
      vertex -1 135 68
      vertex -3 135 68
    endloop
  endfacet
  facet normal 0 0 1
    outer loop
      vertex -1 135 18
      vertex -1 145 18
      vertex -3 145 18
    endloop
  endfacet
  facet normal 0 0 1
    outer loop
      vertex -3 135 18
      vertex -1 135 18
      vertex -3 145 18
    endloop
  endfacet
  facet normal 0 1 0
    outer loop
      vertex -1 135 18
      vertex -3 135 18
      vertex -1 135 68
    endloop
  endfacet
  facet normal 0 1 0
    outer loop
      vertex -1 135 68
      vertex -3 135 18
      vertex -3 135 68
    endloop
  endfacet
  facet normal 0 -1 0
    outer loop
      vertex -3 160 18
      vertex -1 160 18
      vertex -1 160 68
    endloop
  endfacet
  facet normal 0 -1 0
    outer loop
      vertex -3 160 68
      vertex -3 160 18
      vertex -1 160 68
    endloop
  endfacet
  facet normal 0 0 -1
    outer loop
      vertex -1 160 68
      vertex -1 150 68
      vertex -3 160 68
    endloop
  endfacet
  facet normal 0 0 -1
    outer loop
      vertex -3 160 68
      vertex -1 150 68
      vertex -3 150 68
    endloop
  endfacet
  facet normal 0 0 1
    outer loop
      vertex -1 150 18
      vertex -1 160 18
      vertex -3 160 18
    endloop
  endfacet
  facet normal 0 0 1
    outer loop
      vertex -3 150 18
      vertex -1 150 18
      vertex -3 160 18
    endloop
  endfacet
  facet normal 0 1 0
    outer loop
      vertex -1 150 18
      vertex -3 150 18
      vertex -1 150 68
    endloop
  endfacet
  facet normal 0 1 0
    outer loop
      vertex -1 150 68
      vertex -3 150 18
      vertex -3 150 68
    endloop
  endfacet
  facet normal 1 0 2.22045e-16
    outer loop
      vertex -1 181 8
      vertex -1 141 8
      vertex -1 141 6.8
    endloop
  endfacet
  facet normal 1 0 2.22045e-16
    outer loop
      vertex -1 181 6.8
      vertex -1 181 8
      vertex -1 141 6.8
    endloop
  endfacet
  facet normal 2.22045e-16 -2.22045e-16 -1
    outer loop
      vertex -2.2 145 6.8
      vertex -1 141 6.8
      vertex -7 141 6.8
    endloop
  endfacet
  facet normal 2.22045e-16 -2.22045e-16 -1
    outer loop
      vertex -7 145 6.8
      vertex -2.2 145 6.8
      vertex -7 141 6.8
    endloop
  endfacet
  facet normal 2.22045e-16 -2.22045e-16 -1
    outer loop
      vertex -1 181 6.8
      vertex -1 141 6.8
      vertex -2.2 155.267 6.8
    endloop
  endfacet
  facet normal 2.22045e-16 -2.22045e-16 -1
    outer loop
      vertex -7 177 6.8
      vertex -7 181 6.8
      vertex -2.2 177 6.8
    endloop
  endfacet
  facet normal 2.22045e-16 -2.22045e-16 -1
    outer loop
      vertex -2.2 166.733 6.8
      vertex -2.2 155.267 6.8
      vertex -7 166.733 6.8
    endloop
  endfacet
  facet normal 2.22045e-16 -2.22045e-16 -1
    outer loop
      vertex -7 181 6.8
      vertex -7 145 6.8
      vertex -7 141 6.8
    endloop
  endfacet
  facet normal 2.22045e-16 -2.22045e-16 -1
    outer loop
      vertex -7 155.267 6.8
      vertex -7 145 6.8
      vertex -7 181 6.8
    endloop
  endfacet
  facet normal 2.22045e-16 -2.22045e-16 -1
    outer loop
      vertex -1 181 6.8
      vertex -2.2 155.267 6.8
      vertex -2.2 166.733 6.8
    endloop
  endfacet
  facet normal 2.22045e-16 -2.22045e-16 -1
    outer loop
      vertex -1 181 6.8
      vertex -2.2 166.733 6.8
      vertex -2.2 177 6.8
    endloop
  endfacet
  facet normal 2.22045e-16 -2.22045e-16 -1
    outer loop
      vertex -1 181 6.8
      vertex -2.2 177 6.8
      vertex -7 181 6.8
    endloop
  endfacet
  facet normal 2.22045e-16 -2.22045e-16 -1
    outer loop
      vertex -7 181 6.8
      vertex -7 166.733 6.8
      vertex -7 155.267 6.8
    endloop
  endfacet
  facet normal 2.22045e-16 -2.22045e-16 -1
    outer loop
      vertex -7 177 6.8
      vertex -7 166.733 6.8
      vertex -7 181 6.8
    endloop
  endfacet
  facet normal 2.22045e-16 -2.22045e-16 -1
    outer loop
      vertex -2.2 155.267 6.8
      vertex -1 141 6.8
      vertex -2.2 145 6.8
    endloop
  endfacet
  facet normal 2.22045e-16 -2.22045e-16 -1
    outer loop
      vertex -7 155.267 6.8
      vertex -7 166.733 6.8
      vertex -2.2 155.267 6.8
    endloop
  endfacet
  facet normal -1 0 -2.22045e-16
    outer loop
      vertex -7 141 14.8
      vertex -7 181 14.8
      vertex -7 141 6.8
    endloop
  endfacet
  facet normal -1 0 -2.22045e-16
    outer loop
      vertex -7 141 6.8
      vertex -7 181 14.8
      vertex -7 181 6.8
    endloop
  endfacet
  facet normal 1 -6.12323e-17 2.22045e-16
    outer loop
      vertex -2.2 155.267 6.8
      vertex -2.2 145 6.8
      vertex -2.2 145 3
    endloop
  endfacet
  facet normal 1 -6.12323e-17 2.22045e-16
    outer loop
      vertex -2.2 155.267 3
      vertex -2.2 155.267 6.8
      vertex -2.2 145 3
    endloop
  endfacet
  facet normal -6.12323e-17 -1 2.22045e-16
    outer loop
      vertex -2.2 145 3
      vertex -2.2 145 6.8
      vertex -7 145 6.8
    endloop
  endfacet
  facet normal -6.12323e-17 -1 2.22045e-16
    outer loop
      vertex -6.91822 145 2.37883
      vertex -2.2 145 3
      vertex -7 145 3
    endloop
  endfacet
  facet normal -6.12323e-17 -1 2.22045e-16
    outer loop
      vertex -7 145 3
      vertex -2.2 145 3
      vertex -7 145 6.8
    endloop
  endfacet
  facet normal -6.12323e-17 -1 2.22045e-16
    outer loop
      vertex -6.67846 145 1.8
      vertex -2.2 145 3
      vertex -6.91822 145 2.37883
    endloop
  endfacet
  facet normal -6.12323e-17 -1 2.22045e-16
    outer loop
      vertex -6.29706 145 1.30294
      vertex -2.2 145 3
      vertex -6.67846 145 1.8
    endloop
  endfacet
  facet normal -6.12323e-17 -1 2.22045e-16
    outer loop
      vertex -5.8 145 0.92154
      vertex -2.2 145 3
      vertex -6.29706 145 1.30294
    endloop
  endfacet
  facet normal -6.12323e-17 -1 2.22045e-16
    outer loop
      vertex -5.22117 145 0.681778
      vertex -2.2 145 3
      vertex -5.8 145 0.92154
    endloop
  endfacet
  facet normal -6.12323e-17 -1 2.22045e-16
    outer loop
      vertex -4.6 145 0.6
      vertex -2.2 145 3
      vertex -5.22117 145 0.681778
    endloop
  endfacet
  facet normal -6.12323e-17 -1 2.22045e-16
    outer loop
      vertex -3.97883 145 0.681778
      vertex -2.2 145 3
      vertex -4.6 145 0.6
    endloop
  endfacet
  facet normal -6.12323e-17 -1 2.22045e-16
    outer loop
      vertex -3.4 145 0.92154
      vertex -2.2 145 3
      vertex -3.97883 145 0.681778
    endloop
  endfacet
  facet normal -6.12323e-17 -1 2.22045e-16
    outer loop
      vertex -2.90294 145 1.30294
      vertex -2.2 145 3
      vertex -3.4 145 0.92154
    endloop
  endfacet
  facet normal -6.12323e-17 -1 2.22045e-16
    outer loop
      vertex -2.52154 145 1.8
      vertex -2.2 145 3
      vertex -2.90294 145 1.30294
    endloop
  endfacet
  facet normal -6.12323e-17 -1 2.22045e-16
    outer loop
      vertex -2.28178 145 2.37883
      vertex -2.2 145 3
      vertex -2.52154 145 1.8
    endloop
  endfacet
  facet normal -1 6.12323e-17 -2.22045e-16
    outer loop
      vertex -7 145 6.8
      vertex -7 155.267 6.8
      vertex -7 145 3
    endloop
  endfacet
  facet normal -1 6.12323e-17 -2.22045e-16
    outer loop
      vertex -7 145 3
      vertex -7 155.267 6.8
      vertex -7 155.267 3
    endloop
  endfacet
  facet normal 6.12323e-17 1 -2.22045e-16
    outer loop
      vertex -2.21333 155.267 3
      vertex -2.2 155.267 3
      vertex -2.28178 155.267 2.37883
    endloop
  endfacet
  facet normal 6.12323e-17 1 -2.22045e-16
    outer loop
      vertex -2.29466 155.267 2.38229
      vertex -2.28178 155.267 2.37883
      vertex -2.52154 155.267 1.8
    endloop
  endfacet
  facet normal 6.12323e-17 1 -2.22045e-16
    outer loop
      vertex -2.53309 155.267 1.80667
      vertex -2.52154 155.267 1.8
      vertex -2.90294 155.267 1.30294
    endloop
  endfacet
  facet normal 6.12323e-17 1 -2.22045e-16
    outer loop
      vertex -2.91237 155.267 1.31237
      vertex -2.90294 155.267 1.30294
      vertex -3.40667 155.267 0.933087
    endloop
  endfacet
  facet normal 6.12323e-17 1 -2.22045e-16
    outer loop
      vertex -3.98229 155.267 0.694657
      vertex -3.4 155.267 0.92154
      vertex -3.97883 155.267 0.681778
    endloop
  endfacet
  facet normal 6.12323e-17 1 -2.22045e-16
    outer loop
      vertex -4.6 155.267 0.613334
      vertex -3.97883 155.267 0.681778
      vertex -4.6 155.267 0.6
    endloop
  endfacet
  facet normal 6.12323e-17 1 -2.22045e-16
    outer loop
      vertex -5.21771 155.267 0.694657
      vertex -4.6 155.267 0.6
      vertex -5.22117 155.267 0.681778
    endloop
  endfacet
  facet normal 6.12323e-17 1 -2.22045e-16
    outer loop
      vertex -5.79333 155.267 0.933087
      vertex -5.22117 155.267 0.681778
      vertex -5.8 155.267 0.92154
    endloop
  endfacet
  facet normal 6.12323e-17 1 -2.22045e-16
    outer loop
      vertex -6.28763 155.267 1.31237
      vertex -5.8 155.267 0.92154
      vertex -6.29706 155.267 1.30294
    endloop
  endfacet
  facet normal 6.12323e-17 1 -2.22045e-16
    outer loop
      vertex -6.66691 155.267 1.80667
      vertex -6.29706 155.267 1.30294
      vertex -6.67846 155.267 1.8
    endloop
  endfacet
  facet normal 6.12323e-17 1 -2.22045e-16
    outer loop
      vertex -6.90534 155.267 2.38229
      vertex -6.67846 155.267 1.8
      vertex -6.91822 155.267 2.37883
    endloop
  endfacet
  facet normal 6.12323e-17 1 -2.22045e-16
    outer loop
      vertex -6.98667 155.267 3
      vertex -6.91822 155.267 2.37883
      vertex -7 155.267 3
    endloop
  endfacet
  facet normal 6.12323e-17 1 -2.22045e-16
    outer loop
      vertex -2.2 155.267 6.8
      vertex -3.98229 155.267 5.30534
      vertex -7 155.267 6.8
    endloop
  endfacet
  facet normal 6.12323e-17 1 -2.22045e-16
    outer loop
      vertex -3.98229 155.267 5.30534
      vertex -4.6 155.267 5.38667
      vertex -7 155.267 6.8
    endloop
  endfacet
  facet normal 6.12323e-17 1 -2.22045e-16
    outer loop
      vertex -5.79333 155.267 5.06691
      vertex -7 155.267 6.8
      vertex -5.21771 155.267 5.30534
    endloop
  endfacet
  facet normal 6.12323e-17 1 -2.22045e-16
    outer loop
      vertex -3.98229 155.267 0.694657
      vertex -3.97883 155.267 0.681778
      vertex -4.6 155.267 0.613334
    endloop
  endfacet
  facet normal 6.12323e-17 1 -2.22045e-16
    outer loop
      vertex -6.28763 155.267 4.68763
      vertex -7 155.267 6.8
      vertex -5.79333 155.267 5.06691
    endloop
  endfacet
  facet normal 6.12323e-17 1 -2.22045e-16
    outer loop
      vertex -3.40667 155.267 0.933087
      vertex -2.90294 155.267 1.30294
      vertex -3.4 155.267 0.92154
    endloop
  endfacet
  facet normal 6.12323e-17 1 -2.22045e-16
    outer loop
      vertex -6.66691 155.267 4.19333
      vertex -7 155.267 6.8
      vertex -6.28763 155.267 4.68763
    endloop
  endfacet
  facet normal 6.12323e-17 1 -2.22045e-16
    outer loop
      vertex -6.90534 155.267 3.61771
      vertex -7 155.267 6.8
      vertex -6.66691 155.267 4.19333
    endloop
  endfacet
  facet normal 6.12323e-17 1 -2.22045e-16
    outer loop
      vertex -6.98667 155.267 3
      vertex -7 155.267 6.8
      vertex -6.90534 155.267 3.61771
    endloop
  endfacet
  facet normal 6.12323e-17 1 -2.22045e-16
    outer loop
      vertex -6.90534 155.267 2.38229
      vertex -6.91822 155.267 2.37883
      vertex -6.98667 155.267 3
    endloop
  endfacet
  facet normal 6.12323e-17 1 -2.22045e-16
    outer loop
      vertex -7 155.267 6.8
      vertex -6.98667 155.267 3
      vertex -7 155.267 3
    endloop
  endfacet
  facet normal 6.12323e-17 1 -2.22045e-16
    outer loop
      vertex -6.66691 155.267 1.80667
      vertex -6.67846 155.267 1.8
      vertex -6.90534 155.267 2.38229
    endloop
  endfacet
  facet normal 6.12323e-17 1 -2.22045e-16
    outer loop
      vertex -6.28763 155.267 1.31237
      vertex -6.29706 155.267 1.30294
      vertex -6.66691 155.267 1.80667
    endloop
  endfacet
  facet normal 6.12323e-17 1 -2.22045e-16
    outer loop
      vertex -4.6 155.267 0.613334
      vertex -4.6 155.267 0.6
      vertex -5.21771 155.267 0.694657
    endloop
  endfacet
  facet normal 6.12323e-17 1 -2.22045e-16
    outer loop
      vertex -5.21771 155.267 0.694657
      vertex -5.22117 155.267 0.681778
      vertex -5.79333 155.267 0.933087
    endloop
  endfacet
  facet normal 6.12323e-17 1 -2.22045e-16
    outer loop
      vertex -5.79333 155.267 0.933087
      vertex -5.8 155.267 0.92154
      vertex -6.28763 155.267 1.31237
    endloop
  endfacet
  facet normal 6.12323e-17 1 -2.22045e-16
    outer loop
      vertex -3.40667 155.267 0.933087
      vertex -3.4 155.267 0.92154
      vertex -3.98229 155.267 0.694657
    endloop
  endfacet
  facet normal 6.12323e-17 1 -2.22045e-16
    outer loop
      vertex -2.53309 155.267 1.80667
      vertex -2.90294 155.267 1.30294
      vertex -2.91237 155.267 1.31237
    endloop
  endfacet
  facet normal 6.12323e-17 1 -2.22045e-16
    outer loop
      vertex -2.29466 155.267 3.61771
      vertex -2.2 155.267 3
      vertex -2.21333 155.267 3
    endloop
  endfacet
  facet normal 6.12323e-17 1 -2.22045e-16
    outer loop
      vertex -2.2 155.267 6.8
      vertex -2.2 155.267 3
      vertex -2.29466 155.267 3.61771
    endloop
  endfacet
  facet normal 6.12323e-17 1 -2.22045e-16
    outer loop
      vertex -2.2 155.267 6.8
      vertex -2.29466 155.267 3.61771
      vertex -2.53309 155.267 4.19333
    endloop
  endfacet
  facet normal 6.12323e-17 1 -2.22045e-16
    outer loop
      vertex -2.2 155.267 6.8
      vertex -2.53309 155.267 4.19333
      vertex -2.91237 155.267 4.68763
    endloop
  endfacet
  facet normal 6.12323e-17 1 -2.22045e-16
    outer loop
      vertex -2.2 155.267 6.8
      vertex -2.91237 155.267 4.68763
      vertex -3.40667 155.267 5.06691
    endloop
  endfacet
  facet normal 6.12323e-17 1 -2.22045e-16
    outer loop
      vertex -2.2 155.267 6.8
      vertex -3.40667 155.267 5.06691
      vertex -3.98229 155.267 5.30534
    endloop
  endfacet
  facet normal 6.12323e-17 1 -2.22045e-16
    outer loop
      vertex -5.21771 155.267 5.30534
      vertex -7 155.267 6.8
      vertex -4.6 155.267 5.38667
    endloop
  endfacet
  facet normal 6.12323e-17 1 -2.22045e-16
    outer loop
      vertex -2.21333 155.267 3
      vertex -2.28178 155.267 2.37883
      vertex -2.29466 155.267 2.38229
    endloop
  endfacet
  facet normal 6.12323e-17 1 -2.22045e-16
    outer loop
      vertex -2.29466 155.267 2.38229
      vertex -2.52154 155.267 1.8
      vertex -2.53309 155.267 1.80667
    endloop
  endfacet
  facet normal 1 -6.12323e-17 2.22045e-16
    outer loop
      vertex -2.2 177 6.8
      vertex -2.2 166.733 6.8
      vertex -2.2 166.733 3
    endloop
  endfacet
  facet normal 1 -6.12323e-17 2.22045e-16
    outer loop
      vertex -2.2 177 3
      vertex -2.2 177 6.8
      vertex -2.2 166.733 3
    endloop
  endfacet
  facet normal -6.12323e-17 -1 2.22045e-16
    outer loop
      vertex -4.6 166.733 5.38667
      vertex -2.2 166.733 6.8
      vertex -7 166.733 6.8
    endloop
  endfacet
  facet normal -6.12323e-17 -1 2.22045e-16
    outer loop
      vertex -7 166.733 3
      vertex -6.98667 166.733 3
      vertex -7 166.733 6.8
    endloop
  endfacet
  facet normal -6.12323e-17 -1 2.22045e-16
    outer loop
      vertex -6.66691 166.733 1.80667
      vertex -6.90534 166.733 2.38228
      vertex -6.91822 166.733 2.37883
    endloop
  endfacet
  facet normal -6.12323e-17 -1 2.22045e-16
    outer loop
      vertex -3.98228 166.733 5.30534
      vertex -2.2 166.733 6.8
      vertex -4.6 166.733 5.38667
    endloop
  endfacet
  facet normal -6.12323e-17 -1 2.22045e-16
    outer loop
      vertex -2.91237 166.733 1.31237
      vertex -3.40667 166.733 0.933087
      vertex -3.4 166.733 0.92154
    endloop
  endfacet
  facet normal -6.12323e-17 -1 2.22045e-16
    outer loop
      vertex -3.40667 166.733 5.06691
      vertex -2.2 166.733 6.8
      vertex -3.98228 166.733 5.30534
    endloop
  endfacet
  facet normal -6.12323e-17 -1 2.22045e-16
    outer loop
      vertex -2.91237 166.733 4.68763
      vertex -2.2 166.733 6.8
      vertex -3.40667 166.733 5.06691
    endloop
  endfacet
  facet normal -6.12323e-17 -1 2.22045e-16
    outer loop
      vertex -3.40667 166.733 0.933087
      vertex -3.98228 166.733 0.694657
      vertex -3.97883 166.733 0.681778
    endloop
  endfacet
  facet normal -6.12323e-17 -1 2.22045e-16
    outer loop
      vertex -2.53309 166.733 4.19333
      vertex -2.2 166.733 6.8
      vertex -2.91237 166.733 4.68763
    endloop
  endfacet
  facet normal -6.12323e-17 -1 2.22045e-16
    outer loop
      vertex -2.29466 166.733 3.61772
      vertex -2.2 166.733 6.8
      vertex -2.53309 166.733 4.19333
    endloop
  endfacet
  facet normal -6.12323e-17 -1 2.22045e-16
    outer loop
      vertex -3.98228 166.733 0.694657
      vertex -4.6 166.733 0.613333
      vertex -4.6 166.733 0.6
    endloop
  endfacet
  facet normal -6.12323e-17 -1 2.22045e-16
    outer loop
      vertex -2.2 166.733 3
      vertex -2.2 166.733 6.8
      vertex -2.29466 166.733 3.61772
    endloop
  endfacet
  facet normal -6.12323e-17 -1 2.22045e-16
    outer loop
      vertex -2.28178 166.733 2.37883
      vertex -2.29466 166.733 2.38228
      vertex -2.52154 166.733 1.8
    endloop
  endfacet
  facet normal -6.12323e-17 -1 2.22045e-16
    outer loop
      vertex -2.28178 166.733 2.37883
      vertex -2.2 166.733 3
      vertex -2.29466 166.733 2.38228
    endloop
  endfacet
  facet normal -6.12323e-17 -1 2.22045e-16
    outer loop
      vertex -2.52154 166.733 1.8
      vertex -2.53309 166.733 1.80667
      vertex -2.90294 166.733 1.30294
    endloop
  endfacet
  facet normal -6.12323e-17 -1 2.22045e-16
    outer loop
      vertex -2.53309 166.733 1.80667
      vertex -2.91237 166.733 1.31237
      vertex -2.90294 166.733 1.30294
    endloop
  endfacet
  facet normal -6.12323e-17 -1 2.22045e-16
    outer loop
      vertex -2.90294 166.733 1.30294
      vertex -2.91237 166.733 1.31237
      vertex -3.4 166.733 0.92154
    endloop
  endfacet
  facet normal -6.12323e-17 -1 2.22045e-16
    outer loop
      vertex -3.4 166.733 0.92154
      vertex -3.40667 166.733 0.933087
      vertex -3.97883 166.733 0.681778
    endloop
  endfacet
  facet normal -6.12323e-17 -1 2.22045e-16
    outer loop
      vertex -3.97883 166.733 0.681778
      vertex -3.98228 166.733 0.694657
      vertex -4.6 166.733 0.6
    endloop
  endfacet
  facet normal -6.12323e-17 -1 2.22045e-16
    outer loop
      vertex -4.6 166.733 0.6
      vertex -4.6 166.733 0.613333
      vertex -5.22117 166.733 0.681778
    endloop
  endfacet
  facet normal -6.12323e-17 -1 2.22045e-16
    outer loop
      vertex -5.22117 166.733 0.681778
      vertex -5.21772 166.733 0.694657
      vertex -5.8 166.733 0.92154
    endloop
  endfacet
  facet normal -6.12323e-17 -1 2.22045e-16
    outer loop
      vertex -5.8 166.733 0.92154
      vertex -5.79333 166.733 0.933087
      vertex -6.29706 166.733 1.30294
    endloop
  endfacet
  facet normal -6.12323e-17 -1 2.22045e-16
    outer loop
      vertex -6.29706 166.733 1.30294
      vertex -6.28763 166.733 1.31237
      vertex -6.67846 166.733 1.8
    endloop
  endfacet
  facet normal -6.12323e-17 -1 2.22045e-16
    outer loop
      vertex -6.67846 166.733 1.8
      vertex -6.66691 166.733 1.80667
      vertex -6.91822 166.733 2.37883
    endloop
  endfacet
  facet normal -6.12323e-17 -1 2.22045e-16
    outer loop
      vertex -6.91822 166.733 2.37883
      vertex -6.90534 166.733 2.38228
      vertex -7 166.733 3
    endloop
  endfacet
  facet normal -6.12323e-17 -1 2.22045e-16
    outer loop
      vertex -6.90534 166.733 2.38228
      vertex -6.98667 166.733 3
      vertex -7 166.733 3
    endloop
  endfacet
  facet normal -6.12323e-17 -1 2.22045e-16
    outer loop
      vertex -6.98667 166.733 3
      vertex -6.90534 166.733 3.61772
      vertex -7 166.733 6.8
    endloop
  endfacet
  facet normal -6.12323e-17 -1 2.22045e-16
    outer loop
      vertex -6.90534 166.733 3.61772
      vertex -6.66691 166.733 4.19333
      vertex -7 166.733 6.8
    endloop
  endfacet
  facet normal -6.12323e-17 -1 2.22045e-16
    outer loop
      vertex -6.66691 166.733 4.19333
      vertex -6.28763 166.733 4.68763
      vertex -7 166.733 6.8
    endloop
  endfacet
  facet normal -6.12323e-17 -1 2.22045e-16
    outer loop
      vertex -6.28763 166.733 4.68763
      vertex -5.79333 166.733 5.06691
      vertex -7 166.733 6.8
    endloop
  endfacet
  facet normal -6.12323e-17 -1 2.22045e-16
    outer loop
      vertex -5.79333 166.733 5.06691
      vertex -5.21772 166.733 5.30534
      vertex -7 166.733 6.8
    endloop
  endfacet
  facet normal -6.12323e-17 -1 2.22045e-16
    outer loop
      vertex -2.29466 166.733 2.38228
      vertex -2.53309 166.733 1.80667
      vertex -2.52154 166.733 1.8
    endloop
  endfacet
  facet normal -6.12323e-17 -1 2.22045e-16
    outer loop
      vertex -5.21772 166.733 5.30534
      vertex -4.6 166.733 5.38667
      vertex -7 166.733 6.8
    endloop
  endfacet
  facet normal -6.12323e-17 -1 2.22045e-16
    outer loop
      vertex -2.29466 166.733 3.61772
      vertex -2.21333 166.733 3
      vertex -2.2 166.733 3
    endloop
  endfacet
  facet normal -6.12323e-17 -1 2.22045e-16
    outer loop
      vertex -4.6 166.733 0.613333
      vertex -5.21772 166.733 0.694657
      vertex -5.22117 166.733 0.681778
    endloop
  endfacet
  facet normal -6.12323e-17 -1 2.22045e-16
    outer loop
      vertex -5.21772 166.733 0.694657
      vertex -5.79333 166.733 0.933087
      vertex -5.8 166.733 0.92154
    endloop
  endfacet
  facet normal -6.12323e-17 -1 2.22045e-16
    outer loop
      vertex -5.79333 166.733 0.933087
      vertex -6.28763 166.733 1.31237
      vertex -6.29706 166.733 1.30294
    endloop
  endfacet
  facet normal -6.12323e-17 -1 2.22045e-16
    outer loop
      vertex -6.28763 166.733 1.31237
      vertex -6.66691 166.733 1.80667
      vertex -6.67846 166.733 1.8
    endloop
  endfacet
  facet normal -6.12323e-17 -1 2.22045e-16
    outer loop
      vertex -2.21333 166.733 3
      vertex -2.29466 166.733 2.38228
      vertex -2.2 166.733 3
    endloop
  endfacet
  facet normal -1 6.12323e-17 -2.22045e-16
    outer loop
      vertex -7 166.733 6.8
      vertex -7 177 6.8
      vertex -7 166.733 3
    endloop
  endfacet
  facet normal -1 6.12323e-17 -2.22045e-16
    outer loop
      vertex -7 166.733 3
      vertex -7 177 6.8
      vertex -7 177 3
    endloop
  endfacet
  facet normal 6.12323e-17 1 -2.22045e-16
    outer loop
      vertex -2.2 177 6.8
      vertex -2.2 177 3
      vertex -7 177 6.8
    endloop
  endfacet
  facet normal 6.12323e-17 1 -2.22045e-16
    outer loop
      vertex -7 177 6.8
      vertex -2.2 177 3
      vertex -2.28178 177 2.37883
    endloop
  endfacet
  facet normal 6.12323e-17 1 -2.22045e-16
    outer loop
      vertex -7 177 6.8
      vertex -2.28178 177 2.37883
      vertex -2.52154 177 1.8
    endloop
  endfacet
  facet normal 6.12323e-17 1 -2.22045e-16
    outer loop
      vertex -7 177 6.8
      vertex -2.52154 177 1.8
      vertex -2.90294 177 1.30294
    endloop
  endfacet
  facet normal 6.12323e-17 1 -2.22045e-16
    outer loop
      vertex -7 177 6.8
      vertex -2.90294 177 1.30294
      vertex -3.4 177 0.92154
    endloop
  endfacet
  facet normal 6.12323e-17 1 -2.22045e-16
    outer loop
      vertex -7 177 6.8
      vertex -3.4 177 0.92154
      vertex -3.97883 177 0.681778
    endloop
  endfacet
  facet normal 6.12323e-17 1 -2.22045e-16
    outer loop
      vertex -7 177 6.8
      vertex -3.97883 177 0.681778
      vertex -4.6 177 0.6
    endloop
  endfacet
  facet normal 6.12323e-17 1 -2.22045e-16
    outer loop
      vertex -7 177 6.8
      vertex -4.6 177 0.6
      vertex -5.22117 177 0.681778
    endloop
  endfacet
  facet normal 6.12323e-17 1 -2.22045e-16
    outer loop
      vertex -7 177 6.8
      vertex -5.22117 177 0.681778
      vertex -5.8 177 0.92154
    endloop
  endfacet
  facet normal 6.12323e-17 1 -2.22045e-16
    outer loop
      vertex -7 177 6.8
      vertex -5.8 177 0.92154
      vertex -6.29706 177 1.30294
    endloop
  endfacet
  facet normal 6.12323e-17 1 -2.22045e-16
    outer loop
      vertex -7 177 6.8
      vertex -6.29706 177 1.30294
      vertex -6.67846 177 1.8
    endloop
  endfacet
  facet normal 6.12323e-17 1 -2.22045e-16
    outer loop
      vertex -7 177 6.8
      vertex -6.67846 177 1.8
      vertex -6.91822 177 2.37883
    endloop
  endfacet
  facet normal 6.12323e-17 1 -2.22045e-16
    outer loop
      vertex -7 177 6.8
      vertex -6.91822 177 2.37883
      vertex -7 177 3
    endloop
  endfacet
  facet normal 0.991445 -8.96911e-17 -0.130526
    outer loop
      vertex -2.2 155.267 3
      vertex -2.2 145 3
      vertex -2.28178 145 2.37883
    endloop
  endfacet
  facet normal 0.991445 -8.96911e-17 -0.130526
    outer loop
      vertex -2.28178 155.267 2.37883
      vertex -2.2 155.267 3
      vertex -2.28178 145 2.37883
    endloop
  endfacet
  facet normal 0.923879 -1.41544e-16 -0.382685
    outer loop
      vertex -2.28178 155.267 2.37883
      vertex -2.28178 145 2.37883
      vertex -2.52154 145 1.8
    endloop
  endfacet
  facet normal 0.923879 -1.41544e-16 -0.382685
    outer loop
      vertex -2.52154 155.267 1.8
      vertex -2.28178 155.267 2.37883
      vertex -2.52154 145 1.8
    endloop
  endfacet
  facet normal 0.793354 -1.83751e-16 -0.608761
    outer loop
      vertex -2.52154 155.267 1.8
      vertex -2.52154 145 1.8
      vertex -2.90294 145 1.30294
    endloop
  endfacet
  facet normal 0.793354 -1.83751e-16 -0.608761
    outer loop
      vertex -2.90294 155.267 1.30294
      vertex -2.52154 155.267 1.8
      vertex -2.90294 145 1.30294
    endloop
  endfacet
  facet normal 0.608761 -2.13436e-16 -0.793354
    outer loop
      vertex -2.90294 145 1.30294
      vertex -3.4 145 0.92154
      vertex -2.90294 155.267 1.30294
    endloop
  endfacet
  facet normal 0.608761 -2.13436e-16 -0.793354
    outer loop
      vertex -2.90294 155.267 1.30294
      vertex -3.4 145 0.92154
      vertex -3.4 155.267 0.92154
    endloop
  endfacet
  facet normal 0.382685 -2.28575e-16 -0.923879
    outer loop
      vertex -3.4 145 0.92154
      vertex -3.97883 145 0.681778
      vertex -3.4 155.267 0.92154
    endloop
  endfacet
  facet normal 0.382685 -2.28575e-16 -0.923879
    outer loop
      vertex -3.4 155.267 0.92154
      vertex -3.97883 145 0.681778
      vertex -3.97883 155.267 0.681778
    endloop
  endfacet
  facet normal 0.130526 -2.28137e-16 -0.991445
    outer loop
      vertex -3.97883 145 0.681778
      vertex -4.6 145 0.6
      vertex -3.97883 155.267 0.681778
    endloop
  endfacet
  facet normal 0.130526 -2.28137e-16 -0.991445
    outer loop
      vertex -3.97883 155.267 0.681778
      vertex -4.6 145 0.6
      vertex -4.6 155.267 0.6
    endloop
  endfacet
  facet normal -0.130526 -2.12153e-16 -0.991445
    outer loop
      vertex -5.22117 145 0.681778
      vertex -5.22117 155.267 0.681778
      vertex -4.6 145 0.6
    endloop
  endfacet
  facet normal -0.130526 -2.12153e-16 -0.991445
    outer loop
      vertex -4.6 145 0.6
      vertex -5.22117 155.267 0.681778
      vertex -4.6 155.267 0.6
    endloop
  endfacet
  facet normal -0.382685 -1.8171e-16 -0.923879
    outer loop
      vertex -5.8 145 0.92154
      vertex -5.8 155.267 0.92154
      vertex -5.22117 145 0.681778
    endloop
  endfacet
  facet normal -0.382685 -1.8171e-16 -0.923879
    outer loop
      vertex -5.22117 145 0.681778
      vertex -5.8 155.267 0.92154
      vertex -5.22117 155.267 0.681778
    endloop
  endfacet
  facet normal -0.608761 -1.38884e-16 -0.793354
    outer loop
      vertex -6.29706 145 1.30294
      vertex -6.29706 155.267 1.30294
      vertex -5.8 145 0.92154
    endloop
  endfacet
  facet normal -0.608761 -1.38884e-16 -0.793354
    outer loop
      vertex -5.8 145 0.92154
      vertex -6.29706 155.267 1.30294
      vertex -5.8 155.267 0.92154
    endloop
  endfacet
  facet normal -0.793354 -8.65932e-17 -0.608761
    outer loop
      vertex -6.67846 145 1.8
      vertex -6.67846 155.267 1.8
      vertex -6.29706 145 1.30294
    endloop
  endfacet
  facet normal -0.793354 -8.65932e-17 -0.608761
    outer loop
      vertex -6.29706 145 1.30294
      vertex -6.67846 155.267 1.8
      vertex -6.29706 155.267 1.30294
    endloop
  endfacet
  facet normal -0.923879 -2.84019e-17 -0.382685
    outer loop
      vertex -6.91822 145 2.37883
      vertex -6.91822 155.267 2.37883
      vertex -6.67846 145 1.8
    endloop
  endfacet
  facet normal -0.923879 -2.84019e-17 -0.382685
    outer loop
      vertex -6.67846 145 1.8
      vertex -6.91822 155.267 2.37883
      vertex -6.67846 155.267 1.8
    endloop
  endfacet
  facet normal -0.991445 3.17259e-17 -0.130526
    outer loop
      vertex -7 145 3
      vertex -7 155.267 3
      vertex -6.91822 145 2.37883
    endloop
  endfacet
  facet normal -0.991445 3.17259e-17 -0.130526
    outer loop
      vertex -6.91822 145 2.37883
      vertex -7 155.267 3
      vertex -6.91822 155.267 2.37883
    endloop
  endfacet
  facet normal -0.10889 0.551402 -0.827103
    outer loop
      vertex -3.98229 155.267 5.30534
      vertex -4.6 151.687 3
      vertex -4.6 155.267 5.38667
    endloop
  endfacet
  facet normal -0.319251 0.551402 -0.770737
    outer loop
      vertex -3.40667 155.267 5.06691
      vertex -4.6 151.687 3
      vertex -3.98229 155.267 5.30534
    endloop
  endfacet
  facet normal -0.507853 0.551402 -0.661847
    outer loop
      vertex -2.91237 155.267 4.68763
      vertex -4.6 151.687 3
      vertex -3.40667 155.267 5.06691
    endloop
  endfacet
  facet normal -0.661847 0.551402 -0.507853
    outer loop
      vertex -2.53309 155.267 4.19333
      vertex -4.6 151.687 3
      vertex -2.91237 155.267 4.68763
    endloop
  endfacet
  facet normal -0.770737 0.551402 -0.319251
    outer loop
      vertex -2.29466 155.267 3.61771
      vertex -4.6 151.687 3
      vertex -2.53309 155.267 4.19333
    endloop
  endfacet
  facet normal -0.827103 0.551402 -0.10889
    outer loop
      vertex -2.21333 155.267 3
      vertex -4.6 151.687 3
      vertex -2.29466 155.267 3.61771
    endloop
  endfacet
  facet normal -0.827103 0.551402 0.10889
    outer loop
      vertex -2.21333 155.267 3
      vertex -2.29466 155.267 2.38229
      vertex -4.6 151.687 3
    endloop
  endfacet
  facet normal -0.770737 0.551402 0.319251
    outer loop
      vertex -2.29466 155.267 2.38229
      vertex -2.53309 155.267 1.80667
      vertex -4.6 151.687 3
    endloop
  endfacet
  facet normal -0.661847 0.551402 0.507853
    outer loop
      vertex -2.53309 155.267 1.80667
      vertex -2.91237 155.267 1.31237
      vertex -4.6 151.687 3
    endloop
  endfacet
  facet normal -0.507853 0.551402 0.661847
    outer loop
      vertex -2.91237 155.267 1.31237
      vertex -3.40667 155.267 0.933087
      vertex -4.6 151.687 3
    endloop
  endfacet
  facet normal -0.319251 0.551402 0.770737
    outer loop
      vertex -3.40667 155.267 0.933087
      vertex -3.98229 155.267 0.694657
      vertex -4.6 151.687 3
    endloop
  endfacet
  facet normal -0.10889 0.551402 0.827103
    outer loop
      vertex -3.98229 155.267 0.694657
      vertex -4.6 155.267 0.613334
      vertex -4.6 151.687 3
    endloop
  endfacet
  facet normal 0.10889 0.551402 0.827103
    outer loop
      vertex -4.6 155.267 0.613334
      vertex -5.21771 155.267 0.694657
      vertex -4.6 151.687 3
    endloop
  endfacet
  facet normal 0.319251 0.551402 0.770737
    outer loop
      vertex -5.21771 155.267 0.694657
      vertex -5.79333 155.267 0.933087
      vertex -4.6 151.687 3
    endloop
  endfacet
  facet normal 0.507853 0.551402 0.661847
    outer loop
      vertex -5.79333 155.267 0.933087
      vertex -6.28763 155.267 1.31237
      vertex -4.6 151.687 3
    endloop
  endfacet
  facet normal 0.661847 0.551402 0.507853
    outer loop
      vertex -6.28763 155.267 1.31237
      vertex -6.66691 155.267 1.80667
      vertex -4.6 151.687 3
    endloop
  endfacet
  facet normal 0.770737 0.551402 0.319251
    outer loop
      vertex -6.66691 155.267 1.80667
      vertex -6.90534 155.267 2.38229
      vertex -4.6 151.687 3
    endloop
  endfacet
  facet normal 0.827103 0.551402 0.10889
    outer loop
      vertex -6.90534 155.267 2.38229
      vertex -6.98667 155.267 3
      vertex -4.6 151.687 3
    endloop
  endfacet
  facet normal 0.827103 0.551402 -0.10889
    outer loop
      vertex -4.6 151.687 3
      vertex -6.98667 155.267 3
      vertex -6.90534 155.267 3.61771
    endloop
  endfacet
  facet normal 0.770737 0.551402 -0.319251
    outer loop
      vertex -4.6 151.687 3
      vertex -6.90534 155.267 3.61771
      vertex -6.66691 155.267 4.19333
    endloop
  endfacet
  facet normal 0.661847 0.551402 -0.507853
    outer loop
      vertex -4.6 151.687 3
      vertex -6.66691 155.267 4.19333
      vertex -6.28763 155.267 4.68763
    endloop
  endfacet
  facet normal 0.507853 0.551402 -0.661847
    outer loop
      vertex -4.6 151.687 3
      vertex -6.28763 155.267 4.68763
      vertex -5.79333 155.267 5.06691
    endloop
  endfacet
  facet normal 0.319251 0.551402 -0.770737
    outer loop
      vertex -4.6 151.687 3
      vertex -5.79333 155.267 5.06691
      vertex -5.21771 155.267 5.30534
    endloop
  endfacet
  facet normal 0.10889 0.551402 -0.827103
    outer loop
      vertex -4.6 151.687 3
      vertex -5.21771 155.267 5.30534
      vertex -4.6 155.267 5.38667
    endloop
  endfacet
  facet normal 0.991445 -8.96911e-17 -0.130526
    outer loop
      vertex -2.2 177 3
      vertex -2.2 166.733 3
      vertex -2.28178 166.733 2.37883
    endloop
  endfacet
  facet normal 0.991445 -8.96911e-17 -0.130526
    outer loop
      vertex -2.28178 177 2.37883
      vertex -2.2 177 3
      vertex -2.28178 166.733 2.37883
    endloop
  endfacet
  facet normal 0.923879 -1.41544e-16 -0.382685
    outer loop
      vertex -2.28178 177 2.37883
      vertex -2.28178 166.733 2.37883
      vertex -2.52154 166.733 1.8
    endloop
  endfacet
  facet normal 0.923879 -1.41544e-16 -0.382685
    outer loop
      vertex -2.52154 177 1.8
      vertex -2.28178 177 2.37883
      vertex -2.52154 166.733 1.8
    endloop
  endfacet
  facet normal 0.793354 -1.83751e-16 -0.608761
    outer loop
      vertex -2.52154 177 1.8
      vertex -2.52154 166.733 1.8
      vertex -2.90294 166.733 1.30294
    endloop
  endfacet
  facet normal 0.793354 -1.83751e-16 -0.608761
    outer loop
      vertex -2.90294 177 1.30294
      vertex -2.52154 177 1.8
      vertex -2.90294 166.733 1.30294
    endloop
  endfacet
  facet normal 0.608761 -2.13436e-16 -0.793354
    outer loop
      vertex -2.90294 166.733 1.30294
      vertex -3.4 166.733 0.92154
      vertex -2.90294 177 1.30294
    endloop
  endfacet
  facet normal 0.608761 -2.13436e-16 -0.793354
    outer loop
      vertex -2.90294 177 1.30294
      vertex -3.4 166.733 0.92154
      vertex -3.4 177 0.92154
    endloop
  endfacet
  facet normal 0.382685 -2.28575e-16 -0.923879
    outer loop
      vertex -3.4 166.733 0.92154
      vertex -3.97883 166.733 0.681778
      vertex -3.4 177 0.92154
    endloop
  endfacet
  facet normal 0.382685 -2.28575e-16 -0.923879
    outer loop
      vertex -3.4 177 0.92154
      vertex -3.97883 166.733 0.681778
      vertex -3.97883 177 0.681778
    endloop
  endfacet
  facet normal 0.130526 -2.28137e-16 -0.991445
    outer loop
      vertex -3.97883 166.733 0.681778
      vertex -4.6 166.733 0.6
      vertex -3.97883 177 0.681778
    endloop
  endfacet
  facet normal 0.130526 -2.28137e-16 -0.991445
    outer loop
      vertex -3.97883 177 0.681778
      vertex -4.6 166.733 0.6
      vertex -4.6 177 0.6
    endloop
  endfacet
  facet normal -0.130526 -2.12153e-16 -0.991445
    outer loop
      vertex -5.22117 166.733 0.681778
      vertex -5.22117 177 0.681778
      vertex -4.6 166.733 0.6
    endloop
  endfacet
  facet normal -0.130526 -2.12153e-16 -0.991445
    outer loop
      vertex -4.6 166.733 0.6
      vertex -5.22117 177 0.681778
      vertex -4.6 177 0.6
    endloop
  endfacet
  facet normal -0.382685 -1.8171e-16 -0.923879
    outer loop
      vertex -5.8 166.733 0.92154
      vertex -5.8 177 0.92154
      vertex -5.22117 166.733 0.681778
    endloop
  endfacet
  facet normal -0.382685 -1.8171e-16 -0.923879
    outer loop
      vertex -5.22117 166.733 0.681778
      vertex -5.8 177 0.92154
      vertex -5.22117 177 0.681778
    endloop
  endfacet
  facet normal -0.608761 -1.38884e-16 -0.793354
    outer loop
      vertex -6.29706 166.733 1.30294
      vertex -6.29706 177 1.30294
      vertex -5.8 166.733 0.92154
    endloop
  endfacet
  facet normal -0.608761 -1.38884e-16 -0.793354
    outer loop
      vertex -5.8 166.733 0.92154
      vertex -6.29706 177 1.30294
      vertex -5.8 177 0.92154
    endloop
  endfacet
  facet normal -0.793354 -8.65932e-17 -0.608761
    outer loop
      vertex -6.67846 166.733 1.8
      vertex -6.67846 177 1.8
      vertex -6.29706 166.733 1.30294
    endloop
  endfacet
  facet normal -0.793354 -8.65932e-17 -0.608761
    outer loop
      vertex -6.29706 166.733 1.30294
      vertex -6.67846 177 1.8
      vertex -6.29706 177 1.30294
    endloop
  endfacet
  facet normal -0.923879 -2.84019e-17 -0.382685
    outer loop
      vertex -6.91822 166.733 2.37883
      vertex -6.91822 177 2.37883
      vertex -6.67846 166.733 1.8
    endloop
  endfacet
  facet normal -0.923879 -2.84019e-17 -0.382685
    outer loop
      vertex -6.67846 166.733 1.8
      vertex -6.91822 177 2.37883
      vertex -6.67846 177 1.8
    endloop
  endfacet
  facet normal -0.991445 3.17259e-17 -0.130526
    outer loop
      vertex -7 166.733 3
      vertex -7 177 3
      vertex -6.91822 166.733 2.37883
    endloop
  endfacet
  facet normal -0.991445 3.17259e-17 -0.130526
    outer loop
      vertex -6.91822 166.733 2.37883
      vertex -7 177 3
      vertex -6.91822 177 2.37883
    endloop
  endfacet
  facet normal -0.10889 -0.551402 -0.827103
    outer loop
      vertex -4.6 170.313 3
      vertex -3.98228 166.733 5.30534
      vertex -4.6 166.733 5.38667
    endloop
  endfacet
  facet normal 0.10889 -0.551402 -0.827103
    outer loop
      vertex -5.21772 166.733 5.30534
      vertex -4.6 170.313 3
      vertex -4.6 166.733 5.38667
    endloop
  endfacet
  facet normal 0.319251 -0.551402 -0.770737
    outer loop
      vertex -5.79333 166.733 5.06691
      vertex -4.6 170.313 3
      vertex -5.21772 166.733 5.30534
    endloop
  endfacet
  facet normal 0.507853 -0.551402 -0.661847
    outer loop
      vertex -6.28763 166.733 4.68763
      vertex -4.6 170.313 3
      vertex -5.79333 166.733 5.06691
    endloop
  endfacet
  facet normal 0.661847 -0.551402 -0.507853
    outer loop
      vertex -6.66691 166.733 4.19333
      vertex -4.6 170.313 3
      vertex -6.28763 166.733 4.68763
    endloop
  endfacet
  facet normal 0.770737 -0.551402 -0.319251
    outer loop
      vertex -6.90534 166.733 3.61772
      vertex -4.6 170.313 3
      vertex -6.66691 166.733 4.19333
    endloop
  endfacet
  facet normal 0.827103 -0.551402 -0.10889
    outer loop
      vertex -6.98667 166.733 3
      vertex -4.6 170.313 3
      vertex -6.90534 166.733 3.61772
    endloop
  endfacet
  facet normal 0.827103 -0.551402 0.10889
    outer loop
      vertex -6.90534 166.733 2.38228
      vertex -4.6 170.313 3
      vertex -6.98667 166.733 3
    endloop
  endfacet
  facet normal 0.770737 -0.551402 0.319251
    outer loop
      vertex -6.90534 166.733 2.38228
      vertex -6.66691 166.733 1.80667
      vertex -4.6 170.313 3
    endloop
  endfacet
  facet normal 0.661847 -0.551402 0.507853
    outer loop
      vertex -6.66691 166.733 1.80667
      vertex -6.28763 166.733 1.31237
      vertex -4.6 170.313 3
    endloop
  endfacet
  facet normal 0.507853 -0.551402 0.661847
    outer loop
      vertex -6.28763 166.733 1.31237
      vertex -5.79333 166.733 0.933087
      vertex -4.6 170.313 3
    endloop
  endfacet
  facet normal 0.319251 -0.551402 0.770737
    outer loop
      vertex -5.79333 166.733 0.933087
      vertex -5.21772 166.733 0.694657
      vertex -4.6 170.313 3
    endloop
  endfacet
  facet normal 0.10889 -0.551402 0.827103
    outer loop
      vertex -5.21772 166.733 0.694657
      vertex -4.6 166.733 0.613333
      vertex -4.6 170.313 3
    endloop
  endfacet
  facet normal -0.10889 -0.551402 0.827103
    outer loop
      vertex -4.6 166.733 0.613333
      vertex -3.98228 166.733 0.694657
      vertex -4.6 170.313 3
    endloop
  endfacet
  facet normal -0.319251 -0.551402 0.770737
    outer loop
      vertex -3.98228 166.733 0.694657
      vertex -3.40667 166.733 0.933087
      vertex -4.6 170.313 3
    endloop
  endfacet
  facet normal -0.507853 -0.551402 0.661847
    outer loop
      vertex -3.40667 166.733 0.933087
      vertex -2.91237 166.733 1.31237
      vertex -4.6 170.313 3
    endloop
  endfacet
  facet normal -0.661847 -0.551402 0.507853
    outer loop
      vertex -2.91237 166.733 1.31237
      vertex -2.53309 166.733 1.80667
      vertex -4.6 170.313 3
    endloop
  endfacet
  facet normal -0.770737 -0.551402 0.319251
    outer loop
      vertex -2.53309 166.733 1.80667
      vertex -2.29466 166.733 2.38228
      vertex -4.6 170.313 3
    endloop
  endfacet
  facet normal -0.827103 -0.551402 0.10889
    outer loop
      vertex -4.6 170.313 3
      vertex -2.29466 166.733 2.38228
      vertex -2.21333 166.733 3
    endloop
  endfacet
  facet normal -0.827103 -0.551402 -0.10889
    outer loop
      vertex -4.6 170.313 3
      vertex -2.21333 166.733 3
      vertex -2.29466 166.733 3.61772
    endloop
  endfacet
  facet normal -0.770737 -0.551402 -0.319251
    outer loop
      vertex -4.6 170.313 3
      vertex -2.29466 166.733 3.61772
      vertex -2.53309 166.733 4.19333
    endloop
  endfacet
  facet normal -0.661847 -0.551402 -0.507853
    outer loop
      vertex -4.6 170.313 3
      vertex -2.53309 166.733 4.19333
      vertex -2.91237 166.733 4.68763
    endloop
  endfacet
  facet normal -0.507853 -0.551402 -0.661847
    outer loop
      vertex -4.6 170.313 3
      vertex -2.91237 166.733 4.68763
      vertex -3.40667 166.733 5.06691
    endloop
  endfacet
  facet normal -0.319251 -0.551402 -0.770737
    outer loop
      vertex -4.6 170.313 3
      vertex -3.40667 166.733 5.06691
      vertex -3.98228 166.733 5.30534
    endloop
  endfacet
  facet normal -0.130526 2.28137e-16 0.991445
    outer loop
      vertex -5.22117 155.667 5.31822
      vertex -4.6 155.667 5.4
      vertex -4.6 166.333 5.4
    endloop
  endfacet
  facet normal -0.130526 2.28137e-16 0.991445
    outer loop
      vertex -5.22117 166.333 5.31822
      vertex -5.22117 155.667 5.31822
      vertex -4.6 166.333 5.4
    endloop
  endfacet
  facet normal 0.130526 2.12153e-16 0.991445
    outer loop
      vertex -4.6 166.333 5.4
      vertex -4.6 155.667 5.4
      vertex -3.97883 155.667 5.31822
    endloop
  endfacet
  facet normal 0.130526 2.12153e-16 0.991445
    outer loop
      vertex -3.97883 166.333 5.31822
      vertex -4.6 166.333 5.4
      vertex -3.97883 155.667 5.31822
    endloop
  endfacet
  facet normal 0.10889 -0.551402 0.827103
    outer loop
      vertex -3.97883 155.667 5.31822
      vertex -4.6 155.667 5.4
      vertex -4.6 152.067 3
    endloop
  endfacet
  facet normal -0.10889 -0.551402 0.827103
    outer loop
      vertex -4.6 152.067 3
      vertex -4.6 155.667 5.4
      vertex -5.22117 155.667 5.31822
    endloop
  endfacet
  facet normal -0.319251 -0.551402 0.770737
    outer loop
      vertex -4.6 152.067 3
      vertex -5.22117 155.667 5.31822
      vertex -5.8 155.667 5.07846
    endloop
  endfacet
  facet normal -0.382685 2.28575e-16 0.923879
    outer loop
      vertex -5.8 155.667 5.07846
      vertex -5.22117 155.667 5.31822
      vertex -5.22117 166.333 5.31822
    endloop
  endfacet
  facet normal -0.382685 2.28575e-16 0.923879
    outer loop
      vertex -5.8 166.333 5.07846
      vertex -5.8 155.667 5.07846
      vertex -5.22117 166.333 5.31822
    endloop
  endfacet
  facet normal 6.12323e-17 1 -2.22045e-16
    outer loop
      vertex -4.6 166.333 5.4
      vertex -3.97883 166.333 5.31822
      vertex -5.22117 166.333 5.31822
    endloop
  endfacet
  facet normal 6.12323e-17 1 -2.22045e-16
    outer loop
      vertex -5.22117 166.333 5.31822
      vertex -3.97883 166.333 5.31822
      vertex -3.4 166.333 5.07846
    endloop
  endfacet
  facet normal 6.12323e-17 1 -2.22045e-16
    outer loop
      vertex -5.22117 166.333 5.31822
      vertex -3.4 166.333 5.07846
      vertex -2.90294 166.333 4.69706
    endloop
  endfacet
  facet normal 6.12323e-17 1 -2.22045e-16
    outer loop
      vertex -5.22117 166.333 5.31822
      vertex -2.90294 166.333 4.69706
      vertex -2.52154 166.333 4.2
    endloop
  endfacet
  facet normal 6.12323e-17 1 -2.22045e-16
    outer loop
      vertex -5.22117 166.333 5.31822
      vertex -2.52154 166.333 4.2
      vertex -2.28178 166.333 3.62117
    endloop
  endfacet
  facet normal 6.12323e-17 1 -2.22045e-16
    outer loop
      vertex -5.22117 166.333 5.31822
      vertex -2.28178 166.333 3.62117
      vertex -2.2 166.333 3
    endloop
  endfacet
  facet normal 6.12323e-17 1 -2.22045e-16
    outer loop
      vertex -5.22117 166.333 5.31822
      vertex -2.2 166.333 3
      vertex -2.2 166.333 -0.8
    endloop
  endfacet
  facet normal 6.12323e-17 1 -2.22045e-16
    outer loop
      vertex -5.22117 166.333 5.31822
      vertex -2.2 166.333 -0.8
      vertex -7 166.333 -0.8
    endloop
  endfacet
  facet normal 6.12323e-17 1 -2.22045e-16
    outer loop
      vertex -5.22117 166.333 5.31822
      vertex -7 166.333 -0.8
      vertex -7 166.333 3
    endloop
  endfacet
  facet normal 6.12323e-17 1 -2.22045e-16
    outer loop
      vertex -5.22117 166.333 5.31822
      vertex -7 166.333 3
      vertex -6.91822 166.333 3.62117
    endloop
  endfacet
  facet normal 6.12323e-17 1 -2.22045e-16
    outer loop
      vertex -5.22117 166.333 5.31822
      vertex -6.91822 166.333 3.62117
      vertex -6.67846 166.333 4.2
    endloop
  endfacet
  facet normal 6.12323e-17 1 -2.22045e-16
    outer loop
      vertex -5.22117 166.333 5.31822
      vertex -6.67846 166.333 4.2
      vertex -6.29706 166.333 4.69706
    endloop
  endfacet
  facet normal 6.12323e-17 1 -2.22045e-16
    outer loop
      vertex -5.22117 166.333 5.31822
      vertex -6.29706 166.333 4.69706
      vertex -5.8 166.333 5.07846
    endloop
  endfacet
  facet normal 0.382685 1.8171e-16 0.923879
    outer loop
      vertex -3.97883 166.333 5.31822
      vertex -3.97883 155.667 5.31822
      vertex -3.4 155.667 5.07846
    endloop
  endfacet
  facet normal 0.382685 1.8171e-16 0.923879
    outer loop
      vertex -3.4 166.333 5.07846
      vertex -3.97883 166.333 5.31822
      vertex -3.4 155.667 5.07846
    endloop
  endfacet
  facet normal 0.319251 -0.551402 0.770737
    outer loop
      vertex -3.4 155.667 5.07846
      vertex -3.97883 155.667 5.31822
      vertex -4.6 152.067 3
    endloop
  endfacet
  facet normal -0.827103 -0.551402 -0.10889
    outer loop
      vertex -6.91822 155.667 2.37883
      vertex -4.6 152.067 3
      vertex -7 155.667 3
    endloop
  endfacet
  facet normal -0.827103 -0.551402 0.10889
    outer loop
      vertex -4.6 152.067 3
      vertex -6.91822 155.667 3.62117
      vertex -7 155.667 3
    endloop
  endfacet
  facet normal -0.770737 -0.551402 0.319251
    outer loop
      vertex -4.6 152.067 3
      vertex -6.67846 155.667 4.2
      vertex -6.91822 155.667 3.62117
    endloop
  endfacet
  facet normal -0.661847 -0.551402 0.507853
    outer loop
      vertex -4.6 152.067 3
      vertex -6.29706 155.667 4.69706
      vertex -6.67846 155.667 4.2
    endloop
  endfacet
  facet normal -0.507853 -0.551402 0.661847
    outer loop
      vertex -4.6 152.067 3
      vertex -5.8 155.667 5.07846
      vertex -6.29706 155.667 4.69706
    endloop
  endfacet
  facet normal 0.507853 -0.551402 0.661847
    outer loop
      vertex -2.90294 155.667 4.69706
      vertex -3.4 155.667 5.07846
      vertex -4.6 152.067 3
    endloop
  endfacet
  facet normal 0.661847 -0.551402 0.507853
    outer loop
      vertex -2.52154 155.667 4.2
      vertex -2.90294 155.667 4.69706
      vertex -4.6 152.067 3
    endloop
  endfacet
  facet normal 0.770737 -0.551402 0.319251
    outer loop
      vertex -2.28178 155.667 3.62117
      vertex -2.52154 155.667 4.2
      vertex -4.6 152.067 3
    endloop
  endfacet
  facet normal 0.827103 -0.551402 0.10889
    outer loop
      vertex -2.2 155.667 3
      vertex -2.28178 155.667 3.62117
      vertex -4.6 152.067 3
    endloop
  endfacet
  facet normal 0.827103 -0.551402 -0.10889
    outer loop
      vertex -2.2 155.667 3
      vertex -4.6 152.067 3
      vertex -2.28178 155.667 2.37883
    endloop
  endfacet
  facet normal 0.770737 -0.551402 -0.319251
    outer loop
      vertex -2.28178 155.667 2.37883
      vertex -4.6 152.067 3
      vertex -2.52154 155.667 1.8
    endloop
  endfacet
  facet normal 0.661847 -0.551402 -0.507853
    outer loop
      vertex -2.52154 155.667 1.8
      vertex -4.6 152.067 3
      vertex -2.90294 155.667 1.30294
    endloop
  endfacet
  facet normal 0.507853 -0.551402 -0.661847
    outer loop
      vertex -2.90294 155.667 1.30294
      vertex -4.6 152.067 3
      vertex -3.4 155.667 0.92154
    endloop
  endfacet
  facet normal 0.319251 -0.551402 -0.770737
    outer loop
      vertex -3.4 155.667 0.92154
      vertex -4.6 152.067 3
      vertex -3.97883 155.667 0.681778
    endloop
  endfacet
  facet normal 0.10889 -0.551402 -0.827103
    outer loop
      vertex -3.97883 155.667 0.681778
      vertex -4.6 152.067 3
      vertex -4.6 155.667 0.6
    endloop
  endfacet
  facet normal -0.10889 -0.551402 -0.827103
    outer loop
      vertex -4.6 155.667 0.6
      vertex -4.6 152.067 3
      vertex -5.22117 155.667 0.681778
    endloop
  endfacet
  facet normal -0.319251 -0.551402 -0.770737
    outer loop
      vertex -5.22117 155.667 0.681778
      vertex -4.6 152.067 3
      vertex -5.8 155.667 0.92154
    endloop
  endfacet
  facet normal -0.507853 -0.551402 -0.661847
    outer loop
      vertex -5.8 155.667 0.92154
      vertex -4.6 152.067 3
      vertex -6.29706 155.667 1.30294
    endloop
  endfacet
  facet normal -0.661847 -0.551402 -0.507853
    outer loop
      vertex -6.29706 155.667 1.30294
      vertex -4.6 152.067 3
      vertex -6.67846 155.667 1.8
    endloop
  endfacet
  facet normal -0.770737 -0.551402 -0.319251
    outer loop
      vertex -6.67846 155.667 1.8
      vertex -4.6 152.067 3
      vertex -6.91822 155.667 2.37883
    endloop
  endfacet
  facet normal -0.608761 2.13436e-16 0.793354
    outer loop
      vertex -6.29706 155.667 4.69706
      vertex -5.8 155.667 5.07846
      vertex -5.8 166.333 5.07846
    endloop
  endfacet
  facet normal -0.608761 2.13436e-16 0.793354
    outer loop
      vertex -6.29706 166.333 4.69706
      vertex -6.29706 155.667 4.69706
      vertex -5.8 166.333 5.07846
    endloop
  endfacet
  facet normal -0.793354 1.83751e-16 0.608761
    outer loop
      vertex -6.29706 155.667 4.69706
      vertex -6.29706 166.333 4.69706
      vertex -6.67846 155.667 4.2
    endloop
  endfacet
  facet normal -0.793354 1.83751e-16 0.608761
    outer loop
      vertex -6.67846 155.667 4.2
      vertex -6.29706 166.333 4.69706
      vertex -6.67846 166.333 4.2
    endloop
  endfacet
  facet normal -0.923879 1.41544e-16 0.382685
    outer loop
      vertex -6.67846 155.667 4.2
      vertex -6.67846 166.333 4.2
      vertex -6.91822 155.667 3.62117
    endloop
  endfacet
  facet normal -0.923879 1.41544e-16 0.382685
    outer loop
      vertex -6.91822 155.667 3.62117
      vertex -6.67846 166.333 4.2
      vertex -6.91822 166.333 3.62117
    endloop
  endfacet
  facet normal -0.991445 8.96911e-17 0.130526
    outer loop
      vertex -6.91822 155.667 3.62117
      vertex -6.91822 166.333 3.62117
      vertex -7 155.667 3
    endloop
  endfacet
  facet normal -0.991445 8.96911e-17 0.130526
    outer loop
      vertex -7 155.667 3
      vertex -6.91822 166.333 3.62117
      vertex -7 166.333 3
    endloop
  endfacet
  facet normal -1 6.12323e-17 -2.22045e-16
    outer loop
      vertex -7 155.667 3
      vertex -7 166.333 3
      vertex -7 155.667 -0.8
    endloop
  endfacet
  facet normal -1 6.12323e-17 -2.22045e-16
    outer loop
      vertex -7 155.667 -0.8
      vertex -7 166.333 3
      vertex -7 166.333 -0.8
    endloop
  endfacet
  facet normal 2.22045e-16 -2.22045e-16 -1
    outer loop
      vertex -2.2 155.667 -0.8
      vertex -7 155.667 -0.8
      vertex -2.2 166.333 -0.8
    endloop
  endfacet
  facet normal 2.22045e-16 -2.22045e-16 -1
    outer loop
      vertex -2.2 166.333 -0.8
      vertex -7 155.667 -0.8
      vertex -7 166.333 -0.8
    endloop
  endfacet
  facet normal 1 -6.12323e-17 2.22045e-16
    outer loop
      vertex -2.2 166.333 3
      vertex -2.2 155.667 3
      vertex -2.2 155.667 -0.8
    endloop
  endfacet
  facet normal 1 -6.12323e-17 2.22045e-16
    outer loop
      vertex -2.2 166.333 -0.8
      vertex -2.2 166.333 3
      vertex -2.2 155.667 -0.8
    endloop
  endfacet
  facet normal 0.991445 -3.17259e-17 0.130526
    outer loop
      vertex -2.28178 166.333 3.62117
      vertex -2.28178 155.667 3.62117
      vertex -2.2 155.667 3
    endloop
  endfacet
  facet normal 0.991445 -3.17259e-17 0.130526
    outer loop
      vertex -2.2 166.333 3
      vertex -2.28178 166.333 3.62117
      vertex -2.2 155.667 3
    endloop
  endfacet
  facet normal 0.923879 2.84019e-17 0.382685
    outer loop
      vertex -2.52154 166.333 4.2
      vertex -2.52154 155.667 4.2
      vertex -2.28178 155.667 3.62117
    endloop
  endfacet
  facet normal 0.923879 2.84019e-17 0.382685
    outer loop
      vertex -2.28178 166.333 3.62117
      vertex -2.52154 166.333 4.2
      vertex -2.28178 155.667 3.62117
    endloop
  endfacet
  facet normal 0.793354 8.65932e-17 0.608761
    outer loop
      vertex -2.90294 166.333 4.69706
      vertex -2.90294 155.667 4.69706
      vertex -2.52154 155.667 4.2
    endloop
  endfacet
  facet normal 0.793354 8.65932e-17 0.608761
    outer loop
      vertex -2.52154 166.333 4.2
      vertex -2.90294 166.333 4.69706
      vertex -2.52154 155.667 4.2
    endloop
  endfacet
  facet normal 0.608761 1.38884e-16 0.793354
    outer loop
      vertex -3.4 166.333 5.07846
      vertex -3.4 155.667 5.07846
      vertex -2.90294 155.667 4.69706
    endloop
  endfacet
  facet normal 0.608761 1.38884e-16 0.793354
    outer loop
      vertex -2.90294 166.333 4.69706
      vertex -3.4 166.333 5.07846
      vertex -2.90294 155.667 4.69706
    endloop
  endfacet
  facet normal -6.12323e-17 -1 2.22045e-16
    outer loop
      vertex -2.90294 155.667 1.30294
      vertex -3.4 155.667 0.92154
      vertex -2.2 155.667 -0.8
    endloop
  endfacet
  facet normal -6.12323e-17 -1 2.22045e-16
    outer loop
      vertex -2.2 155.667 -0.8
      vertex -2.2 155.667 3
      vertex -2.28178 155.667 2.37883
    endloop
  endfacet
  facet normal -6.12323e-17 -1 2.22045e-16
    outer loop
      vertex -3.4 155.667 0.92154
      vertex -3.97883 155.667 0.681778
      vertex -2.2 155.667 -0.8
    endloop
  endfacet
  facet normal -6.12323e-17 -1 2.22045e-16
    outer loop
      vertex -2.52154 155.667 1.8
      vertex -2.2 155.667 -0.8
      vertex -2.28178 155.667 2.37883
    endloop
  endfacet
  facet normal -6.12323e-17 -1 2.22045e-16
    outer loop
      vertex -2.52154 155.667 1.8
      vertex -2.90294 155.667 1.30294
      vertex -2.2 155.667 -0.8
    endloop
  endfacet
  facet normal -6.12323e-17 -1 2.22045e-16
    outer loop
      vertex -3.97883 155.667 0.681778
      vertex -4.6 155.667 0.6
      vertex -2.2 155.667 -0.8
    endloop
  endfacet
  facet normal -6.12323e-17 -1 2.22045e-16
    outer loop
      vertex -4.6 155.667 0.6
      vertex -5.22117 155.667 0.681778
      vertex -2.2 155.667 -0.8
    endloop
  endfacet
  facet normal -6.12323e-17 -1 2.22045e-16
    outer loop
      vertex -5.22117 155.667 0.681778
      vertex -5.8 155.667 0.92154
      vertex -2.2 155.667 -0.8
    endloop
  endfacet
  facet normal -6.12323e-17 -1 2.22045e-16
    outer loop
      vertex -5.8 155.667 0.92154
      vertex -7 155.667 -0.8
      vertex -2.2 155.667 -0.8
    endloop
  endfacet
  facet normal -6.12323e-17 -1 2.22045e-16
    outer loop
      vertex -6.29706 155.667 1.30294
      vertex -7 155.667 -0.8
      vertex -5.8 155.667 0.92154
    endloop
  endfacet
  facet normal -6.12323e-17 -1 2.22045e-16
    outer loop
      vertex -6.67846 155.667 1.8
      vertex -7 155.667 -0.8
      vertex -6.29706 155.667 1.30294
    endloop
  endfacet
  facet normal -6.12323e-17 -1 2.22045e-16
    outer loop
      vertex -6.91822 155.667 2.37883
      vertex -7 155.667 -0.8
      vertex -6.67846 155.667 1.8
    endloop
  endfacet
  facet normal -6.12323e-17 -1 2.22045e-16
    outer loop
      vertex -7 155.667 3
      vertex -7 155.667 -0.8
      vertex -6.91822 155.667 2.37883
    endloop
  endfacet
  facet normal -6.12323e-17 -1 2.22045e-16
    outer loop
      vertex -3.97883 166.333 5.31822
      vertex -4.6 166.333 5.4
      vertex -5.22117 166.333 5.31822
    endloop
  endfacet
  facet normal -6.12323e-17 -1 2.22045e-16
    outer loop
      vertex -6.29706 166.333 4.69706
      vertex -3.97883 166.333 5.31822
      vertex -5.8 166.333 5.07846
    endloop
  endfacet
  facet normal -6.12323e-17 -1 2.22045e-16
    outer loop
      vertex -5.8 166.333 5.07846
      vertex -3.97883 166.333 5.31822
      vertex -5.22117 166.333 5.31822
    endloop
  endfacet
  facet normal -6.12323e-17 -1 2.22045e-16
    outer loop
      vertex -6.67846 166.333 4.2
      vertex -3.97883 166.333 5.31822
      vertex -6.29706 166.333 4.69706
    endloop
  endfacet
  facet normal -6.12323e-17 -1 2.22045e-16
    outer loop
      vertex -6.91822 166.333 3.62117
      vertex -3.97883 166.333 5.31822
      vertex -6.67846 166.333 4.2
    endloop
  endfacet
  facet normal -6.12323e-17 -1 2.22045e-16
    outer loop
      vertex -7 166.333 3
      vertex -3.97883 166.333 5.31822
      vertex -6.91822 166.333 3.62117
    endloop
  endfacet
  facet normal -6.12323e-17 -1 2.22045e-16
    outer loop
      vertex -6.91822 166.333 2.37883
      vertex -3.97883 166.333 5.31822
      vertex -7 166.333 3
    endloop
  endfacet
  facet normal -6.12323e-17 -1 2.22045e-16
    outer loop
      vertex -6.67846 166.333 1.8
      vertex -3.97883 166.333 5.31822
      vertex -6.91822 166.333 2.37883
    endloop
  endfacet
  facet normal -6.12323e-17 -1 2.22045e-16
    outer loop
      vertex -6.29706 166.333 1.30294
      vertex -3.97883 166.333 5.31822
      vertex -6.67846 166.333 1.8
    endloop
  endfacet
  facet normal -6.12323e-17 -1 2.22045e-16
    outer loop
      vertex -5.8 166.333 0.92154
      vertex -3.97883 166.333 5.31822
      vertex -6.29706 166.333 1.30294
    endloop
  endfacet
  facet normal -6.12323e-17 -1 2.22045e-16
    outer loop
      vertex -5.22117 166.333 0.681778
      vertex -3.97883 166.333 5.31822
      vertex -5.8 166.333 0.92154
    endloop
  endfacet
  facet normal -6.12323e-17 -1 2.22045e-16
    outer loop
      vertex -4.6 166.333 0.6
      vertex -3.97883 166.333 5.31822
      vertex -5.22117 166.333 0.681778
    endloop
  endfacet
  facet normal -6.12323e-17 -1 2.22045e-16
    outer loop
      vertex -3.97883 166.333 0.681778
      vertex -3.97883 166.333 5.31822
      vertex -4.6 166.333 0.6
    endloop
  endfacet
  facet normal -6.12323e-17 -1 2.22045e-16
    outer loop
      vertex -3.4 166.333 0.92154
      vertex -3.97883 166.333 5.31822
      vertex -3.97883 166.333 0.681778
    endloop
  endfacet
  facet normal -6.12323e-17 -1 2.22045e-16
    outer loop
      vertex -2.90294 166.333 1.30294
      vertex -3.97883 166.333 5.31822
      vertex -3.4 166.333 0.92154
    endloop
  endfacet
  facet normal -6.12323e-17 -1 2.22045e-16
    outer loop
      vertex -2.52154 166.333 1.8
      vertex -3.97883 166.333 5.31822
      vertex -2.90294 166.333 1.30294
    endloop
  endfacet
  facet normal -6.12323e-17 -1 2.22045e-16
    outer loop
      vertex -2.28178 166.333 2.37883
      vertex -3.97883 166.333 5.31822
      vertex -2.52154 166.333 1.8
    endloop
  endfacet
  facet normal -6.12323e-17 -1 2.22045e-16
    outer loop
      vertex -2.2 166.333 3
      vertex -3.97883 166.333 5.31822
      vertex -2.28178 166.333 2.37883
    endloop
  endfacet
  facet normal -6.12323e-17 -1 2.22045e-16
    outer loop
      vertex -2.28178 166.333 3.62117
      vertex -3.97883 166.333 5.31822
      vertex -2.2 166.333 3
    endloop
  endfacet
  facet normal -6.12323e-17 -1 2.22045e-16
    outer loop
      vertex -2.52154 166.333 4.2
      vertex -3.97883 166.333 5.31822
      vertex -2.28178 166.333 3.62117
    endloop
  endfacet
  facet normal -6.12323e-17 -1 2.22045e-16
    outer loop
      vertex -2.90294 166.333 4.69706
      vertex -3.97883 166.333 5.31822
      vertex -2.52154 166.333 4.2
    endloop
  endfacet
  facet normal -6.12323e-17 -1 2.22045e-16
    outer loop
      vertex -3.4 166.333 5.07846
      vertex -3.97883 166.333 5.31822
      vertex -2.90294 166.333 4.69706
    endloop
  endfacet
  facet normal -0.10889 0.551402 0.827103
    outer loop
      vertex -5.22117 166.333 5.31822
      vertex -4.6 166.333 5.4
      vertex -4.6 169.933 3
    endloop
  endfacet
  facet normal 0.10889 0.551402 0.827103
    outer loop
      vertex -4.6 169.933 3
      vertex -4.6 166.333 5.4
      vertex -3.97883 166.333 5.31822
    endloop
  endfacet
  facet normal 0.319251 0.551402 0.770737
    outer loop
      vertex -4.6 169.933 3
      vertex -3.97883 166.333 5.31822
      vertex -3.4 166.333 5.07846
    endloop
  endfacet
  facet normal 0.507853 0.551402 0.661847
    outer loop
      vertex -4.6 169.933 3
      vertex -3.4 166.333 5.07846
      vertex -2.90294 166.333 4.69706
    endloop
  endfacet
  facet normal 0.661847 0.551402 0.507853
    outer loop
      vertex -4.6 169.933 3
      vertex -2.90294 166.333 4.69706
      vertex -2.52154 166.333 4.2
    endloop
  endfacet
  facet normal 0.770737 0.551402 0.319251
    outer loop
      vertex -4.6 169.933 3
      vertex -2.52154 166.333 4.2
      vertex -2.28178 166.333 3.62117
    endloop
  endfacet
  facet normal 0.827103 0.551402 0.10889
    outer loop
      vertex -4.6 169.933 3
      vertex -2.28178 166.333 3.62117
      vertex -2.2 166.333 3
    endloop
  endfacet
  facet normal 0.827103 0.551402 -0.10889
    outer loop
      vertex -4.6 169.933 3
      vertex -2.2 166.333 3
      vertex -2.28178 166.333 2.37883
    endloop
  endfacet
  facet normal 0.770737 0.551402 -0.319251
    outer loop
      vertex -2.52154 166.333 1.8
      vertex -4.6 169.933 3
      vertex -2.28178 166.333 2.37883
    endloop
  endfacet
  facet normal 0.661847 0.551402 -0.507853
    outer loop
      vertex -2.90294 166.333 1.30294
      vertex -4.6 169.933 3
      vertex -2.52154 166.333 1.8
    endloop
  endfacet
  facet normal 0.507853 0.551402 -0.661847
    outer loop
      vertex -3.4 166.333 0.92154
      vertex -4.6 169.933 3
      vertex -2.90294 166.333 1.30294
    endloop
  endfacet
  facet normal 0.319251 0.551402 -0.770737
    outer loop
      vertex -3.97883 166.333 0.681778
      vertex -4.6 169.933 3
      vertex -3.4 166.333 0.92154
    endloop
  endfacet
  facet normal 0.10889 0.551402 -0.827103
    outer loop
      vertex -4.6 166.333 0.6
      vertex -4.6 169.933 3
      vertex -3.97883 166.333 0.681778
    endloop
  endfacet
  facet normal -0.10889 0.551402 -0.827103
    outer loop
      vertex -5.22117 166.333 0.681778
      vertex -4.6 169.933 3
      vertex -4.6 166.333 0.6
    endloop
  endfacet
  facet normal -0.319251 0.551402 -0.770737
    outer loop
      vertex -5.8 166.333 0.92154
      vertex -4.6 169.933 3
      vertex -5.22117 166.333 0.681778
    endloop
  endfacet
  facet normal -0.507853 0.551402 -0.661847
    outer loop
      vertex -6.29706 166.333 1.30294
      vertex -4.6 169.933 3
      vertex -5.8 166.333 0.92154
    endloop
  endfacet
  facet normal -0.661847 0.551402 -0.507853
    outer loop
      vertex -6.67846 166.333 1.8
      vertex -4.6 169.933 3
      vertex -6.29706 166.333 1.30294
    endloop
  endfacet
  facet normal -0.770737 0.551402 -0.319251
    outer loop
      vertex -6.91822 166.333 2.37883
      vertex -4.6 169.933 3
      vertex -6.67846 166.333 1.8
    endloop
  endfacet
  facet normal -0.827103 0.551402 -0.10889
    outer loop
      vertex -6.91822 166.333 2.37883
      vertex -7 166.333 3
      vertex -4.6 169.933 3
    endloop
  endfacet
  facet normal -0.827103 0.551402 0.10889
    outer loop
      vertex -7 166.333 3
      vertex -6.91822 166.333 3.62117
      vertex -4.6 169.933 3
    endloop
  endfacet
  facet normal -0.770737 0.551402 0.319251
    outer loop
      vertex -6.91822 166.333 3.62117
      vertex -6.67846 166.333 4.2
      vertex -4.6 169.933 3
    endloop
  endfacet
  facet normal -0.661847 0.551402 0.507853
    outer loop
      vertex -6.67846 166.333 4.2
      vertex -6.29706 166.333 4.69706
      vertex -4.6 169.933 3
    endloop
  endfacet
  facet normal -0.507853 0.551402 0.661847
    outer loop
      vertex -6.29706 166.333 4.69706
      vertex -5.8 166.333 5.07846
      vertex -4.6 169.933 3
    endloop
  endfacet
  facet normal -0.319251 0.551402 0.770737
    outer loop
      vertex -5.8 166.333 5.07846
      vertex -5.22117 166.333 5.31822
      vertex -4.6 169.933 3
    endloop
  endfacet
  facet normal -4.93038e-32 -1 2.22045e-16
    outer loop
      vertex -1 141 -0.8
      vertex -7 141 -0.8
      vertex -7 141 -8.8
    endloop
  endfacet
  facet normal -4.93038e-32 -1 2.22045e-16
    outer loop
      vertex -1 141 -8.8
      vertex -1 141 -0.8
      vertex -7 141 -8.8
    endloop
  endfacet
  facet normal -1 0 -2.22045e-16
    outer loop
      vertex -7 141 -0.8
      vertex -7 181 -0.8
      vertex -7 141 -8.8
    endloop
  endfacet
  facet normal -1 0 -2.22045e-16
    outer loop
      vertex -7 141 -8.8
      vertex -7 181 -0.8
      vertex -7 181 -8.8
    endloop
  endfacet
  facet normal -2.22045e-16 2.22045e-16 1
    outer loop
      vertex -7 181 -0.8
      vertex -7 141 -0.8
      vertex -1 141 -0.8
    endloop
  endfacet
  facet normal -2.22045e-16 2.22045e-16 1
    outer loop
      vertex -1 181 -0.8
      vertex -7 181 -0.8
      vertex -1 141 -0.8
    endloop
  endfacet
  facet normal 1 0 2.22045e-16
    outer loop
      vertex -1 181 -0.8
      vertex -1 141 -0.8
      vertex -1 141 -8.8
    endloop
  endfacet
  facet normal 1 0 2.22045e-16
    outer loop
      vertex -1 181 -8.8
      vertex -1 181 -0.8
      vertex -1 141 -8.8
    endloop
  endfacet
  facet normal 2.22045e-16 -2.22045e-16 -1
    outer loop
      vertex -7 141 -8.8
      vertex -7 181 -8.8
      vertex -1 141 -8.8
    endloop
  endfacet
  facet normal 2.22045e-16 -2.22045e-16 -1
    outer loop
      vertex -1 141 -8.8
      vertex -7 181 -8.8
      vertex -1 181 -8.8
    endloop
  endfacet
  facet normal 4.93038e-32 1 -2.22045e-16
    outer loop
      vertex -7 181 -0.8
      vertex -1 181 -0.8
      vertex -7 181 -8.8
    endloop
  endfacet
  facet normal 4.93038e-32 1 -2.22045e-16
    outer loop
      vertex -7 181 -8.8
      vertex -1 181 -0.8
      vertex -1 181 -8.8
    endloop
  endfacet
endsolid OpenSCAD_Model
