solid OpenSCAD_Model
  facet normal -0.925942 -0.377665 0
    outer loop
      vertex 8.2945 39.4155 0
      vertex 8.6365 38.577 0
      vertex 8.2945 39.4155 3
    endloop
  endfacet
  facet normal -0.925942 -0.377665 0
    outer loop
      vertex 8.2945 39.4155 3
      vertex 8.6365 38.577 0
      vertex 8.6365 38.577 3
    endloop
  endfacet
  facet normal 0 0 -1
    outer loop
      vertex 8.2945 39.4155 0
      vertex 8.65 40.2525 0
      vertex 8.6365 38.577 0
    endloop
  endfacet
  facet normal 0 0 -1
    outer loop
      vertex 8.6365 38.577 0
      vertex 8.65 40.2525 0
      vertex 9.4735 40.608 0
    endloop
  endfacet
  facet normal 0 0 -1
    outer loop
      vertex 8.6365 38.577 0
      vertex 9.4735 40.608 0
      vertex 10.2475 40.272 0
    endloop
  endfacet
  facet normal 0 0 -1
    outer loop
      vertex 8.6365 38.577 0
      vertex 10.2475 40.272 0
      vertex 10.564 39.4275 0
    endloop
  endfacet
  facet normal 0 0 -1
    outer loop
      vertex 8.6365 38.577 0
      vertex 10.564 39.4275 0
      vertex 10.228 38.565 0
    endloop
  endfacet
  facet normal 0 0 -1
    outer loop
      vertex 8.6365 38.577 0
      vertex 10.228 38.565 0
      vertex 9.436 38.2215 0
    endloop
  endfacet
  facet normal -0.92042 0.390931 0
    outer loop
      vertex 8.2945 39.4155 0
      vertex 8.2945 39.4155 3
      vertex 8.65 40.2525 0
    endloop
  endfacet
  facet normal -0.92042 0.390931 0
    outer loop
      vertex 8.65 40.2525 0
      vertex 8.2945 39.4155 3
      vertex 8.65 40.2525 3
    endloop
  endfacet
  facet normal 0 0 1
    outer loop
      vertex 8.65 40.2525 3
      vertex 8.2945 39.4155 3
      vertex 8.6365 38.577 3
    endloop
  endfacet
  facet normal 0 0 1
    outer loop
      vertex 10.228 38.565 3
      vertex 8.65 40.2525 3
      vertex 9.436 38.2215 3
    endloop
  endfacet
  facet normal 0 0 1
    outer loop
      vertex 9.436 38.2215 3
      vertex 8.65 40.2525 3
      vertex 8.6365 38.577 3
    endloop
  endfacet
  facet normal 0 0 1
    outer loop
      vertex 10.564 39.4275 3
      vertex 8.65 40.2525 3
      vertex 10.228 38.565 3
    endloop
  endfacet
  facet normal 0 0 1
    outer loop
      vertex 10.2475 40.272 3
      vertex 8.65 40.2525 3
      vertex 10.564 39.4275 3
    endloop
  endfacet
  facet normal 0 0 1
    outer loop
      vertex 9.4735 40.608 3
      vertex 8.65 40.2525 3
      vertex 10.2475 40.272 3
    endloop
  endfacet
  facet normal -0.406298 -0.913741 0
    outer loop
      vertex 8.6365 38.577 3
      vertex 8.6365 38.577 0
      vertex 9.436 38.2215 0
    endloop
  endfacet
  facet normal -0.406298 -0.913741 0
    outer loop
      vertex 9.436 38.2215 3
      vertex 8.6365 38.577 3
      vertex 9.436 38.2215 0
    endloop
  endfacet
  facet normal 0.3979 -0.917429 0
    outer loop
      vertex 9.436 38.2215 3
      vertex 9.436 38.2215 0
      vertex 10.228 38.565 0
    endloop
  endfacet
  facet normal 0.3979 -0.917429 0
    outer loop
      vertex 10.228 38.565 3
      vertex 9.436 38.2215 3
      vertex 10.228 38.565 0
    endloop
  endfacet
  facet normal 0.931792 -0.362994 0
    outer loop
      vertex 10.228 38.565 3
      vertex 10.228 38.565 0
      vertex 10.564 39.4275 0
    endloop
  endfacet
  facet normal 0.931792 -0.362994 0
    outer loop
      vertex 10.564 39.4275 3
      vertex 10.228 38.565 3
      vertex 10.564 39.4275 0
    endloop
  endfacet
  facet normal 0.936398 0.350941 0
    outer loop
      vertex 10.564 39.4275 0
      vertex 10.2475 40.272 0
      vertex 10.2475 40.272 3
    endloop
  endfacet
  facet normal 0.936398 0.350941 0
    outer loop
      vertex 10.564 39.4275 3
      vertex 10.564 39.4275 0
      vertex 10.2475 40.272 3
    endloop
  endfacet
  facet normal 0.398206 0.917296 0
    outer loop
      vertex 9.4735 40.608 0
      vertex 9.4735 40.608 3
      vertex 10.2475 40.272 0
    endloop
  endfacet
  facet normal 0.398206 0.917296 0
    outer loop
      vertex 10.2475 40.272 0
      vertex 9.4735 40.608 3
      vertex 10.2475 40.272 3
    endloop
  endfacet
  facet normal -0.39634 0.918104 0
    outer loop
      vertex 8.65 40.2525 0
      vertex 8.65 40.2525 3
      vertex 9.4735 40.608 0
    endloop
  endfacet
  facet normal -0.39634 0.918104 0
    outer loop
      vertex 9.4735 40.608 0
      vertex 8.65 40.2525 3
      vertex 9.4735 40.608 3
    endloop
  endfacet
  facet normal -0.932282 -0.361732 0
    outer loop
      vertex 11.5405 35.964 0
      vertex 11.8705 35.1135 0
      vertex 11.5405 35.964 3
    endloop
  endfacet
  facet normal -0.932282 -0.361732 0
    outer loop
      vertex 11.5405 35.964 3
      vertex 11.8705 35.1135 0
      vertex 11.8705 35.1135 3
    endloop
  endfacet
  facet normal 0 0 -1
    outer loop
      vertex 11.5405 35.964 0
      vertex 11.8885 36.801 0
      vertex 11.8705 35.1135 0
    endloop
  endfacet
  facet normal 0 0 -1
    outer loop
      vertex 11.8705 35.1135 0
      vertex 11.8885 36.801 0
      vertex 12.7075 37.1565 0
    endloop
  endfacet
  facet normal 0 0 -1
    outer loop
      vertex 11.8705 35.1135 0
      vertex 12.7075 37.1565 0
      vertex 13.48 36.8145 0
    endloop
  endfacet
  facet normal 0 0 -1
    outer loop
      vertex 11.8705 35.1135 0
      vertex 13.48 36.8145 0
      vertex 13.798 35.964 0
    endloop
  endfacet
  facet normal 0 0 -1
    outer loop
      vertex 11.8705 35.1135 0
      vertex 13.798 35.964 0
      vertex 13.468 35.1075 0
    endloop
  endfacet
  facet normal 0 0 -1
    outer loop
      vertex 11.8705 35.1135 0
      vertex 13.468 35.1075 0
      vertex 12.6565 34.758 0
    endloop
  endfacet
  facet normal -0.92337 0.38391 0
    outer loop
      vertex 11.5405 35.964 0
      vertex 11.5405 35.964 3
      vertex 11.8885 36.801 0
    endloop
  endfacet
  facet normal -0.92337 0.38391 0
    outer loop
      vertex 11.8885 36.801 0
      vertex 11.5405 35.964 3
      vertex 11.8885 36.801 3
    endloop
  endfacet
  facet normal 0 0 1
    outer loop
      vertex 11.8885 36.801 3
      vertex 11.5405 35.964 3
      vertex 11.8705 35.1135 3
    endloop
  endfacet
  facet normal 0 0 1
    outer loop
      vertex 13.468 35.1075 3
      vertex 11.8885 36.801 3
      vertex 12.6565 34.758 3
    endloop
  endfacet
  facet normal 0 0 1
    outer loop
      vertex 12.6565 34.758 3
      vertex 11.8885 36.801 3
      vertex 11.8705 35.1135 3
    endloop
  endfacet
  facet normal 0 0 1
    outer loop
      vertex 13.798 35.964 3
      vertex 11.8885 36.801 3
      vertex 13.468 35.1075 3
    endloop
  endfacet
  facet normal 0 0 1
    outer loop
      vertex 13.48 36.8145 3
      vertex 11.8885 36.801 3
      vertex 13.798 35.964 3
    endloop
  endfacet
  facet normal 0 0 1
    outer loop
      vertex 12.7075 37.1565 3
      vertex 11.8885 36.801 3
      vertex 13.48 36.8145 3
    endloop
  endfacet
  facet normal -0.412099 -0.911139 0
    outer loop
      vertex 11.8705 35.1135 3
      vertex 11.8705 35.1135 0
      vertex 12.6565 34.758 0
    endloop
  endfacet
  facet normal -0.412099 -0.911139 0
    outer loop
      vertex 12.6565 34.758 3
      vertex 11.8705 35.1135 3
      vertex 12.6565 34.758 0
    endloop
  endfacet
  facet normal 0.395558 -0.918441 0
    outer loop
      vertex 12.6565 34.758 3
      vertex 12.6565 34.758 0
      vertex 13.468 35.1075 0
    endloop
  endfacet
  facet normal 0.395558 -0.918441 0
    outer loop
      vertex 13.468 35.1075 3
      vertex 12.6565 34.758 3
      vertex 13.468 35.1075 0
    endloop
  endfacet
  facet normal 0.933135 -0.359527 0
    outer loop
      vertex 13.468 35.1075 3
      vertex 13.468 35.1075 0
      vertex 13.798 35.964 0
    endloop
  endfacet
  facet normal 0.933135 -0.359527 0
    outer loop
      vertex 13.798 35.964 3
      vertex 13.468 35.1075 3
      vertex 13.798 35.964 0
    endloop
  endfacet
  facet normal 0.936668 0.350218 0
    outer loop
      vertex 13.798 35.964 0
      vertex 13.48 36.8145 0
      vertex 13.48 36.8145 3
    endloop
  endfacet
  facet normal 0.936668 0.350218 0
    outer loop
      vertex 13.798 35.964 3
      vertex 13.798 35.964 0
      vertex 13.48 36.8145 3
    endloop
  endfacet
  facet normal 0.40482 0.914396 0
    outer loop
      vertex 12.7075 37.1565 0
      vertex 12.7075 37.1565 3
      vertex 13.48 36.8145 0
    endloop
  endfacet
  facet normal 0.40482 0.914396 0
    outer loop
      vertex 13.48 36.8145 0
      vertex 12.7075 37.1565 3
      vertex 13.48 36.8145 3
    endloop
  endfacet
  facet normal -0.398173 0.91731 0
    outer loop
      vertex 11.8885 36.801 0
      vertex 11.8885 36.801 3
      vertex 12.7075 37.1565 0
    endloop
  endfacet
  facet normal -0.398173 0.91731 0
    outer loop
      vertex 12.7075 37.1565 0
      vertex 11.8885 36.801 3
      vertex 12.7075 37.1565 3
    endloop
  endfacet
  facet normal -0.930529 -0.366219 0
    outer loop
      vertex 11.5405 39.4155 0
      vertex 11.8705 38.577 0
      vertex 11.5405 39.4155 3
    endloop
  endfacet
  facet normal -0.930529 -0.366219 0
    outer loop
      vertex 11.5405 39.4155 3
      vertex 11.8705 38.577 0
      vertex 11.8705 38.577 3
    endloop
  endfacet
  facet normal 0 0 -1
    outer loop
      vertex 11.5405 39.4155 0
      vertex 11.8885 40.2525 0
      vertex 11.8705 38.577 0
    endloop
  endfacet
  facet normal 0 0 -1
    outer loop
      vertex 11.8705 38.577 0
      vertex 11.8885 40.2525 0
      vertex 12.7075 40.608 0
    endloop
  endfacet
  facet normal 0 0 -1
    outer loop
      vertex 11.8705 38.577 0
      vertex 12.7075 40.608 0
      vertex 13.48 40.272 0
    endloop
  endfacet
  facet normal 0 0 -1
    outer loop
      vertex 11.8705 38.577 0
      vertex 13.48 40.272 0
      vertex 13.798 39.4275 0
    endloop
  endfacet
  facet normal 0 0 -1
    outer loop
      vertex 11.8705 38.577 0
      vertex 13.798 39.4275 0
      vertex 13.468 38.565 0
    endloop
  endfacet
  facet normal 0 0 -1
    outer loop
      vertex 11.8705 38.577 0
      vertex 13.468 38.565 0
      vertex 12.6565 38.2215 0
    endloop
  endfacet
  facet normal -0.92337 0.38391 0
    outer loop
      vertex 11.5405 39.4155 0
      vertex 11.5405 39.4155 3
      vertex 11.8885 40.2525 0
    endloop
  endfacet
  facet normal -0.92337 0.38391 0
    outer loop
      vertex 11.8885 40.2525 0
      vertex 11.5405 39.4155 3
      vertex 11.8885 40.2525 3
    endloop
  endfacet
  facet normal 0 0 1
    outer loop
      vertex 11.8885 40.2525 3
      vertex 11.5405 39.4155 3
      vertex 11.8705 38.577 3
    endloop
  endfacet
  facet normal 0 0 1
    outer loop
      vertex 13.468 38.565 3
      vertex 11.8885 40.2525 3
      vertex 12.6565 38.2215 3
    endloop
  endfacet
  facet normal 0 0 1
    outer loop
      vertex 12.6565 38.2215 3
      vertex 11.8885 40.2525 3
      vertex 11.8705 38.577 3
    endloop
  endfacet
  facet normal 0 0 1
    outer loop
      vertex 13.798 39.4275 3
      vertex 11.8885 40.2525 3
      vertex 13.468 38.565 3
    endloop
  endfacet
  facet normal 0 0 1
    outer loop
      vertex 13.48 40.272 3
      vertex 11.8885 40.2525 3
      vertex 13.798 39.4275 3
    endloop
  endfacet
  facet normal 0 0 1
    outer loop
      vertex 12.7075 40.608 3
      vertex 11.8885 40.2525 3
      vertex 13.48 40.272 3
    endloop
  endfacet
  facet normal -0.412099 -0.911139 0
    outer loop
      vertex 11.8705 38.577 3
      vertex 11.8705 38.577 0
      vertex 12.6565 38.2215 0
    endloop
  endfacet
  facet normal -0.412099 -0.911139 0
    outer loop
      vertex 12.6565 38.2215 3
      vertex 11.8705 38.577 3
      vertex 12.6565 38.2215 0
    endloop
  endfacet
  facet normal 0.389807 -0.920897 0
    outer loop
      vertex 12.6565 38.2215 3
      vertex 12.6565 38.2215 0
      vertex 13.468 38.565 0
    endloop
  endfacet
  facet normal 0.389807 -0.920897 0
    outer loop
      vertex 13.468 38.565 3
      vertex 12.6565 38.2215 3
      vertex 13.468 38.565 0
    endloop
  endfacet
  facet normal 0.933972 -0.357346 0
    outer loop
      vertex 13.468 38.565 3
      vertex 13.468 38.565 0
      vertex 13.798 39.4275 0
    endloop
  endfacet
  facet normal 0.933972 -0.357346 0
    outer loop
      vertex 13.798 39.4275 3
      vertex 13.468 38.565 3
      vertex 13.798 39.4275 0
    endloop
  endfacet
  facet normal 0.93585 0.352398 0
    outer loop
      vertex 13.798 39.4275 0
      vertex 13.48 40.272 0
      vertex 13.48 40.272 3
    endloop
  endfacet
  facet normal 0.93585 0.352398 0
    outer loop
      vertex 13.798 39.4275 3
      vertex 13.798 39.4275 0
      vertex 13.48 40.272 3
    endloop
  endfacet
  facet normal 0.398856 0.917013 0
    outer loop
      vertex 12.7075 40.608 0
      vertex 12.7075 40.608 3
      vertex 13.48 40.272 0
    endloop
  endfacet
  facet normal 0.398856 0.917013 0
    outer loop
      vertex 13.48 40.272 0
      vertex 12.7075 40.608 3
      vertex 13.48 40.272 3
    endloop
  endfacet
  facet normal -0.398173 0.91731 0
    outer loop
      vertex 11.8885 40.2525 0
      vertex 11.8885 40.2525 3
      vertex 12.7075 40.608 0
    endloop
  endfacet
  facet normal -0.398173 0.91731 0
    outer loop
      vertex 12.7075 40.608 0
      vertex 11.8885 40.2525 3
      vertex 12.7075 40.608 3
    endloop
  endfacet
  facet normal -0.925942 -0.377665 0
    outer loop
      vertex 16.498 39.369 0
      vertex 16.84 38.5305 0
      vertex 16.498 39.369 3
    endloop
  endfacet
  facet normal -0.925942 -0.377665 0
    outer loop
      vertex 16.498 39.369 3
      vertex 16.84 38.5305 0
      vertex 16.84 38.5305 3
    endloop
  endfacet
  facet normal 0 0 -1
    outer loop
      vertex 16.498 39.369 0
      vertex 16.8535 40.206 0
      vertex 16.84 38.5305 0
    endloop
  endfacet
  facet normal 0 0 -1
    outer loop
      vertex 16.84 38.5305 0
      vertex 16.8535 40.206 0
      vertex 17.677 40.5615 0
    endloop
  endfacet
  facet normal 0 0 -1
    outer loop
      vertex 16.84 38.5305 0
      vertex 17.677 40.5615 0
      vertex 18.451 40.2255 0
    endloop
  endfacet
  facet normal 0 0 -1
    outer loop
      vertex 16.84 38.5305 0
      vertex 18.451 40.2255 0
      vertex 18.7675 39.381 0
    endloop
  endfacet
  facet normal 0 0 -1
    outer loop
      vertex 16.84 38.5305 0
      vertex 18.7675 39.381 0
      vertex 18.4315 38.5185 0
    endloop
  endfacet
  facet normal 0 0 -1
    outer loop
      vertex 16.84 38.5305 0
      vertex 18.4315 38.5185 0
      vertex 17.6395 38.1765 0
    endloop
  endfacet
  facet normal -0.92042 0.390931 0
    outer loop
      vertex 16.498 39.369 0
      vertex 16.498 39.369 3
      vertex 16.8535 40.206 0
    endloop
  endfacet
  facet normal -0.92042 0.390931 0
    outer loop
      vertex 16.8535 40.206 0
      vertex 16.498 39.369 3
      vertex 16.8535 40.206 3
    endloop
  endfacet
  facet normal 0 0 1
    outer loop
      vertex 16.8535 40.206 3
      vertex 16.498 39.369 3
      vertex 16.84 38.5305 3
    endloop
  endfacet
  facet normal 0 0 1
    outer loop
      vertex 18.4315 38.5185 3
      vertex 16.8535 40.206 3
      vertex 17.6395 38.1765 3
    endloop
  endfacet
  facet normal 0 0 1
    outer loop
      vertex 17.6395 38.1765 3
      vertex 16.8535 40.206 3
      vertex 16.84 38.5305 3
    endloop
  endfacet
  facet normal 0 0 1
    outer loop
      vertex 18.7675 39.381 3
      vertex 16.8535 40.206 3
      vertex 18.4315 38.5185 3
    endloop
  endfacet
  facet normal 0 0 1
    outer loop
      vertex 18.451 40.2255 3
      vertex 16.8535 40.206 3
      vertex 18.7675 39.381 3
    endloop
  endfacet
  facet normal 0 0 1
    outer loop
      vertex 17.677 40.5615 3
      vertex 16.8535 40.206 3
      vertex 18.451 40.2255 3
    endloop
  endfacet
  facet normal -0.404865 -0.914377 0
    outer loop
      vertex 16.84 38.5305 3
      vertex 16.84 38.5305 0
      vertex 17.6395 38.1765 0
    endloop
  endfacet
  facet normal -0.404865 -0.914377 0
    outer loop
      vertex 17.6395 38.1765 3
      vertex 16.84 38.5305 3
      vertex 17.6395 38.1765 0
    endloop
  endfacet
  facet normal 0.396436 -0.918062 0
    outer loop
      vertex 17.6395 38.1765 3
      vertex 17.6395 38.1765 0
      vertex 18.4315 38.5185 0
    endloop
  endfacet
  facet normal 0.396436 -0.918062 0
    outer loop
      vertex 18.4315 38.5185 3
      vertex 17.6395 38.1765 3
      vertex 18.4315 38.5185 0
    endloop
  endfacet
  facet normal 0.931792 -0.362994 0
    outer loop
      vertex 18.4315 38.5185 3
      vertex 18.4315 38.5185 0
      vertex 18.7675 39.381 0
    endloop
  endfacet
  facet normal 0.931792 -0.362994 0
    outer loop
      vertex 18.7675 39.381 3
      vertex 18.4315 38.5185 3
      vertex 18.7675 39.381 0
    endloop
  endfacet
  facet normal 0.936398 0.350941 0
    outer loop
      vertex 18.7675 39.381 0
      vertex 18.451 40.2255 0
      vertex 18.451 40.2255 3
    endloop
  endfacet
  facet normal 0.936398 0.350941 0
    outer loop
      vertex 18.7675 39.381 3
      vertex 18.7675 39.381 0
      vertex 18.451 40.2255 3
    endloop
  endfacet
  facet normal 0.398206 0.917296 0
    outer loop
      vertex 17.677 40.5615 0
      vertex 17.677 40.5615 3
      vertex 18.451 40.2255 0
    endloop
  endfacet
  facet normal 0.398206 0.917296 0
    outer loop
      vertex 18.451 40.2255 0
      vertex 17.677 40.5615 3
      vertex 18.451 40.2255 3
    endloop
  endfacet
  facet normal -0.39634 0.918104 0
    outer loop
      vertex 16.8535 40.206 0
      vertex 16.8535 40.206 3
      vertex 17.677 40.5615 0
    endloop
  endfacet
  facet normal -0.39634 0.918104 0
    outer loop
      vertex 17.677 40.5615 0
      vertex 16.8535 40.206 3
      vertex 17.677 40.5615 3
    endloop
  endfacet
  facet normal -0.932282 -0.361732 0
    outer loop
      vertex 19.744 35.9175 0
      vertex 20.074 35.067 0
      vertex 19.744 35.9175 3
    endloop
  endfacet
  facet normal -0.932282 -0.361732 0
    outer loop
      vertex 19.744 35.9175 3
      vertex 20.074 35.067 0
      vertex 20.074 35.067 3
    endloop
  endfacet
  facet normal 0 0 -1
    outer loop
      vertex 19.744 35.9175 0
      vertex 20.0935 36.7545 0
      vertex 20.074 35.067 0
    endloop
  endfacet
  facet normal 0 0 -1
    outer loop
      vertex 20.074 35.067 0
      vertex 20.0935 36.7545 0
      vertex 20.911 37.11 0
    endloop
  endfacet
  facet normal 0 0 -1
    outer loop
      vertex 20.074 35.067 0
      vertex 20.911 37.11 0
      vertex 21.685 36.768 0
    endloop
  endfacet
  facet normal 0 0 -1
    outer loop
      vertex 20.074 35.067 0
      vertex 21.685 36.768 0
      vertex 22.0015 35.9175 0
    endloop
  endfacet
  facet normal 0 0 -1
    outer loop
      vertex 20.074 35.067 0
      vertex 22.0015 35.9175 0
      vertex 21.6715 35.061 0
    endloop
  endfacet
  facet normal 0 0 -1
    outer loop
      vertex 20.074 35.067 0
      vertex 21.6715 35.061 0
      vertex 20.86 34.7115 0
    endloop
  endfacet
  facet normal -0.922783 0.38532 0
    outer loop
      vertex 19.744 35.9175 0
      vertex 19.744 35.9175 3
      vertex 20.0935 36.7545 0
    endloop
  endfacet
  facet normal -0.922783 0.38532 0
    outer loop
      vertex 20.0935 36.7545 0
      vertex 19.744 35.9175 3
      vertex 20.0935 36.7545 3
    endloop
  endfacet
  facet normal 0 0 1
    outer loop
      vertex 20.0935 36.7545 3
      vertex 19.744 35.9175 3
      vertex 20.074 35.067 3
    endloop
  endfacet
  facet normal 0 0 1
    outer loop
      vertex 21.6715 35.061 3
      vertex 20.0935 36.7545 3
      vertex 20.86 34.7115 3
    endloop
  endfacet
  facet normal 0 0 1
    outer loop
      vertex 20.86 34.7115 3
      vertex 20.0935 36.7545 3
      vertex 20.074 35.067 3
    endloop
  endfacet
  facet normal 0 0 1
    outer loop
      vertex 22.0015 35.9175 3
      vertex 20.0935 36.7545 3
      vertex 21.6715 35.061 3
    endloop
  endfacet
  facet normal 0 0 1
    outer loop
      vertex 21.685 36.768 3
      vertex 20.0935 36.7545 3
      vertex 22.0015 35.9175 3
    endloop
  endfacet
  facet normal 0 0 1
    outer loop
      vertex 20.911 37.11 3
      vertex 20.0935 36.7545 3
      vertex 21.685 36.768 3
    endloop
  endfacet
  facet normal -0.412099 -0.911139 0
    outer loop
      vertex 20.074 35.067 3
      vertex 20.074 35.067 0
      vertex 20.86 34.7115 0
    endloop
  endfacet
  facet normal -0.412099 -0.911139 0
    outer loop
      vertex 20.86 34.7115 3
      vertex 20.074 35.067 3
      vertex 20.86 34.7115 0
    endloop
  endfacet
  facet normal 0.395558 -0.918441 0
    outer loop
      vertex 20.86 34.7115 3
      vertex 20.86 34.7115 0
      vertex 21.6715 35.061 0
    endloop
  endfacet
  facet normal 0.395558 -0.918441 0
    outer loop
      vertex 21.6715 35.061 3
      vertex 20.86 34.7115 3
      vertex 21.6715 35.061 0
    endloop
  endfacet
  facet normal 0.933135 -0.359527 0
    outer loop
      vertex 21.6715 35.061 3
      vertex 21.6715 35.061 0
      vertex 22.0015 35.9175 0
    endloop
  endfacet
  facet normal 0.933135 -0.359527 0
    outer loop
      vertex 22.0015 35.9175 3
      vertex 21.6715 35.061 3
      vertex 22.0015 35.9175 0
    endloop
  endfacet
  facet normal 0.937209 0.348767 0
    outer loop
      vertex 22.0015 35.9175 0
      vertex 21.685 36.768 0
      vertex 21.685 36.768 3
    endloop
  endfacet
  facet normal 0.937209 0.348767 0
    outer loop
      vertex 22.0015 35.9175 3
      vertex 22.0015 35.9175 0
      vertex 21.685 36.768 3
    endloop
  endfacet
  facet normal 0.404164 0.914687 0
    outer loop
      vertex 20.911 37.11 0
      vertex 20.911 37.11 3
      vertex 21.685 36.768 0
    endloop
  endfacet
  facet normal 0.404164 0.914687 0
    outer loop
      vertex 21.685 36.768 0
      vertex 20.911 37.11 3
      vertex 21.685 36.768 3
    endloop
  endfacet
  facet normal -0.398788 0.917043 0
    outer loop
      vertex 20.0935 36.7545 0
      vertex 20.0935 36.7545 3
      vertex 20.911 37.11 0
    endloop
  endfacet
  facet normal -0.398788 0.917043 0
    outer loop
      vertex 20.911 37.11 0
      vertex 20.0935 36.7545 3
      vertex 20.911 37.11 3
    endloop
  endfacet
  facet normal -0.925705 -0.378245 0
    outer loop
      vertex 24.748 39.414 0
      vertex 25.09 38.577 0
      vertex 24.748 39.414 3
    endloop
  endfacet
  facet normal -0.925705 -0.378245 0
    outer loop
      vertex 24.748 39.414 3
      vertex 25.09 38.577 0
      vertex 25.09 38.577 3
    endloop
  endfacet
  facet normal 0 0 -1
    outer loop
      vertex 24.748 39.414 0
      vertex 25.1035 40.2525 0
      vertex 25.09 38.577 0
    endloop
  endfacet
  facet normal 0 0 -1
    outer loop
      vertex 25.09 38.577 0
      vertex 25.1035 40.2525 0
      vertex 25.927 40.608 0
    endloop
  endfacet
  facet normal 0 0 -1
    outer loop
      vertex 25.09 38.577 0
      vertex 25.927 40.608 0
      vertex 26.701 40.272 0
    endloop
  endfacet
  facet normal 0 0 -1
    outer loop
      vertex 25.09 38.577 0
      vertex 26.701 40.272 0
      vertex 27.0175 39.4275 0
    endloop
  endfacet
  facet normal 0 0 -1
    outer loop
      vertex 25.09 38.577 0
      vertex 27.0175 39.4275 0
      vertex 26.6815 38.565 0
    endloop
  endfacet
  facet normal 0 0 -1
    outer loop
      vertex 25.09 38.577 0
      vertex 26.6815 38.565 0
      vertex 25.8895 38.2215 0
    endloop
  endfacet
  facet normal -0.920671 0.390338 0
    outer loop
      vertex 24.748 39.414 0
      vertex 24.748 39.414 3
      vertex 25.1035 40.2525 0
    endloop
  endfacet
  facet normal -0.920671 0.390338 0
    outer loop
      vertex 25.1035 40.2525 0
      vertex 24.748 39.414 3
      vertex 25.1035 40.2525 3
    endloop
  endfacet
  facet normal 0 0 1
    outer loop
      vertex 25.1035 40.2525 3
      vertex 24.748 39.414 3
      vertex 25.09 38.577 3
    endloop
  endfacet
  facet normal 0 0 1
    outer loop
      vertex 26.6815 38.565 3
      vertex 25.1035 40.2525 3
      vertex 25.8895 38.2215 3
    endloop
  endfacet
  facet normal 0 0 1
    outer loop
      vertex 25.8895 38.2215 3
      vertex 25.1035 40.2525 3
      vertex 25.09 38.577 3
    endloop
  endfacet
  facet normal 0 0 1
    outer loop
      vertex 27.0175 39.4275 3
      vertex 25.1035 40.2525 3
      vertex 26.6815 38.565 3
    endloop
  endfacet
  facet normal 0 0 1
    outer loop
      vertex 26.701 40.272 3
      vertex 25.1035 40.2525 3
      vertex 27.0175 39.4275 3
    endloop
  endfacet
  facet normal 0 0 1
    outer loop
      vertex 25.927 40.608 3
      vertex 25.1035 40.2525 3
      vertex 26.701 40.272 3
    endloop
  endfacet
  facet normal -0.406298 -0.913741 0
    outer loop
      vertex 25.09 38.577 3
      vertex 25.09 38.577 0
      vertex 25.8895 38.2215 0
    endloop
  endfacet
  facet normal -0.406298 -0.913741 0
    outer loop
      vertex 25.8895 38.2215 3
      vertex 25.09 38.577 3
      vertex 25.8895 38.2215 0
    endloop
  endfacet
  facet normal 0.3979 -0.917429 0
    outer loop
      vertex 25.8895 38.2215 3
      vertex 25.8895 38.2215 0
      vertex 26.6815 38.565 0
    endloop
  endfacet
  facet normal 0.3979 -0.917429 0
    outer loop
      vertex 26.6815 38.565 3
      vertex 25.8895 38.2215 3
      vertex 26.6815 38.565 0
    endloop
  endfacet
  facet normal 0.931792 -0.362994 0
    outer loop
      vertex 26.6815 38.565 3
      vertex 26.6815 38.565 0
      vertex 27.0175 39.4275 0
    endloop
  endfacet
  facet normal 0.931792 -0.362994 0
    outer loop
      vertex 27.0175 39.4275 3
      vertex 26.6815 38.565 3
      vertex 27.0175 39.4275 0
    endloop
  endfacet
  facet normal 0.936398 0.350941 0
    outer loop
      vertex 27.0175 39.4275 0
      vertex 26.701 40.272 0
      vertex 26.701 40.272 3
    endloop
  endfacet
  facet normal 0.936398 0.350941 0
    outer loop
      vertex 27.0175 39.4275 3
      vertex 27.0175 39.4275 0
      vertex 26.701 40.272 3
    endloop
  endfacet
  facet normal 0.398206 0.917296 0
    outer loop
      vertex 25.927 40.608 0
      vertex 25.927 40.608 3
      vertex 26.701 40.272 0
    endloop
  endfacet
  facet normal 0.398206 0.917296 0
    outer loop
      vertex 26.701 40.272 0
      vertex 25.927 40.608 3
      vertex 26.701 40.272 3
    endloop
  endfacet
  facet normal -0.39634 0.918104 0
    outer loop
      vertex 25.1035 40.2525 0
      vertex 25.1035 40.2525 3
      vertex 25.927 40.608 0
    endloop
  endfacet
  facet normal -0.39634 0.918104 0
    outer loop
      vertex 25.927 40.608 0
      vertex 25.1035 40.2525 3
      vertex 25.927 40.608 3
    endloop
  endfacet
  facet normal -0.927231 -0.37449 0
    outer loop
      vertex 32.992 35.916 0
      vertex 33.3355 35.0655 0
      vertex 32.992 35.916 3
    endloop
  endfacet
  facet normal -0.927231 -0.37449 0
    outer loop
      vertex 32.992 35.916 3
      vertex 33.3355 35.0655 0
      vertex 33.3355 35.0655 3
    endloop
  endfacet
  facet normal 0 0 -1
    outer loop
      vertex 32.992 35.916 0
      vertex 33.3475 36.7545 0
      vertex 33.3355 35.0655 0
    endloop
  endfacet
  facet normal 0 0 -1
    outer loop
      vertex 33.3355 35.0655 0
      vertex 33.3475 36.7545 0
      vertex 34.1725 37.11 0
    endloop
  endfacet
  facet normal 0 0 -1
    outer loop
      vertex 33.3355 35.0655 0
      vertex 34.1725 37.11 0
      vertex 34.948 36.7665 0
    endloop
  endfacet
  facet normal 0 0 -1
    outer loop
      vertex 33.3355 35.0655 0
      vertex 34.948 36.7665 0
      vertex 35.266 35.916 0
    endloop
  endfacet
  facet normal 0 0 -1
    outer loop
      vertex 33.3355 35.0655 0
      vertex 35.266 35.916 0
      vertex 34.9285 35.058 0
    endloop
  endfacet
  facet normal 0 0 -1
    outer loop
      vertex 33.3355 35.0655 0
      vertex 34.9285 35.058 0
      vertex 34.135 34.7085 0
    endloop
  endfacet
  facet normal -0.920671 0.390338 0
    outer loop
      vertex 32.992 35.916 0
      vertex 32.992 35.916 3
      vertex 33.3475 36.7545 0
    endloop
  endfacet
  facet normal -0.920671 0.390338 0
    outer loop
      vertex 33.3475 36.7545 0
      vertex 32.992 35.916 3
      vertex 33.3475 36.7545 3
    endloop
  endfacet
  facet normal 0 0 1
    outer loop
      vertex 33.3475 36.7545 3
      vertex 32.992 35.916 3
      vertex 33.3355 35.0655 3
    endloop
  endfacet
  facet normal 0 0 1
    outer loop
      vertex 34.9285 35.058 3
      vertex 33.3475 36.7545 3
      vertex 34.135 34.7085 3
    endloop
  endfacet
  facet normal 0 0 1
    outer loop
      vertex 34.135 34.7085 3
      vertex 33.3475 36.7545 3
      vertex 33.3355 35.0655 3
    endloop
  endfacet
  facet normal 0 0 1
    outer loop
      vertex 35.266 35.916 3
      vertex 33.3475 36.7545 3
      vertex 34.9285 35.058 3
    endloop
  endfacet
  facet normal 0 0 1
    outer loop
      vertex 34.948 36.7665 3
      vertex 33.3475 36.7545 3
      vertex 35.266 35.916 3
    endloop
  endfacet
  facet normal 0 0 1
    outer loop
      vertex 34.1725 37.11 3
      vertex 33.3475 36.7545 3
      vertex 34.948 36.7665 3
    endloop
  endfacet
  facet normal -0.407727 -0.913104 0
    outer loop
      vertex 33.3355 35.0655 3
      vertex 33.3355 35.0655 0
      vertex 34.135 34.7085 0
    endloop
  endfacet
  facet normal -0.407727 -0.913104 0
    outer loop
      vertex 34.135 34.7085 3
      vertex 33.3355 35.0655 3
      vertex 34.135 34.7085 0
    endloop
  endfacet
  facet normal 0.403086 -0.915162 0
    outer loop
      vertex 34.135 34.7085 3
      vertex 34.135 34.7085 0
      vertex 34.9285 35.058 0
    endloop
  endfacet
  facet normal 0.403086 -0.915162 0
    outer loop
      vertex 34.9285 35.058 3
      vertex 34.135 34.7085 3
      vertex 34.9285 35.058 0
    endloop
  endfacet
  facet normal 0.930593 -0.366055 0
    outer loop
      vertex 34.9285 35.058 3
      vertex 34.9285 35.058 0
      vertex 35.266 35.916 0
    endloop
  endfacet
  facet normal 0.930593 -0.366055 0
    outer loop
      vertex 35.266 35.916 3
      vertex 34.9285 35.058 3
      vertex 35.266 35.916 0
    endloop
  endfacet
  facet normal 0.936668 0.350218 0
    outer loop
      vertex 35.266 35.916 0
      vertex 34.948 36.7665 0
      vertex 34.948 36.7665 3
    endloop
  endfacet
  facet normal 0.936668 0.350218 0
    outer loop
      vertex 35.266 35.916 3
      vertex 35.266 35.916 0
      vertex 34.948 36.7665 3
    endloop
  endfacet
  facet normal 0.40499 0.914321 0
    outer loop
      vertex 34.1725 37.11 0
      vertex 34.1725 37.11 3
      vertex 34.948 36.7665 0
    endloop
  endfacet
  facet normal 0.40499 0.914321 0
    outer loop
      vertex 34.948 36.7665 0
      vertex 34.1725 37.11 3
      vertex 34.948 36.7665 3
    endloop
  endfacet
  facet normal -0.395732 0.918366 0
    outer loop
      vertex 33.3475 36.7545 0
      vertex 33.3475 36.7545 3
      vertex 34.1725 37.11 0
    endloop
  endfacet
  facet normal -0.395732 0.918366 0
    outer loop
      vertex 34.1725 37.11 0
      vertex 33.3475 36.7545 3
      vertex 34.1725 37.11 3
    endloop
  endfacet
  facet normal -0.925362 -0.379084 0
    outer loop
      vertex 32.992 32.436 0
      vertex 33.3355 31.5975 0
      vertex 32.992 32.436 3
    endloop
  endfacet
  facet normal -0.925362 -0.379084 0
    outer loop
      vertex 32.992 32.436 3
      vertex 33.3355 31.5975 0
      vertex 33.3355 31.5975 3
    endloop
  endfacet
  facet normal 0 0 -1
    outer loop
      vertex 32.992 32.436 0
      vertex 33.3475 33.2805 0
      vertex 33.3355 31.5975 0
    endloop
  endfacet
  facet normal 0 0 -1
    outer loop
      vertex 33.3355 31.5975 0
      vertex 33.3475 33.2805 0
      vertex 34.1725 33.642 0
    endloop
  endfacet
  facet normal 0 0 -1
    outer loop
      vertex 33.3355 31.5975 0
      vertex 34.1725 33.642 0
      vertex 34.948 33.306 0
    endloop
  endfacet
  facet normal 0 0 -1
    outer loop
      vertex 33.3355 31.5975 0
      vertex 34.948 33.306 0
      vertex 35.266 32.4615 0
    endloop
  endfacet
  facet normal 0 0 -1
    outer loop
      vertex 33.3355 31.5975 0
      vertex 35.266 32.4615 0
      vertex 34.9285 31.5915 0
    endloop
  endfacet
  facet normal 0 0 -1
    outer loop
      vertex 33.3355 31.5975 0
      vertex 34.9285 31.5915 0
      vertex 34.135 31.242 0
    endloop
  endfacet
  facet normal -0.921666 0.387984 0
    outer loop
      vertex 32.992 32.436 0
      vertex 32.992 32.436 3
      vertex 33.3475 33.2805 0
    endloop
  endfacet
  facet normal -0.921666 0.387984 0
    outer loop
      vertex 33.3475 33.2805 0
      vertex 32.992 32.436 3
      vertex 33.3475 33.2805 3
    endloop
  endfacet
  facet normal 0 0 1
    outer loop
      vertex 33.3475 33.2805 3
      vertex 32.992 32.436 3
      vertex 33.3355 31.5975 3
    endloop
  endfacet
  facet normal 0 0 1
    outer loop
      vertex 34.9285 31.5915 3
      vertex 33.3475 33.2805 3
      vertex 34.135 31.242 3
    endloop
  endfacet
  facet normal 0 0 1
    outer loop
      vertex 34.135 31.242 3
      vertex 33.3475 33.2805 3
      vertex 33.3355 31.5975 3
    endloop
  endfacet
  facet normal 0 0 1
    outer loop
      vertex 35.266 32.4615 3
      vertex 33.3475 33.2805 3
      vertex 34.9285 31.5915 3
    endloop
  endfacet
  facet normal 0 0 1
    outer loop
      vertex 34.948 33.306 3
      vertex 33.3475 33.2805 3
      vertex 35.266 32.4615 3
    endloop
  endfacet
  facet normal 0 0 1
    outer loop
      vertex 34.1725 33.642 3
      vertex 33.3475 33.2805 3
      vertex 34.948 33.306 3
    endloop
  endfacet
  facet normal -0.406298 -0.913741 0
    outer loop
      vertex 33.3355 31.5975 3
      vertex 33.3355 31.5975 0
      vertex 34.135 31.242 0
    endloop
  endfacet
  facet normal -0.406298 -0.913741 0
    outer loop
      vertex 34.135 31.242 3
      vertex 33.3355 31.5975 3
      vertex 34.135 31.242 0
    endloop
  endfacet
  facet normal 0.403086 -0.915162 0
    outer loop
      vertex 34.135 31.242 3
      vertex 34.135 31.242 0
      vertex 34.9285 31.5915 0
    endloop
  endfacet
  facet normal 0.403086 -0.915162 0
    outer loop
      vertex 34.9285 31.5915 3
      vertex 34.135 31.242 3
      vertex 34.9285 31.5915 0
    endloop
  endfacet
  facet normal 0.932306 -0.36167 0
    outer loop
      vertex 34.9285 31.5915 3
      vertex 34.9285 31.5915 0
      vertex 35.266 32.4615 0
    endloop
  endfacet
  facet normal 0.932306 -0.36167 0
    outer loop
      vertex 35.266 32.4615 3
      vertex 34.9285 31.5915 3
      vertex 35.266 32.4615 0
    endloop
  endfacet
  facet normal 0.93585 0.352398 0
    outer loop
      vertex 35.266 32.4615 0
      vertex 34.948 33.306 0
      vertex 34.948 33.306 3
    endloop
  endfacet
  facet normal 0.93585 0.352398 0
    outer loop
      vertex 35.266 32.4615 3
      vertex 35.266 32.4615 0
      vertex 34.948 33.306 3
    endloop
  endfacet
  facet normal 0.397558 0.917577 0
    outer loop
      vertex 34.1725 33.642 0
      vertex 34.1725 33.642 3
      vertex 34.948 33.306 0
    endloop
  endfacet
  facet normal 0.397558 0.917577 0
    outer loop
      vertex 34.948 33.306 0
      vertex 34.1725 33.642 3
      vertex 34.948 33.306 3
    endloop
  endfacet
  facet normal -0.401343 0.915928 0
    outer loop
      vertex 33.3475 33.2805 0
      vertex 33.3475 33.2805 3
      vertex 34.1725 33.642 0
    endloop
  endfacet
  facet normal -0.401343 0.915928 0
    outer loop
      vertex 34.1725 33.642 0
      vertex 33.3475 33.2805 3
      vertex 34.1725 33.642 3
    endloop
  endfacet
  facet normal -0.925362 -0.379084 0
    outer loop
      vertex 32.992 39.3705 0
      vertex 33.3355 38.532 0
      vertex 32.992 39.3705 3
    endloop
  endfacet
  facet normal -0.925362 -0.379084 0
    outer loop
      vertex 32.992 39.3705 3
      vertex 33.3355 38.532 0
      vertex 33.3355 38.532 3
    endloop
  endfacet
  facet normal 0 0 -1
    outer loop
      vertex 32.992 39.3705 0
      vertex 33.3475 40.209 0
      vertex 33.3355 38.532 0
    endloop
  endfacet
  facet normal 0 0 -1
    outer loop
      vertex 33.3355 38.532 0
      vertex 33.3475 40.209 0
      vertex 34.1725 40.5645 0
    endloop
  endfacet
  facet normal 0 0 -1
    outer loop
      vertex 33.3355 38.532 0
      vertex 34.1725 40.5645 0
      vertex 34.948 40.227 0
    endloop
  endfacet
  facet normal 0 0 -1
    outer loop
      vertex 33.3355 38.532 0
      vertex 34.948 40.227 0
      vertex 35.266 39.3825 0
    endloop
  endfacet
  facet normal 0 0 -1
    outer loop
      vertex 33.3355 38.532 0
      vertex 35.266 39.3825 0
      vertex 34.9285 38.5185 0
    endloop
  endfacet
  facet normal 0 0 -1
    outer loop
      vertex 33.3355 38.532 0
      vertex 34.9285 38.5185 0
      vertex 34.135 38.1765 0
    endloop
  endfacet
  facet normal -0.920671 0.390338 0
    outer loop
      vertex 32.992 39.3705 0
      vertex 32.992 39.3705 3
      vertex 33.3475 40.209 0
    endloop
  endfacet
  facet normal -0.920671 0.390338 0
    outer loop
      vertex 33.3475 40.209 0
      vertex 32.992 39.3705 3
      vertex 33.3475 40.209 3
    endloop
  endfacet
  facet normal 0 0 1
    outer loop
      vertex 33.3475 40.209 3
      vertex 32.992 39.3705 3
      vertex 33.3355 38.532 3
    endloop
  endfacet
  facet normal 0 0 1
    outer loop
      vertex 34.9285 38.5185 3
      vertex 33.3475 40.209 3
      vertex 34.135 38.1765 3
    endloop
  endfacet
  facet normal 0 0 1
    outer loop
      vertex 34.135 38.1765 3
      vertex 33.3475 40.209 3
      vertex 33.3355 38.532 3
    endloop
  endfacet
  facet normal 0 0 1
    outer loop
      vertex 35.266 39.3825 3
      vertex 33.3475 40.209 3
      vertex 34.9285 38.5185 3
    endloop
  endfacet
  facet normal 0 0 1
    outer loop
      vertex 34.948 40.227 3
      vertex 33.3475 40.209 3
      vertex 35.266 39.3825 3
    endloop
  endfacet
  facet normal 0 0 1
    outer loop
      vertex 34.1725 40.5645 3
      vertex 33.3475 40.209 3
      vertex 34.948 40.227 3
    endloop
  endfacet
  facet normal -0.406298 -0.913741 0
    outer loop
      vertex 33.3355 38.532 3
      vertex 33.3355 38.532 0
      vertex 34.135 38.1765 0
    endloop
  endfacet
  facet normal -0.406298 -0.913741 0
    outer loop
      vertex 34.135 38.1765 3
      vertex 33.3355 38.532 3
      vertex 34.135 38.1765 0
    endloop
  endfacet
  facet normal 0.395804 -0.918335 0
    outer loop
      vertex 34.135 38.1765 3
      vertex 34.135 38.1765 0
      vertex 34.9285 38.5185 0
    endloop
  endfacet
  facet normal 0.395804 -0.918335 0
    outer loop
      vertex 34.9285 38.5185 3
      vertex 34.135 38.1765 3
      vertex 34.9285 38.5185 0
    endloop
  endfacet
  facet normal 0.931457 -0.363851 0
    outer loop
      vertex 34.9285 38.5185 3
      vertex 34.9285 38.5185 0
      vertex 35.266 39.3825 0
    endloop
  endfacet
  facet normal 0.931457 -0.363851 0
    outer loop
      vertex 35.266 39.3825 3
      vertex 34.9285 38.5185 3
      vertex 35.266 39.3825 0
    endloop
  endfacet
  facet normal 0.93585 0.352398 0
    outer loop
      vertex 35.266 39.3825 0
      vertex 34.948 40.227 0
      vertex 34.948 40.227 3
    endloop
  endfacet
  facet normal 0.93585 0.352398 0
    outer loop
      vertex 35.266 39.3825 3
      vertex 35.266 39.3825 0
      vertex 34.948 40.227 3
    endloop
  endfacet
  facet normal 0.39905 0.916929 0
    outer loop
      vertex 34.1725 40.5645 0
      vertex 34.1725 40.5645 3
      vertex 34.948 40.227 0
    endloop
  endfacet
  facet normal 0.39905 0.916929 0
    outer loop
      vertex 34.948 40.227 0
      vertex 34.1725 40.5645 3
      vertex 34.948 40.227 3
    endloop
  endfacet
  facet normal -0.395732 0.918366 0
    outer loop
      vertex 33.3475 40.209 0
      vertex 33.3475 40.209 3
      vertex 34.1725 40.5645 0
    endloop
  endfacet
  facet normal -0.395732 0.918366 0
    outer loop
      vertex 34.1725 40.5645 0
      vertex 33.3475 40.209 3
      vertex 34.1725 40.5645 3
    endloop
  endfacet
  facet normal -0.932282 -0.361732 0
    outer loop
      vertex 36.244 35.916 0
      vertex 36.574 35.0655 0
      vertex 36.244 35.916 3
    endloop
  endfacet
  facet normal -0.932282 -0.361732 0
    outer loop
      vertex 36.244 35.916 3
      vertex 36.574 35.0655 0
      vertex 36.574 35.0655 3
    endloop
  endfacet
  facet normal 0 0 -1
    outer loop
      vertex 36.244 35.916 0
      vertex 36.592 36.7545 0
      vertex 36.574 35.0655 0
    endloop
  endfacet
  facet normal 0 0 -1
    outer loop
      vertex 36.574 35.0655 0
      vertex 36.592 36.7545 0
      vertex 37.411 37.11 0
    endloop
  endfacet
  facet normal 0 0 -1
    outer loop
      vertex 36.574 35.0655 0
      vertex 37.411 37.11 0
      vertex 38.1865 36.7665 0
    endloop
  endfacet
  facet normal 0 0 -1
    outer loop
      vertex 36.574 35.0655 0
      vertex 38.1865 36.7665 0
      vertex 38.5045 35.916 0
    endloop
  endfacet
  facet normal 0 0 -1
    outer loop
      vertex 36.574 35.0655 0
      vertex 38.5045 35.916 0
      vertex 38.173 35.058 0
    endloop
  endfacet
  facet normal 0 0 -1
    outer loop
      vertex 36.574 35.0655 0
      vertex 38.173 35.058 0
      vertex 37.3615 34.7085 0
    endloop
  endfacet
  facet normal -0.923614 0.383324 0
    outer loop
      vertex 36.244 35.916 0
      vertex 36.244 35.916 3
      vertex 36.592 36.7545 0
    endloop
  endfacet
  facet normal -0.923614 0.383324 0
    outer loop
      vertex 36.592 36.7545 0
      vertex 36.244 35.916 3
      vertex 36.592 36.7545 3
    endloop
  endfacet
  facet normal 0 0 1
    outer loop
      vertex 36.592 36.7545 3
      vertex 36.244 35.916 3
      vertex 36.574 35.0655 3
    endloop
  endfacet
  facet normal 0 0 1
    outer loop
      vertex 38.173 35.058 3
      vertex 36.592 36.7545 3
      vertex 37.3615 34.7085 3
    endloop
  endfacet
  facet normal 0 0 1
    outer loop
      vertex 37.3615 34.7085 3
      vertex 36.592 36.7545 3
      vertex 36.574 35.0655 3
    endloop
  endfacet
  facet normal 0 0 1
    outer loop
      vertex 38.5045 35.916 3
      vertex 36.592 36.7545 3
      vertex 38.173 35.058 3
    endloop
  endfacet
  facet normal 0 0 1
    outer loop
      vertex 38.1865 36.7665 3
      vertex 36.592 36.7545 3
      vertex 38.5045 35.916 3
    endloop
  endfacet
  facet normal 0 0 1
    outer loop
      vertex 37.411 37.11 3
      vertex 36.592 36.7545 3
      vertex 38.1865 36.7665 3
    endloop
  endfacet
  facet normal -0.412888 -0.910782 0
    outer loop
      vertex 36.574 35.0655 3
      vertex 36.574 35.0655 0
      vertex 37.3615 34.7085 0
    endloop
  endfacet
  facet normal -0.412888 -0.910782 0
    outer loop
      vertex 37.3615 34.7085 3
      vertex 36.574 35.0655 3
      vertex 37.3615 34.7085 0
    endloop
  endfacet
  facet normal 0.395558 -0.918441 0
    outer loop
      vertex 37.3615 34.7085 3
      vertex 37.3615 34.7085 0
      vertex 38.173 35.058 0
    endloop
  endfacet
  facet normal 0.395558 -0.918441 0
    outer loop
      vertex 38.173 35.058 3
      vertex 37.3615 34.7085 3
      vertex 38.173 35.058 0
    endloop
  endfacet
  facet normal 0.932798 -0.360399 0
    outer loop
      vertex 38.173 35.058 3
      vertex 38.173 35.058 0
      vertex 38.5045 35.916 0
    endloop
  endfacet
  facet normal 0.932798 -0.360399 0
    outer loop
      vertex 38.5045 35.916 3
      vertex 38.173 35.058 3
      vertex 38.5045 35.916 0
    endloop
  endfacet
  facet normal 0.936668 0.350218 0
    outer loop
      vertex 38.5045 35.916 0
      vertex 38.1865 36.7665 0
      vertex 38.1865 36.7665 3
    endloop
  endfacet
  facet normal 0.936668 0.350218 0
    outer loop
      vertex 38.5045 35.916 3
      vertex 38.5045 35.916 0
      vertex 38.1865 36.7665 3
    endloop
  endfacet
  facet normal 0.40499 0.914321 0
    outer loop
      vertex 37.411 37.11 0
      vertex 37.411 37.11 3
      vertex 38.1865 36.7665 0
    endloop
  endfacet
  facet normal 0.40499 0.914321 0
    outer loop
      vertex 38.1865 36.7665 0
      vertex 37.411 37.11 3
      vertex 38.1865 36.7665 3
    endloop
  endfacet
  facet normal -0.398173 0.91731 0
    outer loop
      vertex 36.592 36.7545 0
      vertex 36.592 36.7545 3
      vertex 37.411 37.11 0
    endloop
  endfacet
  facet normal -0.398173 0.91731 0
    outer loop
      vertex 37.411 37.11 0
      vertex 36.592 36.7545 3
      vertex 37.411 37.11 3
    endloop
  endfacet
  facet normal -0.925362 -0.379084 0
    outer loop
      vertex 49.492 32.436 0
      vertex 49.8355 31.5975 0
      vertex 49.492 32.436 3
    endloop
  endfacet
  facet normal -0.925362 -0.379084 0
    outer loop
      vertex 49.492 32.436 3
      vertex 49.8355 31.5975 0
      vertex 49.8355 31.5975 3
    endloop
  endfacet
  facet normal 0 0 -1
    outer loop
      vertex 49.492 32.436 0
      vertex 49.8475 33.2805 0
      vertex 49.8355 31.5975 0
    endloop
  endfacet
  facet normal 0 0 -1
    outer loop
      vertex 49.8355 31.5975 0
      vertex 49.8475 33.2805 0
      vertex 50.6725 33.642 0
    endloop
  endfacet
  facet normal 0 0 -1
    outer loop
      vertex 49.8355 31.5975 0
      vertex 50.6725 33.642 0
      vertex 51.448 33.306 0
    endloop
  endfacet
  facet normal 0 0 -1
    outer loop
      vertex 49.8355 31.5975 0
      vertex 51.448 33.306 0
      vertex 51.766 32.4615 0
    endloop
  endfacet
  facet normal 0 0 -1
    outer loop
      vertex 49.8355 31.5975 0
      vertex 51.766 32.4615 0
      vertex 51.4285 31.5915 0
    endloop
  endfacet
  facet normal 0 0 -1
    outer loop
      vertex 49.8355 31.5975 0
      vertex 51.4285 31.5915 0
      vertex 50.635 31.242 0
    endloop
  endfacet
  facet normal -0.921666 0.387984 0
    outer loop
      vertex 49.492 32.436 0
      vertex 49.492 32.436 3
      vertex 49.8475 33.2805 0
    endloop
  endfacet
  facet normal -0.921666 0.387984 0
    outer loop
      vertex 49.8475 33.2805 0
      vertex 49.492 32.436 3
      vertex 49.8475 33.2805 3
    endloop
  endfacet
  facet normal 0 0 1
    outer loop
      vertex 49.8475 33.2805 3
      vertex 49.492 32.436 3
      vertex 49.8355 31.5975 3
    endloop
  endfacet
  facet normal 0 0 1
    outer loop
      vertex 51.4285 31.5915 3
      vertex 49.8475 33.2805 3
      vertex 50.635 31.242 3
    endloop
  endfacet
  facet normal 0 0 1
    outer loop
      vertex 50.635 31.242 3
      vertex 49.8475 33.2805 3
      vertex 49.8355 31.5975 3
    endloop
  endfacet
  facet normal 0 0 1
    outer loop
      vertex 51.766 32.4615 3
      vertex 49.8475 33.2805 3
      vertex 51.4285 31.5915 3
    endloop
  endfacet
  facet normal 0 0 1
    outer loop
      vertex 51.448 33.306 3
      vertex 49.8475 33.2805 3
      vertex 51.766 32.4615 3
    endloop
  endfacet
  facet normal 0 0 1
    outer loop
      vertex 50.6725 33.642 3
      vertex 49.8475 33.2805 3
      vertex 51.448 33.306 3
    endloop
  endfacet
  facet normal -0.406298 -0.913741 0
    outer loop
      vertex 49.8355 31.5975 3
      vertex 49.8355 31.5975 0
      vertex 50.635 31.242 0
    endloop
  endfacet
  facet normal -0.406298 -0.913741 0
    outer loop
      vertex 50.635 31.242 3
      vertex 49.8355 31.5975 3
      vertex 50.635 31.242 0
    endloop
  endfacet
  facet normal 0.403086 -0.915162 0
    outer loop
      vertex 50.635 31.242 3
      vertex 50.635 31.242 0
      vertex 51.4285 31.5915 0
    endloop
  endfacet
  facet normal 0.403086 -0.915162 0
    outer loop
      vertex 51.4285 31.5915 3
      vertex 50.635 31.242 3
      vertex 51.4285 31.5915 0
    endloop
  endfacet
  facet normal 0.932306 -0.36167 0
    outer loop
      vertex 51.4285 31.5915 3
      vertex 51.4285 31.5915 0
      vertex 51.766 32.4615 0
    endloop
  endfacet
  facet normal 0.932306 -0.36167 0
    outer loop
      vertex 51.766 32.4615 3
      vertex 51.4285 31.5915 3
      vertex 51.766 32.4615 0
    endloop
  endfacet
  facet normal 0.93585 0.352398 0
    outer loop
      vertex 51.766 32.4615 0
      vertex 51.448 33.306 0
      vertex 51.448 33.306 3
    endloop
  endfacet
  facet normal 0.93585 0.352398 0
    outer loop
      vertex 51.766 32.4615 3
      vertex 51.766 32.4615 0
      vertex 51.448 33.306 3
    endloop
  endfacet
  facet normal 0.397558 0.917577 0
    outer loop
      vertex 50.6725 33.642 0
      vertex 50.6725 33.642 3
      vertex 51.448 33.306 0
    endloop
  endfacet
  facet normal 0.397558 0.917577 0
    outer loop
      vertex 51.448 33.306 0
      vertex 50.6725 33.642 3
      vertex 51.448 33.306 3
    endloop
  endfacet
  facet normal -0.401343 0.915928 0
    outer loop
      vertex 49.8475 33.2805 0
      vertex 49.8475 33.2805 3
      vertex 50.6725 33.642 0
    endloop
  endfacet
  facet normal -0.401343 0.915928 0
    outer loop
      vertex 50.6725 33.642 0
      vertex 49.8475 33.2805 3
      vertex 50.6725 33.642 3
    endloop
  endfacet
  facet normal -0.925362 -0.379084 0
    outer loop
      vertex 49.492 39.3705 0
      vertex 49.8355 38.532 0
      vertex 49.492 39.3705 3
    endloop
  endfacet
  facet normal -0.925362 -0.379084 0
    outer loop
      vertex 49.492 39.3705 3
      vertex 49.8355 38.532 0
      vertex 49.8355 38.532 3
    endloop
  endfacet
  facet normal 0 0 -1
    outer loop
      vertex 49.492 39.3705 0
      vertex 49.8475 40.209 0
      vertex 49.8355 38.532 0
    endloop
  endfacet
  facet normal 0 0 -1
    outer loop
      vertex 49.8355 38.532 0
      vertex 49.8475 40.209 0
      vertex 50.6725 40.5645 0
    endloop
  endfacet
  facet normal 0 0 -1
    outer loop
      vertex 49.8355 38.532 0
      vertex 50.6725 40.5645 0
      vertex 51.448 40.227 0
    endloop
  endfacet
  facet normal 0 0 -1
    outer loop
      vertex 49.8355 38.532 0
      vertex 51.448 40.227 0
      vertex 51.766 39.3825 0
    endloop
  endfacet
  facet normal 0 0 -1
    outer loop
      vertex 49.8355 38.532 0
      vertex 51.766 39.3825 0
      vertex 51.4285 38.5185 0
    endloop
  endfacet
  facet normal 0 0 -1
    outer loop
      vertex 49.8355 38.532 0
      vertex 51.4285 38.5185 0
      vertex 50.635 38.1765 0
    endloop
  endfacet
  facet normal -0.920671 0.390338 0
    outer loop
      vertex 49.492 39.3705 0
      vertex 49.492 39.3705 3
      vertex 49.8475 40.209 0
    endloop
  endfacet
  facet normal -0.920671 0.390338 0
    outer loop
      vertex 49.8475 40.209 0
      vertex 49.492 39.3705 3
      vertex 49.8475 40.209 3
    endloop
  endfacet
  facet normal 0 0 1
    outer loop
      vertex 49.8475 40.209 3
      vertex 49.492 39.3705 3
      vertex 49.8355 38.532 3
    endloop
  endfacet
  facet normal 0 0 1
    outer loop
      vertex 51.4285 38.5185 3
      vertex 49.8475 40.209 3
      vertex 50.635 38.1765 3
    endloop
  endfacet
  facet normal 0 0 1
    outer loop
      vertex 50.635 38.1765 3
      vertex 49.8475 40.209 3
      vertex 49.8355 38.532 3
    endloop
  endfacet
  facet normal 0 0 1
    outer loop
      vertex 51.766 39.3825 3
      vertex 49.8475 40.209 3
      vertex 51.4285 38.5185 3
    endloop
  endfacet
  facet normal 0 0 1
    outer loop
      vertex 51.448 40.227 3
      vertex 49.8475 40.209 3
      vertex 51.766 39.3825 3
    endloop
  endfacet
  facet normal 0 0 1
    outer loop
      vertex 50.6725 40.5645 3
      vertex 49.8475 40.209 3
      vertex 51.448 40.227 3
    endloop
  endfacet
  facet normal -0.406298 -0.913741 0
    outer loop
      vertex 49.8355 38.532 3
      vertex 49.8355 38.532 0
      vertex 50.635 38.1765 0
    endloop
  endfacet
  facet normal -0.406298 -0.913741 0
    outer loop
      vertex 50.635 38.1765 3
      vertex 49.8355 38.532 3
      vertex 50.635 38.1765 0
    endloop
  endfacet
  facet normal 0.395804 -0.918335 0
    outer loop
      vertex 50.635 38.1765 3
      vertex 50.635 38.1765 0
      vertex 51.4285 38.5185 0
    endloop
  endfacet
  facet normal 0.395804 -0.918335 0
    outer loop
      vertex 51.4285 38.5185 3
      vertex 50.635 38.1765 3
      vertex 51.4285 38.5185 0
    endloop
  endfacet
  facet normal 0.931457 -0.363851 0
    outer loop
      vertex 51.4285 38.5185 3
      vertex 51.4285 38.5185 0
      vertex 51.766 39.3825 0
    endloop
  endfacet
  facet normal 0.931457 -0.363851 0
    outer loop
      vertex 51.766 39.3825 3
      vertex 51.4285 38.5185 3
      vertex 51.766 39.3825 0
    endloop
  endfacet
  facet normal 0.93585 0.352398 0
    outer loop
      vertex 51.766 39.3825 0
      vertex 51.448 40.227 0
      vertex 51.448 40.227 3
    endloop
  endfacet
  facet normal 0.93585 0.352398 0
    outer loop
      vertex 51.766 39.3825 3
      vertex 51.766 39.3825 0
      vertex 51.448 40.227 3
    endloop
  endfacet
  facet normal 0.39905 0.916929 0
    outer loop
      vertex 50.6725 40.5645 0
      vertex 50.6725 40.5645 3
      vertex 51.448 40.227 0
    endloop
  endfacet
  facet normal 0.39905 0.916929 0
    outer loop
      vertex 51.448 40.227 0
      vertex 50.6725 40.5645 3
      vertex 51.448 40.227 3
    endloop
  endfacet
  facet normal -0.395732 0.918366 0
    outer loop
      vertex 49.8475 40.209 0
      vertex 49.8475 40.209 3
      vertex 50.6725 40.5645 0
    endloop
  endfacet
  facet normal -0.395732 0.918366 0
    outer loop
      vertex 50.6725 40.5645 0
      vertex 49.8475 40.209 3
      vertex 50.6725 40.5645 3
    endloop
  endfacet
  facet normal -0.930529 -0.366219 0
    outer loop
      vertex 52.744 32.436 0
      vertex 53.074 31.5975 0
      vertex 52.744 32.436 3
    endloop
  endfacet
  facet normal -0.930529 -0.366219 0
    outer loop
      vertex 52.744 32.436 3
      vertex 53.074 31.5975 0
      vertex 53.074 31.5975 3
    endloop
  endfacet
  facet normal 0 0 -1
    outer loop
      vertex 52.744 32.436 0
      vertex 53.092 33.2805 0
      vertex 53.074 31.5975 0
    endloop
  endfacet
  facet normal 0 0 -1
    outer loop
      vertex 53.074 31.5975 0
      vertex 53.092 33.2805 0
      vertex 53.911 33.642 0
    endloop
  endfacet
  facet normal 0 0 -1
    outer loop
      vertex 53.074 31.5975 0
      vertex 53.911 33.642 0
      vertex 54.6865 33.306 0
    endloop
  endfacet
  facet normal 0 0 -1
    outer loop
      vertex 53.074 31.5975 0
      vertex 54.6865 33.306 0
      vertex 55.0045 32.4615 0
    endloop
  endfacet
  facet normal 0 0 -1
    outer loop
      vertex 53.074 31.5975 0
      vertex 55.0045 32.4615 0
      vertex 54.673 31.5915 0
    endloop
  endfacet
  facet normal 0 0 -1
    outer loop
      vertex 53.074 31.5975 0
      vertex 54.673 31.5915 0
      vertex 53.8615 31.242 0
    endloop
  endfacet
  facet normal -0.924576 0.380998 0
    outer loop
      vertex 52.744 32.436 0
      vertex 52.744 32.436 3
      vertex 53.092 33.2805 0
    endloop
  endfacet
  facet normal -0.924576 0.380998 0
    outer loop
      vertex 53.092 33.2805 0
      vertex 52.744 32.436 3
      vertex 53.092 33.2805 3
    endloop
  endfacet
  facet normal 0 0 1
    outer loop
      vertex 53.092 33.2805 3
      vertex 52.744 32.436 3
      vertex 53.074 31.5975 3
    endloop
  endfacet
  facet normal 0 0 1
    outer loop
      vertex 54.673 31.5915 3
      vertex 53.092 33.2805 3
      vertex 53.8615 31.242 3
    endloop
  endfacet
  facet normal 0 0 1
    outer loop
      vertex 53.8615 31.242 3
      vertex 53.092 33.2805 3
      vertex 53.074 31.5975 3
    endloop
  endfacet
  facet normal 0 0 1
    outer loop
      vertex 55.0045 32.4615 3
      vertex 53.092 33.2805 3
      vertex 54.673 31.5915 3
    endloop
  endfacet
  facet normal 0 0 1
    outer loop
      vertex 54.6865 33.306 3
      vertex 53.092 33.2805 3
      vertex 55.0045 32.4615 3
    endloop
  endfacet
  facet normal 0 0 1
    outer loop
      vertex 53.911 33.642 3
      vertex 53.092 33.2805 3
      vertex 54.6865 33.306 3
    endloop
  endfacet
  facet normal -0.411447 -0.911434 0
    outer loop
      vertex 53.074 31.5975 3
      vertex 53.074 31.5975 0
      vertex 53.8615 31.242 0
    endloop
  endfacet
  facet normal -0.411447 -0.911434 0
    outer loop
      vertex 53.8615 31.242 3
      vertex 53.074 31.5975 3
      vertex 53.8615 31.242 0
    endloop
  endfacet
  facet normal 0.395558 -0.918441 0
    outer loop
      vertex 53.8615 31.242 3
      vertex 53.8615 31.242 0
      vertex 54.673 31.5915 0
    endloop
  endfacet
  facet normal 0.395558 -0.918441 0
    outer loop
      vertex 54.673 31.5915 3
      vertex 53.8615 31.242 3
      vertex 54.673 31.5915 0
    endloop
  endfacet
  facet normal 0.934462 -0.356062 0
    outer loop
      vertex 54.673 31.5915 3
      vertex 54.673 31.5915 0
      vertex 55.0045 32.4615 0
    endloop
  endfacet
  facet normal 0.934462 -0.356062 0
    outer loop
      vertex 55.0045 32.4615 3
      vertex 54.673 31.5915 3
      vertex 55.0045 32.4615 0
    endloop
  endfacet
  facet normal 0.93585 0.352398 0
    outer loop
      vertex 55.0045 32.4615 0
      vertex 54.6865 33.306 0
      vertex 54.6865 33.306 3
    endloop
  endfacet
  facet normal 0.93585 0.352398 0
    outer loop
      vertex 55.0045 32.4615 3
      vertex 55.0045 32.4615 0
      vertex 54.6865 33.306 3
    endloop
  endfacet
  facet normal 0.397558 0.917577 0
    outer loop
      vertex 53.911 33.642 0
      vertex 53.911 33.642 3
      vertex 54.6865 33.306 0
    endloop
  endfacet
  facet normal 0.397558 0.917577 0
    outer loop
      vertex 54.6865 33.306 0
      vertex 53.911 33.642 3
      vertex 54.6865 33.306 3
    endloop
  endfacet
  facet normal -0.403805 0.914845 0
    outer loop
      vertex 53.092 33.2805 0
      vertex 53.092 33.2805 3
      vertex 53.911 33.642 0
    endloop
  endfacet
  facet normal -0.403805 0.914845 0
    outer loop
      vertex 53.911 33.642 0
      vertex 53.092 33.2805 3
      vertex 53.911 33.642 3
    endloop
  endfacet
  facet normal -0.932282 -0.361732 0
    outer loop
      vertex 52.744 35.916 0
      vertex 53.074 35.0655 0
      vertex 52.744 35.916 3
    endloop
  endfacet
  facet normal -0.932282 -0.361732 0
    outer loop
      vertex 52.744 35.916 3
      vertex 53.074 35.0655 0
      vertex 53.074 35.0655 3
    endloop
  endfacet
  facet normal 0 0 -1
    outer loop
      vertex 52.744 35.916 0
      vertex 53.092 36.7545 0
      vertex 53.074 35.0655 0
    endloop
  endfacet
  facet normal 0 0 -1
    outer loop
      vertex 53.074 35.0655 0
      vertex 53.092 36.7545 0
      vertex 53.911 37.11 0
    endloop
  endfacet
  facet normal 0 0 -1
    outer loop
      vertex 53.074 35.0655 0
      vertex 53.911 37.11 0
      vertex 54.6865 36.7665 0
    endloop
  endfacet
  facet normal 0 0 -1
    outer loop
      vertex 53.074 35.0655 0
      vertex 54.6865 36.7665 0
      vertex 55.0045 35.916 0
    endloop
  endfacet
  facet normal 0 0 -1
    outer loop
      vertex 53.074 35.0655 0
      vertex 55.0045 35.916 0
      vertex 54.673 35.058 0
    endloop
  endfacet
  facet normal 0 0 -1
    outer loop
      vertex 53.074 35.0655 0
      vertex 54.673 35.058 0
      vertex 53.8615 34.7085 0
    endloop
  endfacet
  facet normal -0.923614 0.383324 0
    outer loop
      vertex 52.744 35.916 0
      vertex 52.744 35.916 3
      vertex 53.092 36.7545 0
    endloop
  endfacet
  facet normal -0.923614 0.383324 0
    outer loop
      vertex 53.092 36.7545 0
      vertex 52.744 35.916 3
      vertex 53.092 36.7545 3
    endloop
  endfacet
  facet normal 0 0 1
    outer loop
      vertex 53.092 36.7545 3
      vertex 52.744 35.916 3
      vertex 53.074 35.0655 3
    endloop
  endfacet
  facet normal 0 0 1
    outer loop
      vertex 54.673 35.058 3
      vertex 53.092 36.7545 3
      vertex 53.8615 34.7085 3
    endloop
  endfacet
  facet normal 0 0 1
    outer loop
      vertex 53.8615 34.7085 3
      vertex 53.092 36.7545 3
      vertex 53.074 35.0655 3
    endloop
  endfacet
  facet normal 0 0 1
    outer loop
      vertex 55.0045 35.916 3
      vertex 53.092 36.7545 3
      vertex 54.673 35.058 3
    endloop
  endfacet
  facet normal 0 0 1
    outer loop
      vertex 54.6865 36.7665 3
      vertex 53.092 36.7545 3
      vertex 55.0045 35.916 3
    endloop
  endfacet
  facet normal 0 0 1
    outer loop
      vertex 53.911 37.11 3
      vertex 53.092 36.7545 3
      vertex 54.6865 36.7665 3
    endloop
  endfacet
  facet normal -0.412888 -0.910782 0
    outer loop
      vertex 53.074 35.0655 3
      vertex 53.074 35.0655 0
      vertex 53.8615 34.7085 0
    endloop
  endfacet
  facet normal -0.412888 -0.910782 0
    outer loop
      vertex 53.8615 34.7085 3
      vertex 53.074 35.0655 3
      vertex 53.8615 34.7085 0
    endloop
  endfacet
  facet normal 0.395558 -0.918441 0
    outer loop
      vertex 53.8615 34.7085 3
      vertex 53.8615 34.7085 0
      vertex 54.673 35.058 0
    endloop
  endfacet
  facet normal 0.395558 -0.918441 0
    outer loop
      vertex 54.673 35.058 3
      vertex 53.8615 34.7085 3
      vertex 54.673 35.058 0
    endloop
  endfacet
  facet normal 0.932798 -0.360399 0
    outer loop
      vertex 54.673 35.058 3
      vertex 54.673 35.058 0
      vertex 55.0045 35.916 0
    endloop
  endfacet
  facet normal 0.932798 -0.360399 0
    outer loop
      vertex 55.0045 35.916 3
      vertex 54.673 35.058 3
      vertex 55.0045 35.916 0
    endloop
  endfacet
  facet normal 0.936668 0.350218 0
    outer loop
      vertex 55.0045 35.916 0
      vertex 54.6865 36.7665 0
      vertex 54.6865 36.7665 3
    endloop
  endfacet
  facet normal 0.936668 0.350218 0
    outer loop
      vertex 55.0045 35.916 3
      vertex 55.0045 35.916 0
      vertex 54.6865 36.7665 3
    endloop
  endfacet
  facet normal 0.40499 0.914321 0
    outer loop
      vertex 53.911 37.11 0
      vertex 53.911 37.11 3
      vertex 54.6865 36.7665 0
    endloop
  endfacet
  facet normal 0.40499 0.914321 0
    outer loop
      vertex 54.6865 36.7665 0
      vertex 53.911 37.11 3
      vertex 54.6865 36.7665 3
    endloop
  endfacet
  facet normal -0.398173 0.91731 0
    outer loop
      vertex 53.092 36.7545 0
      vertex 53.092 36.7545 3
      vertex 53.911 37.11 0
    endloop
  endfacet
  facet normal -0.398173 0.91731 0
    outer loop
      vertex 53.911 37.11 0
      vertex 53.092 36.7545 3
      vertex 53.911 37.11 3
    endloop
  endfacet
  facet normal -0.925362 -0.379084 0
    outer loop
      vertex 57.742 32.436 0
      vertex 58.0855 31.5975 0
      vertex 57.742 32.436 3
    endloop
  endfacet
  facet normal -0.925362 -0.379084 0
    outer loop
      vertex 57.742 32.436 3
      vertex 58.0855 31.5975 0
      vertex 58.0855 31.5975 3
    endloop
  endfacet
  facet normal 0 0 -1
    outer loop
      vertex 57.742 32.436 0
      vertex 58.0975 33.2805 0
      vertex 58.0855 31.5975 0
    endloop
  endfacet
  facet normal 0 0 -1
    outer loop
      vertex 58.0855 31.5975 0
      vertex 58.0975 33.2805 0
      vertex 58.9225 33.642 0
    endloop
  endfacet
  facet normal 0 0 -1
    outer loop
      vertex 58.0855 31.5975 0
      vertex 58.9225 33.642 0
      vertex 59.698 33.306 0
    endloop
  endfacet
  facet normal 0 0 -1
    outer loop
      vertex 58.0855 31.5975 0
      vertex 59.698 33.306 0
      vertex 60.016 32.4615 0
    endloop
  endfacet
  facet normal 0 0 -1
    outer loop
      vertex 58.0855 31.5975 0
      vertex 60.016 32.4615 0
      vertex 59.6785 31.5915 0
    endloop
  endfacet
  facet normal 0 0 -1
    outer loop
      vertex 58.0855 31.5975 0
      vertex 59.6785 31.5915 0
      vertex 58.885 31.242 0
    endloop
  endfacet
  facet normal -0.921666 0.387984 0
    outer loop
      vertex 57.742 32.436 0
      vertex 57.742 32.436 3
      vertex 58.0975 33.2805 0
    endloop
  endfacet
  facet normal -0.921666 0.387984 0
    outer loop
      vertex 58.0975 33.2805 0
      vertex 57.742 32.436 3
      vertex 58.0975 33.2805 3
    endloop
  endfacet
  facet normal 0 0 1
    outer loop
      vertex 58.0975 33.2805 3
      vertex 57.742 32.436 3
      vertex 58.0855 31.5975 3
    endloop
  endfacet
  facet normal 0 0 1
    outer loop
      vertex 59.6785 31.5915 3
      vertex 58.0975 33.2805 3
      vertex 58.885 31.242 3
    endloop
  endfacet
  facet normal 0 0 1
    outer loop
      vertex 58.885 31.242 3
      vertex 58.0975 33.2805 3
      vertex 58.0855 31.5975 3
    endloop
  endfacet
  facet normal 0 0 1
    outer loop
      vertex 60.016 32.4615 3
      vertex 58.0975 33.2805 3
      vertex 59.6785 31.5915 3
    endloop
  endfacet
  facet normal 0 0 1
    outer loop
      vertex 59.698 33.306 3
      vertex 58.0975 33.2805 3
      vertex 60.016 32.4615 3
    endloop
  endfacet
  facet normal 0 0 1
    outer loop
      vertex 58.9225 33.642 3
      vertex 58.0975 33.2805 3
      vertex 59.698 33.306 3
    endloop
  endfacet
  facet normal -0.406298 -0.913741 0
    outer loop
      vertex 58.0855 31.5975 3
      vertex 58.0855 31.5975 0
      vertex 58.885 31.242 0
    endloop
  endfacet
  facet normal -0.406298 -0.913741 0
    outer loop
      vertex 58.885 31.242 3
      vertex 58.0855 31.5975 3
      vertex 58.885 31.242 0
    endloop
  endfacet
  facet normal 0.403086 -0.915162 0
    outer loop
      vertex 58.885 31.242 3
      vertex 58.885 31.242 0
      vertex 59.6785 31.5915 0
    endloop
  endfacet
  facet normal 0.403086 -0.915162 0
    outer loop
      vertex 59.6785 31.5915 3
      vertex 58.885 31.242 3
      vertex 59.6785 31.5915 0
    endloop
  endfacet
  facet normal 0.932306 -0.36167 0
    outer loop
      vertex 59.6785 31.5915 3
      vertex 59.6785 31.5915 0
      vertex 60.016 32.4615 0
    endloop
  endfacet
  facet normal 0.932306 -0.36167 0
    outer loop
      vertex 60.016 32.4615 3
      vertex 59.6785 31.5915 3
      vertex 60.016 32.4615 0
    endloop
  endfacet
  facet normal 0.93585 0.352398 0
    outer loop
      vertex 60.016 32.4615 0
      vertex 59.698 33.306 0
      vertex 59.698 33.306 3
    endloop
  endfacet
  facet normal 0.93585 0.352398 0
    outer loop
      vertex 60.016 32.4615 3
      vertex 60.016 32.4615 0
      vertex 59.698 33.306 3
    endloop
  endfacet
  facet normal 0.397558 0.917577 0
    outer loop
      vertex 58.9225 33.642 0
      vertex 58.9225 33.642 3
      vertex 59.698 33.306 0
    endloop
  endfacet
  facet normal 0.397558 0.917577 0
    outer loop
      vertex 59.698 33.306 0
      vertex 58.9225 33.642 3
      vertex 59.698 33.306 3
    endloop
  endfacet
  facet normal -0.401343 0.915928 0
    outer loop
      vertex 58.0975 33.2805 0
      vertex 58.0975 33.2805 3
      vertex 58.9225 33.642 0
    endloop
  endfacet
  facet normal -0.401343 0.915928 0
    outer loop
      vertex 58.9225 33.642 0
      vertex 58.0975 33.2805 3
      vertex 58.9225 33.642 3
    endloop
  endfacet
  facet normal -0.925362 -0.379084 0
    outer loop
      vertex 57.742 39.3705 0
      vertex 58.0855 38.532 0
      vertex 57.742 39.3705 3
    endloop
  endfacet
  facet normal -0.925362 -0.379084 0
    outer loop
      vertex 57.742 39.3705 3
      vertex 58.0855 38.532 0
      vertex 58.0855 38.532 3
    endloop
  endfacet
  facet normal 0 0 -1
    outer loop
      vertex 57.742 39.3705 0
      vertex 58.0975 40.209 0
      vertex 58.0855 38.532 0
    endloop
  endfacet
  facet normal 0 0 -1
    outer loop
      vertex 58.0855 38.532 0
      vertex 58.0975 40.209 0
      vertex 58.9225 40.5645 0
    endloop
  endfacet
  facet normal 0 0 -1
    outer loop
      vertex 58.0855 38.532 0
      vertex 58.9225 40.5645 0
      vertex 59.698 40.227 0
    endloop
  endfacet
  facet normal 0 0 -1
    outer loop
      vertex 58.0855 38.532 0
      vertex 59.698 40.227 0
      vertex 60.016 39.3825 0
    endloop
  endfacet
  facet normal 0 0 -1
    outer loop
      vertex 58.0855 38.532 0
      vertex 60.016 39.3825 0
      vertex 59.6785 38.5185 0
    endloop
  endfacet
  facet normal 0 0 -1
    outer loop
      vertex 58.0855 38.532 0
      vertex 59.6785 38.5185 0
      vertex 58.885 38.1765 0
    endloop
  endfacet
  facet normal -0.920671 0.390338 0
    outer loop
      vertex 57.742 39.3705 0
      vertex 57.742 39.3705 3
      vertex 58.0975 40.209 0
    endloop
  endfacet
  facet normal -0.920671 0.390338 0
    outer loop
      vertex 58.0975 40.209 0
      vertex 57.742 39.3705 3
      vertex 58.0975 40.209 3
    endloop
  endfacet
  facet normal 0 0 1
    outer loop
      vertex 58.0975 40.209 3
      vertex 57.742 39.3705 3
      vertex 58.0855 38.532 3
    endloop
  endfacet
  facet normal 0 0 1
    outer loop
      vertex 59.6785 38.5185 3
      vertex 58.0975 40.209 3
      vertex 58.885 38.1765 3
    endloop
  endfacet
  facet normal 0 0 1
    outer loop
      vertex 58.885 38.1765 3
      vertex 58.0975 40.209 3
      vertex 58.0855 38.532 3
    endloop
  endfacet
  facet normal 0 0 1
    outer loop
      vertex 60.016 39.3825 3
      vertex 58.0975 40.209 3
      vertex 59.6785 38.5185 3
    endloop
  endfacet
  facet normal 0 0 1
    outer loop
      vertex 59.698 40.227 3
      vertex 58.0975 40.209 3
      vertex 60.016 39.3825 3
    endloop
  endfacet
  facet normal 0 0 1
    outer loop
      vertex 58.9225 40.5645 3
      vertex 58.0975 40.209 3
      vertex 59.698 40.227 3
    endloop
  endfacet
  facet normal -0.406298 -0.913741 0
    outer loop
      vertex 58.0855 38.532 3
      vertex 58.0855 38.532 0
      vertex 58.885 38.1765 0
    endloop
  endfacet
  facet normal -0.406298 -0.913741 0
    outer loop
      vertex 58.885 38.1765 3
      vertex 58.0855 38.532 3
      vertex 58.885 38.1765 0
    endloop
  endfacet
  facet normal 0.395804 -0.918335 0
    outer loop
      vertex 58.885 38.1765 3
      vertex 58.885 38.1765 0
      vertex 59.6785 38.5185 0
    endloop
  endfacet
  facet normal 0.395804 -0.918335 0
    outer loop
      vertex 59.6785 38.5185 3
      vertex 58.885 38.1765 3
      vertex 59.6785 38.5185 0
    endloop
  endfacet
  facet normal 0.931457 -0.363851 0
    outer loop
      vertex 59.6785 38.5185 3
      vertex 59.6785 38.5185 0
      vertex 60.016 39.3825 0
    endloop
  endfacet
  facet normal 0.931457 -0.363851 0
    outer loop
      vertex 60.016 39.3825 3
      vertex 59.6785 38.5185 3
      vertex 60.016 39.3825 0
    endloop
  endfacet
  facet normal 0.93585 0.352398 0
    outer loop
      vertex 60.016 39.3825 0
      vertex 59.698 40.227 0
      vertex 59.698 40.227 3
    endloop
  endfacet
  facet normal 0.93585 0.352398 0
    outer loop
      vertex 60.016 39.3825 3
      vertex 60.016 39.3825 0
      vertex 59.698 40.227 3
    endloop
  endfacet
  facet normal 0.39905 0.916929 0
    outer loop
      vertex 58.9225 40.5645 0
      vertex 58.9225 40.5645 3
      vertex 59.698 40.227 0
    endloop
  endfacet
  facet normal 0.39905 0.916929 0
    outer loop
      vertex 59.698 40.227 0
      vertex 58.9225 40.5645 3
      vertex 59.698 40.227 3
    endloop
  endfacet
  facet normal -0.395732 0.918366 0
    outer loop
      vertex 58.0975 40.209 0
      vertex 58.0975 40.209 3
      vertex 58.9225 40.5645 0
    endloop
  endfacet
  facet normal -0.395732 0.918366 0
    outer loop
      vertex 58.9225 40.5645 0
      vertex 58.0975 40.209 3
      vertex 58.9225 40.5645 3
    endloop
  endfacet
  facet normal -0.932497 -0.361178 0
    outer loop
      vertex 60.994 35.916 0
      vertex 61.324 35.064 0
      vertex 60.994 35.916 3
    endloop
  endfacet
  facet normal -0.932497 -0.361178 0
    outer loop
      vertex 60.994 35.916 3
      vertex 61.324 35.064 0
      vertex 61.324 35.064 3
    endloop
  endfacet
  facet normal 0 0 -1
    outer loop
      vertex 60.994 35.916 0
      vertex 61.342 36.7545 0
      vertex 61.324 35.064 0
    endloop
  endfacet
  facet normal 0 0 -1
    outer loop
      vertex 61.324 35.064 0
      vertex 61.342 36.7545 0
      vertex 62.161 37.11 0
    endloop
  endfacet
  facet normal 0 0 -1
    outer loop
      vertex 61.324 35.064 0
      vertex 62.161 37.11 0
      vertex 62.9365 36.7665 0
    endloop
  endfacet
  facet normal 0 0 -1
    outer loop
      vertex 61.324 35.064 0
      vertex 62.9365 36.7665 0
      vertex 63.2545 35.916 0
    endloop
  endfacet
  facet normal 0 0 -1
    outer loop
      vertex 61.324 35.064 0
      vertex 63.2545 35.916 0
      vertex 62.923 35.058 0
    endloop
  endfacet
  facet normal 0 0 -1
    outer loop
      vertex 61.324 35.064 0
      vertex 62.923 35.058 0
      vertex 62.1115 34.7085 0
    endloop
  endfacet
  facet normal -0.923614 0.383324 0
    outer loop
      vertex 60.994 35.916 0
      vertex 60.994 35.916 3
      vertex 61.342 36.7545 0
    endloop
  endfacet
  facet normal -0.923614 0.383324 0
    outer loop
      vertex 61.342 36.7545 0
      vertex 60.994 35.916 3
      vertex 61.342 36.7545 3
    endloop
  endfacet
  facet normal 0 0 1
    outer loop
      vertex 61.342 36.7545 3
      vertex 60.994 35.916 3
      vertex 61.324 35.064 3
    endloop
  endfacet
  facet normal 0 0 1
    outer loop
      vertex 62.923 35.058 3
      vertex 61.342 36.7545 3
      vertex 62.1115 34.7085 3
    endloop
  endfacet
  facet normal 0 0 1
    outer loop
      vertex 62.1115 34.7085 3
      vertex 61.342 36.7545 3
      vertex 61.324 35.064 3
    endloop
  endfacet
  facet normal 0 0 1
    outer loop
      vertex 63.2545 35.916 3
      vertex 61.342 36.7545 3
      vertex 62.923 35.058 3
    endloop
  endfacet
  facet normal 0 0 1
    outer loop
      vertex 62.9365 36.7665 3
      vertex 61.342 36.7545 3
      vertex 63.2545 35.916 3
    endloop
  endfacet
  facet normal 0 0 1
    outer loop
      vertex 62.161 37.11 3
      vertex 61.342 36.7545 3
      vertex 62.9365 36.7665 3
    endloop
  endfacet
  facet normal -0.411447 -0.911434 0
    outer loop
      vertex 61.324 35.064 3
      vertex 61.324 35.064 0
      vertex 62.1115 34.7085 0
    endloop
  endfacet
  facet normal -0.411447 -0.911434 0
    outer loop
      vertex 62.1115 34.7085 3
      vertex 61.324 35.064 3
      vertex 62.1115 34.7085 0
    endloop
  endfacet
  facet normal 0.395558 -0.918441 0
    outer loop
      vertex 62.1115 34.7085 3
      vertex 62.1115 34.7085 0
      vertex 62.923 35.058 0
    endloop
  endfacet
  facet normal 0.395558 -0.918441 0
    outer loop
      vertex 62.923 35.058 3
      vertex 62.1115 34.7085 3
      vertex 62.923 35.058 0
    endloop
  endfacet
  facet normal 0.932798 -0.360399 0
    outer loop
      vertex 62.923 35.058 3
      vertex 62.923 35.058 0
      vertex 63.2545 35.916 0
    endloop
  endfacet
  facet normal 0.932798 -0.360399 0
    outer loop
      vertex 63.2545 35.916 3
      vertex 62.923 35.058 3
      vertex 63.2545 35.916 0
    endloop
  endfacet
  facet normal 0.936668 0.350218 0
    outer loop
      vertex 63.2545 35.916 0
      vertex 62.9365 36.7665 0
      vertex 62.9365 36.7665 3
    endloop
  endfacet
  facet normal 0.936668 0.350218 0
    outer loop
      vertex 63.2545 35.916 3
      vertex 63.2545 35.916 0
      vertex 62.9365 36.7665 3
    endloop
  endfacet
  facet normal 0.40499 0.914321 0
    outer loop
      vertex 62.161 37.11 0
      vertex 62.161 37.11 3
      vertex 62.9365 36.7665 0
    endloop
  endfacet
  facet normal 0.40499 0.914321 0
    outer loop
      vertex 62.9365 36.7665 0
      vertex 62.161 37.11 3
      vertex 62.9365 36.7665 3
    endloop
  endfacet
  facet normal -0.398173 0.91731 0
    outer loop
      vertex 61.342 36.7545 0
      vertex 61.342 36.7545 3
      vertex 62.161 37.11 0
    endloop
  endfacet
  facet normal -0.398173 0.91731 0
    outer loop
      vertex 62.161 37.11 0
      vertex 61.342 36.7545 3
      vertex 62.161 37.11 3
    endloop
  endfacet
  facet normal -0.925362 -0.379084 0
    outer loop
      vertex 65.992 32.436 0
      vertex 66.3355 31.5975 0
      vertex 65.992 32.436 3
    endloop
  endfacet
  facet normal -0.925362 -0.379084 0
    outer loop
      vertex 65.992 32.436 3
      vertex 66.3355 31.5975 0
      vertex 66.3355 31.5975 3
    endloop
  endfacet
  facet normal 0 0 -1
    outer loop
      vertex 65.992 32.436 0
      vertex 66.3475 33.2805 0
      vertex 66.3355 31.5975 0
    endloop
  endfacet
  facet normal 0 0 -1
    outer loop
      vertex 66.3355 31.5975 0
      vertex 66.3475 33.2805 0
      vertex 67.1725 33.642 0
    endloop
  endfacet
  facet normal 0 0 -1
    outer loop
      vertex 66.3355 31.5975 0
      vertex 67.1725 33.642 0
      vertex 67.948 33.306 0
    endloop
  endfacet
  facet normal 0 0 -1
    outer loop
      vertex 66.3355 31.5975 0
      vertex 67.948 33.306 0
      vertex 68.266 32.4615 0
    endloop
  endfacet
  facet normal 0 0 -1
    outer loop
      vertex 66.3355 31.5975 0
      vertex 68.266 32.4615 0
      vertex 67.9285 31.5915 0
    endloop
  endfacet
  facet normal 0 0 -1
    outer loop
      vertex 66.3355 31.5975 0
      vertex 67.9285 31.5915 0
      vertex 67.135 31.242 0
    endloop
  endfacet
  facet normal -0.921666 0.387984 0
    outer loop
      vertex 65.992 32.436 0
      vertex 65.992 32.436 3
      vertex 66.3475 33.2805 0
    endloop
  endfacet
  facet normal -0.921666 0.387984 0
    outer loop
      vertex 66.3475 33.2805 0
      vertex 65.992 32.436 3
      vertex 66.3475 33.2805 3
    endloop
  endfacet
  facet normal 0 0 1
    outer loop
      vertex 66.3475 33.2805 3
      vertex 65.992 32.436 3
      vertex 66.3355 31.5975 3
    endloop
  endfacet
  facet normal 0 0 1
    outer loop
      vertex 67.9285 31.5915 3
      vertex 66.3475 33.2805 3
      vertex 67.135 31.242 3
    endloop
  endfacet
  facet normal 0 0 1
    outer loop
      vertex 67.135 31.242 3
      vertex 66.3475 33.2805 3
      vertex 66.3355 31.5975 3
    endloop
  endfacet
  facet normal 0 0 1
    outer loop
      vertex 68.266 32.4615 3
      vertex 66.3475 33.2805 3
      vertex 67.9285 31.5915 3
    endloop
  endfacet
  facet normal 0 0 1
    outer loop
      vertex 67.948 33.306 3
      vertex 66.3475 33.2805 3
      vertex 68.266 32.4615 3
    endloop
  endfacet
  facet normal 0 0 1
    outer loop
      vertex 67.1725 33.642 3
      vertex 66.3475 33.2805 3
      vertex 67.948 33.306 3
    endloop
  endfacet
  facet normal -0.406298 -0.913741 0
    outer loop
      vertex 66.3355 31.5975 3
      vertex 66.3355 31.5975 0
      vertex 67.135 31.242 0
    endloop
  endfacet
  facet normal -0.406298 -0.913741 0
    outer loop
      vertex 67.135 31.242 3
      vertex 66.3355 31.5975 3
      vertex 67.135 31.242 0
    endloop
  endfacet
  facet normal 0.403086 -0.915162 0
    outer loop
      vertex 67.135 31.242 3
      vertex 67.135 31.242 0
      vertex 67.9285 31.5915 0
    endloop
  endfacet
  facet normal 0.403086 -0.915162 0
    outer loop
      vertex 67.9285 31.5915 3
      vertex 67.135 31.242 3
      vertex 67.9285 31.5915 0
    endloop
  endfacet
  facet normal 0.932306 -0.36167 0
    outer loop
      vertex 67.9285 31.5915 3
      vertex 67.9285 31.5915 0
      vertex 68.266 32.4615 0
    endloop
  endfacet
  facet normal 0.932306 -0.36167 0
    outer loop
      vertex 68.266 32.4615 3
      vertex 67.9285 31.5915 3
      vertex 68.266 32.4615 0
    endloop
  endfacet
  facet normal 0.93585 0.352398 0
    outer loop
      vertex 68.266 32.4615 0
      vertex 67.948 33.306 0
      vertex 67.948 33.306 3
    endloop
  endfacet
  facet normal 0.93585 0.352398 0
    outer loop
      vertex 68.266 32.4615 3
      vertex 68.266 32.4615 0
      vertex 67.948 33.306 3
    endloop
  endfacet
  facet normal 0.397558 0.917577 0
    outer loop
      vertex 67.1725 33.642 0
      vertex 67.1725 33.642 3
      vertex 67.948 33.306 0
    endloop
  endfacet
  facet normal 0.397558 0.917577 0
    outer loop
      vertex 67.948 33.306 0
      vertex 67.1725 33.642 3
      vertex 67.948 33.306 3
    endloop
  endfacet
  facet normal -0.401343 0.915928 0
    outer loop
      vertex 66.3475 33.2805 0
      vertex 66.3475 33.2805 3
      vertex 67.1725 33.642 0
    endloop
  endfacet
  facet normal -0.401343 0.915928 0
    outer loop
      vertex 67.1725 33.642 0
      vertex 66.3475 33.2805 3
      vertex 67.1725 33.642 3
    endloop
  endfacet
  facet normal -0.925362 -0.379084 0
    outer loop
      vertex 65.992 39.3705 0
      vertex 66.3355 38.532 0
      vertex 65.992 39.3705 3
    endloop
  endfacet
  facet normal -0.925362 -0.379084 0
    outer loop
      vertex 65.992 39.3705 3
      vertex 66.3355 38.532 0
      vertex 66.3355 38.532 3
    endloop
  endfacet
  facet normal 0 0 -1
    outer loop
      vertex 65.992 39.3705 0
      vertex 66.3475 40.209 0
      vertex 66.3355 38.532 0
    endloop
  endfacet
  facet normal 0 0 -1
    outer loop
      vertex 66.3355 38.532 0
      vertex 66.3475 40.209 0
      vertex 67.1725 40.5645 0
    endloop
  endfacet
  facet normal 0 0 -1
    outer loop
      vertex 66.3355 38.532 0
      vertex 67.1725 40.5645 0
      vertex 67.948 40.227 0
    endloop
  endfacet
  facet normal 0 0 -1
    outer loop
      vertex 66.3355 38.532 0
      vertex 67.948 40.227 0
      vertex 68.266 39.3825 0
    endloop
  endfacet
  facet normal 0 0 -1
    outer loop
      vertex 66.3355 38.532 0
      vertex 68.266 39.3825 0
      vertex 67.9285 38.5185 0
    endloop
  endfacet
  facet normal 0 0 -1
    outer loop
      vertex 66.3355 38.532 0
      vertex 67.9285 38.5185 0
      vertex 67.135 38.1765 0
    endloop
  endfacet
  facet normal -0.920671 0.390338 0
    outer loop
      vertex 65.992 39.3705 0
      vertex 65.992 39.3705 3
      vertex 66.3475 40.209 0
    endloop
  endfacet
  facet normal -0.920671 0.390338 0
    outer loop
      vertex 66.3475 40.209 0
      vertex 65.992 39.3705 3
      vertex 66.3475 40.209 3
    endloop
  endfacet
  facet normal 0 0 1
    outer loop
      vertex 66.3475 40.209 3
      vertex 65.992 39.3705 3
      vertex 66.3355 38.532 3
    endloop
  endfacet
  facet normal 0 0 1
    outer loop
      vertex 67.9285 38.5185 3
      vertex 66.3475 40.209 3
      vertex 67.135 38.1765 3
    endloop
  endfacet
  facet normal 0 0 1
    outer loop
      vertex 67.135 38.1765 3
      vertex 66.3475 40.209 3
      vertex 66.3355 38.532 3
    endloop
  endfacet
  facet normal 0 0 1
    outer loop
      vertex 68.266 39.3825 3
      vertex 66.3475 40.209 3
      vertex 67.9285 38.5185 3
    endloop
  endfacet
  facet normal 0 0 1
    outer loop
      vertex 67.948 40.227 3
      vertex 66.3475 40.209 3
      vertex 68.266 39.3825 3
    endloop
  endfacet
  facet normal 0 0 1
    outer loop
      vertex 67.1725 40.5645 3
      vertex 66.3475 40.209 3
      vertex 67.948 40.227 3
    endloop
  endfacet
  facet normal -0.406298 -0.913741 0
    outer loop
      vertex 66.3355 38.532 3
      vertex 66.3355 38.532 0
      vertex 67.135 38.1765 0
    endloop
  endfacet
  facet normal -0.406298 -0.913741 0
    outer loop
      vertex 67.135 38.1765 3
      vertex 66.3355 38.532 3
      vertex 67.135 38.1765 0
    endloop
  endfacet
  facet normal 0.395804 -0.918335 0
    outer loop
      vertex 67.135 38.1765 3
      vertex 67.135 38.1765 0
      vertex 67.9285 38.5185 0
    endloop
  endfacet
  facet normal 0.395804 -0.918335 0
    outer loop
      vertex 67.9285 38.5185 3
      vertex 67.135 38.1765 3
      vertex 67.9285 38.5185 0
    endloop
  endfacet
  facet normal 0.931457 -0.363851 0
    outer loop
      vertex 67.9285 38.5185 3
      vertex 67.9285 38.5185 0
      vertex 68.266 39.3825 0
    endloop
  endfacet
  facet normal 0.931457 -0.363851 0
    outer loop
      vertex 68.266 39.3825 3
      vertex 67.9285 38.5185 3
      vertex 68.266 39.3825 0
    endloop
  endfacet
  facet normal 0.93585 0.352398 0
    outer loop
      vertex 68.266 39.3825 0
      vertex 67.948 40.227 0
      vertex 67.948 40.227 3
    endloop
  endfacet
  facet normal 0.93585 0.352398 0
    outer loop
      vertex 68.266 39.3825 3
      vertex 68.266 39.3825 0
      vertex 67.948 40.227 3
    endloop
  endfacet
  facet normal 0.39905 0.916929 0
    outer loop
      vertex 67.1725 40.5645 0
      vertex 67.1725 40.5645 3
      vertex 67.948 40.227 0
    endloop
  endfacet
  facet normal 0.39905 0.916929 0
    outer loop
      vertex 67.948 40.227 0
      vertex 67.1725 40.5645 3
      vertex 67.948 40.227 3
    endloop
  endfacet
  facet normal -0.395732 0.918366 0
    outer loop
      vertex 66.3475 40.209 0
      vertex 66.3475 40.209 3
      vertex 67.1725 40.5645 0
    endloop
  endfacet
  facet normal -0.395732 0.918366 0
    outer loop
      vertex 67.1725 40.5645 0
      vertex 66.3475 40.209 3
      vertex 67.1725 40.5645 3
    endloop
  endfacet
  facet normal -0.932497 -0.361178 0
    outer loop
      vertex 69.244 35.916 0
      vertex 69.574 35.064 0
      vertex 69.244 35.916 3
    endloop
  endfacet
  facet normal -0.932497 -0.361178 0
    outer loop
      vertex 69.244 35.916 3
      vertex 69.574 35.064 0
      vertex 69.574 35.064 3
    endloop
  endfacet
  facet normal 0 0 -1
    outer loop
      vertex 69.244 35.916 0
      vertex 69.592 36.7545 0
      vertex 69.574 35.064 0
    endloop
  endfacet
  facet normal 0 0 -1
    outer loop
      vertex 69.574 35.064 0
      vertex 69.592 36.7545 0
      vertex 70.411 37.11 0
    endloop
  endfacet
  facet normal 0 0 -1
    outer loop
      vertex 69.574 35.064 0
      vertex 70.411 37.11 0
      vertex 71.1865 36.7665 0
    endloop
  endfacet
  facet normal 0 0 -1
    outer loop
      vertex 69.574 35.064 0
      vertex 71.1865 36.7665 0
      vertex 71.5045 35.916 0
    endloop
  endfacet
  facet normal 0 0 -1
    outer loop
      vertex 69.574 35.064 0
      vertex 71.5045 35.916 0
      vertex 71.173 35.058 0
    endloop
  endfacet
  facet normal 0 0 -1
    outer loop
      vertex 69.574 35.064 0
      vertex 71.173 35.058 0
      vertex 70.3615 34.7085 0
    endloop
  endfacet
  facet normal -0.923614 0.383324 0
    outer loop
      vertex 69.244 35.916 0
      vertex 69.244 35.916 3
      vertex 69.592 36.7545 0
    endloop
  endfacet
  facet normal -0.923614 0.383324 0
    outer loop
      vertex 69.592 36.7545 0
      vertex 69.244 35.916 3
      vertex 69.592 36.7545 3
    endloop
  endfacet
  facet normal 0 0 1
    outer loop
      vertex 69.592 36.7545 3
      vertex 69.244 35.916 3
      vertex 69.574 35.064 3
    endloop
  endfacet
  facet normal 0 0 1
    outer loop
      vertex 71.173 35.058 3
      vertex 69.592 36.7545 3
      vertex 70.3615 34.7085 3
    endloop
  endfacet
  facet normal 0 0 1
    outer loop
      vertex 70.3615 34.7085 3
      vertex 69.592 36.7545 3
      vertex 69.574 35.064 3
    endloop
  endfacet
  facet normal 0 0 1
    outer loop
      vertex 71.5045 35.916 3
      vertex 69.592 36.7545 3
      vertex 71.173 35.058 3
    endloop
  endfacet
  facet normal 0 0 1
    outer loop
      vertex 71.1865 36.7665 3
      vertex 69.592 36.7545 3
      vertex 71.5045 35.916 3
    endloop
  endfacet
  facet normal 0 0 1
    outer loop
      vertex 70.411 37.11 3
      vertex 69.592 36.7545 3
      vertex 71.1865 36.7665 3
    endloop
  endfacet
  facet normal -0.411447 -0.911434 0
    outer loop
      vertex 69.574 35.064 3
      vertex 69.574 35.064 0
      vertex 70.3615 34.7085 0
    endloop
  endfacet
  facet normal -0.411447 -0.911434 0
    outer loop
      vertex 70.3615 34.7085 3
      vertex 69.574 35.064 3
      vertex 70.3615 34.7085 0
    endloop
  endfacet
  facet normal 0.395558 -0.918441 0
    outer loop
      vertex 70.3615 34.7085 3
      vertex 70.3615 34.7085 0
      vertex 71.173 35.058 0
    endloop
  endfacet
  facet normal 0.395558 -0.918441 0
    outer loop
      vertex 71.173 35.058 3
      vertex 70.3615 34.7085 3
      vertex 71.173 35.058 0
    endloop
  endfacet
  facet normal 0.932798 -0.360399 0
    outer loop
      vertex 71.173 35.058 3
      vertex 71.173 35.058 0
      vertex 71.5045 35.916 0
    endloop
  endfacet
  facet normal 0.932798 -0.360399 0
    outer loop
      vertex 71.5045 35.916 3
      vertex 71.173 35.058 3
      vertex 71.5045 35.916 0
    endloop
  endfacet
  facet normal 0.936668 0.350218 0
    outer loop
      vertex 71.5045 35.916 0
      vertex 71.1865 36.7665 0
      vertex 71.1865 36.7665 3
    endloop
  endfacet
  facet normal 0.936668 0.350218 0
    outer loop
      vertex 71.5045 35.916 3
      vertex 71.5045 35.916 0
      vertex 71.1865 36.7665 3
    endloop
  endfacet
  facet normal 0.40499 0.914321 0
    outer loop
      vertex 70.411 37.11 0
      vertex 70.411 37.11 3
      vertex 71.1865 36.7665 0
    endloop
  endfacet
  facet normal 0.40499 0.914321 0
    outer loop
      vertex 71.1865 36.7665 0
      vertex 70.411 37.11 3
      vertex 71.1865 36.7665 3
    endloop
  endfacet
  facet normal -0.398173 0.91731 0
    outer loop
      vertex 69.592 36.7545 0
      vertex 69.592 36.7545 3
      vertex 70.411 37.11 0
    endloop
  endfacet
  facet normal -0.398173 0.91731 0
    outer loop
      vertex 70.411 37.11 0
      vertex 69.592 36.7545 3
      vertex 70.411 37.11 3
    endloop
  endfacet
endsolid OpenSCAD_Model
