solid Default
  facet normal 1.000000e+00 1.224647e-16 0.000000e+00
    outer loop
      vertex 5.000000e+01 6.500000e+01 5.000000e+00
      vertex 5.000000e+01 6.500000e+01 6.000000e+00
      vertex 5.000000e+01 2.000000e+01 5.000000e+00
    endloop
  endfacet
  facet normal 1.000000e+00 1.224647e-16 0.000000e+00
    outer loop
      vertex 5.000000e+01 2.000000e+01 5.000000e+00
      vertex 5.000000e+01 6.500000e+01 6.000000e+00
      vertex 5.000000e+01 -1.500000e+01 6.000000e+00
    endloop
  endfacet
  facet normal 1.000000e+00 1.224647e-16 0.000000e+00
    outer loop
      vertex 5.000000e+01 2.000000e+00 5.000000e+00
      vertex 5.000000e+01 -1.500000e+01 6.000000e+00
      vertex 5.000000e+01 -1.500000e+01 5.000000e+00
    endloop
  endfacet
  facet normal 1.000000e+00 1.224647e-16 0.000000e+00
    outer loop
      vertex 5.000000e+01 2.000000e+01 5.000000e+00
      vertex 5.000000e+01 -1.500000e+01 6.000000e+00
      vertex 5.000000e+01 2.000000e+00 5.000000e+00
    endloop
  endfacet
  facet normal 1.000000e+00 1.224647e-16 0.000000e+00
    outer loop
      vertex 5.000000e+01 2.000000e+00 5.000000e+00
      vertex 5.000000e+01 2.000000e+00 0.000000e+00
      vertex 5.000000e+01 2.000000e+01 5.000000e+00
    endloop
  endfacet
  facet normal 1.000000e+00 1.224647e-16 0.000000e+00
    outer loop
      vertex 5.000000e+01 2.000000e+01 5.000000e+00
      vertex 5.000000e+01 2.000000e+00 0.000000e+00
      vertex 5.000000e+01 2.000000e+01 0.000000e+00
    endloop
  endfacet
  facet normal -1.224647e-16 1.000000e+00 0.000000e+00
    outer loop
      vertex 5.000000e+01 6.500000e+01 6.000000e+00
      vertex 5.000000e+01 6.500000e+01 5.000000e+00
      vertex 0.000000e+00 6.500000e+01 5.000000e+00
    endloop
  endfacet
  facet normal -1.224647e-16 1.000000e+00 0.000000e+00
    outer loop
      vertex 0.000000e+00 6.500000e+01 6.000000e+00
      vertex 5.000000e+01 6.500000e+01 6.000000e+00
      vertex 0.000000e+00 6.500000e+01 5.000000e+00
    endloop
  endfacet
  facet normal 0.000000e+00 -0.000000e+00 -1.000000e+00
    outer loop
      vertex 5.000000e+01 6.500000e+01 5.000000e+00
      vertex 5.000000e+01 2.000000e+01 5.000000e+00
      vertex 0.000000e+00 6.500000e+01 5.000000e+00
    endloop
  endfacet
  facet normal 0.000000e+00 -0.000000e+00 -1.000000e+00
    outer loop
      vertex 0.000000e+00 6.500000e+01 5.000000e+00
      vertex 5.000000e+01 2.000000e+01 5.000000e+00
      vertex 5.000000e-01 2.000000e+01 5.000000e+00
    endloop
  endfacet
  facet normal 0.000000e+00 -0.000000e+00 -1.000000e+00
    outer loop
      vertex 0.000000e+00 6.500000e+01 5.000000e+00
      vertex 5.000000e-01 2.000000e+01 5.000000e+00
      vertex 5.000000e-01 1.900000e+01 5.000000e+00
    endloop
  endfacet
  facet normal 0.000000e+00 -0.000000e+00 -1.000000e+00
    outer loop
      vertex 0.000000e+00 6.500000e+01 5.000000e+00
      vertex 5.000000e-01 1.900000e+01 5.000000e+00
      vertex 7.105427e-15 1.900000e+01 5.000000e+00
    endloop
  endfacet
  facet normal -1.224647e-16 1.000000e+00 0.000000e+00
    outer loop
      vertex 5.000000e+01 2.000000e+01 5.000000e+00
      vertex 5.000000e+01 2.000000e+01 0.000000e+00
      vertex 5.000000e-01 2.000000e+01 0.000000e+00
    endloop
  endfacet
  facet normal -1.224647e-16 1.000000e+00 0.000000e+00
    outer loop
      vertex 5.000000e-01 2.000000e+01 5.000000e+00
      vertex 5.000000e+01 2.000000e+01 5.000000e+00
      vertex 5.000000e-01 2.000000e+01 0.000000e+00
    endloop
  endfacet
  facet normal 0.000000e+00 -0.000000e+00 -1.000000e+00
    outer loop
      vertex 5.000000e+01 2.000000e+01 0.000000e+00
      vertex 5.000000e+01 2.000000e+00 0.000000e+00
      vertex 5.000000e-01 2.000000e+01 0.000000e+00
    endloop
  endfacet
  facet normal 0.000000e+00 -0.000000e+00 -1.000000e+00
    outer loop
      vertex 5.000000e-01 2.000000e+01 0.000000e+00
      vertex 5.000000e+01 2.000000e+00 0.000000e+00
      vertex 5.000000e-01 2.000000e+00 0.000000e+00
    endloop
  endfacet
  facet normal 1.224647e-16 -1.000000e+00 0.000000e+00
    outer loop
      vertex 5.000000e+01 2.000000e+00 0.000000e+00
      vertex 5.000000e+01 2.000000e+00 5.000000e+00
      vertex 5.000000e-01 2.000000e+00 0.000000e+00
    endloop
  endfacet
  facet normal 1.224647e-16 -1.000000e+00 0.000000e+00
    outer loop
      vertex 5.000000e-01 2.000000e+00 0.000000e+00
      vertex 5.000000e+01 2.000000e+00 5.000000e+00
      vertex 5.000000e-01 2.000000e+00 5.000000e+00
    endloop
  endfacet
  facet normal 0.000000e+00 -0.000000e+00 -1.000000e+00
    outer loop
      vertex 5.000000e+01 2.000000e+00 5.000000e+00
      vertex 5.000000e+01 -1.500000e+01 5.000000e+00
      vertex 5.000000e-01 2.000000e+00 5.000000e+00
    endloop
  endfacet
  facet normal 0.000000e+00 -0.000000e+00 -1.000000e+00
    outer loop
      vertex 5.000000e-01 2.000000e+00 5.000000e+00
      vertex 5.000000e+01 -1.500000e+01 5.000000e+00
      vertex 7.105427e-15 -1.500000e+01 5.000000e+00
    endloop
  endfacet
  facet normal 0.000000e+00 -0.000000e+00 -1.000000e+00
    outer loop
      vertex 5.000000e-01 2.000000e+00 5.000000e+00
      vertex 7.105427e-15 -1.500000e+01 5.000000e+00
      vertex 7.105427e-15 3.000000e+00 5.000000e+00
    endloop
  endfacet
  facet normal 0.000000e+00 -0.000000e+00 -1.000000e+00
    outer loop
      vertex 5.000000e-01 2.000000e+00 5.000000e+00
      vertex 7.105427e-15 3.000000e+00 5.000000e+00
      vertex 5.000000e-01 3.000000e+00 5.000000e+00
    endloop
  endfacet
  facet normal 1.224647e-16 -1.000000e+00 0.000000e+00
    outer loop
      vertex 5.000000e+01 -1.500000e+01 5.000000e+00
      vertex 5.000000e+01 -1.500000e+01 6.000000e+00
      vertex 7.105427e-15 -1.500000e+01 5.000000e+00
    endloop
  endfacet
  facet normal 1.224647e-16 -1.000000e+00 0.000000e+00
    outer loop
      vertex 7.105427e-15 -1.500000e+01 5.000000e+00
      vertex 5.000000e+01 -1.500000e+01 6.000000e+00
      vertex 7.105427e-15 -1.500000e+01 6.000000e+00
    endloop
  endfacet
  facet normal 0.000000e+00 0.000000e+00 1.000000e+00
    outer loop
      vertex 3.834350e+01 1.900000e+01 6.000000e+00
      vertex 5.000000e+01 6.500000e+01 6.000000e+00
      vertex 0.000000e+00 6.500000e+01 6.000000e+00
    endloop
  endfacet
  facet normal 0.000000e+00 0.000000e+00 1.000000e+00
    outer loop
      vertex 2.565650e+01 2.500000e+00 6.000000e+00
      vertex 2.000000e+00 3.500000e+00 6.000000e+00
      vertex 5.000000e+01 -1.500000e+01 6.000000e+00
    endloop
  endfacet
  facet normal 0.000000e+00 0.000000e+00 1.000000e+00
    outer loop
      vertex 7.105427e-15 1.900000e+01 6.000000e+00
      vertex 5.000000e-01 1.900000e+01 6.000000e+00
      vertex 0.000000e+00 6.500000e+01 6.000000e+00
    endloop
  endfacet
  facet normal 0.000000e+00 0.000000e+00 1.000000e+00
    outer loop
      vertex 2.565650e+01 1.900000e+01 6.000000e+00
      vertex 3.834350e+01 1.900000e+01 6.000000e+00
      vertex 0.000000e+00 6.500000e+01 6.000000e+00
    endloop
  endfacet
  facet normal 0.000000e+00 0.000000e+00 1.000000e+00
    outer loop
      vertex 7.105427e-15 3.000000e+00 6.000000e+00
      vertex 5.000000e+01 -1.500000e+01 6.000000e+00
      vertex 5.000000e-01 3.000000e+00 6.000000e+00
    endloop
  endfacet
  facet normal 0.000000e+00 0.000000e+00 1.000000e+00
    outer loop
      vertex 7.105427e-15 -1.500000e+01 6.000000e+00
      vertex 5.000000e+01 -1.500000e+01 6.000000e+00
      vertex 7.105427e-15 3.000000e+00 6.000000e+00
    endloop
  endfacet
  facet normal 0.000000e+00 0.000000e+00 1.000000e+00
    outer loop
      vertex 5.000000e+01 -1.500000e+01 6.000000e+00
      vertex 5.000000e+01 6.500000e+01 6.000000e+00
      vertex 3.834350e+01 1.900000e+01 6.000000e+00
    endloop
  endfacet
  facet normal 0.000000e+00 0.000000e+00 1.000000e+00
    outer loop
      vertex 2.565650e+01 3.500000e+00 6.000000e+00
      vertex 2.000000e+00 3.500000e+00 6.000000e+00
      vertex 2.565650e+01 2.500000e+00 6.000000e+00
    endloop
  endfacet
  facet normal 0.000000e+00 0.000000e+00 1.000000e+00
    outer loop
      vertex 2.565650e+01 2.500000e+00 6.000000e+00
      vertex 5.000000e+01 -1.500000e+01 6.000000e+00
      vertex 3.834350e+01 2.500000e+00 6.000000e+00
    endloop
  endfacet
  facet normal 0.000000e+00 0.000000e+00 1.000000e+00
    outer loop
      vertex 2.000000e+00 3.500000e+00 6.000000e+00
      vertex 2.000000e+00 1.850000e+01 6.000000e+00
      vertex 5.000000e-01 1.900000e+01 6.000000e+00
    endloop
  endfacet
  facet normal 0.000000e+00 0.000000e+00 1.000000e+00
    outer loop
      vertex 3.834350e+01 1.900000e+01 6.000000e+00
      vertex 3.834350e+01 2.500000e+00 6.000000e+00
      vertex 5.000000e+01 -1.500000e+01 6.000000e+00
    endloop
  endfacet
  facet normal 0.000000e+00 0.000000e+00 1.000000e+00
    outer loop
      vertex 5.000000e-01 3.000000e+00 6.000000e+00
      vertex 5.000000e+01 -1.500000e+01 6.000000e+00
      vertex 2.000000e+00 3.500000e+00 6.000000e+00
    endloop
  endfacet
  facet normal 0.000000e+00 0.000000e+00 1.000000e+00
    outer loop
      vertex 5.000000e-01 1.900000e+01 6.000000e+00
      vertex 2.000000e+00 1.850000e+01 6.000000e+00
      vertex 0.000000e+00 6.500000e+01 6.000000e+00
    endloop
  endfacet
  facet normal 0.000000e+00 0.000000e+00 1.000000e+00
    outer loop
      vertex 2.000000e+00 1.850000e+01 6.000000e+00
      vertex 2.565650e+01 1.850000e+01 6.000000e+00
      vertex 0.000000e+00 6.500000e+01 6.000000e+00
    endloop
  endfacet
  facet normal 0.000000e+00 0.000000e+00 1.000000e+00
    outer loop
      vertex 2.565650e+01 1.850000e+01 6.000000e+00
      vertex 2.565650e+01 1.900000e+01 6.000000e+00
      vertex 0.000000e+00 6.500000e+01 6.000000e+00
    endloop
  endfacet
  facet normal 0.000000e+00 0.000000e+00 1.000000e+00
    outer loop
      vertex 5.000000e-01 1.900000e+01 6.000000e+00
      vertex 5.000000e-01 3.000000e+00 6.000000e+00
      vertex 2.000000e+00 3.500000e+00 6.000000e+00
    endloop
  endfacet
  facet normal -1.000000e+00 -1.224647e-16 0.000000e+00
    outer loop
      vertex 0.000000e+00 6.500000e+01 6.000000e+00
      vertex 0.000000e+00 6.500000e+01 5.000000e+00
      vertex 7.105427e-15 1.900000e+01 5.000000e+00
    endloop
  endfacet
  facet normal -1.000000e+00 -1.224647e-16 0.000000e+00
    outer loop
      vertex 7.105427e-15 1.900000e+01 6.000000e+00
      vertex 0.000000e+00 6.500000e+01 6.000000e+00
      vertex 7.105427e-15 1.900000e+01 5.000000e+00
    endloop
  endfacet
  facet normal 1.224647e-16 -1.000000e+00 0.000000e+00
    outer loop
      vertex 7.105427e-15 1.900000e+01 6.000000e+00
      vertex 7.105427e-15 1.900000e+01 5.000000e+00
      vertex 5.000000e-01 1.900000e+01 6.000000e+00
    endloop
  endfacet
  facet normal 1.224647e-16 -1.000000e+00 0.000000e+00
    outer loop
      vertex 5.000000e-01 1.900000e+01 6.000000e+00
      vertex 7.105427e-15 1.900000e+01 5.000000e+00
      vertex 5.000000e-01 1.900000e+01 5.000000e+00
    endloop
  endfacet
  facet normal -1.000000e+00 -1.224647e-16 0.000000e+00
    outer loop
      vertex 5.000000e-01 2.000000e+01 5.000000e+00
      vertex 5.000000e-01 2.000000e+01 0.000000e+00
      vertex 5.000000e-01 2.000000e+00 0.000000e+00
    endloop
  endfacet
  facet normal -1.000000e+00 -1.224647e-16 0.000000e+00
    outer loop
      vertex 5.000000e-01 1.900000e+01 5.000000e+00
      vertex 5.000000e-01 2.000000e+01 5.000000e+00
      vertex 5.000000e-01 2.000000e+00 0.000000e+00
    endloop
  endfacet
  facet normal -1.000000e+00 -1.224647e-16 0.000000e+00
    outer loop
      vertex 5.000000e-01 3.000000e+00 5.000000e+00
      vertex 5.000000e-01 1.900000e+01 5.000000e+00
      vertex 5.000000e-01 2.000000e+00 0.000000e+00
    endloop
  endfacet
  facet normal -1.000000e+00 -1.224647e-16 0.000000e+00
    outer loop
      vertex 5.000000e-01 2.000000e+00 5.000000e+00
      vertex 5.000000e-01 3.000000e+00 5.000000e+00
      vertex 5.000000e-01 2.000000e+00 0.000000e+00
    endloop
  endfacet
  facet normal -1.000000e+00 -1.224647e-16 0.000000e+00
    outer loop
      vertex 5.000000e-01 3.000000e+00 6.000000e+00
      vertex 5.000000e-01 1.900000e+01 5.000000e+00
      vertex 5.000000e-01 3.000000e+00 5.000000e+00
    endloop
  endfacet
  facet normal -1.000000e+00 -1.224647e-16 0.000000e+00
    outer loop
      vertex 5.000000e-01 1.900000e+01 6.000000e+00
      vertex 5.000000e-01 1.900000e+01 5.000000e+00
      vertex 5.000000e-01 3.000000e+00 6.000000e+00
    endloop
  endfacet
  facet normal -1.224647e-16 1.000000e+00 0.000000e+00
    outer loop
      vertex 7.105427e-15 3.000000e+00 5.000000e+00
      vertex 7.105427e-15 3.000000e+00 6.000000e+00
      vertex 5.000000e-01 3.000000e+00 6.000000e+00
    endloop
  endfacet
  facet normal -1.224647e-16 1.000000e+00 0.000000e+00
    outer loop
      vertex 5.000000e-01 3.000000e+00 5.000000e+00
      vertex 7.105427e-15 3.000000e+00 5.000000e+00
      vertex 5.000000e-01 3.000000e+00 6.000000e+00
    endloop
  endfacet
  facet normal -1.000000e+00 -1.224647e-16 0.000000e+00
    outer loop
      vertex 7.105427e-15 3.000000e+00 6.000000e+00
      vertex 7.105427e-15 3.000000e+00 5.000000e+00
      vertex 7.105427e-15 -1.500000e+01 5.000000e+00
    endloop
  endfacet
  facet normal -1.000000e+00 -1.224647e-16 0.000000e+00
    outer loop
      vertex 7.105427e-15 -1.500000e+01 6.000000e+00
      vertex 7.105427e-15 3.000000e+00 6.000000e+00
      vertex 7.105427e-15 -1.500000e+01 5.000000e+00
    endloop
  endfacet
  facet normal -1.224647e-16 1.000000e+00 -2.220450e-16
    outer loop
      vertex 3.948520e+01 1.900000e+01 1.047090e+01
      vertex 3.950000e+01 1.900000e+01 1.000000e+01
      vertex 3.948520e+01 1.900000e+01 9.529070e+00
    endloop
  endfacet
  facet normal -1.224647e-16 1.000000e+00 -2.220450e-16
    outer loop
      vertex 3.936720e+01 1.900000e+01 8.594640e+00
      vertex 3.948520e+01 1.900000e+01 1.047090e+01
      vertex 3.944090e+01 1.900000e+01 9.060000e+00
    endloop
  endfacet
  facet normal -1.224647e-16 1.000000e+00 -2.220450e-16
    outer loop
      vertex 3.944090e+01 1.900000e+01 9.060000e+00
      vertex 3.948520e+01 1.900000e+01 1.047090e+01
      vertex 3.948520e+01 1.900000e+01 9.529070e+00
    endloop
  endfacet
  facet normal -1.224647e-16 1.000000e+00 -2.220450e-16
    outer loop
      vertex 3.926440e+01 1.900000e+01 8.134830e+00
      vertex 3.948520e+01 1.900000e+01 1.047090e+01
      vertex 3.936720e+01 1.900000e+01 8.594640e+00
    endloop
  endfacet
  facet normal -1.224647e-16 1.000000e+00 -2.220450e-16
    outer loop
      vertex 3.913290e+01 1.900000e+01 7.682370e+00
      vertex 3.948520e+01 1.900000e+01 1.047090e+01
      vertex 3.926440e+01 1.900000e+01 8.134830e+00
    endloop
  endfacet
  facet normal -1.224647e-16 1.000000e+00 -2.220450e-16
    outer loop
      vertex 3.897330e+01 1.900000e+01 7.239070e+00
      vertex 3.948520e+01 1.900000e+01 1.047090e+01
      vertex 3.913290e+01 1.900000e+01 7.682370e+00
    endloop
  endfacet
  facet normal -1.224647e-16 1.000000e+00 -2.220450e-16
    outer loop
      vertex 3.878620e+01 1.900000e+01 6.806660e+00
      vertex 3.948520e+01 1.900000e+01 1.047090e+01
      vertex 3.897330e+01 1.900000e+01 7.239070e+00
    endloop
  endfacet
  facet normal -1.224647e-16 1.000000e+00 -2.220450e-16
    outer loop
      vertex 3.857230e+01 1.900000e+01 6.386850e+00
      vertex 3.948520e+01 1.900000e+01 1.047090e+01
      vertex 3.878620e+01 1.900000e+01 6.806660e+00
    endloop
  endfacet
  facet normal -1.224647e-16 1.000000e+00 -2.220450e-16
    outer loop
      vertex 3.834350e+01 1.900000e+01 6.000000e+00
      vertex 3.948520e+01 1.900000e+01 1.047090e+01
      vertex 3.857230e+01 1.900000e+01 6.386850e+00
    endloop
  endfacet
  facet normal -1.224647e-16 1.000000e+00 -2.220450e-16
    outer loop
      vertex 2.565650e+01 1.900000e+01 6.000000e+00
      vertex 3.948520e+01 1.900000e+01 1.047090e+01
      vertex 3.834350e+01 1.900000e+01 6.000000e+00
    endloop
  endfacet
  facet normal -1.224647e-16 1.000000e+00 -2.220450e-16
    outer loop
      vertex 2.542770e+01 1.900000e+01 6.386850e+00
      vertex 3.948520e+01 1.900000e+01 1.047090e+01
      vertex 2.565650e+01 1.900000e+01 6.000000e+00
    endloop
  endfacet
  facet normal -1.224647e-16 1.000000e+00 -2.220450e-16
    outer loop
      vertex 2.521380e+01 1.900000e+01 6.806660e+00
      vertex 3.948520e+01 1.900000e+01 1.047090e+01
      vertex 2.542770e+01 1.900000e+01 6.386850e+00
    endloop
  endfacet
  facet normal -1.224647e-16 1.000000e+00 -2.220450e-16
    outer loop
      vertex 2.502670e+01 1.900000e+01 7.239070e+00
      vertex 3.948520e+01 1.900000e+01 1.047090e+01
      vertex 2.521380e+01 1.900000e+01 6.806660e+00
    endloop
  endfacet
  facet normal -1.224647e-16 1.000000e+00 -2.220450e-16
    outer loop
      vertex 2.486710e+01 1.900000e+01 7.682370e+00
      vertex 3.948520e+01 1.900000e+01 1.047090e+01
      vertex 2.502670e+01 1.900000e+01 7.239070e+00
    endloop
  endfacet
  facet normal -1.224647e-16 1.000000e+00 -2.220450e-16
    outer loop
      vertex 2.473560e+01 1.900000e+01 8.134830e+00
      vertex 3.948520e+01 1.900000e+01 1.047090e+01
      vertex 2.486710e+01 1.900000e+01 7.682370e+00
    endloop
  endfacet
  facet normal -1.224647e-16 1.000000e+00 -2.220450e-16
    outer loop
      vertex 2.463280e+01 1.900000e+01 8.594640e+00
      vertex 3.948520e+01 1.900000e+01 1.047090e+01
      vertex 2.473560e+01 1.900000e+01 8.134830e+00
    endloop
  endfacet
  facet normal -1.224647e-16 1.000000e+00 -2.220450e-16
    outer loop
      vertex 2.455910e+01 1.900000e+01 9.060000e+00
      vertex 3.948520e+01 1.900000e+01 1.047090e+01
      vertex 2.463280e+01 1.900000e+01 8.594640e+00
    endloop
  endfacet
  facet normal -1.224647e-16 1.000000e+00 -2.220450e-16
    outer loop
      vertex 2.451480e+01 1.900000e+01 9.529070e+00
      vertex 3.948520e+01 1.900000e+01 1.047090e+01
      vertex 2.455910e+01 1.900000e+01 9.060000e+00
    endloop
  endfacet
  facet normal -1.224647e-16 1.000000e+00 -2.220450e-16
    outer loop
      vertex 2.450000e+01 1.900000e+01 1.000000e+01
      vertex 3.948520e+01 1.900000e+01 1.047090e+01
      vertex 2.451480e+01 1.900000e+01 9.529070e+00
    endloop
  endfacet
  facet normal -1.224647e-16 1.000000e+00 -2.220450e-16
    outer loop
      vertex 2.451480e+01 1.900000e+01 1.047090e+01
      vertex 3.948520e+01 1.900000e+01 1.047090e+01
      vertex 2.450000e+01 1.900000e+01 1.000000e+01
    endloop
  endfacet
  facet normal -1.224647e-16 1.000000e+00 -2.220450e-16
    outer loop
      vertex 2.455910e+01 1.900000e+01 1.094000e+01
      vertex 3.948520e+01 1.900000e+01 1.047090e+01
      vertex 2.451480e+01 1.900000e+01 1.047090e+01
    endloop
  endfacet
  facet normal -1.224647e-16 1.000000e+00 -2.220450e-16
    outer loop
      vertex 2.463280e+01 1.900000e+01 1.140540e+01
      vertex 3.948520e+01 1.900000e+01 1.047090e+01
      vertex 2.455910e+01 1.900000e+01 1.094000e+01
    endloop
  endfacet
  facet normal -1.224647e-16 1.000000e+00 -2.220450e-16
    outer loop
      vertex 2.473560e+01 1.900000e+01 1.186520e+01
      vertex 3.948520e+01 1.900000e+01 1.047090e+01
      vertex 2.463280e+01 1.900000e+01 1.140540e+01
    endloop
  endfacet
  facet normal -1.224647e-16 1.000000e+00 -2.220450e-16
    outer loop
      vertex 2.486710e+01 1.900000e+01 1.231760e+01
      vertex 3.948520e+01 1.900000e+01 1.047090e+01
      vertex 2.473560e+01 1.900000e+01 1.186520e+01
    endloop
  endfacet
  facet normal -1.224647e-16 1.000000e+00 -2.220450e-16
    outer loop
      vertex 2.502670e+01 1.900000e+01 1.276090e+01
      vertex 3.948520e+01 1.900000e+01 1.047090e+01
      vertex 2.486710e+01 1.900000e+01 1.231760e+01
    endloop
  endfacet
  facet normal -1.224647e-16 1.000000e+00 -2.220450e-16
    outer loop
      vertex 2.521380e+01 1.900000e+01 1.319330e+01
      vertex 3.948520e+01 1.900000e+01 1.047090e+01
      vertex 2.502670e+01 1.900000e+01 1.276090e+01
    endloop
  endfacet
  facet normal -1.224647e-16 1.000000e+00 -2.220450e-16
    outer loop
      vertex 2.542770e+01 1.900000e+01 1.361320e+01
      vertex 3.948520e+01 1.900000e+01 1.047090e+01
      vertex 2.521380e+01 1.900000e+01 1.319330e+01
    endloop
  endfacet
  facet normal -1.224647e-16 1.000000e+00 -2.220450e-16
    outer loop
      vertex 2.566750e+01 1.900000e+01 1.401870e+01
      vertex 3.948520e+01 1.900000e+01 1.047090e+01
      vertex 2.542770e+01 1.900000e+01 1.361320e+01
    endloop
  endfacet
  facet normal -1.224647e-16 1.000000e+00 -2.220450e-16
    outer loop
      vertex 2.593240e+01 1.900000e+01 1.440840e+01
      vertex 3.948520e+01 1.900000e+01 1.047090e+01
      vertex 2.566750e+01 1.900000e+01 1.401870e+01
    endloop
  endfacet
  facet normal -1.224647e-16 1.000000e+00 -2.220450e-16
    outer loop
      vertex 2.622120e+01 1.900000e+01 1.478070e+01
      vertex 3.948520e+01 1.900000e+01 1.047090e+01
      vertex 2.593240e+01 1.900000e+01 1.440840e+01
    endloop
  endfacet
  facet normal -1.224647e-16 1.000000e+00 -2.220450e-16
    outer loop
      vertex 2.653270e+01 1.900000e+01 1.513410e+01
      vertex 3.948520e+01 1.900000e+01 1.047090e+01
      vertex 2.622120e+01 1.900000e+01 1.478070e+01
    endloop
  endfacet
  facet normal -1.224647e-16 1.000000e+00 -2.220450e-16
    outer loop
      vertex 2.686590e+01 1.900000e+01 1.546730e+01
      vertex 3.948520e+01 1.900000e+01 1.047090e+01
      vertex 2.653270e+01 1.900000e+01 1.513410e+01
    endloop
  endfacet
  facet normal -1.224647e-16 1.000000e+00 -2.220450e-16
    outer loop
      vertex 2.721930e+01 1.900000e+01 1.577880e+01
      vertex 3.948520e+01 1.900000e+01 1.047090e+01
      vertex 2.686590e+01 1.900000e+01 1.546730e+01
    endloop
  endfacet
  facet normal -1.224647e-16 1.000000e+00 -2.220450e-16
    outer loop
      vertex 2.759160e+01 1.900000e+01 1.606760e+01
      vertex 3.948520e+01 1.900000e+01 1.047090e+01
      vertex 2.721930e+01 1.900000e+01 1.577880e+01
    endloop
  endfacet
  facet normal -1.224647e-16 1.000000e+00 -2.220450e-16
    outer loop
      vertex 2.798130e+01 1.900000e+01 1.633250e+01
      vertex 3.948520e+01 1.900000e+01 1.047090e+01
      vertex 2.759160e+01 1.900000e+01 1.606760e+01
    endloop
  endfacet
  facet normal -1.224647e-16 1.000000e+00 -2.220450e-16
    outer loop
      vertex 2.838680e+01 1.900000e+01 1.657230e+01
      vertex 3.948520e+01 1.900000e+01 1.047090e+01
      vertex 2.798130e+01 1.900000e+01 1.633250e+01
    endloop
  endfacet
  facet normal -1.224647e-16 1.000000e+00 -2.220450e-16
    outer loop
      vertex 2.880670e+01 1.900000e+01 1.678620e+01
      vertex 3.948520e+01 1.900000e+01 1.047090e+01
      vertex 2.838680e+01 1.900000e+01 1.657230e+01
    endloop
  endfacet
  facet normal -1.224647e-16 1.000000e+00 -2.220450e-16
    outer loop
      vertex 2.923910e+01 1.900000e+01 1.697330e+01
      vertex 3.948520e+01 1.900000e+01 1.047090e+01
      vertex 2.880670e+01 1.900000e+01 1.678620e+01
    endloop
  endfacet
  facet normal -1.224647e-16 1.000000e+00 -2.220450e-16
    outer loop
      vertex 2.968240e+01 1.900000e+01 1.713290e+01
      vertex 3.948520e+01 1.900000e+01 1.047090e+01
      vertex 2.923910e+01 1.900000e+01 1.697330e+01
    endloop
  endfacet
  facet normal -1.224647e-16 1.000000e+00 -2.220450e-16
    outer loop
      vertex 3.013480e+01 1.900000e+01 1.726440e+01
      vertex 3.948520e+01 1.900000e+01 1.047090e+01
      vertex 2.968240e+01 1.900000e+01 1.713290e+01
    endloop
  endfacet
  facet normal -1.224647e-16 1.000000e+00 -2.220450e-16
    outer loop
      vertex 3.059460e+01 1.900000e+01 1.736720e+01
      vertex 3.948520e+01 1.900000e+01 1.047090e+01
      vertex 3.013480e+01 1.900000e+01 1.726440e+01
    endloop
  endfacet
  facet normal -1.224647e-16 1.000000e+00 -2.220450e-16
    outer loop
      vertex 3.106000e+01 1.900000e+01 1.744090e+01
      vertex 3.948520e+01 1.900000e+01 1.047090e+01
      vertex 3.059460e+01 1.900000e+01 1.736720e+01
    endloop
  endfacet
  facet normal -1.224647e-16 1.000000e+00 -2.220450e-16
    outer loop
      vertex 3.152910e+01 1.900000e+01 1.748520e+01
      vertex 3.948520e+01 1.900000e+01 1.047090e+01
      vertex 3.106000e+01 1.900000e+01 1.744090e+01
    endloop
  endfacet
  facet normal -1.224647e-16 1.000000e+00 -2.220450e-16
    outer loop
      vertex 3.200000e+01 1.900000e+01 1.750000e+01
      vertex 3.948520e+01 1.900000e+01 1.047090e+01
      vertex 3.152910e+01 1.900000e+01 1.748520e+01
    endloop
  endfacet
  facet normal -1.224647e-16 1.000000e+00 -2.220450e-16
    outer loop
      vertex 3.247090e+01 1.900000e+01 1.748520e+01
      vertex 3.948520e+01 1.900000e+01 1.047090e+01
      vertex 3.200000e+01 1.900000e+01 1.750000e+01
    endloop
  endfacet
  facet normal -1.224647e-16 1.000000e+00 -2.220450e-16
    outer loop
      vertex 3.294000e+01 1.900000e+01 1.744090e+01
      vertex 3.948520e+01 1.900000e+01 1.047090e+01
      vertex 3.247090e+01 1.900000e+01 1.748520e+01
    endloop
  endfacet
  facet normal -1.224647e-16 1.000000e+00 -2.220450e-16
    outer loop
      vertex 3.340540e+01 1.900000e+01 1.736720e+01
      vertex 3.948520e+01 1.900000e+01 1.047090e+01
      vertex 3.294000e+01 1.900000e+01 1.744090e+01
    endloop
  endfacet
  facet normal -1.224647e-16 1.000000e+00 -2.220450e-16
    outer loop
      vertex 3.386520e+01 1.900000e+01 1.726440e+01
      vertex 3.948520e+01 1.900000e+01 1.047090e+01
      vertex 3.340540e+01 1.900000e+01 1.736720e+01
    endloop
  endfacet
  facet normal -1.224647e-16 1.000000e+00 -2.220450e-16
    outer loop
      vertex 3.431760e+01 1.900000e+01 1.713290e+01
      vertex 3.948520e+01 1.900000e+01 1.047090e+01
      vertex 3.386520e+01 1.900000e+01 1.726440e+01
    endloop
  endfacet
  facet normal -1.224647e-16 1.000000e+00 -2.220450e-16
    outer loop
      vertex 3.476090e+01 1.900000e+01 1.697330e+01
      vertex 3.948520e+01 1.900000e+01 1.047090e+01
      vertex 3.431760e+01 1.900000e+01 1.713290e+01
    endloop
  endfacet
  facet normal -1.224647e-16 1.000000e+00 -2.220450e-16
    outer loop
      vertex 3.519330e+01 1.900000e+01 1.678620e+01
      vertex 3.948520e+01 1.900000e+01 1.047090e+01
      vertex 3.476090e+01 1.900000e+01 1.697330e+01
    endloop
  endfacet
  facet normal -1.224647e-16 1.000000e+00 -2.220450e-16
    outer loop
      vertex 3.561320e+01 1.900000e+01 1.657230e+01
      vertex 3.948520e+01 1.900000e+01 1.047090e+01
      vertex 3.519330e+01 1.900000e+01 1.678620e+01
    endloop
  endfacet
  facet normal -1.224647e-16 1.000000e+00 -2.220450e-16
    outer loop
      vertex 3.601870e+01 1.900000e+01 1.633250e+01
      vertex 3.948520e+01 1.900000e+01 1.047090e+01
      vertex 3.561320e+01 1.900000e+01 1.657230e+01
    endloop
  endfacet
  facet normal -1.224647e-16 1.000000e+00 -2.220450e-16
    outer loop
      vertex 3.640840e+01 1.900000e+01 1.606760e+01
      vertex 3.948520e+01 1.900000e+01 1.047090e+01
      vertex 3.601870e+01 1.900000e+01 1.633250e+01
    endloop
  endfacet
  facet normal -1.224647e-16 1.000000e+00 -2.220450e-16
    outer loop
      vertex 3.678070e+01 1.900000e+01 1.577880e+01
      vertex 3.948520e+01 1.900000e+01 1.047090e+01
      vertex 3.640840e+01 1.900000e+01 1.606760e+01
    endloop
  endfacet
  facet normal -1.224647e-16 1.000000e+00 -2.220450e-16
    outer loop
      vertex 3.713410e+01 1.900000e+01 1.546730e+01
      vertex 3.948520e+01 1.900000e+01 1.047090e+01
      vertex 3.678070e+01 1.900000e+01 1.577880e+01
    endloop
  endfacet
  facet normal -1.224647e-16 1.000000e+00 -2.220450e-16
    outer loop
      vertex 3.746730e+01 1.900000e+01 1.513410e+01
      vertex 3.948520e+01 1.900000e+01 1.047090e+01
      vertex 3.713410e+01 1.900000e+01 1.546730e+01
    endloop
  endfacet
  facet normal -1.224647e-16 1.000000e+00 -2.220450e-16
    outer loop
      vertex 3.777880e+01 1.900000e+01 1.478070e+01
      vertex 3.948520e+01 1.900000e+01 1.047090e+01
      vertex 3.746730e+01 1.900000e+01 1.513410e+01
    endloop
  endfacet
  facet normal -1.224647e-16 1.000000e+00 -2.220450e-16
    outer loop
      vertex 3.806760e+01 1.900000e+01 1.440840e+01
      vertex 3.948520e+01 1.900000e+01 1.047090e+01
      vertex 3.777880e+01 1.900000e+01 1.478070e+01
    endloop
  endfacet
  facet normal -1.224647e-16 1.000000e+00 -2.220450e-16
    outer loop
      vertex 3.833250e+01 1.900000e+01 1.401870e+01
      vertex 3.948520e+01 1.900000e+01 1.047090e+01
      vertex 3.806760e+01 1.900000e+01 1.440840e+01
    endloop
  endfacet
  facet normal -1.224647e-16 1.000000e+00 -2.220450e-16
    outer loop
      vertex 3.857230e+01 1.900000e+01 1.361320e+01
      vertex 3.948520e+01 1.900000e+01 1.047090e+01
      vertex 3.833250e+01 1.900000e+01 1.401870e+01
    endloop
  endfacet
  facet normal -1.224647e-16 1.000000e+00 -2.220450e-16
    outer loop
      vertex 3.878620e+01 1.900000e+01 1.319330e+01
      vertex 3.948520e+01 1.900000e+01 1.047090e+01
      vertex 3.857230e+01 1.900000e+01 1.361320e+01
    endloop
  endfacet
  facet normal -1.224647e-16 1.000000e+00 -2.220450e-16
    outer loop
      vertex 3.897330e+01 1.900000e+01 1.276090e+01
      vertex 3.948520e+01 1.900000e+01 1.047090e+01
      vertex 3.878620e+01 1.900000e+01 1.319330e+01
    endloop
  endfacet
  facet normal -1.224647e-16 1.000000e+00 -2.220450e-16
    outer loop
      vertex 3.913290e+01 1.900000e+01 1.231760e+01
      vertex 3.948520e+01 1.900000e+01 1.047090e+01
      vertex 3.897330e+01 1.900000e+01 1.276090e+01
    endloop
  endfacet
  facet normal -1.224647e-16 1.000000e+00 -2.220450e-16
    outer loop
      vertex 3.926440e+01 1.900000e+01 1.186520e+01
      vertex 3.948520e+01 1.900000e+01 1.047090e+01
      vertex 3.913290e+01 1.900000e+01 1.231760e+01
    endloop
  endfacet
  facet normal -1.224647e-16 1.000000e+00 -2.220450e-16
    outer loop
      vertex 3.936720e+01 1.900000e+01 1.140540e+01
      vertex 3.948520e+01 1.900000e+01 1.047090e+01
      vertex 3.926440e+01 1.900000e+01 1.186520e+01
    endloop
  endfacet
  facet normal -1.224647e-16 1.000000e+00 -2.220450e-16
    outer loop
      vertex 3.944090e+01 1.900000e+01 1.094000e+01
      vertex 3.948520e+01 1.900000e+01 1.047090e+01
      vertex 3.936720e+01 1.900000e+01 1.140540e+01
    endloop
  endfacet
  facet normal 8.607434e-01 -7.618392e-18 -5.090392e-01
    outer loop
      vertex 3.857230e+01 1.900000e+01 6.386850e+00
      vertex 3.857230e+01 2.500000e+00 6.386850e+00
      vertex 3.834350e+01 1.900000e+01 6.000000e+00
    endloop
  endfacet
  facet normal 8.607434e-01 -7.618392e-18 -5.090392e-01
    outer loop
      vertex 3.834350e+01 1.900000e+01 6.000000e+00
      vertex 3.857230e+01 2.500000e+00 6.386850e+00
      vertex 3.834350e+01 2.500000e+00 6.000000e+00
    endloop
  endfacet
  facet normal -8.607434e-01 -2.184397e-16 -5.090392e-01
    outer loop
      vertex 2.565650e+01 1.850000e+01 6.000000e+00
      vertex 2.566750e+01 1.850000e+01 5.981300e+00
      vertex 2.566750e+01 3.500000e+00 5.981300e+00
    endloop
  endfacet
  facet normal -8.607434e-01 -2.184397e-16 -5.090392e-01
    outer loop
      vertex 2.542770e+01 2.500000e+00 6.386850e+00
      vertex 2.565650e+01 1.850000e+01 6.000000e+00
      vertex 2.565650e+01 3.500000e+00 6.000000e+00
    endloop
  endfacet
  facet normal -8.607434e-01 -2.184397e-16 -5.090392e-01
    outer loop
      vertex 2.565650e+01 3.500000e+00 6.000000e+00
      vertex 2.565650e+01 1.850000e+01 6.000000e+00
      vertex 2.566750e+01 3.500000e+00 5.981300e+00
    endloop
  endfacet
  facet normal -8.607434e-01 -2.184397e-16 -5.090392e-01
    outer loop
      vertex 2.542770e+01 2.500000e+00 6.386850e+00
      vertex 2.565650e+01 3.500000e+00 6.000000e+00
      vertex 2.565650e+01 2.500000e+00 6.000000e+00
    endloop
  endfacet
  facet normal -8.607434e-01 -2.184397e-16 -5.090392e-01
    outer loop
      vertex 2.542770e+01 1.900000e+01 6.386850e+00
      vertex 2.565650e+01 1.850000e+01 6.000000e+00
      vertex 2.542770e+01 2.500000e+00 6.386850e+00
    endloop
  endfacet
  facet normal -8.607434e-01 -2.184397e-16 -5.090392e-01
    outer loop
      vertex 2.565650e+01 1.900000e+01 6.000000e+00
      vertex 2.565650e+01 1.850000e+01 6.000000e+00
      vertex 2.542770e+01 1.900000e+01 6.386850e+00
    endloop
  endfacet
  facet normal 1.224647e-16 -1.000000e+00 0.000000e+00
    outer loop
      vertex 4.850000e+01 1.850000e+01 1.500000e+00
      vertex 4.850000e+01 1.850000e+01 5.000000e+00
      vertex 2.000000e+00 1.850000e+01 1.500000e+00
    endloop
  endfacet
  facet normal 1.224647e-16 -1.000000e+00 0.000000e+00
    outer loop
      vertex 2.000000e+00 1.850000e+01 1.500000e+00
      vertex 4.850000e+01 1.850000e+01 5.000000e+00
      vertex 2.800000e+01 1.850000e+01 5.000000e+00
    endloop
  endfacet
  facet normal 1.224647e-16 -1.000000e+00 0.000000e+00
    outer loop
      vertex 2.000000e+00 1.850000e+01 1.500000e+00
      vertex 2.800000e+01 1.850000e+01 5.000000e+00
      vertex 2.800000e+01 1.850000e+01 5.500000e+00
    endloop
  endfacet
  facet normal 1.224647e-16 -1.000000e+00 0.000000e+00
    outer loop
      vertex 2.000000e+00 1.850000e+01 1.500000e+00
      vertex 2.800000e+01 1.850000e+01 5.500000e+00
      vertex 2.600340e+01 1.850000e+01 5.500000e+00
    endloop
  endfacet
  facet normal 1.224647e-16 -1.000000e+00 0.000000e+00
    outer loop
      vertex 2.000000e+00 1.850000e+01 1.500000e+00
      vertex 2.600340e+01 1.850000e+01 5.500000e+00
      vertex 2.593240e+01 1.850000e+01 5.591610e+00
    endloop
  endfacet
  facet normal 1.224647e-16 -1.000000e+00 0.000000e+00
    outer loop
      vertex 2.593240e+01 1.850000e+01 5.591610e+00
      vertex 2.566750e+01 1.850000e+01 5.981300e+00
      vertex 2.000000e+00 1.850000e+01 1.500000e+00
    endloop
  endfacet
  facet normal 1.224647e-16 -1.000000e+00 0.000000e+00
    outer loop
      vertex 2.566750e+01 1.850000e+01 5.981300e+00
      vertex 2.565650e+01 1.850000e+01 6.000000e+00
      vertex 2.000000e+00 1.850000e+01 1.500000e+00
    endloop
  endfacet
  facet normal 1.224647e-16 -1.000000e+00 0.000000e+00
    outer loop
      vertex 2.000000e+00 1.850000e+01 1.500000e+00
      vertex 2.565650e+01 1.850000e+01 6.000000e+00
      vertex 2.000000e+00 1.850000e+01 6.000000e+00
    endloop
  endfacet
  facet normal 1.000000e+00 1.224647e-16 0.000000e+00
    outer loop
      vertex 2.000000e+00 1.850000e+01 1.500000e+00
      vertex 2.000000e+00 1.850000e+01 6.000000e+00
      vertex 2.000000e+00 3.500000e+00 1.500000e+00
    endloop
  endfacet
  facet normal 1.000000e+00 1.224647e-16 0.000000e+00
    outer loop
      vertex 2.000000e+00 3.500000e+00 1.500000e+00
      vertex 2.000000e+00 1.850000e+01 6.000000e+00
      vertex 2.000000e+00 3.500000e+00 6.000000e+00
    endloop
  endfacet
  facet normal -1.224647e-16 1.000000e+00 0.000000e+00
    outer loop
      vertex 2.000000e+00 3.500000e+00 1.500000e+00
      vertex 2.000000e+00 3.500000e+00 6.000000e+00
      vertex 2.565650e+01 3.500000e+00 6.000000e+00
    endloop
  endfacet
  facet normal -1.224647e-16 1.000000e+00 0.000000e+00
    outer loop
      vertex 2.593240e+01 3.500000e+00 5.591610e+00
      vertex 2.000000e+00 3.500000e+00 1.500000e+00
      vertex 2.566750e+01 3.500000e+00 5.981300e+00
    endloop
  endfacet
  facet normal -1.224647e-16 1.000000e+00 0.000000e+00
    outer loop
      vertex 2.566750e+01 3.500000e+00 5.981300e+00
      vertex 2.000000e+00 3.500000e+00 1.500000e+00
      vertex 2.565650e+01 3.500000e+00 6.000000e+00
    endloop
  endfacet
  facet normal -1.224647e-16 1.000000e+00 0.000000e+00
    outer loop
      vertex 2.600340e+01 3.500000e+00 5.500000e+00
      vertex 2.000000e+00 3.500000e+00 1.500000e+00
      vertex 2.593240e+01 3.500000e+00 5.591610e+00
    endloop
  endfacet
  facet normal -1.224647e-16 1.000000e+00 0.000000e+00
    outer loop
      vertex 2.800000e+01 3.500000e+00 5.500000e+00
      vertex 2.000000e+00 3.500000e+00 1.500000e+00
      vertex 2.600340e+01 3.500000e+00 5.500000e+00
    endloop
  endfacet
  facet normal -1.224647e-16 1.000000e+00 0.000000e+00
    outer loop
      vertex 2.800000e+01 3.500000e+00 5.000000e+00
      vertex 2.000000e+00 3.500000e+00 1.500000e+00
      vertex 2.800000e+01 3.500000e+00 5.500000e+00
    endloop
  endfacet
  facet normal -1.224647e-16 1.000000e+00 0.000000e+00
    outer loop
      vertex 4.850000e+01 3.500000e+00 5.000000e+00
      vertex 2.000000e+00 3.500000e+00 1.500000e+00
      vertex 2.800000e+01 3.500000e+00 5.000000e+00
    endloop
  endfacet
  facet normal -1.224647e-16 1.000000e+00 0.000000e+00
    outer loop
      vertex 4.850000e+01 3.500000e+00 1.500000e+00
      vertex 2.000000e+00 3.500000e+00 1.500000e+00
      vertex 4.850000e+01 3.500000e+00 5.000000e+00
    endloop
  endfacet
  facet normal 1.224647e-16 -1.000000e+00 2.220450e-16
    outer loop
      vertex 3.950000e+01 2.500000e+00 1.000000e+01
      vertex 3.948520e+01 2.500000e+00 1.047090e+01
      vertex 3.948520e+01 2.500000e+00 9.529070e+00
    endloop
  endfacet
  facet normal 1.224647e-16 -1.000000e+00 2.220450e-16
    outer loop
      vertex 3.948520e+01 2.500000e+00 9.529070e+00
      vertex 3.948520e+01 2.500000e+00 1.047090e+01
      vertex 3.944090e+01 2.500000e+00 1.094000e+01
    endloop
  endfacet
  facet normal 1.224647e-16 -1.000000e+00 2.220450e-16
    outer loop
      vertex 3.948520e+01 2.500000e+00 9.529070e+00
      vertex 3.944090e+01 2.500000e+00 1.094000e+01
      vertex 3.936720e+01 2.500000e+00 1.140540e+01
    endloop
  endfacet
  facet normal 1.224647e-16 -1.000000e+00 2.220450e-16
    outer loop
      vertex 3.948520e+01 2.500000e+00 9.529070e+00
      vertex 3.936720e+01 2.500000e+00 1.140540e+01
      vertex 3.926440e+01 2.500000e+00 1.186520e+01
    endloop
  endfacet
  facet normal 1.224647e-16 -1.000000e+00 2.220450e-16
    outer loop
      vertex 3.948520e+01 2.500000e+00 9.529070e+00
      vertex 3.926440e+01 2.500000e+00 1.186520e+01
      vertex 3.913290e+01 2.500000e+00 1.231760e+01
    endloop
  endfacet
  facet normal 1.224647e-16 -1.000000e+00 2.220450e-16
    outer loop
      vertex 3.948520e+01 2.500000e+00 9.529070e+00
      vertex 3.913290e+01 2.500000e+00 1.231760e+01
      vertex 3.897330e+01 2.500000e+00 1.276090e+01
    endloop
  endfacet
  facet normal 1.224647e-16 -1.000000e+00 2.220450e-16
    outer loop
      vertex 3.948520e+01 2.500000e+00 9.529070e+00
      vertex 3.897330e+01 2.500000e+00 1.276090e+01
      vertex 3.878620e+01 2.500000e+00 1.319330e+01
    endloop
  endfacet
  facet normal 1.224647e-16 -1.000000e+00 2.220450e-16
    outer loop
      vertex 3.948520e+01 2.500000e+00 9.529070e+00
      vertex 3.878620e+01 2.500000e+00 1.319330e+01
      vertex 3.857230e+01 2.500000e+00 1.361320e+01
    endloop
  endfacet
  facet normal 1.224647e-16 -1.000000e+00 2.220450e-16
    outer loop
      vertex 3.948520e+01 2.500000e+00 9.529070e+00
      vertex 3.857230e+01 2.500000e+00 1.361320e+01
      vertex 3.833250e+01 2.500000e+00 1.401870e+01
    endloop
  endfacet
  facet normal 1.224647e-16 -1.000000e+00 2.220450e-16
    outer loop
      vertex 3.948520e+01 2.500000e+00 9.529070e+00
      vertex 3.833250e+01 2.500000e+00 1.401870e+01
      vertex 3.806760e+01 2.500000e+00 1.440840e+01
    endloop
  endfacet
  facet normal 1.224647e-16 -1.000000e+00 2.220450e-16
    outer loop
      vertex 3.948520e+01 2.500000e+00 9.529070e+00
      vertex 3.806760e+01 2.500000e+00 1.440840e+01
      vertex 3.777880e+01 2.500000e+00 1.478070e+01
    endloop
  endfacet
  facet normal 1.224647e-16 -1.000000e+00 2.220450e-16
    outer loop
      vertex 3.948520e+01 2.500000e+00 9.529070e+00
      vertex 3.777880e+01 2.500000e+00 1.478070e+01
      vertex 3.746730e+01 2.500000e+00 1.513410e+01
    endloop
  endfacet
  facet normal 1.224647e-16 -1.000000e+00 2.220450e-16
    outer loop
      vertex 3.948520e+01 2.500000e+00 9.529070e+00
      vertex 3.746730e+01 2.500000e+00 1.513410e+01
      vertex 3.713410e+01 2.500000e+00 1.546730e+01
    endloop
  endfacet
  facet normal 1.224647e-16 -1.000000e+00 2.220450e-16
    outer loop
      vertex 3.948520e+01 2.500000e+00 9.529070e+00
      vertex 3.713410e+01 2.500000e+00 1.546730e+01
      vertex 3.678070e+01 2.500000e+00 1.577880e+01
    endloop
  endfacet
  facet normal 1.224647e-16 -1.000000e+00 2.220450e-16
    outer loop
      vertex 3.948520e+01 2.500000e+00 9.529070e+00
      vertex 3.678070e+01 2.500000e+00 1.577880e+01
      vertex 3.640840e+01 2.500000e+00 1.606760e+01
    endloop
  endfacet
  facet normal 1.224647e-16 -1.000000e+00 2.220450e-16
    outer loop
      vertex 3.948520e+01 2.500000e+00 9.529070e+00
      vertex 3.640840e+01 2.500000e+00 1.606760e+01
      vertex 3.601870e+01 2.500000e+00 1.633250e+01
    endloop
  endfacet
  facet normal 1.224647e-16 -1.000000e+00 2.220450e-16
    outer loop
      vertex 3.948520e+01 2.500000e+00 9.529070e+00
      vertex 3.601870e+01 2.500000e+00 1.633250e+01
      vertex 3.561320e+01 2.500000e+00 1.657230e+01
    endloop
  endfacet
  facet normal 1.224647e-16 -1.000000e+00 2.220450e-16
    outer loop
      vertex 3.948520e+01 2.500000e+00 9.529070e+00
      vertex 3.561320e+01 2.500000e+00 1.657230e+01
      vertex 3.519330e+01 2.500000e+00 1.678620e+01
    endloop
  endfacet
  facet normal 1.224647e-16 -1.000000e+00 2.220450e-16
    outer loop
      vertex 3.948520e+01 2.500000e+00 9.529070e+00
      vertex 3.519330e+01 2.500000e+00 1.678620e+01
      vertex 3.476090e+01 2.500000e+00 1.697330e+01
    endloop
  endfacet
  facet normal 1.224647e-16 -1.000000e+00 2.220450e-16
    outer loop
      vertex 3.948520e+01 2.500000e+00 9.529070e+00
      vertex 3.476090e+01 2.500000e+00 1.697330e+01
      vertex 3.431760e+01 2.500000e+00 1.713290e+01
    endloop
  endfacet
  facet normal 1.224647e-16 -1.000000e+00 2.220450e-16
    outer loop
      vertex 3.948520e+01 2.500000e+00 9.529070e+00
      vertex 3.431760e+01 2.500000e+00 1.713290e+01
      vertex 3.386520e+01 2.500000e+00 1.726440e+01
    endloop
  endfacet
  facet normal 1.224647e-16 -1.000000e+00 2.220450e-16
    outer loop
      vertex 3.948520e+01 2.500000e+00 9.529070e+00
      vertex 3.386520e+01 2.500000e+00 1.726440e+01
      vertex 3.340540e+01 2.500000e+00 1.736720e+01
    endloop
  endfacet
  facet normal 1.224647e-16 -1.000000e+00 2.220450e-16
    outer loop
      vertex 3.948520e+01 2.500000e+00 9.529070e+00
      vertex 3.340540e+01 2.500000e+00 1.736720e+01
      vertex 3.294000e+01 2.500000e+00 1.744090e+01
    endloop
  endfacet
  facet normal 1.224647e-16 -1.000000e+00 2.220450e-16
    outer loop
      vertex 3.948520e+01 2.500000e+00 9.529070e+00
      vertex 3.294000e+01 2.500000e+00 1.744090e+01
      vertex 3.247090e+01 2.500000e+00 1.748520e+01
    endloop
  endfacet
  facet normal 1.224647e-16 -1.000000e+00 2.220450e-16
    outer loop
      vertex 3.948520e+01 2.500000e+00 9.529070e+00
      vertex 3.247090e+01 2.500000e+00 1.748520e+01
      vertex 3.200000e+01 2.500000e+00 1.750000e+01
    endloop
  endfacet
  facet normal 1.224647e-16 -1.000000e+00 2.220450e-16
    outer loop
      vertex 3.948520e+01 2.500000e+00 9.529070e+00
      vertex 3.200000e+01 2.500000e+00 1.750000e+01
      vertex 3.152910e+01 2.500000e+00 1.748520e+01
    endloop
  endfacet
  facet normal 1.224647e-16 -1.000000e+00 2.220450e-16
    outer loop
      vertex 3.948520e+01 2.500000e+00 9.529070e+00
      vertex 3.152910e+01 2.500000e+00 1.748520e+01
      vertex 3.106000e+01 2.500000e+00 1.744090e+01
    endloop
  endfacet
  facet normal 1.224647e-16 -1.000000e+00 2.220450e-16
    outer loop
      vertex 3.948520e+01 2.500000e+00 9.529070e+00
      vertex 3.106000e+01 2.500000e+00 1.744090e+01
      vertex 3.059460e+01 2.500000e+00 1.736720e+01
    endloop
  endfacet
  facet normal 1.224647e-16 -1.000000e+00 2.220450e-16
    outer loop
      vertex 3.948520e+01 2.500000e+00 9.529070e+00
      vertex 3.059460e+01 2.500000e+00 1.736720e+01
      vertex 3.013480e+01 2.500000e+00 1.726440e+01
    endloop
  endfacet
  facet normal 1.224647e-16 -1.000000e+00 2.220450e-16
    outer loop
      vertex 3.948520e+01 2.500000e+00 9.529070e+00
      vertex 3.013480e+01 2.500000e+00 1.726440e+01
      vertex 2.968240e+01 2.500000e+00 1.713290e+01
    endloop
  endfacet
  facet normal 1.224647e-16 -1.000000e+00 2.220450e-16
    outer loop
      vertex 3.948520e+01 2.500000e+00 9.529070e+00
      vertex 2.968240e+01 2.500000e+00 1.713290e+01
      vertex 2.923910e+01 2.500000e+00 1.697330e+01
    endloop
  endfacet
  facet normal 1.224647e-16 -1.000000e+00 2.220450e-16
    outer loop
      vertex 3.948520e+01 2.500000e+00 9.529070e+00
      vertex 2.923910e+01 2.500000e+00 1.697330e+01
      vertex 2.880670e+01 2.500000e+00 1.678620e+01
    endloop
  endfacet
  facet normal 1.224647e-16 -1.000000e+00 2.220450e-16
    outer loop
      vertex 3.948520e+01 2.500000e+00 9.529070e+00
      vertex 2.880670e+01 2.500000e+00 1.678620e+01
      vertex 2.838680e+01 2.500000e+00 1.657230e+01
    endloop
  endfacet
  facet normal 1.224647e-16 -1.000000e+00 2.220450e-16
    outer loop
      vertex 3.948520e+01 2.500000e+00 9.529070e+00
      vertex 2.838680e+01 2.500000e+00 1.657230e+01
      vertex 2.798130e+01 2.500000e+00 1.633250e+01
    endloop
  endfacet
  facet normal 1.224647e-16 -1.000000e+00 2.220450e-16
    outer loop
      vertex 3.948520e+01 2.500000e+00 9.529070e+00
      vertex 2.798130e+01 2.500000e+00 1.633250e+01
      vertex 2.759160e+01 2.500000e+00 1.606760e+01
    endloop
  endfacet
  facet normal 1.224647e-16 -1.000000e+00 2.220450e-16
    outer loop
      vertex 3.948520e+01 2.500000e+00 9.529070e+00
      vertex 2.759160e+01 2.500000e+00 1.606760e+01
      vertex 2.721930e+01 2.500000e+00 1.577880e+01
    endloop
  endfacet
  facet normal 1.224647e-16 -1.000000e+00 2.220450e-16
    outer loop
      vertex 3.948520e+01 2.500000e+00 9.529070e+00
      vertex 2.721930e+01 2.500000e+00 1.577880e+01
      vertex 2.686590e+01 2.500000e+00 1.546730e+01
    endloop
  endfacet
  facet normal 1.224647e-16 -1.000000e+00 2.220450e-16
    outer loop
      vertex 3.948520e+01 2.500000e+00 9.529070e+00
      vertex 2.686590e+01 2.500000e+00 1.546730e+01
      vertex 2.653270e+01 2.500000e+00 1.513410e+01
    endloop
  endfacet
  facet normal 1.224647e-16 -1.000000e+00 2.220450e-16
    outer loop
      vertex 3.948520e+01 2.500000e+00 9.529070e+00
      vertex 2.653270e+01 2.500000e+00 1.513410e+01
      vertex 2.622120e+01 2.500000e+00 1.478070e+01
    endloop
  endfacet
  facet normal 1.224647e-16 -1.000000e+00 2.220450e-16
    outer loop
      vertex 3.948520e+01 2.500000e+00 9.529070e+00
      vertex 2.622120e+01 2.500000e+00 1.478070e+01
      vertex 2.593240e+01 2.500000e+00 1.440840e+01
    endloop
  endfacet
  facet normal 1.224647e-16 -1.000000e+00 2.220450e-16
    outer loop
      vertex 3.948520e+01 2.500000e+00 9.529070e+00
      vertex 2.593240e+01 2.500000e+00 1.440840e+01
      vertex 2.566750e+01 2.500000e+00 1.401870e+01
    endloop
  endfacet
  facet normal 1.224647e-16 -1.000000e+00 2.220450e-16
    outer loop
      vertex 3.948520e+01 2.500000e+00 9.529070e+00
      vertex 2.566750e+01 2.500000e+00 1.401870e+01
      vertex 2.542770e+01 2.500000e+00 1.361320e+01
    endloop
  endfacet
  facet normal 1.224647e-16 -1.000000e+00 2.220450e-16
    outer loop
      vertex 3.948520e+01 2.500000e+00 9.529070e+00
      vertex 2.542770e+01 2.500000e+00 1.361320e+01
      vertex 2.521380e+01 2.500000e+00 1.319330e+01
    endloop
  endfacet
  facet normal 1.224647e-16 -1.000000e+00 2.220450e-16
    outer loop
      vertex 3.948520e+01 2.500000e+00 9.529070e+00
      vertex 2.521380e+01 2.500000e+00 1.319330e+01
      vertex 2.502670e+01 2.500000e+00 1.276090e+01
    endloop
  endfacet
  facet normal 1.224647e-16 -1.000000e+00 2.220450e-16
    outer loop
      vertex 3.948520e+01 2.500000e+00 9.529070e+00
      vertex 2.502670e+01 2.500000e+00 1.276090e+01
      vertex 2.486710e+01 2.500000e+00 1.231760e+01
    endloop
  endfacet
  facet normal 1.224647e-16 -1.000000e+00 2.220450e-16
    outer loop
      vertex 3.948520e+01 2.500000e+00 9.529070e+00
      vertex 2.486710e+01 2.500000e+00 1.231760e+01
      vertex 2.473560e+01 2.500000e+00 1.186520e+01
    endloop
  endfacet
  facet normal 1.224647e-16 -1.000000e+00 2.220450e-16
    outer loop
      vertex 3.948520e+01 2.500000e+00 9.529070e+00
      vertex 2.473560e+01 2.500000e+00 1.186520e+01
      vertex 2.463280e+01 2.500000e+00 1.140540e+01
    endloop
  endfacet
  facet normal 1.224647e-16 -1.000000e+00 2.220450e-16
    outer loop
      vertex 3.948520e+01 2.500000e+00 9.529070e+00
      vertex 2.463280e+01 2.500000e+00 1.140540e+01
      vertex 2.455910e+01 2.500000e+00 1.094000e+01
    endloop
  endfacet
  facet normal 1.224647e-16 -1.000000e+00 2.220450e-16
    outer loop
      vertex 3.948520e+01 2.500000e+00 9.529070e+00
      vertex 2.455910e+01 2.500000e+00 1.094000e+01
      vertex 2.451480e+01 2.500000e+00 1.047090e+01
    endloop
  endfacet
  facet normal 1.224647e-16 -1.000000e+00 2.220450e-16
    outer loop
      vertex 3.948520e+01 2.500000e+00 9.529070e+00
      vertex 2.451480e+01 2.500000e+00 1.047090e+01
      vertex 2.450000e+01 2.500000e+00 1.000000e+01
    endloop
  endfacet
  facet normal 1.224647e-16 -1.000000e+00 2.220450e-16
    outer loop
      vertex 3.948520e+01 2.500000e+00 9.529070e+00
      vertex 2.450000e+01 2.500000e+00 1.000000e+01
      vertex 2.451480e+01 2.500000e+00 9.529070e+00
    endloop
  endfacet
  facet normal 1.224647e-16 -1.000000e+00 2.220450e-16
    outer loop
      vertex 3.948520e+01 2.500000e+00 9.529070e+00
      vertex 2.451480e+01 2.500000e+00 9.529070e+00
      vertex 2.455910e+01 2.500000e+00 9.060000e+00
    endloop
  endfacet
  facet normal 1.224647e-16 -1.000000e+00 2.220450e-16
    outer loop
      vertex 3.948520e+01 2.500000e+00 9.529070e+00
      vertex 2.455910e+01 2.500000e+00 9.060000e+00
      vertex 2.463280e+01 2.500000e+00 8.594640e+00
    endloop
  endfacet
  facet normal 1.224647e-16 -1.000000e+00 2.220450e-16
    outer loop
      vertex 3.948520e+01 2.500000e+00 9.529070e+00
      vertex 2.463280e+01 2.500000e+00 8.594640e+00
      vertex 2.473560e+01 2.500000e+00 8.134830e+00
    endloop
  endfacet
  facet normal 1.224647e-16 -1.000000e+00 2.220450e-16
    outer loop
      vertex 3.948520e+01 2.500000e+00 9.529070e+00
      vertex 2.473560e+01 2.500000e+00 8.134830e+00
      vertex 2.486710e+01 2.500000e+00 7.682370e+00
    endloop
  endfacet
  facet normal 1.224647e-16 -1.000000e+00 2.220450e-16
    outer loop
      vertex 3.948520e+01 2.500000e+00 9.529070e+00
      vertex 2.486710e+01 2.500000e+00 7.682370e+00
      vertex 2.502670e+01 2.500000e+00 7.239070e+00
    endloop
  endfacet
  facet normal 1.224647e-16 -1.000000e+00 2.220450e-16
    outer loop
      vertex 3.948520e+01 2.500000e+00 9.529070e+00
      vertex 2.502670e+01 2.500000e+00 7.239070e+00
      vertex 2.521380e+01 2.500000e+00 6.806660e+00
    endloop
  endfacet
  facet normal 1.224647e-16 -1.000000e+00 2.220450e-16
    outer loop
      vertex 3.948520e+01 2.500000e+00 9.529070e+00
      vertex 2.521380e+01 2.500000e+00 6.806660e+00
      vertex 2.542770e+01 2.500000e+00 6.386850e+00
    endloop
  endfacet
  facet normal 1.224647e-16 -1.000000e+00 2.220450e-16
    outer loop
      vertex 3.948520e+01 2.500000e+00 9.529070e+00
      vertex 2.542770e+01 2.500000e+00 6.386850e+00
      vertex 2.565650e+01 2.500000e+00 6.000000e+00
    endloop
  endfacet
  facet normal 1.224647e-16 -1.000000e+00 2.220450e-16
    outer loop
      vertex 3.948520e+01 2.500000e+00 9.529070e+00
      vertex 2.565650e+01 2.500000e+00 6.000000e+00
      vertex 3.834350e+01 2.500000e+00 6.000000e+00
    endloop
  endfacet
  facet normal 1.224647e-16 -1.000000e+00 2.220450e-16
    outer loop
      vertex 3.948520e+01 2.500000e+00 9.529070e+00
      vertex 3.834350e+01 2.500000e+00 6.000000e+00
      vertex 3.857230e+01 2.500000e+00 6.386850e+00
    endloop
  endfacet
  facet normal 1.224647e-16 -1.000000e+00 2.220450e-16
    outer loop
      vertex 3.948520e+01 2.500000e+00 9.529070e+00
      vertex 3.857230e+01 2.500000e+00 6.386850e+00
      vertex 3.878620e+01 2.500000e+00 6.806660e+00
    endloop
  endfacet
  facet normal 1.224647e-16 -1.000000e+00 2.220450e-16
    outer loop
      vertex 3.948520e+01 2.500000e+00 9.529070e+00
      vertex 3.878620e+01 2.500000e+00 6.806660e+00
      vertex 3.897330e+01 2.500000e+00 7.239070e+00
    endloop
  endfacet
  facet normal 1.224647e-16 -1.000000e+00 2.220450e-16
    outer loop
      vertex 3.948520e+01 2.500000e+00 9.529070e+00
      vertex 3.897330e+01 2.500000e+00 7.239070e+00
      vertex 3.913290e+01 2.500000e+00 7.682370e+00
    endloop
  endfacet
  facet normal 1.224647e-16 -1.000000e+00 2.220450e-16
    outer loop
      vertex 3.948520e+01 2.500000e+00 9.529070e+00
      vertex 3.913290e+01 2.500000e+00 7.682370e+00
      vertex 3.926440e+01 2.500000e+00 8.134830e+00
    endloop
  endfacet
  facet normal 1.224647e-16 -1.000000e+00 2.220450e-16
    outer loop
      vertex 3.948520e+01 2.500000e+00 9.529070e+00
      vertex 3.926440e+01 2.500000e+00 8.134830e+00
      vertex 3.936720e+01 2.500000e+00 8.594640e+00
    endloop
  endfacet
  facet normal 1.224647e-16 -1.000000e+00 2.220450e-16
    outer loop
      vertex 3.948520e+01 2.500000e+00 9.529070e+00
      vertex 3.936720e+01 2.500000e+00 8.594640e+00
      vertex 3.944090e+01 2.500000e+00 9.060000e+00
    endloop
  endfacet
  facet normal 9.995066e-01 1.293786e-16 3.140958e-02
    outer loop
      vertex 3.950000e+01 1.900000e+01 1.000000e+01
      vertex 3.948520e+01 1.900000e+01 1.047090e+01
      vertex 3.950000e+01 2.500000e+00 1.000000e+01
    endloop
  endfacet
  facet normal 9.995066e-01 1.293786e-16 3.140958e-02
    outer loop
      vertex 3.950000e+01 2.500000e+00 1.000000e+01
      vertex 3.948520e+01 1.900000e+01 1.047090e+01
      vertex 3.948520e+01 2.500000e+00 1.047090e+01
    endloop
  endfacet
  facet normal 9.955620e-01 1.428174e-16 9.410810e-02
    outer loop
      vertex 3.948520e+01 1.900000e+01 1.047090e+01
      vertex 3.944090e+01 1.900000e+01 1.094000e+01
      vertex 3.948520e+01 2.500000e+00 1.047090e+01
    endloop
  endfacet
  facet normal 9.955620e-01 1.428174e-16 9.410810e-02
    outer loop
      vertex 3.948520e+01 2.500000e+00 1.047090e+01
      vertex 3.944090e+01 1.900000e+01 1.094000e+01
      vertex 3.944090e+01 2.500000e+00 1.094000e+01
    endloop
  endfacet
  facet normal 9.876881e-01 1.556928e-16 1.564360e-01
    outer loop
      vertex 3.944090e+01 1.900000e+01 1.094000e+01
      vertex 3.936720e+01 1.900000e+01 1.140540e+01
      vertex 3.944090e+01 2.500000e+00 1.094000e+01
    endloop
  endfacet
  facet normal 9.876881e-01 1.556928e-16 1.564360e-01
    outer loop
      vertex 3.944090e+01 2.500000e+00 1.094000e+01
      vertex 3.936720e+01 1.900000e+01 1.140540e+01
      vertex 3.936720e+01 2.500000e+00 1.140540e+01
    endloop
  endfacet
  facet normal 9.759171e-01 1.679528e-16 2.181420e-01
    outer loop
      vertex 3.936720e+01 1.900000e+01 1.140540e+01
      vertex 3.926440e+01 1.900000e+01 1.186520e+01
      vertex 3.936720e+01 2.500000e+00 1.140540e+01
    endloop
  endfacet
  facet normal 9.759171e-01 1.679528e-16 2.181420e-01
    outer loop
      vertex 3.936720e+01 2.500000e+00 1.140540e+01
      vertex 3.926440e+01 1.900000e+01 1.186520e+01
      vertex 3.926440e+01 2.500000e+00 1.186520e+01
    endloop
  endfacet
  facet normal 9.602940e-01 1.795503e-16 2.789900e-01
    outer loop
      vertex 3.926440e+01 1.900000e+01 1.186520e+01
      vertex 3.913290e+01 1.900000e+01 1.231760e+01
      vertex 3.926440e+01 2.500000e+00 1.186520e+01
    endloop
  endfacet
  facet normal 9.602940e-01 1.795503e-16 2.789900e-01
    outer loop
      vertex 3.926440e+01 2.500000e+00 1.186520e+01
      vertex 3.913290e+01 1.900000e+01 1.231760e+01
      vertex 3.913290e+01 2.500000e+00 1.231760e+01
    endloop
  endfacet
  facet normal 9.408800e-01 1.904400e-16 3.387400e-01
    outer loop
      vertex 3.913290e+01 1.900000e+01 1.231760e+01
      vertex 3.897330e+01 1.900000e+01 1.276090e+01
      vertex 3.913290e+01 2.500000e+00 1.231760e+01
    endloop
  endfacet
  facet normal 9.408800e-01 1.904400e-16 3.387400e-01
    outer loop
      vertex 3.913290e+01 2.500000e+00 1.231760e+01
      vertex 3.897330e+01 1.900000e+01 1.276090e+01
      vertex 3.897330e+01 2.500000e+00 1.276090e+01
    endloop
  endfacet
  facet normal 9.177545e-01 2.005772e-16 3.971483e-01
    outer loop
      vertex 3.897330e+01 1.900000e+01 1.276090e+01
      vertex 3.878620e+01 1.900000e+01 1.319330e+01
      vertex 3.897330e+01 2.500000e+00 1.276090e+01
    endloop
  endfacet
  facet normal 9.177545e-01 2.005772e-16 3.971483e-01
    outer loop
      vertex 3.897330e+01 2.500000e+00 1.276090e+01
      vertex 3.878620e+01 1.900000e+01 1.319330e+01
      vertex 3.878620e+01 2.500000e+00 1.319330e+01
    endloop
  endfacet
  facet normal 8.910062e-01 2.099228e-16 4.539911e-01
    outer loop
      vertex 3.878620e+01 1.900000e+01 1.319330e+01
      vertex 3.857230e+01 1.900000e+01 1.361320e+01
      vertex 3.878620e+01 2.500000e+00 1.319330e+01
    endloop
  endfacet
  facet normal 8.910062e-01 2.099228e-16 4.539911e-01
    outer loop
      vertex 3.878620e+01 2.500000e+00 1.319330e+01
      vertex 3.857230e+01 1.900000e+01 1.361320e+01
      vertex 3.857230e+01 2.500000e+00 1.361320e+01
    endloop
  endfacet
  facet normal 8.607434e-01 2.184397e-16 5.090392e-01
    outer loop
      vertex 3.857230e+01 1.900000e+01 1.361320e+01
      vertex 3.833250e+01 1.900000e+01 1.401870e+01
      vertex 3.857230e+01 2.500000e+00 1.361320e+01
    endloop
  endfacet
  facet normal 8.607434e-01 2.184397e-16 5.090392e-01
    outer loop
      vertex 3.857230e+01 2.500000e+00 1.361320e+01
      vertex 3.833250e+01 1.900000e+01 1.401870e+01
      vertex 3.833250e+01 2.500000e+00 1.401870e+01
    endloop
  endfacet
  facet normal 8.270797e-01 2.260960e-16 5.620847e-01
    outer loop
      vertex 3.833250e+01 1.900000e+01 1.401870e+01
      vertex 3.806760e+01 1.900000e+01 1.440840e+01
      vertex 3.833250e+01 2.500000e+00 1.401870e+01
    endloop
  endfacet
  facet normal 8.270797e-01 2.260960e-16 5.620847e-01
    outer loop
      vertex 3.833250e+01 2.500000e+00 1.401870e+01
      vertex 3.806760e+01 1.900000e+01 1.440840e+01
      vertex 3.806760e+01 2.500000e+00 1.440840e+01
    endloop
  endfacet
  facet normal 7.901551e-01 2.328591e-16 6.129071e-01
    outer loop
      vertex 3.806760e+01 1.900000e+01 1.440840e+01
      vertex 3.777880e+01 1.900000e+01 1.478070e+01
      vertex 3.806760e+01 2.500000e+00 1.440840e+01
    endloop
  endfacet
  facet normal 7.901551e-01 2.328591e-16 6.129071e-01
    outer loop
      vertex 3.806760e+01 2.500000e+00 1.440840e+01
      vertex 3.777880e+01 1.900000e+01 1.478070e+01
      vertex 3.777880e+01 2.500000e+00 1.478070e+01
    endloop
  endfacet
  facet normal 7.501119e-01 2.387032e-16 6.613109e-01
    outer loop
      vertex 3.777880e+01 1.900000e+01 1.478070e+01
      vertex 3.746730e+01 1.900000e+01 1.513410e+01
      vertex 3.777880e+01 2.500000e+00 1.478070e+01
    endloop
  endfacet
  facet normal 7.501119e-01 2.387032e-16 6.613109e-01
    outer loop
      vertex 3.777880e+01 2.500000e+00 1.478070e+01
      vertex 3.746730e+01 1.900000e+01 1.513410e+01
      vertex 3.746730e+01 2.500000e+00 1.513410e+01
    endloop
  endfacet
  facet normal 7.071068e-01 2.436046e-16 7.071068e-01
    outer loop
      vertex 3.746730e+01 1.900000e+01 1.513410e+01
      vertex 3.713410e+01 1.900000e+01 1.546730e+01
      vertex 3.746730e+01 2.500000e+00 1.513410e+01
    endloop
  endfacet
  facet normal 7.071068e-01 2.436046e-16 7.071068e-01
    outer loop
      vertex 3.746730e+01 2.500000e+00 1.513410e+01
      vertex 3.713410e+01 1.900000e+01 1.546730e+01
      vertex 3.713410e+01 2.500000e+00 1.546730e+01
    endloop
  endfacet
  facet normal 6.613109e-01 2.475452e-16 7.501119e-01
    outer loop
      vertex 3.713410e+01 2.500000e+00 1.546730e+01
      vertex 3.713410e+01 1.900000e+01 1.546730e+01
      vertex 3.678070e+01 1.900000e+01 1.577880e+01
    endloop
  endfacet
  facet normal 6.613109e-01 2.475452e-16 7.501119e-01
    outer loop
      vertex 3.678070e+01 2.500000e+00 1.577880e+01
      vertex 3.713410e+01 2.500000e+00 1.546730e+01
      vertex 3.678070e+01 1.900000e+01 1.577880e+01
    endloop
  endfacet
  facet normal 6.129071e-01 2.505095e-16 7.901551e-01
    outer loop
      vertex 3.678070e+01 2.500000e+00 1.577880e+01
      vertex 3.678070e+01 1.900000e+01 1.577880e+01
      vertex 3.640840e+01 1.900000e+01 1.606760e+01
    endloop
  endfacet
  facet normal 6.129071e-01 2.505095e-16 7.901551e-01
    outer loop
      vertex 3.640840e+01 2.500000e+00 1.606760e+01
      vertex 3.678070e+01 2.500000e+00 1.577880e+01
      vertex 3.640840e+01 1.900000e+01 1.606760e+01
    endloop
  endfacet
  facet normal 5.620847e-01 2.524845e-16 8.270797e-01
    outer loop
      vertex 3.640840e+01 2.500000e+00 1.606760e+01
      vertex 3.640840e+01 1.900000e+01 1.606760e+01
      vertex 3.601870e+01 1.900000e+01 1.633250e+01
    endloop
  endfacet
  facet normal 5.620847e-01 2.524845e-16 8.270797e-01
    outer loop
      vertex 3.601870e+01 2.500000e+00 1.633250e+01
      vertex 3.640840e+01 2.500000e+00 1.606760e+01
      vertex 3.601870e+01 1.900000e+01 1.633250e+01
    endloop
  endfacet
  facet normal 5.090392e-01 2.534624e-16 8.607434e-01
    outer loop
      vertex 3.601870e+01 2.500000e+00 1.633250e+01
      vertex 3.601870e+01 1.900000e+01 1.633250e+01
      vertex 3.561320e+01 1.900000e+01 1.657230e+01
    endloop
  endfacet
  facet normal 5.090392e-01 2.534624e-16 8.607434e-01
    outer loop
      vertex 3.561320e+01 2.500000e+00 1.657230e+01
      vertex 3.601870e+01 2.500000e+00 1.633250e+01
      vertex 3.561320e+01 1.900000e+01 1.657230e+01
    endloop
  endfacet
  facet normal 4.539911e-01 2.534409e-16 8.910062e-01
    outer loop
      vertex 3.561320e+01 2.500000e+00 1.657230e+01
      vertex 3.561320e+01 1.900000e+01 1.657230e+01
      vertex 3.519330e+01 1.900000e+01 1.678620e+01
    endloop
  endfacet
  facet normal 4.539911e-01 2.534409e-16 8.910062e-01
    outer loop
      vertex 3.519330e+01 2.500000e+00 1.678620e+01
      vertex 3.561320e+01 2.500000e+00 1.657230e+01
      vertex 3.519330e+01 1.900000e+01 1.678620e+01
    endloop
  endfacet
  facet normal 3.971483e-01 2.524188e-16 9.177545e-01
    outer loop
      vertex 3.519330e+01 2.500000e+00 1.678620e+01
      vertex 3.519330e+01 1.900000e+01 1.678620e+01
      vertex 3.476090e+01 1.900000e+01 1.697330e+01
    endloop
  endfacet
  facet normal 3.971483e-01 2.524188e-16 9.177545e-01
    outer loop
      vertex 3.476090e+01 2.500000e+00 1.697330e+01
      vertex 3.519330e+01 2.500000e+00 1.678620e+01
      vertex 3.476090e+01 1.900000e+01 1.697330e+01
    endloop
  endfacet
  facet normal 3.387400e-01 2.504007e-16 9.408800e-01
    outer loop
      vertex 3.476090e+01 2.500000e+00 1.697330e+01
      vertex 3.476090e+01 1.900000e+01 1.697330e+01
      vertex 3.431760e+01 1.900000e+01 1.713290e+01
    endloop
  endfacet
  facet normal 3.387400e-01 2.504007e-16 9.408800e-01
    outer loop
      vertex 3.431760e+01 2.500000e+00 1.713290e+01
      vertex 3.476090e+01 2.500000e+00 1.697330e+01
      vertex 3.431760e+01 1.900000e+01 1.713290e+01
    endloop
  endfacet
  facet normal 2.789900e-01 2.473944e-16 9.602940e-01
    outer loop
      vertex 3.431760e+01 2.500000e+00 1.713290e+01
      vertex 3.431760e+01 1.900000e+01 1.713290e+01
      vertex 3.386520e+01 1.900000e+01 1.726440e+01
    endloop
  endfacet
  facet normal 2.789900e-01 2.473944e-16 9.602940e-01
    outer loop
      vertex 3.386520e+01 2.500000e+00 1.726440e+01
      vertex 3.431760e+01 2.500000e+00 1.713290e+01
      vertex 3.386520e+01 1.900000e+01 1.726440e+01
    endloop
  endfacet
  facet normal 2.181420e-01 2.434117e-16 9.759171e-01
    outer loop
      vertex 3.386520e+01 2.500000e+00 1.726440e+01
      vertex 3.386520e+01 1.900000e+01 1.726440e+01
      vertex 3.340540e+01 1.900000e+01 1.736720e+01
    endloop
  endfacet
  facet normal 2.181420e-01 2.434117e-16 9.759171e-01
    outer loop
      vertex 3.340540e+01 2.500000e+00 1.736720e+01
      vertex 3.386520e+01 2.500000e+00 1.726440e+01
      vertex 3.340540e+01 1.900000e+01 1.736720e+01
    endloop
  endfacet
  facet normal 1.564360e-01 2.384689e-16 9.876881e-01
    outer loop
      vertex 3.340540e+01 2.500000e+00 1.736720e+01
      vertex 3.340540e+01 1.900000e+01 1.736720e+01
      vertex 3.294000e+01 1.900000e+01 1.744090e+01
    endloop
  endfacet
  facet normal 1.564360e-01 2.384689e-16 9.876881e-01
    outer loop
      vertex 3.294000e+01 2.500000e+00 1.744090e+01
      vertex 3.340540e+01 2.500000e+00 1.736720e+01
      vertex 3.294000e+01 1.900000e+01 1.744090e+01
    endloop
  endfacet
  facet normal 9.410810e-02 2.325839e-16 9.955620e-01
    outer loop
      vertex 3.294000e+01 2.500000e+00 1.744090e+01
      vertex 3.294000e+01 1.900000e+01 1.744090e+01
      vertex 3.247090e+01 1.900000e+01 1.748520e+01
    endloop
  endfacet
  facet normal 9.410810e-02 2.325839e-16 9.955620e-01
    outer loop
      vertex 3.247090e+01 2.500000e+00 1.748520e+01
      vertex 3.294000e+01 2.500000e+00 1.744090e+01
      vertex 3.247090e+01 1.900000e+01 1.748520e+01
    endloop
  endfacet
  facet normal 3.140958e-02 2.257814e-16 9.995066e-01
    outer loop
      vertex 3.247090e+01 2.500000e+00 1.748520e+01
      vertex 3.247090e+01 1.900000e+01 1.748520e+01
      vertex 3.200000e+01 1.900000e+01 1.750000e+01
    endloop
  endfacet
  facet normal 3.140958e-02 2.257814e-16 9.995066e-01
    outer loop
      vertex 3.200000e+01 2.500000e+00 1.750000e+01
      vertex 3.247090e+01 2.500000e+00 1.748520e+01
      vertex 3.200000e+01 1.900000e+01 1.750000e+01
    endloop
  endfacet
  facet normal -3.140958e-02 2.180883e-16 9.995066e-01
    outer loop
      vertex 3.200000e+01 2.500000e+00 1.750000e+01
      vertex 3.200000e+01 1.900000e+01 1.750000e+01
      vertex 3.152910e+01 1.900000e+01 1.748520e+01
    endloop
  endfacet
  facet normal -3.140958e-02 2.180883e-16 9.995066e-01
    outer loop
      vertex 3.152910e+01 2.500000e+00 1.748520e+01
      vertex 3.200000e+01 2.500000e+00 1.750000e+01
      vertex 3.152910e+01 1.900000e+01 1.748520e+01
    endloop
  endfacet
  facet normal -9.410810e-02 2.095341e-16 9.955620e-01
    outer loop
      vertex 3.152910e+01 2.500000e+00 1.748520e+01
      vertex 3.152910e+01 1.900000e+01 1.748520e+01
      vertex 3.106000e+01 1.900000e+01 1.744090e+01
    endloop
  endfacet
  facet normal -9.410810e-02 2.095341e-16 9.955620e-01
    outer loop
      vertex 3.106000e+01 2.500000e+00 1.744090e+01
      vertex 3.152910e+01 2.500000e+00 1.748520e+01
      vertex 3.106000e+01 1.900000e+01 1.744090e+01
    endloop
  endfacet
  facet normal -1.564360e-01 2.001531e-16 9.876881e-01
    outer loop
      vertex 3.106000e+01 2.500000e+00 1.744090e+01
      vertex 3.106000e+01 1.900000e+01 1.744090e+01
      vertex 3.059460e+01 1.900000e+01 1.736720e+01
    endloop
  endfacet
  facet normal -1.564360e-01 2.001531e-16 9.876881e-01
    outer loop
      vertex 3.059460e+01 2.500000e+00 1.736720e+01
      vertex 3.106000e+01 2.500000e+00 1.744090e+01
      vertex 3.059460e+01 1.900000e+01 1.736720e+01
    endloop
  endfacet
  facet normal -2.181420e-01 1.899823e-16 9.759171e-01
    outer loop
      vertex 3.059460e+01 2.500000e+00 1.736720e+01
      vertex 3.059460e+01 1.900000e+01 1.736720e+01
      vertex 3.013480e+01 1.900000e+01 1.726440e+01
    endloop
  endfacet
  facet normal -2.181420e-01 1.899823e-16 9.759171e-01
    outer loop
      vertex 3.013480e+01 2.500000e+00 1.726440e+01
      vertex 3.059460e+01 2.500000e+00 1.736720e+01
      vertex 3.013480e+01 1.900000e+01 1.726440e+01
    endloop
  endfacet
  facet normal -2.789900e-01 1.790616e-16 9.602940e-01
    outer loop
      vertex 3.013480e+01 2.500000e+00 1.726440e+01
      vertex 3.013480e+01 1.900000e+01 1.726440e+01
      vertex 2.968240e+01 1.900000e+01 1.713290e+01
    endloop
  endfacet
  facet normal -2.789900e-01 1.790616e-16 9.602940e-01
    outer loop
      vertex 2.968240e+01 2.500000e+00 1.713290e+01
      vertex 3.013480e+01 2.500000e+00 1.726440e+01
      vertex 2.968240e+01 1.900000e+01 1.713290e+01
    endloop
  endfacet
  facet normal -3.387400e-01 1.674333e-16 9.408800e-01
    outer loop
      vertex 2.968240e+01 2.500000e+00 1.713290e+01
      vertex 2.968240e+01 1.900000e+01 1.713290e+01
      vertex 2.923910e+01 1.900000e+01 1.697330e+01
    endloop
  endfacet
  facet normal -3.387400e-01 1.674333e-16 9.408800e-01
    outer loop
      vertex 2.923910e+01 2.500000e+00 1.697330e+01
      vertex 2.968240e+01 2.500000e+00 1.713290e+01
      vertex 2.923910e+01 1.900000e+01 1.697330e+01
    endloop
  endfacet
  facet normal -3.971483e-01 1.551455e-16 9.177545e-01
    outer loop
      vertex 2.923910e+01 2.500000e+00 1.697330e+01
      vertex 2.923910e+01 1.900000e+01 1.697330e+01
      vertex 2.880670e+01 1.900000e+01 1.678620e+01
    endloop
  endfacet
  facet normal -3.971483e-01 1.551455e-16 9.177545e-01
    outer loop
      vertex 2.880670e+01 2.500000e+00 1.678620e+01
      vertex 2.923910e+01 2.500000e+00 1.697330e+01
      vertex 2.880670e+01 1.900000e+01 1.678620e+01
    endloop
  endfacet
  facet normal -4.539911e-01 1.422452e-16 8.910062e-01
    outer loop
      vertex 2.880670e+01 2.500000e+00 1.678620e+01
      vertex 2.880670e+01 1.900000e+01 1.678620e+01
      vertex 2.838680e+01 1.900000e+01 1.657230e+01
    endloop
  endfacet
  facet normal -4.539911e-01 1.422452e-16 8.910062e-01
    outer loop
      vertex 2.838680e+01 2.500000e+00 1.657230e+01
      vertex 2.880670e+01 2.500000e+00 1.678620e+01
      vertex 2.838680e+01 1.900000e+01 1.657230e+01
    endloop
  endfacet
  facet normal -5.090392e-01 1.287838e-16 8.607434e-01
    outer loop
      vertex 2.838680e+01 2.500000e+00 1.657230e+01
      vertex 2.838680e+01 1.900000e+01 1.657230e+01
      vertex 2.798130e+01 1.900000e+01 1.633250e+01
    endloop
  endfacet
  facet normal -5.090392e-01 1.287838e-16 8.607434e-01
    outer loop
      vertex 2.798130e+01 2.500000e+00 1.633250e+01
      vertex 2.838680e+01 2.500000e+00 1.657230e+01
      vertex 2.798130e+01 1.900000e+01 1.633250e+01
    endloop
  endfacet
  facet normal -5.620847e-01 1.148134e-16 8.270797e-01
    outer loop
      vertex 2.798130e+01 2.500000e+00 1.633250e+01
      vertex 2.798130e+01 1.900000e+01 1.633250e+01
      vertex 2.759160e+01 1.900000e+01 1.606760e+01
    endloop
  endfacet
  facet normal -5.620847e-01 1.148134e-16 8.270797e-01
    outer loop
      vertex 2.759160e+01 2.500000e+00 1.606760e+01
      vertex 2.798130e+01 2.500000e+00 1.633250e+01
      vertex 2.759160e+01 1.900000e+01 1.606760e+01
    endloop
  endfacet
  facet normal -6.129071e-01 1.003906e-16 7.901551e-01
    outer loop
      vertex 2.759160e+01 2.500000e+00 1.606760e+01
      vertex 2.759160e+01 1.900000e+01 1.606760e+01
      vertex 2.721930e+01 1.900000e+01 1.577880e+01
    endloop
  endfacet
  facet normal -6.129071e-01 1.003906e-16 7.901551e-01
    outer loop
      vertex 2.721930e+01 2.500000e+00 1.577880e+01
      vertex 2.759160e+01 2.500000e+00 1.606760e+01
      vertex 2.721930e+01 1.900000e+01 1.577880e+01
    endloop
  endfacet
  facet normal -6.613109e-01 8.557076e-17 7.501119e-01
    outer loop
      vertex 2.721930e+01 2.500000e+00 1.577880e+01
      vertex 2.721930e+01 1.900000e+01 1.577880e+01
      vertex 2.686590e+01 1.900000e+01 1.546730e+01
    endloop
  endfacet
  facet normal -6.613109e-01 8.557076e-17 7.501119e-01
    outer loop
      vertex 2.686590e+01 2.500000e+00 1.546730e+01
      vertex 2.721930e+01 2.500000e+00 1.577880e+01
      vertex 2.686590e+01 1.900000e+01 1.546730e+01
    endloop
  endfacet
  facet normal -7.071068e-01 7.041335e-17 7.071068e-01
    outer loop
      vertex 2.686590e+01 2.500000e+00 1.546730e+01
      vertex 2.686590e+01 1.900000e+01 1.546730e+01
      vertex 2.653270e+01 1.900000e+01 1.513410e+01
    endloop
  endfacet
  facet normal -7.071068e-01 7.041335e-17 7.071068e-01
    outer loop
      vertex 2.653270e+01 2.500000e+00 1.513410e+01
      vertex 2.686590e+01 2.500000e+00 1.546730e+01
      vertex 2.653270e+01 1.900000e+01 1.513410e+01
    endloop
  endfacet
  facet normal -7.501119e-01 5.497876e-17 6.613109e-01
    outer loop
      vertex 2.653270e+01 2.500000e+00 1.513410e+01
      vertex 2.653270e+01 1.900000e+01 1.513410e+01
      vertex 2.622120e+01 1.900000e+01 1.478070e+01
    endloop
  endfacet
  facet normal -7.501119e-01 5.497876e-17 6.613109e-01
    outer loop
      vertex 2.622120e+01 2.500000e+00 1.478070e+01
      vertex 2.653270e+01 2.500000e+00 1.513410e+01
      vertex 2.622120e+01 1.900000e+01 1.478070e+01
    endloop
  endfacet
  facet normal -7.901551e-01 3.932692e-17 6.129071e-01
    outer loop
      vertex 2.622120e+01 2.500000e+00 1.478070e+01
      vertex 2.622120e+01 1.900000e+01 1.478070e+01
      vertex 2.593240e+01 1.900000e+01 1.440840e+01
    endloop
  endfacet
  facet normal -7.901551e-01 3.932692e-17 6.129071e-01
    outer loop
      vertex 2.593240e+01 2.500000e+00 1.440840e+01
      vertex 2.622120e+01 2.500000e+00 1.478070e+01
      vertex 2.593240e+01 1.900000e+01 1.440840e+01
    endloop
  endfacet
  facet normal -8.270797e-01 2.351990e-17 5.620847e-01
    outer loop
      vertex 2.593240e+01 2.500000e+00 1.440840e+01
      vertex 2.593240e+01 1.900000e+01 1.440840e+01
      vertex 2.566750e+01 1.900000e+01 1.401870e+01
    endloop
  endfacet
  facet normal -8.270797e-01 2.351990e-17 5.620847e-01
    outer loop
      vertex 2.566750e+01 2.500000e+00 1.401870e+01
      vertex 2.593240e+01 2.500000e+00 1.440840e+01
      vertex 2.566750e+01 1.900000e+01 1.401870e+01
    endloop
  endfacet
  facet normal -8.607434e-01 7.618392e-18 5.090392e-01
    outer loop
      vertex 2.566750e+01 2.500000e+00 1.401870e+01
      vertex 2.566750e+01 1.900000e+01 1.401870e+01
      vertex 2.542770e+01 1.900000e+01 1.361320e+01
    endloop
  endfacet
  facet normal -8.607434e-01 7.618392e-18 5.090392e-01
    outer loop
      vertex 2.542770e+01 2.500000e+00 1.361320e+01
      vertex 2.566750e+01 2.500000e+00 1.401870e+01
      vertex 2.542770e+01 1.900000e+01 1.361320e+01
    endloop
  endfacet
  facet normal -8.910062e-01 -8.310766e-18 4.539911e-01
    outer loop
      vertex 2.542770e+01 2.500000e+00 1.361320e+01
      vertex 2.542770e+01 1.900000e+01 1.361320e+01
      vertex 2.521380e+01 1.900000e+01 1.319330e+01
    endloop
  endfacet
  facet normal -8.910062e-01 -8.310766e-18 4.539911e-01
    outer loop
      vertex 2.521380e+01 2.500000e+00 1.319330e+01
      vertex 2.542770e+01 2.500000e+00 1.361320e+01
      vertex 2.521380e+01 1.900000e+01 1.319330e+01
    endloop
  endfacet
  facet normal -9.177545e-01 -2.420786e-17 3.971483e-01
    outer loop
      vertex 2.521380e+01 2.500000e+00 1.319330e+01
      vertex 2.521380e+01 1.900000e+01 1.319330e+01
      vertex 2.502670e+01 1.900000e+01 1.276090e+01
    endloop
  endfacet
  facet normal -9.177545e-01 -2.420786e-17 3.971483e-01
    outer loop
      vertex 2.502670e+01 2.500000e+00 1.276090e+01
      vertex 2.521380e+01 2.500000e+00 1.319330e+01
      vertex 2.502670e+01 1.900000e+01 1.276090e+01
    endloop
  endfacet
  facet normal -9.408800e-01 -4.000917e-17 3.387400e-01
    outer loop
      vertex 2.502670e+01 2.500000e+00 1.276090e+01
      vertex 2.502670e+01 1.900000e+01 1.276090e+01
      vertex 2.486710e+01 1.900000e+01 1.231760e+01
    endloop
  endfacet
  facet normal -9.408800e-01 -4.000917e-17 3.387400e-01
    outer loop
      vertex 2.486710e+01 2.500000e+00 1.231760e+01
      vertex 2.502670e+01 2.500000e+00 1.276090e+01
      vertex 2.486710e+01 1.900000e+01 1.231760e+01
    endloop
  endfacet
  facet normal -9.602940e-01 -5.565390e-17 2.789900e-01
    outer loop
      vertex 2.486710e+01 2.500000e+00 1.231760e+01
      vertex 2.486710e+01 1.900000e+01 1.231760e+01
      vertex 2.473560e+01 1.900000e+01 1.186520e+01
    endloop
  endfacet
  facet normal -9.602940e-01 -5.565390e-17 2.789900e-01
    outer loop
      vertex 2.473560e+01 2.500000e+00 1.186520e+01
      vertex 2.486710e+01 2.500000e+00 1.231760e+01
      vertex 2.473560e+01 1.900000e+01 1.186520e+01
    endloop
  endfacet
  facet normal -9.759171e-01 -7.107797e-17 2.181420e-01
    outer loop
      vertex 2.473560e+01 2.500000e+00 1.186520e+01
      vertex 2.473560e+01 1.900000e+01 1.186520e+01
      vertex 2.463280e+01 1.900000e+01 1.140540e+01
    endloop
  endfacet
  facet normal -9.759171e-01 -7.107797e-17 2.181420e-01
    outer loop
      vertex 2.463280e+01 2.500000e+00 1.140540e+01
      vertex 2.473560e+01 2.500000e+00 1.186520e+01
      vertex 2.463280e+01 1.900000e+01 1.140540e+01
    endloop
  endfacet
  facet normal -9.876881e-01 -8.622101e-17 1.564360e-01
    outer loop
      vertex 2.463280e+01 2.500000e+00 1.140540e+01
      vertex 2.463280e+01 1.900000e+01 1.140540e+01
      vertex 2.455910e+01 1.900000e+01 1.094000e+01
    endloop
  endfacet
  facet normal -9.876881e-01 -8.622101e-17 1.564360e-01
    outer loop
      vertex 2.455910e+01 2.500000e+00 1.094000e+01
      vertex 2.463280e+01 2.500000e+00 1.140540e+01
      vertex 2.455910e+01 1.900000e+01 1.094000e+01
    endloop
  endfacet
  facet normal -9.955620e-01 -1.010250e-16 9.410810e-02
    outer loop
      vertex 2.455910e+01 2.500000e+00 1.094000e+01
      vertex 2.455910e+01 1.900000e+01 1.094000e+01
      vertex 2.451480e+01 1.900000e+01 1.047090e+01
    endloop
  endfacet
  facet normal -9.955620e-01 -1.010250e-16 9.410810e-02
    outer loop
      vertex 2.451480e+01 2.500000e+00 1.047090e+01
      vertex 2.455910e+01 2.500000e+00 1.094000e+01
      vertex 2.451480e+01 1.900000e+01 1.047090e+01
    endloop
  endfacet
  facet normal -9.995066e-01 -1.154299e-16 3.140958e-02
    outer loop
      vertex 2.451480e+01 2.500000e+00 1.047090e+01
      vertex 2.451480e+01 1.900000e+01 1.047090e+01
      vertex 2.450000e+01 1.900000e+01 1.000000e+01
    endloop
  endfacet
  facet normal -9.995066e-01 -1.154299e-16 3.140958e-02
    outer loop
      vertex 2.450000e+01 2.500000e+00 1.000000e+01
      vertex 2.451480e+01 2.500000e+00 1.047090e+01
      vertex 2.450000e+01 1.900000e+01 1.000000e+01
    endloop
  endfacet
  facet normal -9.995066e-01 -1.293786e-16 -3.140958e-02
    outer loop
      vertex 2.450000e+01 1.900000e+01 1.000000e+01
      vertex 2.451480e+01 1.900000e+01 9.529070e+00
      vertex 2.451480e+01 2.500000e+00 9.529070e+00
    endloop
  endfacet
  facet normal -9.995066e-01 -1.293786e-16 -3.140958e-02
    outer loop
      vertex 2.450000e+01 2.500000e+00 1.000000e+01
      vertex 2.450000e+01 1.900000e+01 1.000000e+01
      vertex 2.451480e+01 2.500000e+00 9.529070e+00
    endloop
  endfacet
  facet normal -9.955620e-01 -1.428174e-16 -9.410810e-02
    outer loop
      vertex 2.451480e+01 1.900000e+01 9.529070e+00
      vertex 2.455910e+01 1.900000e+01 9.060000e+00
      vertex 2.455910e+01 2.500000e+00 9.060000e+00
    endloop
  endfacet
  facet normal -9.955620e-01 -1.428174e-16 -9.410810e-02
    outer loop
      vertex 2.451480e+01 2.500000e+00 9.529070e+00
      vertex 2.451480e+01 1.900000e+01 9.529070e+00
      vertex 2.455910e+01 2.500000e+00 9.060000e+00
    endloop
  endfacet
  facet normal -9.876881e-01 -1.556928e-16 -1.564360e-01
    outer loop
      vertex 2.455910e+01 1.900000e+01 9.060000e+00
      vertex 2.463280e+01 1.900000e+01 8.594640e+00
      vertex 2.463280e+01 2.500000e+00 8.594640e+00
    endloop
  endfacet
  facet normal -9.876881e-01 -1.556928e-16 -1.564360e-01
    outer loop
      vertex 2.455910e+01 2.500000e+00 9.060000e+00
      vertex 2.455910e+01 1.900000e+01 9.060000e+00
      vertex 2.463280e+01 2.500000e+00 8.594640e+00
    endloop
  endfacet
  facet normal -9.759171e-01 -1.679528e-16 -2.181420e-01
    outer loop
      vertex 2.463280e+01 1.900000e+01 8.594640e+00
      vertex 2.473560e+01 1.900000e+01 8.134830e+00
      vertex 2.473560e+01 2.500000e+00 8.134830e+00
    endloop
  endfacet
  facet normal -9.759171e-01 -1.679528e-16 -2.181420e-01
    outer loop
      vertex 2.463280e+01 2.500000e+00 8.594640e+00
      vertex 2.463280e+01 1.900000e+01 8.594640e+00
      vertex 2.473560e+01 2.500000e+00 8.134830e+00
    endloop
  endfacet
  facet normal -9.602940e-01 -1.795503e-16 -2.789900e-01
    outer loop
      vertex 2.473560e+01 1.900000e+01 8.134830e+00
      vertex 2.486710e+01 1.900000e+01 7.682370e+00
      vertex 2.486710e+01 2.500000e+00 7.682370e+00
    endloop
  endfacet
  facet normal -9.602940e-01 -1.795503e-16 -2.789900e-01
    outer loop
      vertex 2.473560e+01 2.500000e+00 8.134830e+00
      vertex 2.473560e+01 1.900000e+01 8.134830e+00
      vertex 2.486710e+01 2.500000e+00 7.682370e+00
    endloop
  endfacet
  facet normal -9.408800e-01 -1.904400e-16 -3.387400e-01
    outer loop
      vertex 2.486710e+01 1.900000e+01 7.682370e+00
      vertex 2.502670e+01 1.900000e+01 7.239070e+00
      vertex 2.502670e+01 2.500000e+00 7.239070e+00
    endloop
  endfacet
  facet normal -9.408800e-01 -1.904400e-16 -3.387400e-01
    outer loop
      vertex 2.486710e+01 2.500000e+00 7.682370e+00
      vertex 2.486710e+01 1.900000e+01 7.682370e+00
      vertex 2.502670e+01 2.500000e+00 7.239070e+00
    endloop
  endfacet
  facet normal -9.177545e-01 -2.005772e-16 -3.971483e-01
    outer loop
      vertex 2.502670e+01 1.900000e+01 7.239070e+00
      vertex 2.521380e+01 1.900000e+01 6.806660e+00
      vertex 2.521380e+01 2.500000e+00 6.806660e+00
    endloop
  endfacet
  facet normal -9.177545e-01 -2.005772e-16 -3.971483e-01
    outer loop
      vertex 2.502670e+01 2.500000e+00 7.239070e+00
      vertex 2.502670e+01 1.900000e+01 7.239070e+00
      vertex 2.521380e+01 2.500000e+00 6.806660e+00
    endloop
  endfacet
  facet normal -8.910062e-01 -2.099228e-16 -4.539911e-01
    outer loop
      vertex 2.521380e+01 1.900000e+01 6.806660e+00
      vertex 2.542770e+01 1.900000e+01 6.386850e+00
      vertex 2.542770e+01 2.500000e+00 6.386850e+00
    endloop
  endfacet
  facet normal -8.910062e-01 -2.099228e-16 -4.539911e-01
    outer loop
      vertex 2.521380e+01 2.500000e+00 6.806660e+00
      vertex 2.521380e+01 1.900000e+01 6.806660e+00
      vertex 2.542770e+01 2.500000e+00 6.386850e+00
    endloop
  endfacet
  facet normal 8.910062e-01 8.310766e-18 -4.539911e-01
    outer loop
      vertex 3.878620e+01 1.900000e+01 6.806660e+00
      vertex 3.878620e+01 2.500000e+00 6.806660e+00
      vertex 3.857230e+01 1.900000e+01 6.386850e+00
    endloop
  endfacet
  facet normal 8.910062e-01 8.310766e-18 -4.539911e-01
    outer loop
      vertex 3.857230e+01 1.900000e+01 6.386850e+00
      vertex 3.878620e+01 2.500000e+00 6.806660e+00
      vertex 3.857230e+01 2.500000e+00 6.386850e+00
    endloop
  endfacet
  facet normal 9.177545e-01 2.420786e-17 -3.971483e-01
    outer loop
      vertex 3.897330e+01 1.900000e+01 7.239070e+00
      vertex 3.897330e+01 2.500000e+00 7.239070e+00
      vertex 3.878620e+01 1.900000e+01 6.806660e+00
    endloop
  endfacet
  facet normal 9.177545e-01 2.420786e-17 -3.971483e-01
    outer loop
      vertex 3.878620e+01 1.900000e+01 6.806660e+00
      vertex 3.897330e+01 2.500000e+00 7.239070e+00
      vertex 3.878620e+01 2.500000e+00 6.806660e+00
    endloop
  endfacet
  facet normal 9.408800e-01 4.000917e-17 -3.387400e-01
    outer loop
      vertex 3.913290e+01 1.900000e+01 7.682370e+00
      vertex 3.913290e+01 2.500000e+00 7.682370e+00
      vertex 3.897330e+01 1.900000e+01 7.239070e+00
    endloop
  endfacet
  facet normal 9.408800e-01 4.000917e-17 -3.387400e-01
    outer loop
      vertex 3.897330e+01 1.900000e+01 7.239070e+00
      vertex 3.913290e+01 2.500000e+00 7.682370e+00
      vertex 3.897330e+01 2.500000e+00 7.239070e+00
    endloop
  endfacet
  facet normal 9.602940e-01 5.565390e-17 -2.789900e-01
    outer loop
      vertex 3.926440e+01 1.900000e+01 8.134830e+00
      vertex 3.926440e+01 2.500000e+00 8.134830e+00
      vertex 3.913290e+01 1.900000e+01 7.682370e+00
    endloop
  endfacet
  facet normal 9.602940e-01 5.565390e-17 -2.789900e-01
    outer loop
      vertex 3.913290e+01 1.900000e+01 7.682370e+00
      vertex 3.926440e+01 2.500000e+00 8.134830e+00
      vertex 3.913290e+01 2.500000e+00 7.682370e+00
    endloop
  endfacet
  facet normal 9.759171e-01 7.107797e-17 -2.181420e-01
    outer loop
      vertex 3.936720e+01 1.900000e+01 8.594640e+00
      vertex 3.936720e+01 2.500000e+00 8.594640e+00
      vertex 3.926440e+01 1.900000e+01 8.134830e+00
    endloop
  endfacet
  facet normal 9.759171e-01 7.107797e-17 -2.181420e-01
    outer loop
      vertex 3.926440e+01 1.900000e+01 8.134830e+00
      vertex 3.936720e+01 2.500000e+00 8.594640e+00
      vertex 3.926440e+01 2.500000e+00 8.134830e+00
    endloop
  endfacet
  facet normal 9.876881e-01 8.622101e-17 -1.564360e-01
    outer loop
      vertex 3.944090e+01 1.900000e+01 9.060000e+00
      vertex 3.944090e+01 2.500000e+00 9.060000e+00
      vertex 3.936720e+01 1.900000e+01 8.594640e+00
    endloop
  endfacet
  facet normal 9.876881e-01 8.622101e-17 -1.564360e-01
    outer loop
      vertex 3.936720e+01 1.900000e+01 8.594640e+00
      vertex 3.944090e+01 2.500000e+00 9.060000e+00
      vertex 3.936720e+01 2.500000e+00 8.594640e+00
    endloop
  endfacet
  facet normal 9.955620e-01 1.010250e-16 -9.410810e-02
    outer loop
      vertex 3.948520e+01 1.900000e+01 9.529070e+00
      vertex 3.948520e+01 2.500000e+00 9.529070e+00
      vertex 3.944090e+01 1.900000e+01 9.060000e+00
    endloop
  endfacet
  facet normal 9.955620e-01 1.010250e-16 -9.410810e-02
    outer loop
      vertex 3.944090e+01 1.900000e+01 9.060000e+00
      vertex 3.948520e+01 2.500000e+00 9.529070e+00
      vertex 3.944090e+01 2.500000e+00 9.060000e+00
    endloop
  endfacet
  facet normal 9.995066e-01 1.154299e-16 -3.140958e-02
    outer loop
      vertex 3.950000e+01 1.900000e+01 1.000000e+01
      vertex 3.950000e+01 2.500000e+00 1.000000e+01
      vertex 3.948520e+01 1.900000e+01 9.529070e+00
    endloop
  endfacet
  facet normal 9.995066e-01 1.154299e-16 -3.140958e-02
    outer loop
      vertex 3.948520e+01 1.900000e+01 9.529070e+00
      vertex 3.950000e+01 2.500000e+00 1.000000e+01
      vertex 3.948520e+01 2.500000e+00 9.529070e+00
    endloop
  endfacet
  facet normal -8.270797e-01 -2.260960e-16 -5.620847e-01
    outer loop
      vertex 2.566750e+01 1.850000e+01 5.981300e+00
      vertex 2.593240e+01 1.850000e+01 5.591610e+00
      vertex 2.593240e+01 3.500000e+00 5.591610e+00
    endloop
  endfacet
  facet normal -8.270797e-01 -2.260960e-16 -5.620847e-01
    outer loop
      vertex 2.566750e+01 3.500000e+00 5.981300e+00
      vertex 2.566750e+01 1.850000e+01 5.981300e+00
      vertex 2.593240e+01 3.500000e+00 5.591610e+00
    endloop
  endfacet
  facet normal 0.000000e+00 0.000000e+00 1.000000e+00
    outer loop
      vertex 4.850000e+01 3.500000e+00 1.500000e+00
      vertex 4.850000e+01 1.850000e+01 1.500000e+00
      vertex 2.000000e+00 1.850000e+01 1.500000e+00
    endloop
  endfacet
  facet normal 0.000000e+00 0.000000e+00 1.000000e+00
    outer loop
      vertex 2.000000e+00 3.500000e+00 1.500000e+00
      vertex 4.850000e+01 3.500000e+00 1.500000e+00
      vertex 2.000000e+00 1.850000e+01 1.500000e+00
    endloop
  endfacet
  facet normal -7.901551e-01 -2.328591e-16 -6.129071e-01
    outer loop
      vertex 2.593240e+01 1.850000e+01 5.591610e+00
      vertex 2.600340e+01 1.850000e+01 5.500000e+00
      vertex 2.600340e+01 3.500000e+00 5.500000e+00
    endloop
  endfacet
  facet normal -7.901551e-01 -2.328591e-16 -6.129071e-01
    outer loop
      vertex 2.593240e+01 3.500000e+00 5.591610e+00
      vertex 2.593240e+01 1.850000e+01 5.591610e+00
      vertex 2.600340e+01 3.500000e+00 5.500000e+00
    endloop
  endfacet
  facet normal 2.719267e-32 -2.220450e-16 -1.000000e+00
    outer loop
      vertex 2.600340e+01 3.500000e+00 5.500000e+00
      vertex 2.600340e+01 1.850000e+01 5.500000e+00
      vertex 2.800000e+01 3.500000e+00 5.500000e+00
    endloop
  endfacet
  facet normal 2.719267e-32 -2.220450e-16 -1.000000e+00
    outer loop
      vertex 2.800000e+01 3.500000e+00 5.500000e+00
      vertex 2.600340e+01 1.850000e+01 5.500000e+00
      vertex 2.800000e+01 1.850000e+01 5.500000e+00
    endloop
  endfacet
  facet normal -1.000000e+00 -1.224647e-16 0.000000e+00
    outer loop
      vertex 2.800000e+01 3.500000e+00 5.000000e+00
      vertex 2.800000e+01 3.500000e+00 5.500000e+00
      vertex 2.800000e+01 1.850000e+01 5.500000e+00
    endloop
  endfacet
  facet normal -1.000000e+00 -1.224647e-16 0.000000e+00
    outer loop
      vertex 2.800000e+01 1.850000e+01 5.000000e+00
      vertex 2.800000e+01 3.500000e+00 5.000000e+00
      vertex 2.800000e+01 1.850000e+01 5.500000e+00
    endloop
  endfacet
  facet normal 0.000000e+00 -0.000000e+00 -1.000000e+00
    outer loop
      vertex 4.400000e+01 5.299999e+00 5.000000e+00
      vertex 2.800000e+01 1.850000e+01 5.000000e+00
      vertex 4.400000e+01 1.670000e+01 5.000000e+00
    endloop
  endfacet
  facet normal 0.000000e+00 -0.000000e+00 -1.000000e+00
    outer loop
      vertex 4.400000e+01 5.299999e+00 5.000000e+00
      vertex 4.850000e+01 3.500000e+00 5.000000e+00
      vertex 2.800000e+01 3.500000e+00 5.000000e+00
    endloop
  endfacet
  facet normal 0.000000e+00 -0.000000e+00 -1.000000e+00
    outer loop
      vertex 4.850000e+01 1.850000e+01 5.000000e+00
      vertex 4.850000e+01 3.500000e+00 5.000000e+00
      vertex 4.700000e+01 5.299999e+00 5.000000e+00
    endloop
  endfacet
  facet normal 0.000000e+00 -0.000000e+00 -1.000000e+00
    outer loop
      vertex 4.850000e+01 1.850000e+01 5.000000e+00
      vertex 4.700000e+01 5.299999e+00 5.000000e+00
      vertex 4.700000e+01 1.670000e+01 5.000000e+00
    endloop
  endfacet
  facet normal 0.000000e+00 -0.000000e+00 -1.000000e+00
    outer loop
      vertex 4.850000e+01 1.850000e+01 5.000000e+00
      vertex 4.700000e+01 1.670000e+01 5.000000e+00
      vertex 2.800000e+01 1.850000e+01 5.000000e+00
    endloop
  endfacet
  facet normal 0.000000e+00 -0.000000e+00 -1.000000e+00
    outer loop
      vertex 4.700000e+01 1.670000e+01 5.000000e+00
      vertex 4.400000e+01 1.670000e+01 5.000000e+00
      vertex 2.800000e+01 1.850000e+01 5.000000e+00
    endloop
  endfacet
  facet normal 0.000000e+00 -0.000000e+00 -1.000000e+00
    outer loop
      vertex 2.800000e+01 1.850000e+01 5.000000e+00
      vertex 4.400000e+01 5.299999e+00 5.000000e+00
      vertex 2.800000e+01 3.500000e+00 5.000000e+00
    endloop
  endfacet
  facet normal 0.000000e+00 -0.000000e+00 -1.000000e+00
    outer loop
      vertex 4.700000e+01 5.299999e+00 5.000000e+00
      vertex 4.850000e+01 3.500000e+00 5.000000e+00
      vertex 4.400000e+01 5.299999e+00 5.000000e+00
    endloop
  endfacet
  facet normal -1.000000e+00 -1.224647e-16 0.000000e+00
    outer loop
      vertex 4.850000e+01 1.850000e+01 5.000000e+00
      vertex 4.850000e+01 1.850000e+01 1.500000e+00
      vertex 4.850000e+01 3.500000e+00 1.500000e+00
    endloop
  endfacet
  facet normal -1.000000e+00 -1.224647e-16 0.000000e+00
    outer loop
      vertex 4.850000e+01 3.500000e+00 5.000000e+00
      vertex 4.850000e+01 1.850000e+01 5.000000e+00
      vertex 4.850000e+01 3.500000e+00 1.500000e+00
    endloop
  endfacet
  facet normal 1.224647e-16 -1.000000e+00 0.000000e+00
    outer loop
      vertex 1.400000e+01 5.299999e+00 4.500000e+00
      vertex 1.400000e+01 5.299999e+00 2.400000e+00
      vertex 4.400000e+01 5.299999e+00 4.500000e+00
    endloop
  endfacet
  facet normal 1.224647e-16 -1.000000e+00 0.000000e+00
    outer loop
      vertex 4.700000e+01 5.299999e+00 2.400000e+00
      vertex 4.700000e+01 5.299999e+00 5.000000e+00
      vertex 4.400000e+01 5.299999e+00 4.500000e+00
    endloop
  endfacet
  facet normal 1.224647e-16 -1.000000e+00 0.000000e+00
    outer loop
      vertex 4.700000e+01 5.299999e+00 2.400000e+00
      vertex 4.400000e+01 5.299999e+00 4.500000e+00
      vertex 1.400000e+01 5.299999e+00 2.400000e+00
    endloop
  endfacet
  facet normal 1.224647e-16 -1.000000e+00 0.000000e+00
    outer loop
      vertex 4.400000e+01 5.299999e+00 4.500000e+00
      vertex 4.700000e+01 5.299999e+00 5.000000e+00
      vertex 4.400000e+01 5.299999e+00 5.000000e+00
    endloop
  endfacet
  facet normal 1.000000e+00 1.224647e-16 0.000000e+00
    outer loop
      vertex 4.700000e+01 1.670000e+01 2.400000e+00
      vertex 4.700000e+01 1.670000e+01 5.000000e+00
      vertex 4.700000e+01 5.299999e+00 2.400000e+00
    endloop
  endfacet
  facet normal 1.000000e+00 1.224647e-16 0.000000e+00
    outer loop
      vertex 4.700000e+01 5.299999e+00 2.400000e+00
      vertex 4.700000e+01 1.670000e+01 5.000000e+00
      vertex 4.700000e+01 5.299999e+00 5.000000e+00
    endloop
  endfacet
  facet normal -1.000000e+00 -1.224647e-16 0.000000e+00
    outer loop
      vertex 4.400000e+01 1.670000e+01 5.000000e+00
      vertex 4.400000e+01 1.670000e+01 4.500000e+00
      vertex 4.400000e+01 5.299999e+00 4.500000e+00
    endloop
  endfacet
  facet normal -1.000000e+00 -1.224647e-16 0.000000e+00
    outer loop
      vertex 4.400000e+01 5.299999e+00 5.000000e+00
      vertex 4.400000e+01 1.670000e+01 5.000000e+00
      vertex 4.400000e+01 5.299999e+00 4.500000e+00
    endloop
  endfacet
  facet normal -1.224647e-16 1.000000e+00 0.000000e+00
    outer loop
      vertex 4.400000e+01 1.670000e+01 4.500000e+00
      vertex 4.700000e+01 1.670000e+01 2.400000e+00
      vertex 1.400000e+01 1.670000e+01 2.400000e+00
    endloop
  endfacet
  facet normal -1.224647e-16 1.000000e+00 0.000000e+00
    outer loop
      vertex 4.400000e+01 1.670000e+01 4.500000e+00
      vertex 4.400000e+01 1.670000e+01 5.000000e+00
      vertex 4.700000e+01 1.670000e+01 5.000000e+00
    endloop
  endfacet
  facet normal -1.224647e-16 1.000000e+00 0.000000e+00
    outer loop
      vertex 4.700000e+01 1.670000e+01 5.000000e+00
      vertex 4.700000e+01 1.670000e+01 2.400000e+00
      vertex 4.400000e+01 1.670000e+01 4.500000e+00
    endloop
  endfacet
  facet normal -1.224647e-16 1.000000e+00 0.000000e+00
    outer loop
      vertex 1.400000e+01 1.670000e+01 4.500000e+00
      vertex 4.400000e+01 1.670000e+01 4.500000e+00
      vertex 1.400000e+01 1.670000e+01 2.400000e+00
    endloop
  endfacet
  facet normal 0.000000e+00 -0.000000e+00 -1.000000e+00
    outer loop
      vertex 4.700000e+01 1.670000e+01 2.400000e+00
      vertex 4.700000e+01 5.299999e+00 2.400000e+00
      vertex 1.400000e+01 1.670000e+01 2.400000e+00
    endloop
  endfacet
  facet normal 0.000000e+00 -0.000000e+00 -1.000000e+00
    outer loop
      vertex 1.400000e+01 1.670000e+01 2.400000e+00
      vertex 4.700000e+01 5.299999e+00 2.400000e+00
      vertex 1.400000e+01 5.299999e+00 2.400000e+00
    endloop
  endfacet
  facet normal -1.000000e+00 -1.224647e-16 0.000000e+00
    outer loop
      vertex 1.400000e+01 1.670000e+01 4.500000e+00
      vertex 1.400000e+01 1.670000e+01 2.400000e+00
      vertex 1.400000e+01 5.299999e+00 2.400000e+00
    endloop
  endfacet
  facet normal -1.000000e+00 -1.224647e-16 0.000000e+00
    outer loop
      vertex 1.400000e+01 5.299999e+00 4.500000e+00
      vertex 1.400000e+01 1.670000e+01 4.500000e+00
      vertex 1.400000e+01 5.299999e+00 2.400000e+00
    endloop
  endfacet
  facet normal 0.000000e+00 0.000000e+00 1.000000e+00
    outer loop
      vertex 4.400000e+01 5.299999e+00 4.500000e+00
      vertex 4.400000e+01 1.670000e+01 4.500000e+00
      vertex 1.400000e+01 1.670000e+01 4.500000e+00
    endloop
  endfacet
  facet normal 0.000000e+00 0.000000e+00 1.000000e+00
    outer loop
      vertex 1.400000e+01 5.299999e+00 4.500000e+00
      vertex 4.400000e+01 5.299999e+00 4.500000e+00
      vertex 1.400000e+01 1.670000e+01 4.500000e+00
    endloop
  endfacet
endsolid Default
