solid OpenSCAD_Model
  facet normal -1 0 0
    outer loop
      vertex -1 109 70
      vertex -1 94 75
      vertex -1 109 75
    endloop
  endfacet
  facet normal -1 0 0
    outer loop
      vertex -1 94 5
      vertex -1 94 75
      vertex -1 95 70
    endloop
  endfacet
  facet normal -1 0 0
    outer loop
      vertex -1 94 5
      vertex -1 95 70
      vertex -1 95 60
    endloop
  endfacet
  facet normal -1 0 0
    outer loop
      vertex -1 109 10
      vertex -1 109 5
      vertex -1 95 10
    endloop
  endfacet
  facet normal -1 0 0
    outer loop
      vertex -1 109 60
      vertex -1 109 20
      vertex -1 95 60
    endloop
  endfacet
  facet normal -1 0 0
    outer loop
      vertex -1 94 5
      vertex -1 95 60
      vertex -1 95 20
    endloop
  endfacet
  facet normal -1 0 0
    outer loop
      vertex -1 94 5
      vertex -1 95 20
      vertex -1 95 10
    endloop
  endfacet
  facet normal -1 0 0
    outer loop
      vertex -1 94 5
      vertex -1 95 10
      vertex -1 109 5
    endloop
  endfacet
  facet normal -1 0 0
    outer loop
      vertex -1 95 70
      vertex -1 94 75
      vertex -1 109 70
    endloop
  endfacet
  facet normal -1 0 0
    outer loop
      vertex -1 95 20
      vertex -1 95 60
      vertex -1 109 20
    endloop
  endfacet
  facet normal 0 -1 0
    outer loop
      vertex -1 94 75
      vertex -1 94 5
      vertex 1 94 5
    endloop
  endfacet
  facet normal 0 -1 0
    outer loop
      vertex 1 94 75
      vertex -1 94 75
      vertex 1 94 5
    endloop
  endfacet
  facet normal 0 0 -1
    outer loop
      vertex -1 94 5
      vertex -1 109 5
      vertex 1 94 5
    endloop
  endfacet
  facet normal 0 0 -1
    outer loop
      vertex 1 94 5
      vertex -1 109 5
      vertex 1 109 5
    endloop
  endfacet
  facet normal 0 1 0
    outer loop
      vertex -1 109 5
      vertex -1 109 10
      vertex 1 109 5
    endloop
  endfacet
  facet normal 0 1 0
    outer loop
      vertex 1 109 5
      vertex -1 109 10
      vertex -1 109 20
    endloop
  endfacet
  facet normal 0 1 0
    outer loop
      vertex 1 109 5
      vertex -1 109 20
      vertex -1 109 60
    endloop
  endfacet
  facet normal 0 1 0
    outer loop
      vertex 1 109 5
      vertex -1 109 60
      vertex -1 109 70
    endloop
  endfacet
  facet normal 0 1 0
    outer loop
      vertex 1 109 5
      vertex -1 109 70
      vertex -1 109 75
    endloop
  endfacet
  facet normal 0 1 0
    outer loop
      vertex 1 109 5
      vertex -1 109 75
      vertex 1 109 75
    endloop
  endfacet
  facet normal 0 0 -1
    outer loop
      vertex -2 95 10
      vertex -2 205 10
      vertex -1 95 10
    endloop
  endfacet
  facet normal 0 0 -1
    outer loop
      vertex -1 190 10
      vertex -2 205 10
      vertex -1 205 10
    endloop
  endfacet
  facet normal 0 0 -1
    outer loop
      vertex -1 189 10
      vertex -2 205 10
      vertex -1 190 10
    endloop
  endfacet
  facet normal 0 0 -1
    outer loop
      vertex -1 174 10
      vertex -2 205 10
      vertex -1 189 10
    endloop
  endfacet
  facet normal 0 0 -1
    outer loop
      vertex -1 173 10
      vertex -2 205 10
      vertex -1 174 10
    endloop
  endfacet
  facet normal 0 0 -1
    outer loop
      vertex -1 158 10
      vertex -2 205 10
      vertex -1 173 10
    endloop
  endfacet
  facet normal 0 0 -1
    outer loop
      vertex -1 157 10
      vertex -2 205 10
      vertex -1 158 10
    endloop
  endfacet
  facet normal 0 0 -1
    outer loop
      vertex -1 142 10
      vertex -2 205 10
      vertex -1 157 10
    endloop
  endfacet
  facet normal 0 0 -1
    outer loop
      vertex -1 141 10
      vertex -2 205 10
      vertex -1 142 10
    endloop
  endfacet
  facet normal 0 0 -1
    outer loop
      vertex -1 126 10
      vertex -2 205 10
      vertex -1 141 10
    endloop
  endfacet
  facet normal 0 0 -1
    outer loop
      vertex -1 125 10
      vertex -2 205 10
      vertex -1 126 10
    endloop
  endfacet
  facet normal 0 0 -1
    outer loop
      vertex -1 110 10
      vertex -2 205 10
      vertex -1 125 10
    endloop
  endfacet
  facet normal 0 0 -1
    outer loop
      vertex -1 109 10
      vertex -2 205 10
      vertex -1 110 10
    endloop
  endfacet
  facet normal 0 0 -1
    outer loop
      vertex -1 95 10
      vertex -2 205 10
      vertex -1 109 10
    endloop
  endfacet
  facet normal 1 0 0
    outer loop
      vertex -1 110 10
      vertex -1 110 20
      vertex -1 109 20
    endloop
  endfacet
  facet normal 1 0 0
    outer loop
      vertex -1 109 10
      vertex -1 110 10
      vertex -1 109 20
    endloop
  endfacet
  facet normal 0 -1 0
    outer loop
      vertex -2 95 20
      vertex -2 95 10
      vertex -1 95 10
    endloop
  endfacet
  facet normal 0 -1 0
    outer loop
      vertex -1 95 20
      vertex -2 95 20
      vertex -1 95 10
    endloop
  endfacet
  facet normal 0 0 1
    outer loop
      vertex -2 205 20
      vertex -2 95 20
      vertex -1 95 20
    endloop
  endfacet
  facet normal 0 0 1
    outer loop
      vertex -1 110 20
      vertex -2 205 20
      vertex -1 109 20
    endloop
  endfacet
  facet normal 0 0 1
    outer loop
      vertex -1 109 20
      vertex -2 205 20
      vertex -1 95 20
    endloop
  endfacet
  facet normal 0 0 1
    outer loop
      vertex -1 125 20
      vertex -2 205 20
      vertex -1 110 20
    endloop
  endfacet
  facet normal 0 0 1
    outer loop
      vertex -1 126 20
      vertex -2 205 20
      vertex -1 125 20
    endloop
  endfacet
  facet normal 0 0 1
    outer loop
      vertex -1 141 20
      vertex -2 205 20
      vertex -1 126 20
    endloop
  endfacet
  facet normal 0 0 1
    outer loop
      vertex -1 142 20
      vertex -2 205 20
      vertex -1 141 20
    endloop
  endfacet
  facet normal 0 0 1
    outer loop
      vertex -1 157 20
      vertex -2 205 20
      vertex -1 142 20
    endloop
  endfacet
  facet normal 0 0 1
    outer loop
      vertex -1 158 20
      vertex -2 205 20
      vertex -1 157 20
    endloop
  endfacet
  facet normal 0 0 1
    outer loop
      vertex -1 173 20
      vertex -2 205 20
      vertex -1 158 20
    endloop
  endfacet
  facet normal 0 0 1
    outer loop
      vertex -1 174 20
      vertex -2 205 20
      vertex -1 173 20
    endloop
  endfacet
  facet normal 0 0 1
    outer loop
      vertex -1 189 20
      vertex -2 205 20
      vertex -1 174 20
    endloop
  endfacet
  facet normal 0 0 1
    outer loop
      vertex -1 190 20
      vertex -2 205 20
      vertex -1 189 20
    endloop
  endfacet
  facet normal 0 0 1
    outer loop
      vertex -1 205 20
      vertex -2 205 20
      vertex -1 190 20
    endloop
  endfacet
  facet normal 0 0 -1
    outer loop
      vertex -2 95 60
      vertex -2 205 60
      vertex -1 95 60
    endloop
  endfacet
  facet normal 0 0 -1
    outer loop
      vertex -1 190 60
      vertex -2 205 60
      vertex -1 205 60
    endloop
  endfacet
  facet normal 0 0 -1
    outer loop
      vertex -1 189 60
      vertex -2 205 60
      vertex -1 190 60
    endloop
  endfacet
  facet normal 0 0 -1
    outer loop
      vertex -1 174 60
      vertex -2 205 60
      vertex -1 189 60
    endloop
  endfacet
  facet normal 0 0 -1
    outer loop
      vertex -1 173 60
      vertex -2 205 60
      vertex -1 174 60
    endloop
  endfacet
  facet normal 0 0 -1
    outer loop
      vertex -1 158 60
      vertex -2 205 60
      vertex -1 173 60
    endloop
  endfacet
  facet normal 0 0 -1
    outer loop
      vertex -1 157 60
      vertex -2 205 60
      vertex -1 158 60
    endloop
  endfacet
  facet normal 0 0 -1
    outer loop
      vertex -1 142 60
      vertex -2 205 60
      vertex -1 157 60
    endloop
  endfacet
  facet normal 0 0 -1
    outer loop
      vertex -1 141 60
      vertex -2 205 60
      vertex -1 142 60
    endloop
  endfacet
  facet normal 0 0 -1
    outer loop
      vertex -1 126 60
      vertex -2 205 60
      vertex -1 141 60
    endloop
  endfacet
  facet normal 0 0 -1
    outer loop
      vertex -1 125 60
      vertex -2 205 60
      vertex -1 126 60
    endloop
  endfacet
  facet normal 0 0 -1
    outer loop
      vertex -1 110 60
      vertex -2 205 60
      vertex -1 125 60
    endloop
  endfacet
  facet normal 0 0 -1
    outer loop
      vertex -1 109 60
      vertex -2 205 60
      vertex -1 110 60
    endloop
  endfacet
  facet normal 0 0 -1
    outer loop
      vertex -1 95 60
      vertex -2 205 60
      vertex -1 109 60
    endloop
  endfacet
  facet normal 1 0 0
    outer loop
      vertex -1 110 60
      vertex -1 110 70
      vertex -1 109 70
    endloop
  endfacet
  facet normal 1 0 0
    outer loop
      vertex -1 109 60
      vertex -1 110 60
      vertex -1 109 70
    endloop
  endfacet
  facet normal 0 -1 0
    outer loop
      vertex -2 95 70
      vertex -2 95 60
      vertex -1 95 60
    endloop
  endfacet
  facet normal 0 -1 0
    outer loop
      vertex -1 95 70
      vertex -2 95 70
      vertex -1 95 60
    endloop
  endfacet
  facet normal 0 0 1
    outer loop
      vertex -2 205 70
      vertex -2 95 70
      vertex -1 95 70
    endloop
  endfacet
  facet normal 0 0 1
    outer loop
      vertex -1 110 70
      vertex -2 205 70
      vertex -1 109 70
    endloop
  endfacet
  facet normal 0 0 1
    outer loop
      vertex -1 109 70
      vertex -2 205 70
      vertex -1 95 70
    endloop
  endfacet
  facet normal 0 0 1
    outer loop
      vertex -1 125 70
      vertex -2 205 70
      vertex -1 110 70
    endloop
  endfacet
  facet normal 0 0 1
    outer loop
      vertex -1 126 70
      vertex -2 205 70
      vertex -1 125 70
    endloop
  endfacet
  facet normal 0 0 1
    outer loop
      vertex -1 141 70
      vertex -2 205 70
      vertex -1 126 70
    endloop
  endfacet
  facet normal 0 0 1
    outer loop
      vertex -1 142 70
      vertex -2 205 70
      vertex -1 141 70
    endloop
  endfacet
  facet normal 0 0 1
    outer loop
      vertex -1 157 70
      vertex -2 205 70
      vertex -1 142 70
    endloop
  endfacet
  facet normal 0 0 1
    outer loop
      vertex -1 158 70
      vertex -2 205 70
      vertex -1 157 70
    endloop
  endfacet
  facet normal 0 0 1
    outer loop
      vertex -1 173 70
      vertex -2 205 70
      vertex -1 158 70
    endloop
  endfacet
  facet normal 0 0 1
    outer loop
      vertex -1 174 70
      vertex -2 205 70
      vertex -1 173 70
    endloop
  endfacet
  facet normal 0 0 1
    outer loop
      vertex -1 189 70
      vertex -2 205 70
      vertex -1 174 70
    endloop
  endfacet
  facet normal 0 0 1
    outer loop
      vertex -1 190 70
      vertex -2 205 70
      vertex -1 189 70
    endloop
  endfacet
  facet normal 0 0 1
    outer loop
      vertex -1 205 70
      vertex -2 205 70
      vertex -1 190 70
    endloop
  endfacet
  facet normal 0 0 1
    outer loop
      vertex -1 109 75
      vertex -1 94 75
      vertex 1 94 75
    endloop
  endfacet
  facet normal 0 0 1
    outer loop
      vertex 1 109 75
      vertex -1 109 75
      vertex 1 94 75
    endloop
  endfacet
  facet normal 1 0 0
    outer loop
      vertex 1 94 75
      vertex 1 94 5
      vertex 1 109 5
    endloop
  endfacet
  facet normal 1 0 0
    outer loop
      vertex 1 109 75
      vertex 1 94 75
      vertex 1 109 5
    endloop
  endfacet
  facet normal 0 -1 0
    outer loop
      vertex -1 110 10
      vertex -1 110 5
      vertex 1 110 5
    endloop
  endfacet
  facet normal 0 -1 0
    outer loop
      vertex -1 110 20
      vertex -1 110 10
      vertex 1 110 75
    endloop
  endfacet
  facet normal 0 -1 0
    outer loop
      vertex 1 110 75
      vertex -1 110 10
      vertex 1 110 5
    endloop
  endfacet
  facet normal 0 -1 0
    outer loop
      vertex -1 110 75
      vertex -1 110 70
      vertex 1 110 75
    endloop
  endfacet
  facet normal 0 -1 0
    outer loop
      vertex -1 110 70
      vertex -1 110 60
      vertex 1 110 75
    endloop
  endfacet
  facet normal 0 -1 0
    outer loop
      vertex -1 110 60
      vertex -1 110 20
      vertex 1 110 75
    endloop
  endfacet
  facet normal -1 0 0
    outer loop
      vertex -1 110 5
      vertex -1 110 10
      vertex -1 125 5
    endloop
  endfacet
  facet normal -1 0 0
    outer loop
      vertex -1 125 5
      vertex -1 110 10
      vertex -1 125 10
    endloop
  endfacet
  facet normal 0 1 0
    outer loop
      vertex -1 125 5
      vertex -1 125 10
      vertex 1 125 5
    endloop
  endfacet
  facet normal 0 1 0
    outer loop
      vertex 1 125 5
      vertex -1 125 10
      vertex -1 125 20
    endloop
  endfacet
  facet normal 0 1 0
    outer loop
      vertex 1 125 5
      vertex -1 125 20
      vertex -1 125 60
    endloop
  endfacet
  facet normal 0 1 0
    outer loop
      vertex 1 125 5
      vertex -1 125 60
      vertex -1 125 70
    endloop
  endfacet
  facet normal 0 1 0
    outer loop
      vertex 1 125 5
      vertex -1 125 70
      vertex -1 125 75
    endloop
  endfacet
  facet normal 0 1 0
    outer loop
      vertex 1 125 5
      vertex -1 125 75
      vertex 1 125 75
    endloop
  endfacet
  facet normal 1 0 0
    outer loop
      vertex -1 126 10
      vertex -1 126 20
      vertex -1 125 20
    endloop
  endfacet
  facet normal 1 0 0
    outer loop
      vertex -1 125 10
      vertex -1 126 10
      vertex -1 125 20
    endloop
  endfacet
  facet normal 0 -1 0
    outer loop
      vertex -1 126 10
      vertex -1 126 5
      vertex 1 126 5
    endloop
  endfacet
  facet normal 0 -1 0
    outer loop
      vertex -1 126 20
      vertex -1 126 10
      vertex 1 126 75
    endloop
  endfacet
  facet normal 0 -1 0
    outer loop
      vertex 1 126 75
      vertex -1 126 10
      vertex 1 126 5
    endloop
  endfacet
  facet normal 0 -1 0
    outer loop
      vertex -1 126 75
      vertex -1 126 70
      vertex 1 126 75
    endloop
  endfacet
  facet normal 0 -1 0
    outer loop
      vertex -1 126 70
      vertex -1 126 60
      vertex 1 126 75
    endloop
  endfacet
  facet normal 0 -1 0
    outer loop
      vertex -1 126 60
      vertex -1 126 20
      vertex 1 126 75
    endloop
  endfacet
  facet normal -1 0 0
    outer loop
      vertex -1 126 5
      vertex -1 126 10
      vertex -1 141 5
    endloop
  endfacet
  facet normal -1 0 0
    outer loop
      vertex -1 141 5
      vertex -1 126 10
      vertex -1 141 10
    endloop
  endfacet
  facet normal 0 1 0
    outer loop
      vertex -1 141 5
      vertex -1 141 10
      vertex 1 141 5
    endloop
  endfacet
  facet normal 0 1 0
    outer loop
      vertex 1 141 5
      vertex -1 141 10
      vertex -1 141 20
    endloop
  endfacet
  facet normal 0 1 0
    outer loop
      vertex 1 141 5
      vertex -1 141 20
      vertex -1 141 60
    endloop
  endfacet
  facet normal 0 1 0
    outer loop
      vertex 1 141 5
      vertex -1 141 60
      vertex -1 141 70
    endloop
  endfacet
  facet normal 0 1 0
    outer loop
      vertex 1 141 5
      vertex -1 141 70
      vertex -1 141 75
    endloop
  endfacet
  facet normal 0 1 0
    outer loop
      vertex 1 141 5
      vertex -1 141 75
      vertex 1 141 75
    endloop
  endfacet
  facet normal 1 0 0
    outer loop
      vertex -1 142 10
      vertex -1 142 20
      vertex -1 141 20
    endloop
  endfacet
  facet normal 1 0 0
    outer loop
      vertex -1 141 10
      vertex -1 142 10
      vertex -1 141 20
    endloop
  endfacet
  facet normal 0 -1 0
    outer loop
      vertex -1 142 10
      vertex -1 142 5
      vertex 1 142 5
    endloop
  endfacet
  facet normal 0 -1 0
    outer loop
      vertex -1 142 20
      vertex -1 142 10
      vertex 1 142 75
    endloop
  endfacet
  facet normal 0 -1 0
    outer loop
      vertex 1 142 75
      vertex -1 142 10
      vertex 1 142 5
    endloop
  endfacet
  facet normal 0 -1 0
    outer loop
      vertex -1 142 75
      vertex -1 142 70
      vertex 1 142 75
    endloop
  endfacet
  facet normal 0 -1 0
    outer loop
      vertex -1 142 70
      vertex -1 142 60
      vertex 1 142 75
    endloop
  endfacet
  facet normal 0 -1 0
    outer loop
      vertex -1 142 60
      vertex -1 142 20
      vertex 1 142 75
    endloop
  endfacet
  facet normal -1 0 0
    outer loop
      vertex -1 142 5
      vertex -1 142 10
      vertex -1 157 5
    endloop
  endfacet
  facet normal -1 0 0
    outer loop
      vertex -1 157 5
      vertex -1 142 10
      vertex -1 157 10
    endloop
  endfacet
  facet normal 0 1 0
    outer loop
      vertex -1 157 5
      vertex -1 157 10
      vertex 1 157 5
    endloop
  endfacet
  facet normal 0 1 0
    outer loop
      vertex 1 157 5
      vertex -1 157 10
      vertex -1 157 20
    endloop
  endfacet
  facet normal 0 1 0
    outer loop
      vertex 1 157 5
      vertex -1 157 20
      vertex -1 157 60
    endloop
  endfacet
  facet normal 0 1 0
    outer loop
      vertex 1 157 5
      vertex -1 157 60
      vertex -1 157 70
    endloop
  endfacet
  facet normal 0 1 0
    outer loop
      vertex 1 157 5
      vertex -1 157 70
      vertex -1 157 75
    endloop
  endfacet
  facet normal 0 1 0
    outer loop
      vertex 1 157 5
      vertex -1 157 75
      vertex 1 157 75
    endloop
  endfacet
  facet normal 1 0 0
    outer loop
      vertex -1 158 10
      vertex -1 158 20
      vertex -1 157 20
    endloop
  endfacet
  facet normal 1 0 0
    outer loop
      vertex -1 157 10
      vertex -1 158 10
      vertex -1 157 20
    endloop
  endfacet
  facet normal 0 -1 0
    outer loop
      vertex -1 158 10
      vertex -1 158 5
      vertex 1 158 5
    endloop
  endfacet
  facet normal 0 -1 0
    outer loop
      vertex -1 158 20
      vertex -1 158 10
      vertex 1 158 75
    endloop
  endfacet
  facet normal 0 -1 0
    outer loop
      vertex 1 158 75
      vertex -1 158 10
      vertex 1 158 5
    endloop
  endfacet
  facet normal 0 -1 0
    outer loop
      vertex -1 158 75
      vertex -1 158 70
      vertex 1 158 75
    endloop
  endfacet
  facet normal 0 -1 0
    outer loop
      vertex -1 158 70
      vertex -1 158 60
      vertex 1 158 75
    endloop
  endfacet
  facet normal 0 -1 0
    outer loop
      vertex -1 158 60
      vertex -1 158 20
      vertex 1 158 75
    endloop
  endfacet
  facet normal -1 0 0
    outer loop
      vertex -1 158 5
      vertex -1 158 10
      vertex -1 173 5
    endloop
  endfacet
  facet normal -1 0 0
    outer loop
      vertex -1 173 5
      vertex -1 158 10
      vertex -1 173 10
    endloop
  endfacet
  facet normal 0 1 0
    outer loop
      vertex -1 173 5
      vertex -1 173 10
      vertex 1 173 5
    endloop
  endfacet
  facet normal 0 1 0
    outer loop
      vertex 1 173 5
      vertex -1 173 10
      vertex -1 173 20
    endloop
  endfacet
  facet normal 0 1 0
    outer loop
      vertex 1 173 5
      vertex -1 173 20
      vertex -1 173 60
    endloop
  endfacet
  facet normal 0 1 0
    outer loop
      vertex 1 173 5
      vertex -1 173 60
      vertex -1 173 70
    endloop
  endfacet
  facet normal 0 1 0
    outer loop
      vertex 1 173 5
      vertex -1 173 70
      vertex -1 173 75
    endloop
  endfacet
  facet normal 0 1 0
    outer loop
      vertex 1 173 5
      vertex -1 173 75
      vertex 1 173 75
    endloop
  endfacet
  facet normal 1 0 0
    outer loop
      vertex -1 174 10
      vertex -1 174 20
      vertex -1 173 20
    endloop
  endfacet
  facet normal 1 0 0
    outer loop
      vertex -1 173 10
      vertex -1 174 10
      vertex -1 173 20
    endloop
  endfacet
  facet normal 0 -1 0
    outer loop
      vertex -1 174 10
      vertex -1 174 5
      vertex 1 174 5
    endloop
  endfacet
  facet normal 0 -1 0
    outer loop
      vertex -1 174 20
      vertex -1 174 10
      vertex 1 174 75
    endloop
  endfacet
  facet normal 0 -1 0
    outer loop
      vertex 1 174 75
      vertex -1 174 10
      vertex 1 174 5
    endloop
  endfacet
  facet normal 0 -1 0
    outer loop
      vertex -1 174 75
      vertex -1 174 70
      vertex 1 174 75
    endloop
  endfacet
  facet normal 0 -1 0
    outer loop
      vertex -1 174 70
      vertex -1 174 60
      vertex 1 174 75
    endloop
  endfacet
  facet normal 0 -1 0
    outer loop
      vertex -1 174 60
      vertex -1 174 20
      vertex 1 174 75
    endloop
  endfacet
  facet normal -1 0 0
    outer loop
      vertex -1 174 5
      vertex -1 174 10
      vertex -1 189 5
    endloop
  endfacet
  facet normal -1 0 0
    outer loop
      vertex -1 189 5
      vertex -1 174 10
      vertex -1 189 10
    endloop
  endfacet
  facet normal 0 1 0
    outer loop
      vertex -1 189 5
      vertex -1 189 10
      vertex 1 189 5
    endloop
  endfacet
  facet normal 0 1 0
    outer loop
      vertex 1 189 5
      vertex -1 189 10
      vertex -1 189 20
    endloop
  endfacet
  facet normal 0 1 0
    outer loop
      vertex 1 189 5
      vertex -1 189 20
      vertex -1 189 60
    endloop
  endfacet
  facet normal 0 1 0
    outer loop
      vertex 1 189 5
      vertex -1 189 60
      vertex -1 189 70
    endloop
  endfacet
  facet normal 0 1 0
    outer loop
      vertex 1 189 5
      vertex -1 189 70
      vertex -1 189 75
    endloop
  endfacet
  facet normal 0 1 0
    outer loop
      vertex 1 189 5
      vertex -1 189 75
      vertex 1 189 75
    endloop
  endfacet
  facet normal 1 0 0
    outer loop
      vertex -1 190 10
      vertex -1 190 20
      vertex -1 189 20
    endloop
  endfacet
  facet normal 1 0 0
    outer loop
      vertex -1 189 10
      vertex -1 190 10
      vertex -1 189 20
    endloop
  endfacet
  facet normal 0 -1 0
    outer loop
      vertex -1 190 10
      vertex -1 190 5
      vertex 1 190 5
    endloop
  endfacet
  facet normal 0 -1 0
    outer loop
      vertex -1 190 20
      vertex -1 190 10
      vertex 1 190 75
    endloop
  endfacet
  facet normal 0 -1 0
    outer loop
      vertex 1 190 75
      vertex -1 190 10
      vertex 1 190 5
    endloop
  endfacet
  facet normal 0 -1 0
    outer loop
      vertex -1 190 75
      vertex -1 190 70
      vertex 1 190 75
    endloop
  endfacet
  facet normal 0 -1 0
    outer loop
      vertex -1 190 70
      vertex -1 190 60
      vertex 1 190 75
    endloop
  endfacet
  facet normal 0 -1 0
    outer loop
      vertex -1 190 60
      vertex -1 190 20
      vertex 1 190 75
    endloop
  endfacet
  facet normal -1 0 0
    outer loop
      vertex -1 190 5
      vertex -1 190 10
      vertex -1 205 5
    endloop
  endfacet
  facet normal -1 0 0
    outer loop
      vertex -1 205 5
      vertex -1 190 10
      vertex -1 205 10
    endloop
  endfacet
  facet normal 0 1 0
    outer loop
      vertex -2 205 10
      vertex -2 205 20
      vertex -1 205 10
    endloop
  endfacet
  facet normal 0 1 0
    outer loop
      vertex -1 205 10
      vertex -2 205 20
      vertex -1 205 20
    endloop
  endfacet
  facet normal 0 1 0
    outer loop
      vertex -1 205 20
      vertex -1 205 29
      vertex 1 205 29
    endloop
  endfacet
  facet normal 0 1 0
    outer loop
      vertex -1 205 20
      vertex 1 205 29
      vertex -1 205 10
    endloop
  endfacet
  facet normal 0 1 0
    outer loop
      vertex -1 205 10
      vertex 1 205 29
      vertex 1 205 5
    endloop
  endfacet
  facet normal 0 1 0
    outer loop
      vertex -1 205 10
      vertex 1 205 5
      vertex -1 205 5
    endloop
  endfacet
  facet normal -1 0 0
    outer loop
      vertex -2 95 10
      vertex -2 95 20
      vertex -2 205 10
    endloop
  endfacet
  facet normal -1 0 0
    outer loop
      vertex -2 205 10
      vertex -2 95 20
      vertex -2 205 20
    endloop
  endfacet
  facet normal -1 0 0
    outer loop
      vertex -1 110 20
      vertex -1 110 60
      vertex -1 125 20
    endloop
  endfacet
  facet normal -1 0 0
    outer loop
      vertex -1 125 20
      vertex -1 110 60
      vertex -1 125 60
    endloop
  endfacet
  facet normal -1 0 0
    outer loop
      vertex -1 205 29
      vertex -1 205 20
      vertex -1 197.8 29
    endloop
  endfacet
  facet normal -1 0 0
    outer loop
      vertex -1 205 49
      vertex -1 190 60
      vertex -1 205 60
    endloop
  endfacet
  facet normal -1 0 0
    outer loop
      vertex -1 197.8 49
      vertex -1 190 60
      vertex -1 205 49
    endloop
  endfacet
  facet normal -1 0 0
    outer loop
      vertex -1 190 20
      vertex -1 190 60
      vertex -1 197.8 29
    endloop
  endfacet
  facet normal -1 0 0
    outer loop
      vertex -1 190 20
      vertex -1 197.8 29
      vertex -1 205 20
    endloop
  endfacet
  facet normal -1 0 0
    outer loop
      vertex -1 197.8 29
      vertex -1 190 60
      vertex -1 197.8 49
    endloop
  endfacet
  facet normal -1 0 0
    outer loop
      vertex -1 174 20
      vertex -1 174 60
      vertex -1 189 20
    endloop
  endfacet
  facet normal -1 0 0
    outer loop
      vertex -1 189 20
      vertex -1 174 60
      vertex -1 189 60
    endloop
  endfacet
  facet normal -1 0 0
    outer loop
      vertex -1 158 20
      vertex -1 158 60
      vertex -1 173 20
    endloop
  endfacet
  facet normal -1 0 0
    outer loop
      vertex -1 173 20
      vertex -1 158 60
      vertex -1 173 60
    endloop
  endfacet
  facet normal -1 0 0
    outer loop
      vertex -1 142 20
      vertex -1 142 60
      vertex -1 157 20
    endloop
  endfacet
  facet normal -1 0 0
    outer loop
      vertex -1 157 20
      vertex -1 142 60
      vertex -1 157 60
    endloop
  endfacet
  facet normal -1 0 0
    outer loop
      vertex -1 126 20
      vertex -1 126 60
      vertex -1 141 20
    endloop
  endfacet
  facet normal -1 0 0
    outer loop
      vertex -1 141 20
      vertex -1 126 60
      vertex -1 141 60
    endloop
  endfacet
  facet normal 1 0 0
    outer loop
      vertex -1 126 60
      vertex -1 126 70
      vertex -1 125 70
    endloop
  endfacet
  facet normal 1 0 0
    outer loop
      vertex -1 125 60
      vertex -1 126 60
      vertex -1 125 70
    endloop
  endfacet
  facet normal 1 0 0
    outer loop
      vertex -1 142 60
      vertex -1 142 70
      vertex -1 141 70
    endloop
  endfacet
  facet normal 1 0 0
    outer loop
      vertex -1 141 60
      vertex -1 142 60
      vertex -1 141 70
    endloop
  endfacet
  facet normal 1 0 0
    outer loop
      vertex -1 158 60
      vertex -1 158 70
      vertex -1 157 70
    endloop
  endfacet
  facet normal 1 0 0
    outer loop
      vertex -1 157 60
      vertex -1 158 60
      vertex -1 157 70
    endloop
  endfacet
  facet normal 1 0 0
    outer loop
      vertex -1 174 60
      vertex -1 174 70
      vertex -1 173 70
    endloop
  endfacet
  facet normal 1 0 0
    outer loop
      vertex -1 173 60
      vertex -1 174 60
      vertex -1 173 70
    endloop
  endfacet
  facet normal 1 0 0
    outer loop
      vertex -1 190 60
      vertex -1 190 70
      vertex -1 189 70
    endloop
  endfacet
  facet normal 1 0 0
    outer loop
      vertex -1 189 60
      vertex -1 190 60
      vertex -1 189 70
    endloop
  endfacet
  facet normal 0 1 0
    outer loop
      vertex -2 205 60
      vertex -2 205 70
      vertex -1 205 60
    endloop
  endfacet
  facet normal 0 1 0
    outer loop
      vertex -1 205 60
      vertex -2 205 70
      vertex -1 205 70
    endloop
  endfacet
  facet normal 0 1 0
    outer loop
      vertex -1 205 70
      vertex -1 205 75
      vertex 1 205 75
    endloop
  endfacet
  facet normal 0 1 0
    outer loop
      vertex -1 205 70
      vertex 1 205 75
      vertex -1 205 60
    endloop
  endfacet
  facet normal 0 1 0
    outer loop
      vertex -1 205 60
      vertex 1 205 75
      vertex 1 205 49
    endloop
  endfacet
  facet normal 0 1 0
    outer loop
      vertex -1 205 60
      vertex 1 205 49
      vertex -1 205 49
    endloop
  endfacet
  facet normal -1 0 0
    outer loop
      vertex -2 95 60
      vertex -2 95 70
      vertex -2 205 60
    endloop
  endfacet
  facet normal -1 0 0
    outer loop
      vertex -2 205 60
      vertex -2 95 70
      vertex -2 205 70
    endloop
  endfacet
  facet normal -1 0 0
    outer loop
      vertex -1 110 70
      vertex -1 110 75
      vertex -1 125 70
    endloop
  endfacet
  facet normal -1 0 0
    outer loop
      vertex -1 125 70
      vertex -1 110 75
      vertex -1 125 75
    endloop
  endfacet
  facet normal -1 0 0
    outer loop
      vertex -1 190 70
      vertex -1 190 75
      vertex -1 205 70
    endloop
  endfacet
  facet normal -1 0 0
    outer loop
      vertex -1 205 70
      vertex -1 190 75
      vertex -1 205 75
    endloop
  endfacet
  facet normal -1 0 0
    outer loop
      vertex -1 174 70
      vertex -1 174 75
      vertex -1 189 70
    endloop
  endfacet
  facet normal -1 0 0
    outer loop
      vertex -1 189 70
      vertex -1 174 75
      vertex -1 189 75
    endloop
  endfacet
  facet normal -1 0 0
    outer loop
      vertex -1 158 70
      vertex -1 158 75
      vertex -1 173 70
    endloop
  endfacet
  facet normal -1 0 0
    outer loop
      vertex -1 173 70
      vertex -1 158 75
      vertex -1 173 75
    endloop
  endfacet
  facet normal -1 0 0
    outer loop
      vertex -1 142 70
      vertex -1 142 75
      vertex -1 157 70
    endloop
  endfacet
  facet normal -1 0 0
    outer loop
      vertex -1 157 70
      vertex -1 142 75
      vertex -1 157 75
    endloop
  endfacet
  facet normal -1 0 0
    outer loop
      vertex -1 126 70
      vertex -1 126 75
      vertex -1 141 70
    endloop
  endfacet
  facet normal -1 0 0
    outer loop
      vertex -1 141 70
      vertex -1 126 75
      vertex -1 141 75
    endloop
  endfacet
  facet normal 0 0 1
    outer loop
      vertex -1 125 75
      vertex -1 110 75
      vertex 1 110 75
    endloop
  endfacet
  facet normal 0 0 1
    outer loop
      vertex 1 125 75
      vertex -1 125 75
      vertex 1 110 75
    endloop
  endfacet
  facet normal 1 0 0
    outer loop
      vertex 1 110 75
      vertex 1 110 5
      vertex 1 125 5
    endloop
  endfacet
  facet normal 1 0 0
    outer loop
      vertex 1 125 75
      vertex 1 110 75
      vertex 1 125 5
    endloop
  endfacet
  facet normal 0 0 -1
    outer loop
      vertex -1 110 5
      vertex -1 125 5
      vertex 1 110 5
    endloop
  endfacet
  facet normal 0 0 -1
    outer loop
      vertex 1 110 5
      vertex -1 125 5
      vertex 1 125 5
    endloop
  endfacet
  facet normal 0 0 1
    outer loop
      vertex -1 141 75
      vertex -1 126 75
      vertex 1 126 75
    endloop
  endfacet
  facet normal 0 0 1
    outer loop
      vertex 1 141 75
      vertex -1 141 75
      vertex 1 126 75
    endloop
  endfacet
  facet normal 1 0 0
    outer loop
      vertex 1 126 75
      vertex 1 126 5
      vertex 1 141 5
    endloop
  endfacet
  facet normal 1 0 0
    outer loop
      vertex 1 141 75
      vertex 1 126 75
      vertex 1 141 5
    endloop
  endfacet
  facet normal 0 0 -1
    outer loop
      vertex -1 126 5
      vertex -1 141 5
      vertex 1 126 5
    endloop
  endfacet
  facet normal 0 0 -1
    outer loop
      vertex 1 126 5
      vertex -1 141 5
      vertex 1 141 5
    endloop
  endfacet
  facet normal 0 0 1
    outer loop
      vertex -1 157 75
      vertex -1 142 75
      vertex 1 142 75
    endloop
  endfacet
  facet normal 0 0 1
    outer loop
      vertex 1 157 75
      vertex -1 157 75
      vertex 1 142 75
    endloop
  endfacet
  facet normal 1 0 0
    outer loop
      vertex 1 142 75
      vertex 1 142 5
      vertex 1 157 5
    endloop
  endfacet
  facet normal 1 0 0
    outer loop
      vertex 1 157 75
      vertex 1 142 75
      vertex 1 157 5
    endloop
  endfacet
  facet normal 0 0 -1
    outer loop
      vertex -1 142 5
      vertex -1 157 5
      vertex 1 142 5
    endloop
  endfacet
  facet normal 0 0 -1
    outer loop
      vertex 1 142 5
      vertex -1 157 5
      vertex 1 157 5
    endloop
  endfacet
  facet normal 0 0 1
    outer loop
      vertex -1 173 75
      vertex -1 158 75
      vertex 1 158 75
    endloop
  endfacet
  facet normal 0 0 1
    outer loop
      vertex 1 173 75
      vertex -1 173 75
      vertex 1 158 75
    endloop
  endfacet
  facet normal 1 0 0
    outer loop
      vertex 1 158 75
      vertex 1 158 5
      vertex 1 173 5
    endloop
  endfacet
  facet normal 1 0 0
    outer loop
      vertex 1 173 75
      vertex 1 158 75
      vertex 1 173 5
    endloop
  endfacet
  facet normal 0 0 -1
    outer loop
      vertex -1 158 5
      vertex -1 173 5
      vertex 1 158 5
    endloop
  endfacet
  facet normal 0 0 -1
    outer loop
      vertex 1 158 5
      vertex -1 173 5
      vertex 1 173 5
    endloop
  endfacet
  facet normal 0 0 1
    outer loop
      vertex -1 189 75
      vertex -1 174 75
      vertex 1 174 75
    endloop
  endfacet
  facet normal 0 0 1
    outer loop
      vertex 1 189 75
      vertex -1 189 75
      vertex 1 174 75
    endloop
  endfacet
  facet normal 1 0 0
    outer loop
      vertex 1 174 75
      vertex 1 174 5
      vertex 1 189 5
    endloop
  endfacet
  facet normal 1 0 0
    outer loop
      vertex 1 189 75
      vertex 1 174 75
      vertex 1 189 5
    endloop
  endfacet
  facet normal 0 0 -1
    outer loop
      vertex -1 174 5
      vertex -1 189 5
      vertex 1 174 5
    endloop
  endfacet
  facet normal 0 0 -1
    outer loop
      vertex 1 174 5
      vertex -1 189 5
      vertex 1 189 5
    endloop
  endfacet
  facet normal 0 0 1
    outer loop
      vertex -1 205 75
      vertex -1 190 75
      vertex 1 190 75
    endloop
  endfacet
  facet normal 0 0 1
    outer loop
      vertex 1 205 75
      vertex -1 205 75
      vertex 1 190 75
    endloop
  endfacet
  facet normal 1 0 0
    outer loop
      vertex 1 197.8 29
      vertex 1 190 5
      vertex 1 205 5
    endloop
  endfacet
  facet normal 1 0 0
    outer loop
      vertex 1 197.8 49
      vertex 1 205 49
      vertex 1 190 75
    endloop
  endfacet
  facet normal 1 0 0
    outer loop
      vertex 1 190 75
      vertex 1 190 5
      vertex 1 197.8 29
    endloop
  endfacet
  facet normal 1 0 0
    outer loop
      vertex 1 205 75
      vertex 1 190 75
      vertex 1 205 49
    endloop
  endfacet
  facet normal 1 0 0
    outer loop
      vertex 1 197.8 29
      vertex 1 197.8 49
      vertex 1 190 75
    endloop
  endfacet
  facet normal 1 0 0
    outer loop
      vertex 1 205 29
      vertex 1 197.8 29
      vertex 1 205 5
    endloop
  endfacet
  facet normal 0 0 -1
    outer loop
      vertex -1 190 5
      vertex -1 205 5
      vertex 1 190 5
    endloop
  endfacet
  facet normal 0 0 -1
    outer loop
      vertex 1 190 5
      vertex -1 205 5
      vertex 1 205 5
    endloop
  endfacet
  facet normal 0 2.22045e-16 -1
    outer loop
      vertex -5 197.8 29
      vertex -5 205.8 29
      vertex -1 197.8 29
    endloop
  endfacet
  facet normal 0 2.22045e-16 -1
    outer loop
      vertex -1 205 29
      vertex -5 205.8 29
      vertex 1 205.8 29
    endloop
  endfacet
  facet normal 0 2.22045e-16 -1
    outer loop
      vertex 1 205 29
      vertex 1 205.8 29
      vertex 1 197.8 29
    endloop
  endfacet
  facet normal 0 2.22045e-16 -1
    outer loop
      vertex -1 197.8 29
      vertex -5 205.8 29
      vertex -1 205 29
    endloop
  endfacet
  facet normal 0 2.22045e-16 -1
    outer loop
      vertex -1 205 29
      vertex 1 205.8 29
      vertex 1 205 29
    endloop
  endfacet
  facet normal 0 -1 -2.22045e-16
    outer loop
      vertex -1 197.8 49
      vertex -5 197.8 49
      vertex -5 197.8 29
    endloop
  endfacet
  facet normal 0 -1 -2.22045e-16
    outer loop
      vertex -1 197.8 29
      vertex -1 197.8 49
      vertex -5 197.8 29
    endloop
  endfacet
  facet normal 0 -2.22045e-16 1
    outer loop
      vertex -5 205.8 49
      vertex -5 197.8 49
      vertex -1 197.8 49
    endloop
  endfacet
  facet normal 0 -2.22045e-16 1
    outer loop
      vertex 1 205 49
      vertex -5 205.8 49
      vertex -1 205 49
    endloop
  endfacet
  facet normal 0 -2.22045e-16 1
    outer loop
      vertex -1 205 49
      vertex -5 205.8 49
      vertex -1 197.8 49
    endloop
  endfacet
  facet normal 0 -2.22045e-16 1
    outer loop
      vertex 1 205.8 49
      vertex -5 205.8 49
      vertex 1 205 49
    endloop
  endfacet
  facet normal 0 -2.22045e-16 1
    outer loop
      vertex 1 205.8 49
      vertex 1 205 49
      vertex 1 197.8 49
    endloop
  endfacet
  facet normal 1 -1.09476e-47 4.93038e-32
    outer loop
      vertex 1 205.8 49
      vertex 1 197.8 49
      vertex 1 197.8 29
    endloop
  endfacet
  facet normal 1 -1.09476e-47 4.93038e-32
    outer loop
      vertex 1 205.8 42.3333
      vertex 1 205.8 49
      vertex 1 197.8 29
    endloop
  endfacet
  facet normal 1 -1.09476e-47 4.93038e-32
    outer loop
      vertex 1 205.8 29
      vertex 1 205.8 35.6667
      vertex 1 197.8 29
    endloop
  endfacet
  facet normal 1 -1.09476e-47 4.93038e-32
    outer loop
      vertex 1 205.8 35.6667
      vertex 1 205.8 42.3333
      vertex 1 197.8 29
    endloop
  endfacet
  facet normal 0 1 2.22045e-16
    outer loop
      vertex -5 205.8 49
      vertex 1 205.8 49
      vertex -5 205.8 42.3333
    endloop
  endfacet
  facet normal 0 1 2.22045e-16
    outer loop
      vertex -5 205.8 49
      vertex -5 205.8 42.3333
      vertex -5 205.8 29
    endloop
  endfacet
  facet normal 0 1 2.22045e-16
    outer loop
      vertex 1 205.8 35.6667
      vertex -5 205.8 29
      vertex -5 205.8 35.6667
    endloop
  endfacet
  facet normal 0 1 2.22045e-16
    outer loop
      vertex -5 205.8 42.3333
      vertex -5 205.8 35.6667
      vertex -5 205.8 29
    endloop
  endfacet
  facet normal 0 1 2.22045e-16
    outer loop
      vertex -5 205.8 29
      vertex 1 205.8 35.6667
      vertex 1 205.8 29
    endloop
  endfacet
  facet normal 0 1 2.22045e-16
    outer loop
      vertex -5 205.8 42.3333
      vertex 1 205.8 49
      vertex 1 205.8 42.3333
    endloop
  endfacet
  facet normal -1 1.09476e-47 -4.93038e-32
    outer loop
      vertex -5 197.8 49
      vertex -5 205.8 49
      vertex -5 197.8 29
    endloop
  endfacet
  facet normal -1 1.09476e-47 -4.93038e-32
    outer loop
      vertex -5 197.8 29
      vertex -5 205.8 49
      vertex -5 205.8 29
    endloop
  endfacet
  facet normal -3.06162e-17 -2.22045e-16 1
    outer loop
      vertex -1.22354 207.102 42.3333
      vertex -5 205.8 42.3333
      vertex 1 205.8 42.3333
    endloop
  endfacet
  facet normal -3.06162e-17 -2.22045e-16 1
    outer loop
      vertex 1 210 42.3333
      vertex 0.897778 209.224 42.3333
      vertex 1 205.8 42.3333
    endloop
  endfacet
  facet normal -3.06162e-17 -2.22045e-16 1
    outer loop
      vertex 0.897778 209.224 42.3333
      vertex 0.598076 208.5 42.3333
      vertex 1 205.8 42.3333
    endloop
  endfacet
  facet normal -3.06162e-17 -2.22045e-16 1
    outer loop
      vertex 0.598076 208.5 42.3333
      vertex 0.12132 207.879 42.3333
      vertex 1 205.8 42.3333
    endloop
  endfacet
  facet normal -3.06162e-17 -2.22045e-16 1
    outer loop
      vertex 0.12132 207.879 42.3333
      vertex -0.5 207.402 42.3333
      vertex 1 205.8 42.3333
    endloop
  endfacet
  facet normal -3.06162e-17 -2.22045e-16 1
    outer loop
      vertex -2 207 42.3333
      vertex -5 205.8 42.3333
      vertex -1.22354 207.102 42.3333
    endloop
  endfacet
  facet normal -3.06162e-17 -2.22045e-16 1
    outer loop
      vertex -2.77646 207.102 42.3333
      vertex -5 205.8 42.3333
      vertex -2 207 42.3333
    endloop
  endfacet
  facet normal -3.06162e-17 -2.22045e-16 1
    outer loop
      vertex -3.5 207.402 42.3333
      vertex -5 205.8 42.3333
      vertex -2.77646 207.102 42.3333
    endloop
  endfacet
  facet normal -3.06162e-17 -2.22045e-16 1
    outer loop
      vertex -4.12132 207.879 42.3333
      vertex -5 205.8 42.3333
      vertex -3.5 207.402 42.3333
    endloop
  endfacet
  facet normal -3.06162e-17 -2.22045e-16 1
    outer loop
      vertex -4.59808 208.5 42.3333
      vertex -5 205.8 42.3333
      vertex -4.12132 207.879 42.3333
    endloop
  endfacet
  facet normal -3.06162e-17 -2.22045e-16 1
    outer loop
      vertex -4.89778 209.224 42.3333
      vertex -5 205.8 42.3333
      vertex -4.59808 208.5 42.3333
    endloop
  endfacet
  facet normal -3.06162e-17 -2.22045e-16 1
    outer loop
      vertex -5 210 42.3333
      vertex -5 205.8 42.3333
      vertex -4.89778 209.224 42.3333
    endloop
  endfacet
  facet normal -3.06162e-17 -2.22045e-16 1
    outer loop
      vertex -0.5 207.402 42.3333
      vertex -1.22354 207.102 42.3333
      vertex 1 205.8 42.3333
    endloop
  endfacet
  facet normal 3.06162e-17 2.22045e-16 -1
    outer loop
      vertex -0.5 207.402 35.6667
      vertex 1 205.8 35.6667
      vertex -1.22354 207.102 35.6667
    endloop
  endfacet
  facet normal 3.06162e-17 2.22045e-16 -1
    outer loop
      vertex -5 205.8 35.6667
      vertex -2.77646 207.102 35.6667
      vertex 1 205.8 35.6667
    endloop
  endfacet
  facet normal 3.06162e-17 2.22045e-16 -1
    outer loop
      vertex -2.77646 207.102 35.6667
      vertex -2 207 35.6667
      vertex 1 205.8 35.6667
    endloop
  endfacet
  facet normal 3.06162e-17 2.22045e-16 -1
    outer loop
      vertex -2 207 35.6667
      vertex -1.22354 207.102 35.6667
      vertex 1 205.8 35.6667
    endloop
  endfacet
  facet normal 3.06162e-17 2.22045e-16 -1
    outer loop
      vertex 0.12132 207.879 35.6667
      vertex 1 205.8 35.6667
      vertex -0.5 207.402 35.6667
    endloop
  endfacet
  facet normal 3.06162e-17 2.22045e-16 -1
    outer loop
      vertex 0.598076 208.5 35.6667
      vertex 1 205.8 35.6667
      vertex 0.12132 207.879 35.6667
    endloop
  endfacet
  facet normal 3.06162e-17 2.22045e-16 -1
    outer loop
      vertex 0.897778 209.224 35.6667
      vertex 1 205.8 35.6667
      vertex 0.598076 208.5 35.6667
    endloop
  endfacet
  facet normal 3.06162e-17 2.22045e-16 -1
    outer loop
      vertex 1 210 35.6667
      vertex 1 205.8 35.6667
      vertex 0.897778 209.224 35.6667
    endloop
  endfacet
  facet normal 3.06162e-17 2.22045e-16 -1
    outer loop
      vertex -5 205.8 35.6667
      vertex -5 210 35.6667
      vertex -4.89778 209.224 35.6667
    endloop
  endfacet
  facet normal 3.06162e-17 2.22045e-16 -1
    outer loop
      vertex -5 205.8 35.6667
      vertex -4.89778 209.224 35.6667
      vertex -4.59808 208.5 35.6667
    endloop
  endfacet
  facet normal 3.06162e-17 2.22045e-16 -1
    outer loop
      vertex -5 205.8 35.6667
      vertex -4.59808 208.5 35.6667
      vertex -4.12132 207.879 35.6667
    endloop
  endfacet
  facet normal 3.06162e-17 2.22045e-16 -1
    outer loop
      vertex -5 205.8 35.6667
      vertex -4.12132 207.879 35.6667
      vertex -3.5 207.402 35.6667
    endloop
  endfacet
  facet normal 3.06162e-17 2.22045e-16 -1
    outer loop
      vertex -5 205.8 35.6667
      vertex -3.5 207.402 35.6667
      vertex -2.77646 207.102 35.6667
    endloop
  endfacet
  facet normal -1 2.71926e-32 -1.22465e-16
    outer loop
      vertex -5 205.8 42.3333
      vertex -5 210 42.3333
      vertex -5 205.8 35.6667
    endloop
  endfacet
  facet normal -1 2.71926e-32 -1.22465e-16
    outer loop
      vertex -5 205.8 35.6667
      vertex -5 210 42.3333
      vertex -5 210 35.6667
    endloop
  endfacet
  facet normal -0.991445 0.130525 -9.24345e-17
    outer loop
      vertex -5 210 42.3333
      vertex -4.89778 210.776 42.3333
      vertex -5 210 35.6667
    endloop
  endfacet
  facet normal -0.991445 0.130525 -9.24345e-17
    outer loop
      vertex -5 210 35.6667
      vertex -4.89778 210.776 42.3333
      vertex -4.89778 210.776 35.6667
    endloop
  endfacet
  facet normal -0.598137 0.0787457 0.797516
    outer loop
      vertex -4.89778 210.776 42.3333
      vertex -5 210 42.3333
      vertex -2 210 44.5833
    endloop
  endfacet
  facet normal -0.598137 -0.0787457 0.797516
    outer loop
      vertex -5 210 42.3333
      vertex -4.89778 209.224 42.3333
      vertex -2 210 44.5833
    endloop
  endfacet
  facet normal -0.557374 -0.230873 0.797516
    outer loop
      vertex -4.89778 209.224 42.3333
      vertex -4.59808 208.5 42.3333
      vertex -2 210 44.5833
    endloop
  endfacet
  facet normal -0.478628 -0.367265 0.797516
    outer loop
      vertex -4.59808 208.5 42.3333
      vertex -4.12132 207.879 42.3333
      vertex -2 210 44.5833
    endloop
  endfacet
  facet normal -0.367265 -0.478628 0.797516
    outer loop
      vertex -4.12132 207.879 42.3333
      vertex -3.5 207.402 42.3333
      vertex -2 210 44.5833
    endloop
  endfacet
  facet normal -0.230873 -0.557374 0.797516
    outer loop
      vertex -3.5 207.402 42.3333
      vertex -2.77646 207.102 42.3333
      vertex -2 210 44.5833
    endloop
  endfacet
  facet normal -0.0787457 -0.598137 0.797516
    outer loop
      vertex -2.77646 207.102 42.3333
      vertex -2 207 42.3333
      vertex -2 210 44.5833
    endloop
  endfacet
  facet normal 0.0787457 -0.598137 0.797516
    outer loop
      vertex -2 210 44.5833
      vertex -2 207 42.3333
      vertex -1.22354 207.102 42.3333
    endloop
  endfacet
  facet normal 0.230873 -0.557374 0.797516
    outer loop
      vertex -2 210 44.5833
      vertex -1.22354 207.102 42.3333
      vertex -0.5 207.402 42.3333
    endloop
  endfacet
  facet normal 0.367265 -0.478628 0.797516
    outer loop
      vertex -2 210 44.5833
      vertex -0.5 207.402 42.3333
      vertex 0.12132 207.879 42.3333
    endloop
  endfacet
  facet normal 0.478628 -0.367265 0.797516
    outer loop
      vertex -2 210 44.5833
      vertex 0.12132 207.879 42.3333
      vertex 0.598076 208.5 42.3333
    endloop
  endfacet
  facet normal 0.557374 -0.230873 0.797516
    outer loop
      vertex -2 210 44.5833
      vertex 0.598076 208.5 42.3333
      vertex 0.897778 209.224 42.3333
    endloop
  endfacet
  facet normal 0.598137 -0.0787457 0.797516
    outer loop
      vertex -2 210 44.5833
      vertex 0.897778 209.224 42.3333
      vertex 1 210 42.3333
    endloop
  endfacet
  facet normal 1 -2.71926e-32 1.22465e-16
    outer loop
      vertex 1 210 42.3333
      vertex 1 205.8 42.3333
      vertex 1 205.8 35.6667
    endloop
  endfacet
  facet normal 1 -2.71926e-32 1.22465e-16
    outer loop
      vertex 1 210 35.6667
      vertex 1 210 42.3333
      vertex 1 205.8 35.6667
    endloop
  endfacet
  facet normal 0.598137 0.0787457 0.797516
    outer loop
      vertex 0.897778 210.776 42.3333
      vertex -2 210 44.5833
      vertex 1 210 42.3333
    endloop
  endfacet
  facet normal 0.991445 0.130525 1.50399e-16
    outer loop
      vertex 0.897778 210.776 42.3333
      vertex 1 210 42.3333
      vertex 1 210 35.6667
    endloop
  endfacet
  facet normal 0.991445 0.130525 1.50399e-16
    outer loop
      vertex 0.897778 210.776 35.6667
      vertex 0.897778 210.776 42.3333
      vertex 1 210 35.6667
    endloop
  endfacet
  facet normal 0.923879 0.382685 1.98116e-16
    outer loop
      vertex 0.598076 211.5 42.3333
      vertex 0.897778 210.776 42.3333
      vertex 0.897778 210.776 35.6667
    endloop
  endfacet
  facet normal 0.923879 0.382685 1.98116e-16
    outer loop
      vertex 0.598076 211.5 35.6667
      vertex 0.598076 211.5 42.3333
      vertex 0.897778 210.776 35.6667
    endloop
  endfacet
  facet normal 0.793353 0.608762 2.3233e-16
    outer loop
      vertex 0.12132 212.121 42.3333
      vertex 0.598076 211.5 42.3333
      vertex 0.598076 211.5 35.6667
    endloop
  endfacet
  facet normal 0.793353 0.608762 2.3233e-16
    outer loop
      vertex 0.12132 212.121 35.6667
      vertex 0.12132 212.121 42.3333
      vertex 0.598076 211.5 35.6667
    endloop
  endfacet
  facet normal 0.608762 0.793353 2.50712e-16
    outer loop
      vertex 0.12132 212.121 42.3333
      vertex 0.12132 212.121 35.6667
      vertex -0.5 212.598 42.3333
    endloop
  endfacet
  facet normal 0.608762 0.793353 2.50712e-16
    outer loop
      vertex -0.5 212.598 42.3333
      vertex 0.12132 212.121 35.6667
      vertex -0.5 212.598 35.6667
    endloop
  endfacet
  facet normal 0.382685 0.923879 2.52008e-16
    outer loop
      vertex -0.5 212.598 42.3333
      vertex -0.5 212.598 35.6667
      vertex -1.22354 212.898 42.3333
    endloop
  endfacet
  facet normal 0.382685 0.923879 2.52008e-16
    outer loop
      vertex -1.22354 212.898 42.3333
      vertex -0.5 212.598 35.6667
      vertex -1.22354 212.898 35.6667
    endloop
  endfacet
  facet normal 0.130525 0.991445 2.3613e-16
    outer loop
      vertex -1.22354 212.898 42.3333
      vertex -1.22354 212.898 35.6667
      vertex -2 213 42.3333
    endloop
  endfacet
  facet normal 0.130525 0.991445 2.3613e-16
    outer loop
      vertex -2 213 42.3333
      vertex -1.22354 212.898 35.6667
      vertex -2 213 35.6667
    endloop
  endfacet
  facet normal -0.130525 0.991445 2.0416e-16
    outer loop
      vertex -2.77646 212.898 42.3333
      vertex -2 213 42.3333
      vertex -2.77646 212.898 35.6667
    endloop
  endfacet
  facet normal -0.130525 0.991445 2.0416e-16
    outer loop
      vertex -2.77646 212.898 35.6667
      vertex -2 213 42.3333
      vertex -2 213 35.6667
    endloop
  endfacet
  facet normal -0.382685 0.923879 1.58277e-16
    outer loop
      vertex -3.5 212.598 42.3333
      vertex -2.77646 212.898 42.3333
      vertex -3.5 212.598 35.6667
    endloop
  endfacet
  facet normal -0.382685 0.923879 1.58277e-16
    outer loop
      vertex -3.5 212.598 35.6667
      vertex -2.77646 212.898 42.3333
      vertex -2.77646 212.898 35.6667
    endloop
  endfacet
  facet normal -0.608762 0.793353 1.01608e-16
    outer loop
      vertex -4.12132 212.121 42.3333
      vertex -3.5 212.598 42.3333
      vertex -4.12132 212.121 35.6667
    endloop
  endfacet
  facet normal -0.608762 0.793353 1.01608e-16
    outer loop
      vertex -4.12132 212.121 35.6667
      vertex -3.5 212.598 42.3333
      vertex -3.5 212.598 35.6667
    endloop
  endfacet
  facet normal -0.793353 0.608762 3.80145e-17
    outer loop
      vertex -4.59808 211.5 42.3333
      vertex -4.12132 212.121 42.3333
      vertex -4.59808 211.5 35.6667
    endloop
  endfacet
  facet normal -0.793353 0.608762 3.80145e-17
    outer loop
      vertex -4.59808 211.5 35.6667
      vertex -4.12132 212.121 42.3333
      vertex -4.12132 212.121 35.6667
    endloop
  endfacet
  facet normal -0.923879 0.382685 -2.81695e-17
    outer loop
      vertex -4.89778 210.776 42.3333
      vertex -4.59808 211.5 42.3333
      vertex -4.89778 210.776 35.6667
    endloop
  endfacet
  facet normal -0.923879 0.382685 -2.81695e-17
    outer loop
      vertex -4.89778 210.776 35.6667
      vertex -4.59808 211.5 42.3333
      vertex -4.59808 211.5 35.6667
    endloop
  endfacet
  facet normal -0.0787457 -0.598137 -0.797516
    outer loop
      vertex -2 210 33.4167
      vertex -2 207 35.6667
      vertex -2.77646 207.102 35.6667
    endloop
  endfacet
  facet normal -0.230873 -0.557374 -0.797516
    outer loop
      vertex -2 210 33.4167
      vertex -2.77646 207.102 35.6667
      vertex -3.5 207.402 35.6667
    endloop
  endfacet
  facet normal -0.367265 -0.478628 -0.797516
    outer loop
      vertex -2 210 33.4167
      vertex -3.5 207.402 35.6667
      vertex -4.12132 207.879 35.6667
    endloop
  endfacet
  facet normal -0.478628 -0.367265 -0.797516
    outer loop
      vertex -2 210 33.4167
      vertex -4.12132 207.879 35.6667
      vertex -4.59808 208.5 35.6667
    endloop
  endfacet
  facet normal -0.557374 -0.230873 -0.797516
    outer loop
      vertex -2 210 33.4167
      vertex -4.59808 208.5 35.6667
      vertex -4.89778 209.224 35.6667
    endloop
  endfacet
  facet normal -0.598137 -0.0787457 -0.797516
    outer loop
      vertex -2 210 33.4167
      vertex -4.89778 209.224 35.6667
      vertex -5 210 35.6667
    endloop
  endfacet
  facet normal -0.598137 0.0787457 -0.797516
    outer loop
      vertex -2 210 33.4167
      vertex -5 210 35.6667
      vertex -4.89778 210.776 35.6667
    endloop
  endfacet
  facet normal -0.557374 0.230873 -0.797516
    outer loop
      vertex -4.59808 211.5 35.6667
      vertex -2 210 33.4167
      vertex -4.89778 210.776 35.6667
    endloop
  endfacet
  facet normal -0.478628 0.367265 -0.797516
    outer loop
      vertex -4.12132 212.121 35.6667
      vertex -2 210 33.4167
      vertex -4.59808 211.5 35.6667
    endloop
  endfacet
  facet normal -0.367265 0.478628 -0.797516
    outer loop
      vertex -3.5 212.598 35.6667
      vertex -2 210 33.4167
      vertex -4.12132 212.121 35.6667
    endloop
  endfacet
  facet normal -0.230873 0.557374 -0.797516
    outer loop
      vertex -2.77646 212.898 35.6667
      vertex -2 210 33.4167
      vertex -3.5 212.598 35.6667
    endloop
  endfacet
  facet normal -0.0787457 0.598137 -0.797516
    outer loop
      vertex -2 213 35.6667
      vertex -2 210 33.4167
      vertex -2.77646 212.898 35.6667
    endloop
  endfacet
  facet normal 0.0787457 0.598137 -0.797516
    outer loop
      vertex -1.22354 212.898 35.6667
      vertex -2 210 33.4167
      vertex -2 213 35.6667
    endloop
  endfacet
  facet normal 0.230873 0.557374 -0.797516
    outer loop
      vertex -0.5 212.598 35.6667
      vertex -2 210 33.4167
      vertex -1.22354 212.898 35.6667
    endloop
  endfacet
  facet normal 0.367265 0.478628 -0.797516
    outer loop
      vertex 0.12132 212.121 35.6667
      vertex -2 210 33.4167
      vertex -0.5 212.598 35.6667
    endloop
  endfacet
  facet normal 0.478628 0.367265 -0.797516
    outer loop
      vertex 0.598076 211.5 35.6667
      vertex -2 210 33.4167
      vertex 0.12132 212.121 35.6667
    endloop
  endfacet
  facet normal 0.557374 0.230873 -0.797516
    outer loop
      vertex 0.897778 210.776 35.6667
      vertex -2 210 33.4167
      vertex 0.598076 211.5 35.6667
    endloop
  endfacet
  facet normal 0.598137 0.0787457 -0.797516
    outer loop
      vertex 1 210 35.6667
      vertex -2 210 33.4167
      vertex 0.897778 210.776 35.6667
    endloop
  endfacet
  facet normal 0.598137 -0.0787457 -0.797516
    outer loop
      vertex 1 210 35.6667
      vertex 0.897778 209.224 35.6667
      vertex -2 210 33.4167
    endloop
  endfacet
  facet normal 0.557374 -0.230873 -0.797516
    outer loop
      vertex 0.897778 209.224 35.6667
      vertex 0.598076 208.5 35.6667
      vertex -2 210 33.4167
    endloop
  endfacet
  facet normal 0.478628 -0.367265 -0.797516
    outer loop
      vertex 0.598076 208.5 35.6667
      vertex 0.12132 207.879 35.6667
      vertex -2 210 33.4167
    endloop
  endfacet
  facet normal 0.367265 -0.478628 -0.797516
    outer loop
      vertex 0.12132 207.879 35.6667
      vertex -0.5 207.402 35.6667
      vertex -2 210 33.4167
    endloop
  endfacet
  facet normal 0.230873 -0.557374 -0.797516
    outer loop
      vertex -0.5 207.402 35.6667
      vertex -1.22354 207.102 35.6667
      vertex -2 210 33.4167
    endloop
  endfacet
  facet normal 0.0787457 -0.598137 -0.797516
    outer loop
      vertex -1.22354 207.102 35.6667
      vertex -2 207 35.6667
      vertex -2 210 33.4167
    endloop
  endfacet
  facet normal -0.557374 0.230873 0.797516
    outer loop
      vertex -4.89778 210.776 42.3333
      vertex -2 210 44.5833
      vertex -4.59808 211.5 42.3333
    endloop
  endfacet
  facet normal -0.478628 0.367265 0.797516
    outer loop
      vertex -4.59808 211.5 42.3333
      vertex -2 210 44.5833
      vertex -4.12132 212.121 42.3333
    endloop
  endfacet
  facet normal -0.367265 0.478628 0.797516
    outer loop
      vertex -4.12132 212.121 42.3333
      vertex -2 210 44.5833
      vertex -3.5 212.598 42.3333
    endloop
  endfacet
  facet normal -0.230873 0.557374 0.797516
    outer loop
      vertex -3.5 212.598 42.3333
      vertex -2 210 44.5833
      vertex -2.77646 212.898 42.3333
    endloop
  endfacet
  facet normal -0.0787457 0.598137 0.797516
    outer loop
      vertex -2.77646 212.898 42.3333
      vertex -2 210 44.5833
      vertex -2 213 42.3333
    endloop
  endfacet
  facet normal 0.0787457 0.598137 0.797516
    outer loop
      vertex -2 213 42.3333
      vertex -2 210 44.5833
      vertex -1.22354 212.898 42.3333
    endloop
  endfacet
  facet normal 0.230873 0.557374 0.797516
    outer loop
      vertex -1.22354 212.898 42.3333
      vertex -2 210 44.5833
      vertex -0.5 212.598 42.3333
    endloop
  endfacet
  facet normal 0.367265 0.478628 0.797516
    outer loop
      vertex -0.5 212.598 42.3333
      vertex -2 210 44.5833
      vertex 0.12132 212.121 42.3333
    endloop
  endfacet
  facet normal 0.478628 0.367265 0.797516
    outer loop
      vertex 0.12132 212.121 42.3333
      vertex -2 210 44.5833
      vertex 0.598076 211.5 42.3333
    endloop
  endfacet
  facet normal 0.557374 0.230873 0.797516
    outer loop
      vertex 0.598076 211.5 42.3333
      vertex -2 210 44.5833
      vertex 0.897778 210.776 42.3333
    endloop
  endfacet
  facet normal -3.06162e-17 -2.22045e-16 1
    outer loop
      vertex -2.77646 207.102 49
      vertex -2 207 49
      vertex -1.22354 207.102 49
    endloop
  endfacet
  facet normal -3.06162e-17 -2.22045e-16 1
    outer loop
      vertex 0.12132 207.879 49
      vertex -2.77646 207.102 49
      vertex -0.5 207.402 49
    endloop
  endfacet
  facet normal -3.06162e-17 -2.22045e-16 1
    outer loop
      vertex -0.5 207.402 49
      vertex -2.77646 207.102 49
      vertex -1.22354 207.102 49
    endloop
  endfacet
  facet normal -3.06162e-17 -2.22045e-16 1
    outer loop
      vertex 0.598076 208.5 49
      vertex -2.77646 207.102 49
      vertex 0.12132 207.879 49
    endloop
  endfacet
  facet normal -3.06162e-17 -2.22045e-16 1
    outer loop
      vertex 0.897778 209.224 49
      vertex -2.77646 207.102 49
      vertex 0.598076 208.5 49
    endloop
  endfacet
  facet normal -3.06162e-17 -2.22045e-16 1
    outer loop
      vertex 1 210 49
      vertex -2.77646 207.102 49
      vertex 0.897778 209.224 49
    endloop
  endfacet
  facet normal -3.06162e-17 -2.22045e-16 1
    outer loop
      vertex 1 214.2 49
      vertex -2.77646 207.102 49
      vertex 1 210 49
    endloop
  endfacet
  facet normal -3.06162e-17 -2.22045e-16 1
    outer loop
      vertex -5 214.2 49
      vertex -2.77646 207.102 49
      vertex 1 214.2 49
    endloop
  endfacet
  facet normal -3.06162e-17 -2.22045e-16 1
    outer loop
      vertex -5 210 49
      vertex -2.77646 207.102 49
      vertex -5 214.2 49
    endloop
  endfacet
  facet normal -3.06162e-17 -2.22045e-16 1
    outer loop
      vertex -4.89778 209.224 49
      vertex -2.77646 207.102 49
      vertex -5 210 49
    endloop
  endfacet
  facet normal -3.06162e-17 -2.22045e-16 1
    outer loop
      vertex -4.59808 208.5 49
      vertex -2.77646 207.102 49
      vertex -4.89778 209.224 49
    endloop
  endfacet
  facet normal -3.06162e-17 -2.22045e-16 1
    outer loop
      vertex -4.12132 207.879 49
      vertex -2.77646 207.102 49
      vertex -4.59808 208.5 49
    endloop
  endfacet
  facet normal -3.06162e-17 -2.22045e-16 1
    outer loop
      vertex -3.5 207.402 49
      vertex -2.77646 207.102 49
      vertex -4.12132 207.879 49
    endloop
  endfacet
  facet normal 0.130525 -0.991445 -2.0416e-16
    outer loop
      vertex -1.22354 207.102 49
      vertex -2 207 49
      vertex -2 207 43.0333
    endloop
  endfacet
  facet normal 0.130525 -0.991445 -2.0416e-16
    outer loop
      vertex -1.22354 207.102 43.0333
      vertex -1.22354 207.102 49
      vertex -2 207 43.0333
    endloop
  endfacet
  facet normal -0.130525 -0.991445 -2.3613e-16
    outer loop
      vertex -2 207 43.0333
      vertex -2 207 49
      vertex -2.77646 207.102 49
    endloop
  endfacet
  facet normal -0.130525 -0.991445 -2.3613e-16
    outer loop
      vertex -2.77646 207.102 43.0333
      vertex -2 207 43.0333
      vertex -2.77646 207.102 49
    endloop
  endfacet
  facet normal -0.382685 -0.923879 -2.52008e-16
    outer loop
      vertex -2.77646 207.102 43.0333
      vertex -2.77646 207.102 49
      vertex -3.5 207.402 49
    endloop
  endfacet
  facet normal -0.382685 -0.923879 -2.52008e-16
    outer loop
      vertex -3.5 207.402 43.0333
      vertex -2.77646 207.102 43.0333
      vertex -3.5 207.402 49
    endloop
  endfacet
  facet normal -0.608762 -0.793353 -2.50712e-16
    outer loop
      vertex -3.5 207.402 43.0333
      vertex -3.5 207.402 49
      vertex -4.12132 207.879 49
    endloop
  endfacet
  facet normal -0.608762 -0.793353 -2.50712e-16
    outer loop
      vertex -4.12132 207.879 43.0333
      vertex -3.5 207.402 43.0333
      vertex -4.12132 207.879 49
    endloop
  endfacet
  facet normal -0.793353 -0.608762 -2.3233e-16
    outer loop
      vertex -4.12132 207.879 49
      vertex -4.59808 208.5 49
      vertex -4.12132 207.879 43.0333
    endloop
  endfacet
  facet normal -0.793353 -0.608762 -2.3233e-16
    outer loop
      vertex -4.12132 207.879 43.0333
      vertex -4.59808 208.5 49
      vertex -4.59808 208.5 43.0333
    endloop
  endfacet
  facet normal -0.923879 -0.382685 -1.98116e-16
    outer loop
      vertex -4.59808 208.5 49
      vertex -4.89778 209.224 49
      vertex -4.59808 208.5 43.0333
    endloop
  endfacet
  facet normal -0.923879 -0.382685 -1.98116e-16
    outer loop
      vertex -4.59808 208.5 43.0333
      vertex -4.89778 209.224 49
      vertex -4.89778 209.224 43.0333
    endloop
  endfacet
  facet normal -0.991445 -0.130525 -1.50399e-16
    outer loop
      vertex -4.89778 209.224 49
      vertex -5 210 49
      vertex -4.89778 209.224 43.0333
    endloop
  endfacet
  facet normal -0.991445 -0.130525 -1.50399e-16
    outer loop
      vertex -4.89778 209.224 43.0333
      vertex -5 210 49
      vertex -5 210 43.0333
    endloop
  endfacet
  facet normal -1 2.71926e-32 -1.22465e-16
    outer loop
      vertex -5 210 49
      vertex -5 214.2 49
      vertex -5 210 43.0333
    endloop
  endfacet
  facet normal -1 2.71926e-32 -1.22465e-16
    outer loop
      vertex -5 210 43.0333
      vertex -5 214.2 49
      vertex -5 214.2 43.0333
    endloop
  endfacet
  facet normal 0 -1 -2.22045e-16
    outer loop
      vertex -5 214.2 43.0333
      vertex -5 214.2 29
      vertex -5 214.2 34.9667
    endloop
  endfacet
  facet normal 0 -1 -2.22045e-16
    outer loop
      vertex 1 214.2 34.9667
      vertex 1 214.2 43.0333
      vertex -5 214.2 34.9667
    endloop
  endfacet
  facet normal 0 -1 -2.22045e-16
    outer loop
      vertex 1 214.2 43.0333
      vertex -5 214.2 43.0333
      vertex -5 214.2 34.9667
    endloop
  endfacet
  facet normal 0 -1 -2.22045e-16
    outer loop
      vertex -5 214.2 43.0333
      vertex -5 214.2 49
      vertex -5 214.2 29
    endloop
  endfacet
  facet normal -1 1.09476e-47 -4.93038e-32
    outer loop
      vertex -5 214.2 49
      vertex -5 222.2 49
      vertex -5 214.2 29
    endloop
  endfacet
  facet normal -1 1.09476e-47 -4.93038e-32
    outer loop
      vertex -5 214.2 29
      vertex -5 222.2 49
      vertex -5 222.2 29
    endloop
  endfacet
  facet normal 0 -2.22045e-16 1
    outer loop
      vertex -5 222.2 49
      vertex -5 214.2 49
      vertex 1 214.2 49
    endloop
  endfacet
  facet normal 0 -2.22045e-16 1
    outer loop
      vertex 1 222.2 49
      vertex -5 222.2 49
      vertex 1 214.2 49
    endloop
  endfacet
  facet normal 1 -2.71926e-32 1.22465e-16
    outer loop
      vertex 1 214.2 49
      vertex 1 210 49
      vertex 1 210 43.0333
    endloop
  endfacet
  facet normal 1 -2.71926e-32 1.22465e-16
    outer loop
      vertex 1 214.2 43.0333
      vertex 1 214.2 49
      vertex 1 210 43.0333
    endloop
  endfacet
  facet normal 0.991445 -0.130525 9.24345e-17
    outer loop
      vertex 1 210 49
      vertex 0.897778 209.224 49
      vertex 0.897778 209.224 43.0333
    endloop
  endfacet
  facet normal 0.991445 -0.130525 9.24345e-17
    outer loop
      vertex 1 210 43.0333
      vertex 1 210 49
      vertex 0.897778 209.224 43.0333
    endloop
  endfacet
  facet normal 0.923879 -0.382685 2.81695e-17
    outer loop
      vertex 0.897778 209.224 49
      vertex 0.598076 208.5 49
      vertex 0.598076 208.5 43.0333
    endloop
  endfacet
  facet normal 0.923879 -0.382685 2.81695e-17
    outer loop
      vertex 0.897778 209.224 43.0333
      vertex 0.897778 209.224 49
      vertex 0.598076 208.5 43.0333
    endloop
  endfacet
  facet normal 0.793353 -0.608762 -3.80145e-17
    outer loop
      vertex 0.598076 208.5 49
      vertex 0.12132 207.879 49
      vertex 0.12132 207.879 43.0333
    endloop
  endfacet
  facet normal 0.793353 -0.608762 -3.80145e-17
    outer loop
      vertex 0.598076 208.5 43.0333
      vertex 0.598076 208.5 49
      vertex 0.12132 207.879 43.0333
    endloop
  endfacet
  facet normal 0.608762 -0.793353 -1.01608e-16
    outer loop
      vertex 0.12132 207.879 49
      vertex -0.5 207.402 49
      vertex -0.5 207.402 43.0333
    endloop
  endfacet
  facet normal 0.608762 -0.793353 -1.01608e-16
    outer loop
      vertex 0.12132 207.879 43.0333
      vertex 0.12132 207.879 49
      vertex -0.5 207.402 43.0333
    endloop
  endfacet
  facet normal 0.382685 -0.923879 -1.58277e-16
    outer loop
      vertex -0.5 207.402 49
      vertex -1.22354 207.102 49
      vertex -1.22354 207.102 43.0333
    endloop
  endfacet
  facet normal 0.382685 -0.923879 -1.58277e-16
    outer loop
      vertex -0.5 207.402 43.0333
      vertex -0.5 207.402 49
      vertex -1.22354 207.102 43.0333
    endloop
  endfacet
  facet normal 3.06162e-17 2.22045e-16 -1
    outer loop
      vertex -1.22699 207.115 43.0333
      vertex -1.22354 207.102 43.0333
      vertex -2 207.013 43.0333
    endloop
  endfacet
  facet normal 3.06162e-17 2.22045e-16 -1
    outer loop
      vertex -2.77301 207.115 43.0333
      vertex -2.77646 207.102 43.0333
      vertex -3.5 207.402 43.0333
    endloop
  endfacet
  facet normal 3.06162e-17 2.22045e-16 -1
    outer loop
      vertex -3.49333 207.413 43.0333
      vertex -3.5 207.402 43.0333
      vertex -4.12132 207.879 43.0333
    endloop
  endfacet
  facet normal 3.06162e-17 2.22045e-16 -1
    outer loop
      vertex -4.11189 207.888 43.0333
      vertex -4.12132 207.879 43.0333
      vertex -4.59808 208.5 43.0333
    endloop
  endfacet
  facet normal 3.06162e-17 2.22045e-16 -1
    outer loop
      vertex -4.58653 208.507 43.0333
      vertex -4.59808 208.5 43.0333
      vertex -4.89778 209.224 43.0333
    endloop
  endfacet
  facet normal 3.06162e-17 2.22045e-16 -1
    outer loop
      vertex -4.8849 209.227 43.0333
      vertex -4.89778 209.224 43.0333
      vertex -5 210 43.0333
    endloop
  endfacet
  facet normal 3.06162e-17 2.22045e-16 -1
    outer loop
      vertex -4.8849 210.773 43.0333
      vertex -5 210 43.0333
      vertex -5 214.2 43.0333
    endloop
  endfacet
  facet normal 3.06162e-17 2.22045e-16 -1
    outer loop
      vertex -1.22699 212.885 43.0333
      vertex -5 214.2 43.0333
      vertex 1 214.2 43.0333
    endloop
  endfacet
  facet normal 3.06162e-17 2.22045e-16 -1
    outer loop
      vertex 0.986667 210 43.0333
      vertex 1 214.2 43.0333
      vertex 1 210 43.0333
    endloop
  endfacet
  facet normal 3.06162e-17 2.22045e-16 -1
    outer loop
      vertex 0.884899 209.227 43.0333
      vertex 1 210 43.0333
      vertex 0.897778 209.224 43.0333
    endloop
  endfacet
  facet normal 3.06162e-17 2.22045e-16 -1
    outer loop
      vertex 0.586529 208.507 43.0333
      vertex 0.897778 209.224 43.0333
      vertex 0.598076 208.5 43.0333
    endloop
  endfacet
  facet normal 3.06162e-17 2.22045e-16 -1
    outer loop
      vertex 0.111892 207.888 43.0333
      vertex 0.598076 208.5 43.0333
      vertex 0.12132 207.879 43.0333
    endloop
  endfacet
  facet normal 3.06162e-17 2.22045e-16 -1
    outer loop
      vertex -0.506666 207.413 43.0333
      vertex 0.12132 207.879 43.0333
      vertex -0.5 207.402 43.0333
    endloop
  endfacet
  facet normal 3.06162e-17 2.22045e-16 -1
    outer loop
      vertex -2 207.013 43.0333
      vertex -2.77646 207.102 43.0333
      vertex -2.77301 207.115 43.0333
    endloop
  endfacet
  facet normal 3.06162e-17 2.22045e-16 -1
    outer loop
      vertex -2 207 43.0333
      vertex -2.77646 207.102 43.0333
      vertex -2 207.013 43.0333
    endloop
  endfacet
  facet normal 3.06162e-17 2.22045e-16 -1
    outer loop
      vertex -2 207 43.0333
      vertex -2 207.013 43.0333
      vertex -1.22354 207.102 43.0333
    endloop
  endfacet
  facet normal 3.06162e-17 2.22045e-16 -1
    outer loop
      vertex -0.506666 207.413 43.0333
      vertex -1.22354 207.102 43.0333
      vertex -1.22699 207.115 43.0333
    endloop
  endfacet
  facet normal 3.06162e-17 2.22045e-16 -1
    outer loop
      vertex 0.111892 207.888 43.0333
      vertex 0.12132 207.879 43.0333
      vertex -0.506666 207.413 43.0333
    endloop
  endfacet
  facet normal 3.06162e-17 2.22045e-16 -1
    outer loop
      vertex -1.22354 207.102 43.0333
      vertex -0.506666 207.413 43.0333
      vertex -0.5 207.402 43.0333
    endloop
  endfacet
  facet normal 3.06162e-17 2.22045e-16 -1
    outer loop
      vertex 0.884899 210.773 43.0333
      vertex 1 214.2 43.0333
      vertex 0.986667 210 43.0333
    endloop
  endfacet
  facet normal 3.06162e-17 2.22045e-16 -1
    outer loop
      vertex 0.586529 211.493 43.0333
      vertex 1 214.2 43.0333
      vertex 0.884899 210.773 43.0333
    endloop
  endfacet
  facet normal 3.06162e-17 2.22045e-16 -1
    outer loop
      vertex -4.11189 212.112 43.0333
      vertex -5 214.2 43.0333
      vertex -3.49333 212.587 43.0333
    endloop
  endfacet
  facet normal 3.06162e-17 2.22045e-16 -1
    outer loop
      vertex -2 212.987 43.0333
      vertex -5 214.2 43.0333
      vertex -1.22699 212.885 43.0333
    endloop
  endfacet
  facet normal 3.06162e-17 2.22045e-16 -1
    outer loop
      vertex -2.77301 212.885 43.0333
      vertex -5 214.2 43.0333
      vertex -2 212.987 43.0333
    endloop
  endfacet
  facet normal 3.06162e-17 2.22045e-16 -1
    outer loop
      vertex 0.111892 212.112 43.0333
      vertex -0.506666 212.587 43.0333
      vertex 1 214.2 43.0333
    endloop
  endfacet
  facet normal 3.06162e-17 2.22045e-16 -1
    outer loop
      vertex -0.506666 212.587 43.0333
      vertex -1.22699 212.885 43.0333
      vertex 1 214.2 43.0333
    endloop
  endfacet
  facet normal 3.06162e-17 2.22045e-16 -1
    outer loop
      vertex -3.49333 212.587 43.0333
      vertex -5 214.2 43.0333
      vertex -2.77301 212.885 43.0333
    endloop
  endfacet
  facet normal 3.06162e-17 2.22045e-16 -1
    outer loop
      vertex -4.8849 209.227 43.0333
      vertex -5 210 43.0333
      vertex -4.98667 210 43.0333
    endloop
  endfacet
  facet normal 3.06162e-17 2.22045e-16 -1
    outer loop
      vertex -4.11189 212.112 43.0333
      vertex -4.58653 211.493 43.0333
      vertex -5 214.2 43.0333
    endloop
  endfacet
  facet normal 3.06162e-17 2.22045e-16 -1
    outer loop
      vertex -4.58653 211.493 43.0333
      vertex -4.8849 210.773 43.0333
      vertex -5 214.2 43.0333
    endloop
  endfacet
  facet normal 3.06162e-17 2.22045e-16 -1
    outer loop
      vertex 0.986667 210 43.0333
      vertex 1 210 43.0333
      vertex 0.884899 209.227 43.0333
    endloop
  endfacet
  facet normal 3.06162e-17 2.22045e-16 -1
    outer loop
      vertex 0.111892 212.112 43.0333
      vertex 1 214.2 43.0333
      vertex 0.586529 211.493 43.0333
    endloop
  endfacet
  facet normal 3.06162e-17 2.22045e-16 -1
    outer loop
      vertex 0.884899 209.227 43.0333
      vertex 0.897778 209.224 43.0333
      vertex 0.586529 208.507 43.0333
    endloop
  endfacet
  facet normal 3.06162e-17 2.22045e-16 -1
    outer loop
      vertex -2.77301 207.115 43.0333
      vertex -3.5 207.402 43.0333
      vertex -3.49333 207.413 43.0333
    endloop
  endfacet
  facet normal 3.06162e-17 2.22045e-16 -1
    outer loop
      vertex 0.586529 208.507 43.0333
      vertex 0.598076 208.5 43.0333
      vertex 0.111892 207.888 43.0333
    endloop
  endfacet
  facet normal 3.06162e-17 2.22045e-16 -1
    outer loop
      vertex -3.49333 207.413 43.0333
      vertex -4.12132 207.879 43.0333
      vertex -4.11189 207.888 43.0333
    endloop
  endfacet
  facet normal 3.06162e-17 2.22045e-16 -1
    outer loop
      vertex -4.11189 207.888 43.0333
      vertex -4.59808 208.5 43.0333
      vertex -4.58653 208.507 43.0333
    endloop
  endfacet
  facet normal 3.06162e-17 2.22045e-16 -1
    outer loop
      vertex -4.58653 208.507 43.0333
      vertex -4.89778 209.224 43.0333
      vertex -4.8849 209.227 43.0333
    endloop
  endfacet
  facet normal 3.06162e-17 2.22045e-16 -1
    outer loop
      vertex -4.98667 210 43.0333
      vertex -5 210 43.0333
      vertex -4.8849 210.773 43.0333
    endloop
  endfacet
  facet normal 0 2.22045e-16 -1
    outer loop
      vertex -5 214.2 29
      vertex -5 222.2 29
      vertex 1 222.2 29
    endloop
  endfacet
  facet normal 0 2.22045e-16 -1
    outer loop
      vertex -5 214.2 29
      vertex 1 222.2 29
      vertex 1 214.2 29
    endloop
  endfacet
  facet normal 1 -1.09476e-47 4.93038e-32
    outer loop
      vertex 1 222.2 49
      vertex 1 214.2 49
      vertex 1 214.2 43.0333
    endloop
  endfacet
  facet normal 1 -1.09476e-47 4.93038e-32
    outer loop
      vertex 1 214.2 29
      vertex 1 222.2 49
      vertex 1 214.2 34.9667
    endloop
  endfacet
  facet normal 1 -1.09476e-47 4.93038e-32
    outer loop
      vertex 1 214.2 34.9667
      vertex 1 222.2 49
      vertex 1 214.2 43.0333
    endloop
  endfacet
  facet normal 1 -1.09476e-47 4.93038e-32
    outer loop
      vertex 1 222.2 29
      vertex 1 222.2 49
      vertex 1 214.2 29
    endloop
  endfacet
  facet normal -3.06162e-17 -2.22045e-16 1
    outer loop
      vertex -2 207.013 34.9667
      vertex -2 207 34.9667
      vertex -1.22354 207.102 34.9667
    endloop
  endfacet
  facet normal -3.06162e-17 -2.22045e-16 1
    outer loop
      vertex -2.77301 212.885 34.9667
      vertex -2 212.987 34.9667
      vertex 1 214.2 34.9667
    endloop
  endfacet
  facet normal -3.06162e-17 -2.22045e-16 1
    outer loop
      vertex -4.58653 208.507 34.9667
      vertex -4.8849 209.227 34.9667
      vertex -4.89778 209.224 34.9667
    endloop
  endfacet
  facet normal -3.06162e-17 -2.22045e-16 1
    outer loop
      vertex -3.49333 207.413 34.9667
      vertex -4.11189 207.888 34.9667
      vertex -4.12132 207.879 34.9667
    endloop
  endfacet
  facet normal -3.06162e-17 -2.22045e-16 1
    outer loop
      vertex -4.58653 211.493 34.9667
      vertex -4.11189 212.112 34.9667
      vertex -5 214.2 34.9667
    endloop
  endfacet
  facet normal -3.06162e-17 -2.22045e-16 1
    outer loop
      vertex -2.77646 207.102 34.9667
      vertex -2 207 34.9667
      vertex -2 207.013 34.9667
    endloop
  endfacet
  facet normal -3.06162e-17 -2.22045e-16 1
    outer loop
      vertex 0.884899 210.773 34.9667
      vertex 0.986667 210 34.9667
      vertex 1 210 34.9667
    endloop
  endfacet
  facet normal -3.06162e-17 -2.22045e-16 1
    outer loop
      vertex -3.5 207.402 34.9667
      vertex -3.49333 207.413 34.9667
      vertex -4.12132 207.879 34.9667
    endloop
  endfacet
  facet normal -3.06162e-17 -2.22045e-16 1
    outer loop
      vertex -3.5 207.402 34.9667
      vertex -2.77646 207.102 34.9667
      vertex -3.49333 207.413 34.9667
    endloop
  endfacet
  facet normal -3.06162e-17 -2.22045e-16 1
    outer loop
      vertex -4.12132 207.879 34.9667
      vertex -4.11189 207.888 34.9667
      vertex -4.59808 208.5 34.9667
    endloop
  endfacet
  facet normal -3.06162e-17 -2.22045e-16 1
    outer loop
      vertex -4.11189 207.888 34.9667
      vertex -4.58653 208.507 34.9667
      vertex -4.59808 208.5 34.9667
    endloop
  endfacet
  facet normal -3.06162e-17 -2.22045e-16 1
    outer loop
      vertex -4.59808 208.5 34.9667
      vertex -4.58653 208.507 34.9667
      vertex -4.89778 209.224 34.9667
    endloop
  endfacet
  facet normal -3.06162e-17 -2.22045e-16 1
    outer loop
      vertex -4.89778 209.224 34.9667
      vertex -4.8849 209.227 34.9667
      vertex -5 210 34.9667
    endloop
  endfacet
  facet normal -3.06162e-17 -2.22045e-16 1
    outer loop
      vertex -5 210 34.9667
      vertex -4.98667 210 34.9667
      vertex -5 214.2 34.9667
    endloop
  endfacet
  facet normal -3.06162e-17 -2.22045e-16 1
    outer loop
      vertex -4.98667 210 34.9667
      vertex -4.8849 210.773 34.9667
      vertex -5 214.2 34.9667
    endloop
  endfacet
  facet normal -3.06162e-17 -2.22045e-16 1
    outer loop
      vertex -4.8849 210.773 34.9667
      vertex -4.58653 211.493 34.9667
      vertex -5 214.2 34.9667
    endloop
  endfacet
  facet normal -3.06162e-17 -2.22045e-16 1
    outer loop
      vertex -2 212.987 34.9667
      vertex -1.22699 212.885 34.9667
      vertex 1 214.2 34.9667
    endloop
  endfacet
  facet normal -3.06162e-17 -2.22045e-16 1
    outer loop
      vertex -5 214.2 34.9667
      vertex -4.11189 212.112 34.9667
      vertex -3.49333 212.587 34.9667
    endloop
  endfacet
  facet normal -3.06162e-17 -2.22045e-16 1
    outer loop
      vertex -5 214.2 34.9667
      vertex -2.77301 212.885 34.9667
      vertex 1 214.2 34.9667
    endloop
  endfacet
  facet normal -3.06162e-17 -2.22045e-16 1
    outer loop
      vertex -5 214.2 34.9667
      vertex -3.49333 212.587 34.9667
      vertex -2.77301 212.885 34.9667
    endloop
  endfacet
  facet normal -3.06162e-17 -2.22045e-16 1
    outer loop
      vertex -1.22699 212.885 34.9667
      vertex -0.506667 212.587 34.9667
      vertex 1 214.2 34.9667
    endloop
  endfacet
  facet normal -3.06162e-17 -2.22045e-16 1
    outer loop
      vertex 0.986667 210 34.9667
      vertex 0.884899 209.227 34.9667
      vertex 1 210 34.9667
    endloop
  endfacet
  facet normal -3.06162e-17 -2.22045e-16 1
    outer loop
      vertex 1 214.2 34.9667
      vertex 0.111892 212.112 34.9667
      vertex 0.586529 211.493 34.9667
    endloop
  endfacet
  facet normal -3.06162e-17 -2.22045e-16 1
    outer loop
      vertex 1 214.2 34.9667
      vertex 0.884899 210.773 34.9667
      vertex 1 210 34.9667
    endloop
  endfacet
  facet normal -3.06162e-17 -2.22045e-16 1
    outer loop
      vertex 1 214.2 34.9667
      vertex 0.586529 211.493 34.9667
      vertex 0.884899 210.773 34.9667
    endloop
  endfacet
  facet normal -3.06162e-17 -2.22045e-16 1
    outer loop
      vertex -4.8849 209.227 34.9667
      vertex -4.98667 210 34.9667
      vertex -5 210 34.9667
    endloop
  endfacet
  facet normal -3.06162e-17 -2.22045e-16 1
    outer loop
      vertex 1 210 34.9667
      vertex 0.884899 209.227 34.9667
      vertex 0.897778 209.224 34.9667
    endloop
  endfacet
  facet normal -3.06162e-17 -2.22045e-16 1
    outer loop
      vertex 0.897778 209.224 34.9667
      vertex 0.586529 208.507 34.9667
      vertex 0.598076 208.5 34.9667
    endloop
  endfacet
  facet normal -3.06162e-17 -2.22045e-16 1
    outer loop
      vertex 0.598076 208.5 34.9667
      vertex 0.111892 207.888 34.9667
      vertex 0.12132 207.879 34.9667
    endloop
  endfacet
  facet normal -3.06162e-17 -2.22045e-16 1
    outer loop
      vertex -0.506667 212.587 34.9667
      vertex 0.111892 212.112 34.9667
      vertex 1 214.2 34.9667
    endloop
  endfacet
  facet normal -3.06162e-17 -2.22045e-16 1
    outer loop
      vertex 0.12132 207.879 34.9667
      vertex -0.506667 207.413 34.9667
      vertex -0.5 207.402 34.9667
    endloop
  endfacet
  facet normal -3.06162e-17 -2.22045e-16 1
    outer loop
      vertex -2.77301 207.115 34.9667
      vertex -3.49333 207.413 34.9667
      vertex -2.77646 207.102 34.9667
    endloop
  endfacet
  facet normal -3.06162e-17 -2.22045e-16 1
    outer loop
      vertex -0.5 207.402 34.9667
      vertex -1.22699 207.115 34.9667
      vertex -1.22354 207.102 34.9667
    endloop
  endfacet
  facet normal -3.06162e-17 -2.22045e-16 1
    outer loop
      vertex -1.22699 207.115 34.9667
      vertex -2 207.013 34.9667
      vertex -1.22354 207.102 34.9667
    endloop
  endfacet
  facet normal -3.06162e-17 -2.22045e-16 1
    outer loop
      vertex 0.884899 209.227 34.9667
      vertex 0.586529 208.507 34.9667
      vertex 0.897778 209.224 34.9667
    endloop
  endfacet
  facet normal -3.06162e-17 -2.22045e-16 1
    outer loop
      vertex 0.586529 208.507 34.9667
      vertex 0.111892 207.888 34.9667
      vertex 0.598076 208.5 34.9667
    endloop
  endfacet
  facet normal -3.06162e-17 -2.22045e-16 1
    outer loop
      vertex 0.111892 207.888 34.9667
      vertex -0.506667 207.413 34.9667
      vertex 0.12132 207.879 34.9667
    endloop
  endfacet
  facet normal -3.06162e-17 -2.22045e-16 1
    outer loop
      vertex -0.506667 207.413 34.9667
      vertex -1.22699 207.115 34.9667
      vertex -0.5 207.402 34.9667
    endloop
  endfacet
  facet normal -3.06162e-17 -2.22045e-16 1
    outer loop
      vertex -2 207.013 34.9667
      vertex -2.77301 207.115 34.9667
      vertex -2.77646 207.102 34.9667
    endloop
  endfacet
  facet normal -1 2.71926e-32 -1.22465e-16
    outer loop
      vertex -5 210 34.9667
      vertex -5 214.2 34.9667
      vertex -5 210 29
    endloop
  endfacet
  facet normal -1 2.71926e-32 -1.22465e-16
    outer loop
      vertex -5 210 29
      vertex -5 214.2 34.9667
      vertex -5 214.2 29
    endloop
  endfacet
  facet normal 0 1 2.22045e-16
    outer loop
      vertex -5 222.2 49
      vertex 1 222.2 49
      vertex -5 222.2 29
    endloop
  endfacet
  facet normal 0 1 2.22045e-16
    outer loop
      vertex -5 222.2 29
      vertex 1 222.2 49
      vertex 1 222.2 29
    endloop
  endfacet
  facet normal 0.0787457 0.598137 -0.797516
    outer loop
      vertex -2.77301 207.115 43.0333
      vertex -2 210 45.2733
      vertex -2 207.013 43.0333
    endloop
  endfacet
  facet normal 0.230873 0.557374 -0.797516
    outer loop
      vertex -3.49333 207.413 43.0333
      vertex -2 210 45.2733
      vertex -2.77301 207.115 43.0333
    endloop
  endfacet
  facet normal 0.367265 0.478628 -0.797516
    outer loop
      vertex -4.11189 207.888 43.0333
      vertex -2 210 45.2733
      vertex -3.49333 207.413 43.0333
    endloop
  endfacet
  facet normal 0.478628 0.367265 -0.797516
    outer loop
      vertex -4.58653 208.507 43.0333
      vertex -2 210 45.2733
      vertex -4.11189 207.888 43.0333
    endloop
  endfacet
  facet normal 0.557374 0.230873 -0.797516
    outer loop
      vertex -4.8849 209.227 43.0333
      vertex -2 210 45.2733
      vertex -4.58653 208.507 43.0333
    endloop
  endfacet
  facet normal 0.598137 0.0787457 -0.797516
    outer loop
      vertex -4.98667 210 43.0333
      vertex -2 210 45.2733
      vertex -4.8849 209.227 43.0333
    endloop
  endfacet
  facet normal 0.598137 -0.0787457 -0.797516
    outer loop
      vertex -4.8849 210.773 43.0333
      vertex -2 210 45.2733
      vertex -4.98667 210 43.0333
    endloop
  endfacet
  facet normal 0.557374 -0.230873 -0.797516
    outer loop
      vertex -4.8849 210.773 43.0333
      vertex -4.58653 211.493 43.0333
      vertex -2 210 45.2733
    endloop
  endfacet
  facet normal 0.478628 -0.367265 -0.797516
    outer loop
      vertex -4.58653 211.493 43.0333
      vertex -4.11189 212.112 43.0333
      vertex -2 210 45.2733
    endloop
  endfacet
  facet normal 0.367265 -0.478628 -0.797516
    outer loop
      vertex -4.11189 212.112 43.0333
      vertex -3.49333 212.587 43.0333
      vertex -2 210 45.2733
    endloop
  endfacet
  facet normal 0.230873 -0.557374 -0.797516
    outer loop
      vertex -3.49333 212.587 43.0333
      vertex -2.77301 212.885 43.0333
      vertex -2 210 45.2733
    endloop
  endfacet
  facet normal 0.0787457 -0.598137 -0.797516
    outer loop
      vertex -2.77301 212.885 43.0333
      vertex -2 212.987 43.0333
      vertex -2 210 45.2733
    endloop
  endfacet
  facet normal -0.0787457 -0.598137 -0.797516
    outer loop
      vertex -2 212.987 43.0333
      vertex -1.22699 212.885 43.0333
      vertex -2 210 45.2733
    endloop
  endfacet
  facet normal -0.230873 -0.557374 -0.797516
    outer loop
      vertex -1.22699 212.885 43.0333
      vertex -0.506666 212.587 43.0333
      vertex -2 210 45.2733
    endloop
  endfacet
  facet normal -0.367265 -0.478628 -0.797516
    outer loop
      vertex -0.506666 212.587 43.0333
      vertex 0.111892 212.112 43.0333
      vertex -2 210 45.2733
    endloop
  endfacet
  facet normal -0.478628 -0.367265 -0.797516
    outer loop
      vertex 0.111892 212.112 43.0333
      vertex 0.586529 211.493 43.0333
      vertex -2 210 45.2733
    endloop
  endfacet
  facet normal -0.557374 -0.230873 -0.797516
    outer loop
      vertex 0.586529 211.493 43.0333
      vertex 0.884899 210.773 43.0333
      vertex -2 210 45.2733
    endloop
  endfacet
  facet normal -0.598137 -0.0787457 -0.797516
    outer loop
      vertex 0.884899 210.773 43.0333
      vertex 0.986667 210 43.0333
      vertex -2 210 45.2733
    endloop
  endfacet
  facet normal -0.598137 0.0787457 -0.797516
    outer loop
      vertex -2 210 45.2733
      vertex 0.986667 210 43.0333
      vertex 0.884899 209.227 43.0333
    endloop
  endfacet
  facet normal -0.557374 0.230873 -0.797516
    outer loop
      vertex -2 210 45.2733
      vertex 0.884899 209.227 43.0333
      vertex 0.586529 208.507 43.0333
    endloop
  endfacet
  facet normal -0.478628 0.367265 -0.797516
    outer loop
      vertex -2 210 45.2733
      vertex 0.586529 208.507 43.0333
      vertex 0.111892 207.888 43.0333
    endloop
  endfacet
  facet normal -0.367265 0.478628 -0.797516
    outer loop
      vertex -2 210 45.2733
      vertex 0.111892 207.888 43.0333
      vertex -0.506666 207.413 43.0333
    endloop
  endfacet
  facet normal -0.230873 0.557374 -0.797516
    outer loop
      vertex -2 210 45.2733
      vertex -0.506666 207.413 43.0333
      vertex -1.22699 207.115 43.0333
    endloop
  endfacet
  facet normal -0.0787457 0.598137 -0.797516
    outer loop
      vertex -2 210 45.2733
      vertex -1.22699 207.115 43.0333
      vertex -2 207.013 43.0333
    endloop
  endfacet
  facet normal -0.130525 -0.991445 -2.3613e-16
    outer loop
      vertex -2 207 29
      vertex -2 207 34.9667
      vertex -2.77646 207.102 34.9667
    endloop
  endfacet
  facet normal -0.130525 -0.991445 -2.3613e-16
    outer loop
      vertex -2.77646 207.102 29
      vertex -2 207 29
      vertex -2.77646 207.102 34.9667
    endloop
  endfacet
  facet normal -0.382685 -0.923879 -2.52008e-16
    outer loop
      vertex -2.77646 207.102 29
      vertex -2.77646 207.102 34.9667
      vertex -3.5 207.402 34.9667
    endloop
  endfacet
  facet normal -0.382685 -0.923879 -2.52008e-16
    outer loop
      vertex -3.5 207.402 29
      vertex -2.77646 207.102 29
      vertex -3.5 207.402 34.9667
    endloop
  endfacet
  facet normal -0.608762 -0.793353 -2.50712e-16
    outer loop
      vertex -3.5 207.402 29
      vertex -3.5 207.402 34.9667
      vertex -4.12132 207.879 34.9667
    endloop
  endfacet
  facet normal -0.608762 -0.793353 -2.50712e-16
    outer loop
      vertex -4.12132 207.879 29
      vertex -3.5 207.402 29
      vertex -4.12132 207.879 34.9667
    endloop
  endfacet
  facet normal -0.793353 -0.608762 -2.3233e-16
    outer loop
      vertex -4.12132 207.879 34.9667
      vertex -4.59808 208.5 34.9667
      vertex -4.12132 207.879 29
    endloop
  endfacet
  facet normal -0.793353 -0.608762 -2.3233e-16
    outer loop
      vertex -4.12132 207.879 29
      vertex -4.59808 208.5 34.9667
      vertex -4.59808 208.5 29
    endloop
  endfacet
  facet normal -0.923879 -0.382685 -1.98116e-16
    outer loop
      vertex -4.59808 208.5 34.9667
      vertex -4.89778 209.224 34.9667
      vertex -4.59808 208.5 29
    endloop
  endfacet
  facet normal -0.923879 -0.382685 -1.98116e-16
    outer loop
      vertex -4.59808 208.5 29
      vertex -4.89778 209.224 34.9667
      vertex -4.89778 209.224 29
    endloop
  endfacet
  facet normal -0.991445 -0.130525 -1.50399e-16
    outer loop
      vertex -4.89778 209.224 34.9667
      vertex -5 210 34.9667
      vertex -4.89778 209.224 29
    endloop
  endfacet
  facet normal -0.991445 -0.130525 -1.50399e-16
    outer loop
      vertex -4.89778 209.224 29
      vertex -5 210 34.9667
      vertex -5 210 29
    endloop
  endfacet
  facet normal 1 -2.71926e-32 1.22465e-16
    outer loop
      vertex 1 214.2 34.9667
      vertex 1 210 34.9667
      vertex 1 210 29
    endloop
  endfacet
  facet normal 1 -2.71926e-32 1.22465e-16
    outer loop
      vertex 1 214.2 29
      vertex 1 214.2 34.9667
      vertex 1 210 29
    endloop
  endfacet
  facet normal 0.991445 -0.130525 9.24345e-17
    outer loop
      vertex 1 210 34.9667
      vertex 0.897778 209.224 34.9667
      vertex 0.897778 209.224 29
    endloop
  endfacet
  facet normal 0.991445 -0.130525 9.24345e-17
    outer loop
      vertex 1 210 29
      vertex 1 210 34.9667
      vertex 0.897778 209.224 29
    endloop
  endfacet
  facet normal 0.923879 -0.382685 2.81695e-17
    outer loop
      vertex 0.897778 209.224 34.9667
      vertex 0.598076 208.5 34.9667
      vertex 0.598076 208.5 29
    endloop
  endfacet
  facet normal 0.923879 -0.382685 2.81695e-17
    outer loop
      vertex 0.897778 209.224 29
      vertex 0.897778 209.224 34.9667
      vertex 0.598076 208.5 29
    endloop
  endfacet
  facet normal 0.793353 -0.608762 -3.80145e-17
    outer loop
      vertex 0.598076 208.5 34.9667
      vertex 0.12132 207.879 34.9667
      vertex 0.12132 207.879 29
    endloop
  endfacet
  facet normal 0.793353 -0.608762 -3.80145e-17
    outer loop
      vertex 0.598076 208.5 29
      vertex 0.598076 208.5 34.9667
      vertex 0.12132 207.879 29
    endloop
  endfacet
  facet normal 0.608762 -0.793353 -1.01608e-16
    outer loop
      vertex 0.12132 207.879 34.9667
      vertex -0.5 207.402 34.9667
      vertex -0.5 207.402 29
    endloop
  endfacet
  facet normal 0.608762 -0.793353 -1.01608e-16
    outer loop
      vertex 0.12132 207.879 29
      vertex 0.12132 207.879 34.9667
      vertex -0.5 207.402 29
    endloop
  endfacet
  facet normal 0.382685 -0.923879 -1.58277e-16
    outer loop
      vertex -0.5 207.402 34.9667
      vertex -1.22354 207.102 34.9667
      vertex -1.22354 207.102 29
    endloop
  endfacet
  facet normal 0.382685 -0.923879 -1.58277e-16
    outer loop
      vertex -0.5 207.402 29
      vertex -0.5 207.402 34.9667
      vertex -1.22354 207.102 29
    endloop
  endfacet
  facet normal 0.130525 -0.991445 -2.0416e-16
    outer loop
      vertex -1.22354 207.102 34.9667
      vertex -2 207 34.9667
      vertex -2 207 29
    endloop
  endfacet
  facet normal 0.130525 -0.991445 -2.0416e-16
    outer loop
      vertex -1.22354 207.102 29
      vertex -1.22354 207.102 34.9667
      vertex -2 207 29
    endloop
  endfacet
  facet normal 0.0787457 0.598137 0.797516
    outer loop
      vertex -2 210 32.7267
      vertex -2.77301 207.115 34.9667
      vertex -2 207.013 34.9667
    endloop
  endfacet
  facet normal -0.0787457 0.598137 0.797516
    outer loop
      vertex -1.22699 207.115 34.9667
      vertex -2 210 32.7267
      vertex -2 207.013 34.9667
    endloop
  endfacet
  facet normal -0.230873 0.557374 0.797516
    outer loop
      vertex -0.506667 207.413 34.9667
      vertex -2 210 32.7267
      vertex -1.22699 207.115 34.9667
    endloop
  endfacet
  facet normal -0.367265 0.478628 0.797516
    outer loop
      vertex 0.111892 207.888 34.9667
      vertex -2 210 32.7267
      vertex -0.506667 207.413 34.9667
    endloop
  endfacet
  facet normal -0.478628 0.367265 0.797516
    outer loop
      vertex 0.586529 208.507 34.9667
      vertex -2 210 32.7267
      vertex 0.111892 207.888 34.9667
    endloop
  endfacet
  facet normal -0.557374 0.230873 0.797516
    outer loop
      vertex 0.884899 209.227 34.9667
      vertex -2 210 32.7267
      vertex 0.586529 208.507 34.9667
    endloop
  endfacet
  facet normal -0.598137 0.0787457 0.797516
    outer loop
      vertex 0.986667 210 34.9667
      vertex -2 210 32.7267
      vertex 0.884899 209.227 34.9667
    endloop
  endfacet
  facet normal -0.598137 -0.0787457 0.797516
    outer loop
      vertex 0.986667 210 34.9667
      vertex 0.884899 210.773 34.9667
      vertex -2 210 32.7267
    endloop
  endfacet
  facet normal -0.557374 -0.230873 0.797516
    outer loop
      vertex 0.884899 210.773 34.9667
      vertex 0.586529 211.493 34.9667
      vertex -2 210 32.7267
    endloop
  endfacet
  facet normal -0.478628 -0.367265 0.797516
    outer loop
      vertex 0.586529 211.493 34.9667
      vertex 0.111892 212.112 34.9667
      vertex -2 210 32.7267
    endloop
  endfacet
  facet normal -0.367265 -0.478628 0.797516
    outer loop
      vertex 0.111892 212.112 34.9667
      vertex -0.506667 212.587 34.9667
      vertex -2 210 32.7267
    endloop
  endfacet
  facet normal -0.230873 -0.557374 0.797516
    outer loop
      vertex -0.506667 212.587 34.9667
      vertex -1.22699 212.885 34.9667
      vertex -2 210 32.7267
    endloop
  endfacet
  facet normal -0.0787457 -0.598137 0.797516
    outer loop
      vertex -1.22699 212.885 34.9667
      vertex -2 212.987 34.9667
      vertex -2 210 32.7267
    endloop
  endfacet
  facet normal 0.0787457 -0.598137 0.797516
    outer loop
      vertex -2 212.987 34.9667
      vertex -2.77301 212.885 34.9667
      vertex -2 210 32.7267
    endloop
  endfacet
  facet normal 0.230873 -0.557374 0.797516
    outer loop
      vertex -2.77301 212.885 34.9667
      vertex -3.49333 212.587 34.9667
      vertex -2 210 32.7267
    endloop
  endfacet
  facet normal 0.367265 -0.478628 0.797516
    outer loop
      vertex -3.49333 212.587 34.9667
      vertex -4.11189 212.112 34.9667
      vertex -2 210 32.7267
    endloop
  endfacet
  facet normal 0.478628 -0.367265 0.797516
    outer loop
      vertex -4.11189 212.112 34.9667
      vertex -4.58653 211.493 34.9667
      vertex -2 210 32.7267
    endloop
  endfacet
  facet normal 0.557374 -0.230873 0.797516
    outer loop
      vertex -4.58653 211.493 34.9667
      vertex -4.8849 210.773 34.9667
      vertex -2 210 32.7267
    endloop
  endfacet
  facet normal 0.598137 -0.0787457 0.797516
    outer loop
      vertex -2 210 32.7267
      vertex -4.8849 210.773 34.9667
      vertex -4.98667 210 34.9667
    endloop
  endfacet
  facet normal 0.598137 0.0787457 0.797516
    outer loop
      vertex -2 210 32.7267
      vertex -4.98667 210 34.9667
      vertex -4.8849 209.227 34.9667
    endloop
  endfacet
  facet normal 0.557374 0.230873 0.797516
    outer loop
      vertex -2 210 32.7267
      vertex -4.8849 209.227 34.9667
      vertex -4.58653 208.507 34.9667
    endloop
  endfacet
  facet normal 0.478628 0.367265 0.797516
    outer loop
      vertex -2 210 32.7267
      vertex -4.58653 208.507 34.9667
      vertex -4.11189 207.888 34.9667
    endloop
  endfacet
  facet normal 0.367265 0.478628 0.797516
    outer loop
      vertex -2 210 32.7267
      vertex -4.11189 207.888 34.9667
      vertex -3.49333 207.413 34.9667
    endloop
  endfacet
  facet normal 0.230873 0.557374 0.797516
    outer loop
      vertex -2 210 32.7267
      vertex -3.49333 207.413 34.9667
      vertex -2.77301 207.115 34.9667
    endloop
  endfacet
  facet normal 3.06162e-17 2.22045e-16 -1
    outer loop
      vertex -2 207 29
      vertex -2.77646 207.102 29
      vertex -1.22354 207.102 29
    endloop
  endfacet
  facet normal 3.06162e-17 2.22045e-16 -1
    outer loop
      vertex -1.22354 207.102 29
      vertex -2.77646 207.102 29
      vertex -3.5 207.402 29
    endloop
  endfacet
  facet normal 3.06162e-17 2.22045e-16 -1
    outer loop
      vertex -1.22354 207.102 29
      vertex -3.5 207.402 29
      vertex -4.12132 207.879 29
    endloop
  endfacet
  facet normal 3.06162e-17 2.22045e-16 -1
    outer loop
      vertex -1.22354 207.102 29
      vertex -4.12132 207.879 29
      vertex -4.59808 208.5 29
    endloop
  endfacet
  facet normal 3.06162e-17 2.22045e-16 -1
    outer loop
      vertex -1.22354 207.102 29
      vertex -4.59808 208.5 29
      vertex -4.89778 209.224 29
    endloop
  endfacet
  facet normal 3.06162e-17 2.22045e-16 -1
    outer loop
      vertex -1.22354 207.102 29
      vertex -4.89778 209.224 29
      vertex -5 210 29
    endloop
  endfacet
  facet normal 3.06162e-17 2.22045e-16 -1
    outer loop
      vertex -1.22354 207.102 29
      vertex -5 210 29
      vertex -5 214.2 29
    endloop
  endfacet
  facet normal 3.06162e-17 2.22045e-16 -1
    outer loop
      vertex -1.22354 207.102 29
      vertex -5 214.2 29
      vertex 1 214.2 29
    endloop
  endfacet
  facet normal 3.06162e-17 2.22045e-16 -1
    outer loop
      vertex -1.22354 207.102 29
      vertex 1 214.2 29
      vertex 1 210 29
    endloop
  endfacet
  facet normal 3.06162e-17 2.22045e-16 -1
    outer loop
      vertex -1.22354 207.102 29
      vertex 1 210 29
      vertex 0.897778 209.224 29
    endloop
  endfacet
  facet normal 3.06162e-17 2.22045e-16 -1
    outer loop
      vertex -1.22354 207.102 29
      vertex 0.897778 209.224 29
      vertex 0.598076 208.5 29
    endloop
  endfacet
  facet normal 3.06162e-17 2.22045e-16 -1
    outer loop
      vertex -1.22354 207.102 29
      vertex 0.598076 208.5 29
      vertex 0.12132 207.879 29
    endloop
  endfacet
  facet normal 3.06162e-17 2.22045e-16 -1
    outer loop
      vertex -1.22354 207.102 29
      vertex 0.12132 207.879 29
      vertex -0.5 207.402 29
    endloop
  endfacet
endsolid OpenSCAD_Model
